<?xml version="1.0" encoding="UTF-8" standalone="no"?>
<!-- Created with Inkscape (http://www.inkscape.org/) -->
<svg
   xmlns:dc="http://purl.org/dc/elements/1.1/"
   xmlns:cc="http://web.resource.org/cc/"
   xmlns:rdf="http://www.w3.org/1999/02/22-rdf-syntax-ns#"
   xmlns:svg="http://www.w3.org/2000/svg"
   xmlns="http://www.w3.org/2000/svg"
   xmlns:sodipodi="http://sodipodi.sourceforge.net/DTD/sodipodi-0.dtd"
   xmlns:inkscape="http://www.inkscape.org/namespaces/inkscape"
   version="1.0"
   width="612"
   height="485.97656"
   viewBox="0.00024 -0.00024 612 485.97656"
   id="Layer_1"
   xml:space="preserve"
   sodipodi:version="0.32"
   inkscape:version="0.45.1"
   sodipodi:docname="Endomembrane system diagram de2.svg"
   inkscape:output_extension="org.inkscape.output.svg.inkscape"
   sodipodi:docbase="C:\Dokumente und Einstellungen\Andreas\Desktop"><metadata
   id="metadata459"><rdf:RDF><cc:Work
       rdf:about=""><dc:format>image/svg+xml</dc:format><dc:type
         rdf:resource="http://purl.org/dc/dcmitype/StillImage" /></cc:Work></rdf:RDF></metadata><sodipodi:namedview
   inkscape:window-height="712"
   inkscape:window-width="1024"
   inkscape:pageshadow="2"
   inkscape:pageopacity="0.0"
   guidetolerance="10.0"
   gridtolerance="10.0"
   objecttolerance="10.0"
   borderopacity="1.0"
   bordercolor="#666666"
   pagecolor="#ffffff"
   id="base"
   inkscape:zoom="0.77575758"
   inkscape:cx="306"
   inkscape:cy="242.98828"
   inkscape:window-x="-4"
   inkscape:window-y="-4"
   inkscape:current-layer="Layer_1" /><defs
   id="defs4310" />
<path
   d="M 224.23267,328.9314 C 233.13208,317.19117 206.76978,309.91382 211.37476,326.41187 C 213.15405,332.78491 220.31226,334.09741 224.23267,328.9314 z "
   style="fill:#00421c"
   id="path3256" />
<path
   d="M 199.55103,278.22827 C 190.07349,280.11108 180.67457,291.42554 193.84742,295.98413 C 201.1482,298.50952 211.27125,291.26538 208.83961,282.23804 C 206.57788,273.83569 204.8479,277.17749 199.55103,278.22827 z "
   style="fill:#006e3a"
   id="path3258" />
<path
   d="M 209.88892,341.19702 C 203.9397,344.31811 200.77417,351.69311 201.84058,358.20288 C 202.91919,364.78882 211.7146,371.63257 218.35572,368.29272 C 222.35035,366.28491 224.28492,360.00756 225.15601,356.04077 C 227.68091,344.53296 222.38745,334.64233 209.88892,341.19702 z "
   style="fill:#ed1c24"
   id="path3260" />
<path
   d="M 103.05151,17.53491 C 103.05151,17.53491 88.42114,222.2854 138.13794,300.27319 C 140.75122,304.3728 143.41284,308.44116 146.13159,312.47046 C 175.54321,356.05054 212.17163,395.02124 258.39917,420.88843 C 285.18774,435.88062 314.40649,446.14429 344.52173,451.95288 C 359.5979,454.86304 374.31079,454.97241 389.51978,456.37671 C 405.13892,457.81616 419.61548,458.63257 434.36939,452.42749 C 435.30103,456.46655 435.84009,460.91577 436.31861,464.87866 C 400.99048,470.26343 364.89673,470.22241 329.42994,466.19897 C 311.65748,464.1853 294.00123,461.14428 276.57203,457.13452 C 267.95533,455.1521 259.3943,452.92944 250.90211,450.4685 C 244.56178,448.63061 237.94264,448.25756 235.25416,441.656 C 232.22779,434.22631 230.07691,431.48022 221.9651,430.95873 C 216.41871,430.60131 211.07692,432.48021 205.56862,432.61693 C 197.5613,432.81224 189.9363,427.9763 182.90895,424.5681 C 175.11207,420.7888 167.44069,416.74388 159.93678,412.4099 C 145.86989,404.2849 132.34791,395.14037 119.87184,384.72045 C 108.63991,375.33764 98.20582,364.90014 89.3987,353.18725 C 81.33522,342.46264 77.31423,330.72631 70.8738,319.3142 C 70.85962,319.28687 -46.08521,112.05884 103.05151,17.53491 z "
   style="fill:#004343"
   id="path3262" />
<path
   d="M 226.99438,249.87476 C 214.85229,244.41773 214.81713,260.65015 220.04272,266.67359 C 226.00317,273.54273 232.54467,271.94312 232.10668,262.25757 C 231.91235,257.98218 232.07056,252.15601 226.99438,249.87476 z "
   style="fill:#006e3a"
   id="path3264" />
<radialGradient
   cx="259.48267"
   cy="316.90796"
   r="2.19385"
   id="XMLID_416_"
   gradientUnits="userSpaceOnUse"
   gradientTransform="matrix(1,0,0,-1,-5.518e-2,484.27881)">
	<stop
   style="stop-color:#ffffff;stop-opacity:1"
   offset="0"
   id="stop3267" />
	<stop
   style="stop-color:#c0272d;stop-opacity:1"
   offset="1"
   id="stop3269" />
</radialGradient>
<circle
   cx="259.42749"
   cy="167.36963"
   r="2.1935999"
   style="fill:url(#XMLID_416_)"
   id="circle3271" />
<radialGradient
   cx="350.71313"
   cy="218.12476"
   r="2.1933601"
   id="XMLID_417_"
   gradientUnits="userSpaceOnUse"
   gradientTransform="matrix(1,0,0,-1,-5.518e-2,484.27881)">
	<stop
   style="stop-color:#ffffff;stop-opacity:1"
   offset="0"
   id="stop3274" />
	<stop
   style="stop-color:#c0272d;stop-opacity:1"
   offset="1"
   id="stop3276" />
</radialGradient>
<circle
   cx="350.65649"
   cy="266.15405"
   r="2.1933601"
   style="fill:url(#XMLID_417_)"
   id="circle3278" />
<radialGradient
   cx="246.34692"
   cy="359.7771"
   r="2.1933601"
   id="XMLID_418_"
   gradientUnits="userSpaceOnUse"
   gradientTransform="matrix(1,0,0,-1,-5.518e-2,484.27881)">
	<stop
   style="stop-color:#ffffff;stop-opacity:1"
   offset="0"
   id="stop3281" />
	<stop
   style="stop-color:#c0272d;stop-opacity:1"
   offset="1"
   id="stop3283" />
</radialGradient>
<circle
   cx="246.29175"
   cy="124.50073"
   r="2.1933601"
   style="fill:url(#XMLID_418_)"
   id="circle3285" />
<radialGradient
   cx="252.85181"
   cy="398.17749"
   r="2.1933601"
   id="XMLID_419_"
   gradientUnits="userSpaceOnUse"
   gradientTransform="matrix(1,0,0,-1,-5.518e-2,484.27881)">
	<stop
   style="stop-color:#ffffff;stop-opacity:1"
   offset="0"
   id="stop3288" />
	<stop
   style="stop-color:#c0272d;stop-opacity:1"
   offset="1"
   id="stop3290" />
</radialGradient>
<circle
   cx="252.79663"
   cy="86.100594"
   r="2.1935999"
   style="fill:url(#XMLID_419_)"
   id="circle3292" />
<radialGradient
   cx="261.63501"
   cy="414.10913"
   r="2.1933601"
   id="XMLID_420_"
   gradientUnits="userSpaceOnUse"
   gradientTransform="matrix(1,0,0,-1,-5.518e-2,484.27881)">
	<stop
   style="stop-color:#ffffff;stop-opacity:1"
   offset="0"
   id="stop3295" />
	<stop
   style="stop-color:#c0272d;stop-opacity:1"
   offset="1"
   id="stop3297" />
</radialGradient>
<circle
   cx="261.57983"
   cy="70.168701"
   r="2.1933601"
   style="fill:url(#XMLID_420_)"
   id="circle3299" />
<radialGradient
   cx="252.927"
   cy="343.23999"
   r="2.1933601"
   id="XMLID_421_"
   gradientUnits="userSpaceOnUse"
   gradientTransform="matrix(1,0,0,-1,-5.518e-2,484.27881)">
	<stop
   style="stop-color:#ffffff;stop-opacity:1"
   offset="0"
   id="stop3302" />
	<stop
   style="stop-color:#c0272d;stop-opacity:1"
   offset="1"
   id="stop3304" />
</radialGradient>
<circle
   cx="252.87183"
   cy="141.03906"
   r="2.1935999"
   style="fill:url(#XMLID_421_)"
   id="circle3306" />
<radialGradient
   cx="250.65845"
   cy="386.69116"
   r="2.1933601"
   id="XMLID_422_"
   gradientUnits="userSpaceOnUse"
   gradientTransform="matrix(1,0,0,-1,-5.518e-2,484.27881)">
	<stop
   style="stop-color:#ffffff;stop-opacity:1"
   offset="0"
   id="stop3309" />
	<stop
   style="stop-color:#c0272d;stop-opacity:1"
   offset="1"
   id="stop3311" />
</radialGradient>
<circle
   cx="250.60327"
   cy="97.58667"
   r="2.1933601"
   style="fill:url(#XMLID_422_)"
   id="circle3313" />
<radialGradient
   cx="286.823"
   cy="251.51343"
   r="2.1935999"
   id="XMLID_423_"
   gradientUnits="userSpaceOnUse"
   gradientTransform="matrix(1,0,0,-1,-5.518e-2,484.27881)">
	<stop
   style="stop-color:#ffffff;stop-opacity:1"
   offset="0"
   id="stop3316" />
	<stop
   style="stop-color:#c0272d;stop-opacity:1"
   offset="1"
   id="stop3318" />
</radialGradient>
<circle
   cx="286.76831"
   cy="232.76587"
   r="2.1933601"
   style="fill:url(#XMLID_423_)"
   id="circle3320" />
<radialGradient
   cx="318.50024"
   cy="216.32202"
   r="2.1933601"
   id="XMLID_424_"
   gradientUnits="userSpaceOnUse"
   gradientTransform="matrix(1,0,0,-1,-5.518e-2,484.27881)">
	<stop
   style="stop-color:#ffffff;stop-opacity:1"
   offset="0"
   id="stop3323" />
	<stop
   style="stop-color:#c0272d;stop-opacity:1"
   offset="1"
   id="stop3325" />
</radialGradient>
<circle
   cx="318.4436"
   cy="267.95679"
   r="2.1933601"
   style="fill:url(#XMLID_424_)"
   id="circle3327" />
<radialGradient
   cx="557.38306"
   cy="310.00366"
   r="2.1933601"
   id="XMLID_425_"
   gradientUnits="userSpaceOnUse"
   gradientTransform="matrix(1,0,0,-1,-5.518e-2,484.27881)">
	<stop
   style="stop-color:#ffffff;stop-opacity:1"
   offset="0"
   id="stop3330" />
	<stop
   style="stop-color:#c0272d;stop-opacity:1"
   offset="1"
   id="stop3332" />
</radialGradient>
<circle
   cx="557.32642"
   cy="174.27466"
   r="2.1933601"
   style="fill:url(#XMLID_425_)"
   id="circle3334" />
<radialGradient
   cx="453.8772"
   cy="238.44116"
   r="2.19385"
   id="XMLID_426_"
   gradientUnits="userSpaceOnUse"
   gradientTransform="matrix(1,0,0,-1,-5.518e-2,484.27881)">
	<stop
   style="stop-color:#ffffff;stop-opacity:1"
   offset="0"
   id="stop3337" />
	<stop
   style="stop-color:#c0272d;stop-opacity:1"
   offset="1"
   id="stop3339" />
</radialGradient>
<circle
   cx="453.82251"
   cy="245.83765"
   r="2.1933601"
   style="fill:url(#XMLID_426_)"
   id="circle3341" />
<radialGradient
   cx="483.44946"
   cy="247.19702"
   r="2.1933601"
   id="XMLID_427_"
   gradientUnits="userSpaceOnUse"
   gradientTransform="matrix(1,0,0,-1,-5.518e-2,484.27881)">
	<stop
   style="stop-color:#ffffff;stop-opacity:1"
   offset="0"
   id="stop3344" />
	<stop
   style="stop-color:#c0272d;stop-opacity:1"
   offset="1"
   id="stop3346" />
</radialGradient>
<circle
   cx="483.39478"
   cy="237.08228"
   r="2.1933601"
   style="fill:url(#XMLID_427_)"
   id="circle3348" />
<radialGradient
   cx="511.80103"
   cy="262.36694"
   r="2.1933601"
   id="XMLID_428_"
   gradientUnits="userSpaceOnUse"
   gradientTransform="matrix(1,0,0,-1,-5.518e-2,484.27881)">
	<stop
   style="stop-color:#ffffff;stop-opacity:1"
   offset="0"
   id="stop3351" />
	<stop
   style="stop-color:#c0272d;stop-opacity:1"
   offset="1"
   id="stop3353" />
</radialGradient>
<circle
   cx="511.74438"
   cy="221.91211"
   r="2.1935999"
   style="fill:url(#XMLID_428_)"
   id="circle3355" />
<path
   d="M 253.66675,112.72729 C 249.52661,109.12573 240.7688,112.78344 236.29468,113.74047 C 231.83081,114.69604 230.45191,114.80346 229.6438,119.96899 C 228.56226,126.88354 234.87818,134.17602 232.04859,140.93823 C 229.12964,147.9143 221.8108,149.29028 218.00074,142.34253 C 214.80982,136.52271 218.37574,132.80151 221.50806,127.89673 C 225.37964,121.8313 221.9773,117.3523 227.03052,111.94946 C 232.56079,106.03735 238.24146,106.48608 245.37281,104.9978 C 254.50855,103.09009 256.3982,96.31176 258.44849,87.61548 C 255.37867,90.07349 252.01294,89.78198 249.74634,91.15747 C 247.02466,92.80933 245.25855,95.92554 242.7732,97.84839 C 231.18238,106.81714 235.95191,90.45532 238.18824,83.64526 C 238.80592,81.76538 240.39185,81.12817 240.69361,78.98266 C 240.85181,77.85912 239.52955,75.57885 239.66871,74.43383 C 240.09986,70.87231 241.36891,68.83129 244.10475,66.11401 C 246.98463,63.25317 251.19166,61.84155 253.54469,58.52563 C 249.71705,56.72729 245.57643,54.30639 241.73317,54.11303 C 239.20192,53.98657 236.15944,55.26049 236.2776,51.28686 C 228.03199,48.97143 223.61403,48.04516 215.55494,52.02563 C 208.26344,55.62573 201.96803,60.84106 195.33082,65.46411 C 190.01832,69.16431 173.95875,79.43921 179.86256,86.61841 C 183.03346,90.47486 192.00514,89.41089 195.99488,87.91968 C 200.9939,86.052 203.72633,81.42261 206.24927,76.88794 C 208.85572,72.20239 209.58423,70.67993 214.82788,67.1062 C 217.86645,65.03442 222.12768,61.0188 225.73315,60.64282 C 236.55444,59.51587 220.63794,71.16723 221.80395,75.26489 C 222.58569,78.0105 226.92504,78.39624 228.61743,79.49096 C 235.35473,83.84741 232.13696,88.14916 230.42554,95.73754 C 229.38208,100.36156 222.74195,115.57934 215.76441,113.56518 C 207.21656,111.09741 218.63404,101.25854 219.69068,97.97778 C 222.03736,90.69214 209.75757,90.54272 204.89527,91.27856 C 198.50269,92.24682 196.12916,96.09008 201.01881,100.80737 C 203.35133,103.05688 204.42115,101.23266 204.4402,104.81811 C 204.45583,107.86938 202.56227,109.09643 203.34547,112.61499 C 204.56715,118.10132 208.15113,122.20435 207.86402,128.20044 C 207.56959,134.34058 203.48463,139.31226 202.94117,145.27368 C 202.09351,154.57202 210.62281,155.30688 212.7649,161.96802 C 214.88746,168.56812 204.80006,175.61402 201.92506,180.8396 C 202.68971,182.95337 203.99977,184.76001 205.76002,185.98511 C 204.30982,184.97632 214.92848,173.82837 216.43287,173.16822 C 224.26002,169.7356 222.40943,175.20386 223.91676,181.24439 C 227.48854,195.55591 240.56227,203.07007 252.57985,209.66822 C 256.5696,211.85963 265.72389,214.1692 268.10231,218.13843 C 271.91872,224.51001 264.16188,234.56372 262.92213,240.82447 C 261.51442,247.94117 264.15602,253.72828 269.38844,258.78101 C 270.93824,258.30445 272.50221,257.13843 273.26979,255.91578 C 266.38649,251.72437 265.64674,240.35279 270.55934,234.29713 C 276.74928,226.66822 292.14332,223.761 280.34791,211.14088 C 277.83619,208.45436 271.60279,208.56861 268.16676,207.07789 C 263.00807,204.83766 257.2361,202.78639 252.70729,199.37525 C 248.94752,196.5442 245.53395,194.11451 242.93776,190.11597 C 240.92897,187.02368 241.43532,184.23951 240.04372,181.34253 C 237.83278,176.73853 233.01686,175.89185 231.71559,170.13257 C 228.34547,155.2146 244.29713,146.61304 256.93873,150.19556 C 257.91187,149.06177 258.89625,146.82349 258.93336,145.38599 C 247.20924,144.99488 234.37721,146.72437 238.66969,130.16431 C 239.30397,127.72046 240.1941,125.12232 242.54713,123.80298 C 246.05152,121.83716 246.47828,124.30835 249.13795,124.92163 C 252.57496,125.71362 253.15553,126.42407 254.75416,122.99487 C 255.85083,120.64038 255.65649,114.45728 253.66675,112.72729 z "
   style="fill:#6d2224"
   id="path3357" />
<path
   d="M 276.31958,60.94458 C 275.41235,61.37817 274.50513,61.92261 273.59888,62.59644 C 266.97193,67.52613 263.42603,76.77955 260.59156,84.23658 C 257.08472,93.46363 252.34058,103.07203 252.6731,113.06812 C 253.09644,125.81177 257.37281,136.28394 250.62622,148.25904 C 247.99097,152.93531 243.61157,156.26636 243.02026,161.84498 C 242.56274,166.16139 244.57055,172.04518 241.99536,175.89186 C 238.94018,180.45875 229.39526,182.0193 224.4314,183.36989 C 218.77173,184.91042 214.95142,185.21999 209.51001,182.67897 C 208.19312,182.06374 194.74146,171.51881 199.97827,169.43288 C 202.09009,168.59206 204.23364,168.08962 206.45874,167.92214 C 206.65747,164.62234 203.34155,151.81569 198.58765,151.72829 C 195.90259,151.67946 193.97486,156.70827 190.23999,156.94216 C 185.65991,157.22439 177.02612,150.4695 176.98364,145.51247 C 176.92651,139.00759 183.40014,140.34499 187.53198,137.37575 C 189.96802,135.62429 190.1936,132.34743 192.84106,130.94411 C 195.96362,129.28932 198.84252,132.44362 201.33667,128.3738 C 204.83618,122.66237 197.44507,119.02663 192.76392,119.11745 C 190.21265,119.16677 187.18433,119.74245 185.07642,121.38942 C 181.7815,123.96413 183.68775,125.20436 182.50806,126.93141 C 179.86158,130.80592 175.59449,132.9612 176.62769,125.12623 C 177.16236,121.07057 180.1355,116.20875 182.33277,113.42603 C 189.58716,104.23902 192.75172,96.29371 196.71949,85.63404 C 194.82301,88.47388 179.97486,90.52076 179.32545,86.88404 C 180.42311,93.0359 181.23414,100.97877 180.05299,107.12574 C 178.95875,112.81226 175.1482,118.01392 172.73756,123.1897 C 165.53004,138.6731 165.95094,152.32056 178.42213,165.27222 C 184.84791,171.94507 196.65602,176.47095 201.04664,184.90845 C 209.02125,200.23316 196.35768,219.29322 212.65064,232.42993 C 223.68238,241.32544 240.3396,228.47632 252.64527,231.50366 C 259.46754,233.18188 260.42017,238.07055 264.48902,242.64673 C 266.14478,244.50952 267.87623,244.88257 269.62427,246.27905 C 273.22876,249.15796 274.99829,254.71264 279.12427,256.93921 C 283.47339,259.28687 287.76685,253.89429 290.70288,258.20093 C 293.18823,261.84741 288.63599,267.19507 285.01733,267.47046 C 280.88647,267.78296 278.00366,263.38843 275.79321,260.40601 C 275.06518,259.42359 273.3103,263.10132 273.21997,263.44312 C 272.64526,265.62867 275.01831,268.47632 276.24097,269.97828 C 279.62915,274.14625 285.39527,275.23805 284.26929,282.28883 C 280.19898,283.5193 275.43238,286.71071 271.36939,286.80641 C 267.33375,286.90211 264.63209,283.5525 260.32056,284.82399 C 249.44361,288.03297 262.49683,313.09547 273.3191,310.85133 C 279.92115,309.48219 267.68238,296.47438 282.45191,293.94117 C 288.78052,292.85523 289.93238,294.04469 292.79908,287.45875 C 293.58521,285.6482 294.71949,280.41578 296.71558,279.63844 C 300.1438,278.3025 301.07886,284.14625 303.99195,286.20485 C 308.7522,283.97243 306.15943,268.15797 303.71754,264.15602 C 301.93531,261.23805 298.7776,262.08961 298.67018,257.06227 C 298.58913,253.30055 300.87672,249.47829 304.92653,249.81227 C 304.02419,245.73414 299.93727,239.72584 295.46755,238.96901 C 291.60329,238.31569 288.05984,242.85378 283.87966,242.75514 C 277.23952,242.59791 274.12282,237.15455 270.70583,232.38893 C 265.37575,224.95485 258.87526,221.29713 249.74636,220.21852 C 242.30935,219.33961 209.71462,225.06422 216.69753,206.69997 C 218.06179,203.11208 219.63747,203.86794 222.41628,202.71755 C 226.40603,201.06618 227.28786,199.8572 230.26247,197.29616 C 235.53591,192.75514 241.01833,194.47438 246.35915,191.20876 C 249.22683,189.45632 249.23513,186.77175 252.68435,187.27614 C 254.59011,187.55593 258.69802,192.10768 260.5115,193.40798 C 264.37966,196.18337 269.98709,198.34157 273.18875,202.15603 C 272.18631,198.68337 269.41385,192.8196 266.87039,190.23611 C 264.79178,188.12429 261.21707,187.08474 259.13016,184.75418 C 256.91336,182.27713 257.03299,180.28201 256.09452,177.44314 C 254.68534,173.18289 251.91679,169.6697 252.79276,164.7698 C 253.29081,161.9822 255.62235,156.41775 258.54276,155.55837 C 261.59696,173.90066 270.27665,193.24831 279.33182,209.41433 C 289.48514,227.53933 302.29911,244.39431 319.0745,256.87869 C 323.09989,259.87674 328.01005,264.30057 333.24833,264.68533 C 335.99833,264.8865 341.57646,263.3201 336.96317,259.99002 C 350.77958,269.96268 369.66044,273.63846 386.08036,276.26932 C 392.31083,277.26541 399.83817,276.13455 405.90263,274.74198 C 409.20927,273.98417 418.60771,271.2576 418.47294,266.74393 C 418.32841,261.84549 405.93388,258.76151 402.39872,257.29666 C 400.19559,256.38455 407.91239,253.52127 408.30106,253.39432 C 411.81864,252.25174 416.87528,251.50565 419.63114,248.83963 C 428.19559,240.55106 427.04325,229.47586 417.06864,222.99832 C 408.85966,217.66629 399.93583,214.43045 392.17411,208.06131 C 382.92216,200.47098 373.74833,192.14578 366.17606,182.82742 C 353.74051,167.51638 356.35379,143.01443 354.45926,124.35232 C 353.81473,117.99685 353.38699,110.90505 349.28348,105.78152 C 343.29715,98.30838 335.84793,92.34207 330.15067,84.46414 C 327.91434,81.37088 325.80106,78.89285 323.48465,75.42947 L 276.31958,60.94458 z "
   style="fill:#971b1e"
   id="path3359" />
<path
   d="M 317.51196,75.08325 L 571.56665,142.2395 C 571.56665,142.2395 522.23267,264.85522 409.79907,245.35913 C 389.41821,241.82349 369.64282,234.05005 353.67407,220.68042 C 344.4436,212.95093 336.3479,203.62231 330.13305,193.30542 C 327.2893,188.58423 324.90258,183.59937 324.07836,178.10278 C 323.30102,172.89965 324.53734,167.58374 323.36156,162.40405 C 321.77953,155.43237 315.46703,150.80493 313.66625,143.9685 C 311.62719,136.22387 312.34398,127.75952 312.24242,119.83715 C 312.1682,113.98852 312.47777,108.19945 312.96312,102.37914 C 312.96313,102.37622 314.26294,86.78052 317.51196,75.08325 z "
   style="fill:#ffc20e"
   id="path3361" />
<path
   d="M 570.64868,142.9353 C 569.34204,144.24145 567.46509,145.10327 565.85766,145.95434 C 555.95336,151.19311 545.1311,154.91528 534.45336,158.19897 C 526.45336,160.65991 518.34203,162.76782 510.16234,164.54223 C 505.62718,165.52563 500.93773,166.7517 496.31664,167.21166 C 494.62523,167.37914 492.81273,166.98412 491.24437,167.72191 C 489.97289,168.31957 489.19749,169.62767 487.86351,170.2058 C 486.06273,170.98559 484.11742,170.34105 483.18773,168.44945 C 450.71117,175.04564 414.18968,171.38451 382.4846,162.42406 C 374.95921,160.29711 366.19163,158.08568 359.96702,153.15697 C 358.35764,156.48461 355.45725,156.99486 353.16233,154.23558 C 351.99631,152.83324 351.78928,151.3806 351.09006,149.90306 C 350.15647,147.92699 347.9924,147.68577 346.19553,146.83665 C 343.57053,145.59544 340.9885,143.99046 338.66819,142.24534 C 334.56858,139.16526 330.74046,135.70872 327.38108,131.83128 C 322.04514,125.67259 317.96506,118.45823 315.7971,110.58519 C 313.593,102.57689 313.38792,94.08714 314.94065,85.94066 C 315.05295,85.35326 317.34006,75.56566 317.96897,75.73314 C 318.17603,75.78735 570.64868,142.9353 570.64868,142.9353 z "
   style="fill:#f7931d"
   id="path3363" />
<path
   d="M 566.42407,139.42358 C 566.23462,139.37329 564.33032,140.91919 564.07446,141.07544 C 555.60376,146.27905 545.59594,149.57935 536.21704,152.6604 C 528.58423,155.16772 520.83618,157.32593 513.01587,159.16821 C 504.8186,161.09985 496.04321,163.53979 487.65649,164.0813 C 489.19946,167.56763 481.90649,168.97193 483.4436,165.04956 C 480.61547,164.72046 476.62719,165.36304 473.76391,165.63501 C 469.7893,166.01294 465.80493,166.30054 461.81664,166.5022 C 453.48656,166.92505 445.13305,166.96314 436.79711,166.58423 C 419.11156,165.78101 401.49828,163.08765 384.45336,158.27027 C 379.92992,156.99293 375.44945,155.55982 371.0393,153.93189 C 368.68774,153.06373 362.12914,151.73462 360.67992,149.58228 C 361.7014,151.09791 360.81469,154.29126 358.21312,153.74732 C 354.28148,152.92798 356.99632,149.61548 355.90843,147.49732 C 354.92405,145.58326 349.06859,143.52662 347.13695,142.27857 C 342.09984,139.02173 337.3557,135.27466 333.20726,130.93091 C 326.82445,124.24487 321.97679,116.14331 319.69945,107.14868 C 317.78539,99.58764 317.69164,91.62036 319.19554,83.97876 C 319.30296,83.43042 321.4807,74.27856 322.06077,74.43286 C 322.1897,74.46704 566.09595,139.33618 566.42407,139.42358 z "
   style="fill:#fff200"
   id="path3365" />
<path
   d="M 389.0022,95.23022 C 389.0022,95.23022 384.45337,113.42797 409.79908,121.87622 C 435.14478,130.32495 475.11353,122.85083 479.33814,118.62671 C 483.5608,114.4021 475.4397,64.03491 447.49439,60.1355 C 419.54712,56.23608 395.5022,67.93433 389.0022,95.23022 z "
   style="fill:#ffc20e"
   id="path3367" />
<g
   id="g3369">
	<path
   d="M 351.92993,200.01587 C 353.75806,193.54126 343.34985,190.59692 345.00415,198.21851 C 345.72876,201.56567 350.61938,204.65601 351.92993,200.01587 z "
   style="fill:#f7931d"
   id="path3371" />
	<path
   d="M 351.42407,198.78589 C 352.12915,195.61109 346.61548,192.77857 347.67798,197.5647 C 348.17603,199.81226 350.6311,202.35425 351.42407,198.78589 z "
   style="fill:#fff200"
   id="path3373" />
</g>
<path
   d="M 395.55493,238.0354 C 397.38306,231.56079 386.97485,228.61597 388.6272,236.23755 C 389.35376,239.58521 394.24438,242.67505 395.55493,238.0354 z "
   style="fill:#f7931d"
   id="path3375" />
<path
   d="M 393.92993,235.55103 C 394.63696,232.37476 389.11938,229.54322 390.18188,234.32837 C 390.68188,236.57544 393.13501,239.11841 393.92993,235.55103 z "
   style="fill:#fff200"
   id="path3377" />
<path
   d="M 327.16821,150.93335 C 328.99438,144.45874 318.58813,141.51392 320.24048,149.13599 C 320.96704,152.48315 325.85767,155.57349 327.16821,150.93335 z "
   style="fill:#f7931d"
   id="path3379" />
<path
   d="M 326.6604,150.92212 C 327.36743,147.74683 321.85181,144.9148 322.91431,149.70044 C 323.41431,151.948 325.86743,154.48999 326.6604,150.92212 z "
   style="fill:#fff200"
   id="path3381" />
<g
   id="g3383">
	<path
   d="M 425.04321,210.7395 C 426.87134,204.26489 416.46508,201.32007 418.11743,208.94214 C 418.84204,212.28931 423.73267,215.37964 425.04321,210.7395 z "
   style="fill:#f7931d"
   id="path3385" />
	<path
   d="M 424.53735,209.50952 C 425.24243,206.33423 419.72876,203.5022 420.79126,208.28784 C 421.29126,210.5354 423.74438,213.07739 424.53735,209.50952 z "
   style="fill:#fff200"
   id="path3387" />
</g>
<g
   id="g3389">
	<path
   d="M 388.05493,185.74341 C 389.88306,179.2688 379.47485,176.32544 381.12915,183.94702 C 381.85376,187.29419 386.74438,190.38354 388.05493,185.74341 z "
   style="fill:#f7931d"
   id="path3391" />
	<path
   d="M 387.54907,184.5144 C 388.25415,181.33862 382.74048,178.50708 383.80298,183.29223 C 384.30103,185.53979 386.7561,188.08228 387.54907,184.5144 z "
   style="fill:#fff200"
   id="path3393" />
</g>
<path
   d="M 469.69751,236.43579 C 471.52564,229.96118 461.11938,227.01782 462.77173,234.63989 C 463.49634,237.98657 468.38892,241.07642 469.69751,236.43579 z "
   style="fill:#f7931d"
   id="path3395" />
<path
   d="M 467.09985,234.92603 C 467.80493,231.75123 462.2893,228.91871 463.3518,233.70435 C 463.85181,235.95239 466.30493,238.49438 467.09985,234.92603 z "
   style="fill:#fff200"
   id="path3397" />
<path
   d="M 504.5686,210.7395 C 506.39673,204.26489 495.98852,201.32007 497.64087,208.94214 C 498.36743,212.28931 503.25806,215.37964 504.5686,210.7395 z "
   style="fill:#f7931d"
   id="path3399" />
<path
   d="M 501.96899,208.25464 C 502.67602,205.07886 497.1604,202.24732 498.2229,207.03247 C 498.72095,209.28003 501.17603,211.82251 501.96899,208.25464 z "
   style="fill:#fff200"
   id="path3401" />
<g
   id="g3403">
	<path
   d="M 462.74829,189.20679 C 464.57642,182.73218 454.16821,179.78882 455.82251,187.4104 C 456.54712,190.75757 461.43774,193.84692 462.74829,189.20679 z "
   style="fill:#f7931d"
   id="path3405" />
	<path
   d="M 462.24243,187.97778 C 462.94946,184.802 457.43188,181.97046 458.49438,186.75561 C 458.99438,189.00317 461.44751,191.54614 462.24243,187.97778 z "
   style="fill:#fff200"
   id="path3407" />
</g>
<g
   id="g3409">
	<path
   d="M 532.32056,171.25122 C 529.98658,177.56079 540.12915,181.3186 539.08423,173.59009 C 538.62524,170.19604 533.99438,166.72876 532.32056,171.25122 z "
   style="fill:#f7931d"
   id="path3411" />
	<path
   d="M 532.72876,172.51636 C 531.77563,175.62622 537.04712,178.88501 536.36743,174.03101 C 536.04712,171.75073 533.80298,169.02222 532.72876,172.51636 z "
   style="fill:#fff200"
   id="path3413" />
</g>
<radialGradient
   cx="365.82251"
   cy="304.39819"
   r="2.1933601"
   id="XMLID_429_"
   gradientUnits="userSpaceOnUse"
   gradientTransform="matrix(1,0,0,-1,-5.518e-2,484.27881)">
	<stop
   style="stop-color:#ffffff;stop-opacity:1"
   offset="0"
   id="stop3416" />
	<stop
   style="stop-color:#c0272d;stop-opacity:1"
   offset="1"
   id="stop3418" />
</radialGradient>
<circle
   cx="365.76782"
   cy="179.88013"
   r="2.1933601"
   style="fill:url(#XMLID_429_)"
   id="circle3420" />
<radialGradient
   cx="361.92407"
   cy="263.94116"
   r="2.1933601"
   id="XMLID_430_"
   gradientUnits="userSpaceOnUse"
   gradientTransform="matrix(1,0,0,-1,-5.518e-2,484.27881)">
	<stop
   style="stop-color:#ffffff;stop-opacity:1"
   offset="0"
   id="stop3423" />
	<stop
   style="stop-color:#c0272d;stop-opacity:1"
   offset="1"
   id="stop3425" />
</radialGradient>
<circle
   cx="361.86743"
   cy="220.33667"
   r="2.1933601"
   style="fill:url(#XMLID_430_)"
   id="circle3427" />
<radialGradient
   cx="390.1936"
   cy="273.20288"
   r="2.19385"
   id="XMLID_431_"
   gradientUnits="userSpaceOnUse"
   gradientTransform="matrix(1,0,0,-1,-5.518e-2,484.27881)">
	<stop
   style="stop-color:#ffffff;stop-opacity:1"
   offset="0"
   id="stop3430" />
	<stop
   style="stop-color:#c0272d;stop-opacity:1"
   offset="1"
   id="stop3432" />
</radialGradient>
<circle
   cx="390.13892"
   cy="211.07544"
   r="2.1933601"
   style="fill:url(#XMLID_431_)"
   id="circle3434" />
<radialGradient
   cx="411.39673"
   cy="248.72827"
   r="2.1940899"
   id="XMLID_432_"
   gradientUnits="userSpaceOnUse"
   gradientTransform="matrix(1,0,0,-1,-5.518e-2,484.27881)">
	<stop
   style="stop-color:#ffffff;stop-opacity:1"
   offset="0"
   id="stop3437" />
	<stop
   style="stop-color:#c0272d;stop-opacity:1"
   offset="1"
   id="stop3439" />
</radialGradient>
<circle
   cx="411.34204"
   cy="235.55054"
   r="2.19385"
   style="fill:url(#XMLID_432_)"
   id="circle3441" />
<radialGradient
   cx="485.24243"
   cy="269.79077"
   r="2.1933601"
   id="XMLID_433_"
   gradientUnits="userSpaceOnUse"
   gradientTransform="matrix(1,0,0,-1,-5.518e-2,484.27881)">
	<stop
   style="stop-color:#ffffff;stop-opacity:1"
   offset="0"
   id="stop3444" />
	<stop
   style="stop-color:#c0272d;stop-opacity:1"
   offset="1"
   id="stop3446" />
</radialGradient>
<circle
   cx="485.18774"
   cy="214.48755"
   r="2.1933601"
   style="fill:url(#XMLID_433_)"
   id="circle3448" />
<radialGradient
   cx="443.5686"
   cy="292.70093"
   r="2.1933601"
   id="XMLID_434_"
   gradientUnits="userSpaceOnUse"
   gradientTransform="matrix(1,0,0,-1,-5.518e-2,484.27881)">
	<stop
   style="stop-color:#ffffff;stop-opacity:1"
   offset="0"
   id="stop3451" />
	<stop
   style="stop-color:#c0272d;stop-opacity:1"
   offset="1"
   id="stop3453" />
</radialGradient>
<circle
   cx="443.51196"
   cy="191.57837"
   r="2.1933601"
   style="fill:url(#XMLID_434_)"
   id="circle3455" />
<radialGradient
   cx="502.30298"
   cy="300.01147"
   r="2.1933601"
   id="XMLID_435_"
   gradientUnits="userSpaceOnUse"
   gradientTransform="matrix(1,0,0,-1,-5.518e-2,484.27881)">
	<stop
   style="stop-color:#ffffff;stop-opacity:1"
   offset="0"
   id="stop3458" />
	<stop
   style="stop-color:#c0272d;stop-opacity:1"
   offset="1"
   id="stop3460" />
</radialGradient>
<circle
   cx="502.24829"
   cy="184.26685"
   r="2.1933601"
   style="fill:url(#XMLID_435_)"
   id="circle3462" />
<radialGradient
   cx="434.55103"
   cy="277.5896"
   r="2.1933601"
   id="XMLID_436_"
   gradientUnits="userSpaceOnUse"
   gradientTransform="matrix(1,0,0,-1,-5.518e-2,484.27881)">
	<stop
   style="stop-color:#ffffff;stop-opacity:1"
   offset="0"
   id="stop3465" />
	<stop
   style="stop-color:#c0272d;stop-opacity:1"
   offset="1"
   id="stop3467" />
</radialGradient>
<circle
   cx="434.49438"
   cy="206.68872"
   r="2.1933601"
   style="fill:url(#XMLID_436_)"
   id="circle3469" />
<radialGradient
   cx="445.76196"
   cy="245.90796"
   r="2.1933601"
   id="XMLID_437_"
   gradientUnits="userSpaceOnUse"
   gradientTransform="matrix(1,0,0,-1,-5.518e-2,484.27881)">
	<stop
   style="stop-color:#ffffff;stop-opacity:1"
   offset="0"
   id="stop3472" />
	<stop
   style="stop-color:#c0272d;stop-opacity:1"
   offset="1"
   id="stop3474" />
</radialGradient>
<circle
   cx="445.70532"
   cy="238.37134"
   r="2.1933601"
   style="fill:url(#XMLID_437_)"
   id="circle3476" />
<radialGradient
   cx="502.30298"
   cy="289.77515"
   r="2.1933601"
   id="XMLID_438_"
   gradientUnits="userSpaceOnUse"
   gradientTransform="matrix(1,0,0,-1,-5.518e-2,484.27881)">
	<stop
   style="stop-color:#ffffff;stop-opacity:1"
   offset="0"
   id="stop3479" />
	<stop
   style="stop-color:#c0272d;stop-opacity:1"
   offset="1"
   id="stop3481" />
</radialGradient>
<circle
   cx="502.24829"
   cy="194.50293"
   r="2.1935999"
   style="fill:url(#XMLID_438_)"
   id="circle3483" />
<radialGradient
   cx="426.7522"
   cy="263.94116"
   r="2.1933601"
   id="XMLID_439_"
   gradientUnits="userSpaceOnUse"
   gradientTransform="matrix(1,0,0,-1,-5.518e-2,484.27881)">
	<stop
   style="stop-color:#ffffff;stop-opacity:1"
   offset="0"
   id="stop3486" />
	<stop
   style="stop-color:#c0272d;stop-opacity:1"
   offset="1"
   id="stop3488" />
</radialGradient>
<circle
   cx="426.69556"
   cy="220.33667"
   r="2.1933601"
   style="fill:url(#XMLID_439_)"
   id="circle3490" />
<radialGradient
   cx="369.96704"
   cy="282.95093"
   r="2.1933601"
   id="XMLID_440_"
   gradientUnits="userSpaceOnUse"
   gradientTransform="matrix(1,0,0,-1,-5.518e-2,484.27881)">
	<stop
   style="stop-color:#ffffff;stop-opacity:1"
   offset="0"
   id="stop3493" />
	<stop
   style="stop-color:#c0272d;stop-opacity:1"
   offset="1"
   id="stop3495" />
</radialGradient>
<circle
   cx="369.9104"
   cy="201.3269"
   r="2.1933601"
   style="fill:url(#XMLID_440_)"
   id="circle3497" />
<radialGradient
   cx="480.85571"
   cy="305.86108"
   r="2.1933601"
   id="XMLID_441_"
   gradientUnits="userSpaceOnUse"
   gradientTransform="matrix(1,0,0,-1,-5.518e-2,484.27881)">
	<stop
   style="stop-color:#ffffff;stop-opacity:1"
   offset="0"
   id="stop3500" />
	<stop
   style="stop-color:#c0272d;stop-opacity:1"
   offset="1"
   id="stop3502" />
</radialGradient>
<circle
   cx="480.80103"
   cy="178.41772"
   r="2.1933601"
   style="fill:url(#XMLID_441_)"
   id="circle3504" />
<radialGradient
   cx="418.95337"
   cy="301.47437"
   r="2.1933601"
   id="XMLID_442_"
   gradientUnits="userSpaceOnUse"
   gradientTransform="matrix(1,0,0,-1,-5.518e-2,484.27881)">
	<stop
   style="stop-color:#ffffff;stop-opacity:1"
   offset="0"
   id="stop3507" />
	<stop
   style="stop-color:#c0272d;stop-opacity:1"
   offset="1"
   id="stop3509" />
</radialGradient>
<circle
   cx="418.89673"
   cy="182.80444"
   r="2.1933601"
   style="fill:url(#XMLID_442_)"
   id="circle3511" />
<radialGradient
   cx="404.08618"
   cy="265.89233"
   r="2.1933601"
   id="XMLID_443_"
   gradientUnits="userSpaceOnUse"
   gradientTransform="matrix(1,0,0,-1,-5.518e-2,484.27881)">
	<stop
   style="stop-color:#ffffff;stop-opacity:1"
   offset="0"
   id="stop3514" />
	<stop
   style="stop-color:#c0272d;stop-opacity:1"
   offset="1"
   id="stop3516" />
</radialGradient>
<circle
   cx="404.03149"
   cy="218.38696"
   r="2.1933601"
   style="fill:url(#XMLID_443_)"
   id="circle3518" />
<radialGradient
   cx="397.01782"
   cy="308.29858"
   r="2.1933601"
   id="XMLID_444_"
   gradientUnits="userSpaceOnUse"
   gradientTransform="matrix(1,0,0,-1,-5.518e-2,484.27881)">
	<stop
   style="stop-color:#ffffff;stop-opacity:1"
   offset="0"
   id="stop3521" />
	<stop
   style="stop-color:#c0272d;stop-opacity:1"
   offset="1"
   id="stop3523" />
</radialGradient>
<circle
   cx="396.96313"
   cy="175.98071"
   r="2.1933601"
   style="fill:url(#XMLID_444_)"
   id="circle3525" />
<radialGradient
   cx="281.0105"
   cy="388.72437"
   r="2.1933601"
   id="XMLID_445_"
   gradientUnits="userSpaceOnUse"
   gradientTransform="matrix(1,0,0,-1,-5.518e-2,484.27881)">
	<stop
   style="stop-color:#ffffff;stop-opacity:1"
   offset="0"
   id="stop3528" />
	<stop
   style="stop-color:#c0272d;stop-opacity:1"
   offset="1"
   id="stop3530" />
</radialGradient>
<circle
   cx="280.95532"
   cy="95.554932"
   r="2.1933601"
   style="fill:url(#XMLID_445_)"
   id="circle3532" />
<radialGradient
   cx="529.72095"
   cy="314.99976"
   r="2.1933601"
   id="XMLID_446_"
   gradientUnits="userSpaceOnUse"
   gradientTransform="matrix(1,0,0,-1,-5.518e-2,484.27881)">
	<stop
   style="stop-color:#ffffff;stop-opacity:1"
   offset="0"
   id="stop3535" />
	<stop
   style="stop-color:#c0272d;stop-opacity:1"
   offset="1"
   id="stop3537" />
</radialGradient>
<circle
   cx="529.66431"
   cy="169.27856"
   r="2.1933601"
   style="fill:url(#XMLID_446_)"
   id="circle3539" />
<radialGradient
   cx="552.99634"
   cy="324.62671"
   r="2.1933601"
   id="XMLID_447_"
   gradientUnits="userSpaceOnUse"
   gradientTransform="matrix(1,0,0,-1,-5.518e-2,484.27881)">
	<stop
   style="stop-color:#ffffff;stop-opacity:1"
   offset="0"
   id="stop3542" />
	<stop
   style="stop-color:#c0272d;stop-opacity:1"
   offset="1"
   id="stop3544" />
</radialGradient>
<circle
   cx="552.9397"
   cy="159.65161"
   r="2.1933601"
   style="fill:url(#XMLID_447_)"
   id="circle3546" />
<radialGradient
   cx="542.74829"
   cy="294.55444"
   r="2.1933601"
   id="XMLID_448_"
   gradientUnits="userSpaceOnUse"
   gradientTransform="matrix(1,0,0,-1,-5.518e-2,484.27881)">
	<stop
   style="stop-color:#ffffff;stop-opacity:1"
   offset="0"
   id="stop3549" />
	<stop
   style="stop-color:#c0272d;stop-opacity:1"
   offset="1"
   id="stop3551" />
</radialGradient>
<circle
   cx="542.69165"
   cy="189.72485"
   r="2.1933601"
   style="fill:url(#XMLID_448_)"
   id="circle3553" />
<radialGradient
   cx="430.40649"
   cy="234.69702"
   r="2.19385"
   id="XMLID_449_"
   gradientUnits="userSpaceOnUse"
   gradientTransform="matrix(1,0,0,-1,-5.518e-2,484.27881)">
	<stop
   style="stop-color:#ffffff;stop-opacity:1"
   offset="0"
   id="stop3556" />
	<stop
   style="stop-color:#c0272d;stop-opacity:1"
   offset="1"
   id="stop3558" />
</radialGradient>
<circle
   cx="430.35181"
   cy="249.58179"
   r="2.1933601"
   style="fill:url(#XMLID_449_)"
   id="circle3560" />
<radialGradient
   cx="454.5354"
   cy="268.81616"
   r="2.1933601"
   id="XMLID_450_"
   gradientUnits="userSpaceOnUse"
   gradientTransform="matrix(1,0,0,-1,-5.518e-2,484.27881)">
	<stop
   style="stop-color:#ffffff;stop-opacity:1"
   offset="0"
   id="stop3563" />
	<stop
   style="stop-color:#c0272d;stop-opacity:1"
   offset="1"
   id="stop3565" />
</radialGradient>
<circle
   cx="454.47876"
   cy="215.46216"
   r="2.1933601"
   style="fill:url(#XMLID_450_)"
   id="circle3567" />
<radialGradient
   cx="374.31665"
   cy="252.40796"
   r="2.1933601"
   id="XMLID_451_"
   gradientUnits="userSpaceOnUse"
   gradientTransform="matrix(1,0,0,-1,-5.518e-2,484.27881)">
	<stop
   style="stop-color:#ffffff;stop-opacity:1"
   offset="0"
   id="stop3570" />
	<stop
   style="stop-color:#c0272d;stop-opacity:1"
   offset="1"
   id="stop3572" />
</radialGradient>
<circle
   cx="374.26196"
   cy="231.87012"
   r="2.1935999"
   style="fill:url(#XMLID_451_)"
   id="circle3574" />
<radialGradient
   cx="525.21118"
   cy="285.38843"
   r="2.19385"
   id="XMLID_452_"
   gradientUnits="userSpaceOnUse"
   gradientTransform="matrix(1,0,0,-1,-5.518e-2,484.27881)">
	<stop
   style="stop-color:#ffffff;stop-opacity:1"
   offset="0"
   id="stop3577" />
	<stop
   style="stop-color:#c0272d;stop-opacity:1"
   offset="1"
   id="stop3579" />
</radialGradient>
<circle
   cx="525.15649"
   cy="198.88989"
   r="2.1933601"
   style="fill:url(#XMLID_452_)"
   id="circle3581" />
<radialGradient
   cx="492.55493"
   cy="259.55444"
   r="2.1933601"
   id="XMLID_453_"
   gradientUnits="userSpaceOnUse"
   gradientTransform="matrix(1,0,0,-1,-5.518e-2,484.27881)">
	<stop
   style="stop-color:#ffffff;stop-opacity:1"
   offset="0"
   id="stop3584" />
	<stop
   style="stop-color:#c0272d;stop-opacity:1"
   offset="1"
   id="stop3586" />
</radialGradient>
<circle
   cx="492.49829"
   cy="224.72339"
   r="2.1933601"
   style="fill:url(#XMLID_453_)"
   id="circle3588" />
<radialGradient
   cx="475.49438"
   cy="281.48999"
   r="2.1933601"
   id="XMLID_454_"
   gradientUnits="userSpaceOnUse"
   gradientTransform="matrix(1,0,0,-1,-5.518e-2,484.27881)">
	<stop
   style="stop-color:#ffffff;stop-opacity:1"
   offset="0"
   id="stop3591" />
	<stop
   style="stop-color:#c0272d;stop-opacity:1"
   offset="1"
   id="stop3593" />
</radialGradient>
<circle
   cx="475.4397"
   cy="202.78931"
   r="2.1933601"
   style="fill:url(#XMLID_454_)"
   id="circle3595" />
<radialGradient
   cx="410.66626"
   cy="404.32202"
   r="26.12553"
   id="XMLID_455_"
   gradientUnits="userSpaceOnUse"
   gradientTransform="matrix(1,0,0,-1,-5.518e-2,484.27881)">
	<stop
   style="stop-color:#ffffff;stop-opacity:1"
   offset="0"
   id="stop3598" />
	<stop
   style="stop-color:#ffc20e;stop-opacity:1"
   offset="1"
   id="stop3600" />
</radialGradient>
<path
   d="M 411.63696,112.26001 C 401.8811,110.67847 393.75024,107.00659 394.2229,95.80347 C 394.55298,87.92456 398.97095,79.21167 404.7522,74.11109 C 409.29517,70.10132 416.83618,66.22388 422.67017,64.70435 C 426.29908,63.75904 437.26197,61.52857 440.0022,65.68873 C 441.41236,67.83082 439.25025,68.44361 439.25025,70.69801 C 439.25416,74.92799 442.32252,79.61744 444.84205,83.15211 C 447.16627,86.41578 453.53932,91.71461 450.59791,96.06422 C 448.66236,98.92506 442.97877,97.98268 440.45533,100.05397 C 437.74635,102.27321 436.32056,106.5652 432.97095,108.72682 C 427.26587,112.41138 418.13696,113.31372 411.63696,112.26001 z "
   style="fill:url(#XMLID_455_)"
   id="path3602" />
<path
   d="M 434.51001,115.8396 C 439.32446,114.2771 444.04907,111.61548 449.10181,107.7561 C 458.42017,100.63989 469.35572,82.90454 462.80103,70.78589 C 471.0608,71.43579 476.36744,89.03003 477.38697,95.55493 C 478.51392,102.78052 481.55103,113.01196 479.16822,120.09204 C 476.39088,128.35083 469.29127,136.61011 462.20338,141.46167 C 452.28932,148.24585 437.75807,148.41431 426.1858,147.23657 C 402.00025,144.77368 385.65846,119.19165 388.70142,95.73218 C 387.06861,108.32886 399.92212,112.90454 409.80103,115.51978 C 419.32251,118.03931 427.02759,118.26782 434.51001,115.8396 z "
   style="opacity:0.11000001;fill:#967348"
   id="path3604" />
<path
   style="fill:#971b1e"
   id="path3606" />
<path
   d="M 309.10181,82.3479 C 309.45044,81.91675 309.82447,81.50073 310.22388,81.10376 C 309.8313,88.82153 312.07056,96.19556 312.12525,103.34448 C 312.16627,108.72876 311.12623,114.09057 311.33814,119.4768 C 311.3938,120.90014 312.15455,131.40551 313.24732,132.12621 C 306.21265,127.48803 306.63697,115.78685 305.42359,108.40795 C 304.09448,100.2522 303.5061,89.25073 309.10181,82.3479 z "
   style="fill:#6d2224"
   id="path3608" />
<path
   d="M 362.81274,230.83032 C 366.09985,238.26294 370.85376,245.33374 378.26977,248.35522 C 382.70532,250.16186 386.66235,252.39038 391.36352,253.39038 C 393.32836,253.8103 403.06274,256.9939 404.12329,256.40601 C 391.39282,263.45484 375.16431,257.93921 363.33227,251.50757 C 352.77172,245.76734 343.65454,238.46411 339.83032,226.67505 C 336.11157,215.20532 335.08618,202.98901 330.86938,191.66675 C 329.92407,189.12964 328.635,184.93335 326.92602,182.86646 C 322.75805,177.82837 320.58227,180.17994 321.135,172.65357 C 321.54516,167.11646 322.20336,161.19312 319.68187,156.02466 C 316.36156,149.21948 308.14476,145.98462 302.88744,140.84986 C 300.78246,138.79224 298.78441,137.26246 297.06713,134.94166 C 291.614,127.57203 289.33471,116.2317 289.83715,107.25318 C 290.0144,104.08521 290.72631,95.79761 295.11986,95.65113 C 299.78197,95.49488 302.02513,106.91627 303.42845,110.34742 C 307.27366,119.74732 311.63304,130.59449 318.43968,138.30201 C 324.79515,145.49635 333.33031,150.47633 341.43968,155.40846 C 346.14281,158.26735 350.09398,160.03639 351.52562,165.33131 C 354.08226,174.79274 353.50804,185.90992 355.0432,195.99 C 356.82642,207.69312 357.97095,219.88647 362.81274,230.83032 z "
   style="fill:#c0272d"
   id="path3610" />
<path
   d="M 283.87866,77.11743 C 275.32788,87.17749 272.24048,97.95239 272.77807,110.97778 C 273.07836,118.26049 274.49389,134.08862 283.87963,135.64233 C 288.89672,136.47241 291.60033,129.90844 291.06713,125.78295 C 289.64525,114.79418 286.70922,104.62279 287.6726,93.44652 C 288.07592,88.75756 291.68627,82.88011 291.1892,78.49291 C 290.5896,73.20386 286.92798,73.52954 283.87866,77.11743 z "
   style="fill:#6d2224"
   id="path3612" />
<path
   d="M 269.25708,147.22241 C 264.55298,136.76831 261.36938,158.85473 261.59106,162.16333 C 262.18335,171.0188 264.62622,179.802 267.41577,188.19214 C 271.21899,199.63403 275.32007,212.61011 281.8938,222.79956 C 288.0896,232.40405 296.66724,241.5686 305.70532,248.52319 C 311.89477,253.28296 317.83227,258.4978 324.65259,262.36108 C 331.4104,266.19116 338.57837,266.78686 345.69947,269.50561 C 347.22291,266.40795 343.08424,264.60131 340.90845,262.76928 C 336.65845,259.19115 332.99634,255.50756 329.69751,250.94701 C 318.39282,235.31371 313.30298,216.01244 312.15063,196.91625 C 312.06274,195.45971 312.41528,190.62426 311.3186,189.59643 C 309.10864,187.52075 305.09594,189.4895 302.49926,188.61254 C 300.31322,187.87328 298.00756,185.44848 296.1853,184.0515 C 290.05639,179.35814 284.44897,174.15746 279.51587,168.20531 C 275.19165,162.98851 272.43823,161.68724 271.20679,155.12963 C 270.47144,151.22094 268.78394,148.32104 266.81958,144.78539"
   style="fill:#c0272d"
   id="path3614" />
<radialGradient
   cx="277.03003"
   cy="280.51538"
   r="2.1933601"
   id="XMLID_456_"
   gradientUnits="userSpaceOnUse"
   gradientTransform="matrix(1,0,0,-1,-5.518e-2,484.27881)">
	<stop
   style="stop-color:#ffffff;stop-opacity:1"
   offset="0"
   id="stop3617" />
	<stop
   style="stop-color:#c0272d;stop-opacity:1"
   offset="1"
   id="stop3619" />
</radialGradient>
<circle
   cx="276.97485"
   cy="203.76392"
   r="2.1933601"
   style="fill:url(#XMLID_456_)"
   id="circle3621" />
<radialGradient
   cx="361.1936"
   cy="232.77124"
   r="2.19385"
   id="XMLID_457_"
   gradientUnits="userSpaceOnUse"
   gradientTransform="matrix(1,0,0,-1,-5.518e-2,484.27881)">
	<stop
   style="stop-color:#ffffff;stop-opacity:1"
   offset="0"
   id="stop3624" />
	<stop
   style="stop-color:#c0272d;stop-opacity:1"
   offset="1"
   id="stop3626" />
</radialGradient>
<circle
   cx="361.13892"
   cy="251.50757"
   r="2.1933601"
   style="fill:url(#XMLID_457_)"
   id="circle3628" />
<radialGradient
   cx="394.66235"
   cy="221.61694"
   r="2.1935999"
   id="XMLID_458_"
   gradientUnits="userSpaceOnUse"
   gradientTransform="matrix(1,0,0,-1,-5.518e-2,484.27881)">
	<stop
   style="stop-color:#ffffff;stop-opacity:1"
   offset="0"
   id="stop3631" />
	<stop
   style="stop-color:#c0272d;stop-opacity:1"
   offset="1"
   id="stop3633" />
</radialGradient>
<circle
   cx="394.60767"
   cy="262.66187"
   r="2.1933601"
   style="fill:url(#XMLID_458_)"
   id="circle3635" />
<radialGradient
   cx="331.86548"
   cy="311.71069"
   r="2.1933601"
   id="XMLID_459_"
   gradientUnits="userSpaceOnUse"
   gradientTransform="matrix(1,0,0,-1,-5.518e-2,484.27881)">
	<stop
   style="stop-color:#ffffff;stop-opacity:1"
   offset="0"
   id="stop3638" />
	<stop
   style="stop-color:#c0272d;stop-opacity:1"
   offset="1"
   id="stop3640" />
</radialGradient>
<circle
   cx="331.81079"
   cy="172.5686"
   r="2.1933601"
   style="fill:url(#XMLID_459_)"
   id="circle3642" />
<radialGradient
   cx="311.0686"
   cy="320.15796"
   r="2.1933601"
   id="XMLID_460_"
   gradientUnits="userSpaceOnUse"
   gradientTransform="matrix(1,0,0,-1,-5.518e-2,484.27881)">
	<stop
   style="stop-color:#ffffff;stop-opacity:1"
   offset="0"
   id="stop3645" />
	<stop
   style="stop-color:#c0272d;stop-opacity:1"
   offset="1"
   id="stop3647" />
</radialGradient>
<circle
   cx="311.01392"
   cy="164.12036"
   r="2.1933601"
   style="fill:url(#XMLID_460_)"
   id="circle3649" />
<radialGradient
   cx="285.39722"
   cy="358.98999"
   r="2.1933601"
   id="XMLID_461_"
   gradientUnits="userSpaceOnUse"
   gradientTransform="matrix(1,0,0,-1,-5.518e-2,484.27881)">
	<stop
   style="stop-color:#ffffff;stop-opacity:1"
   offset="0"
   id="stop3652" />
	<stop
   style="stop-color:#c0272d;stop-opacity:1"
   offset="1"
   id="stop3654" />
</radialGradient>
<circle
   cx="285.34204"
   cy="125.28809"
   r="2.1935999"
   style="fill:url(#XMLID_461_)"
   id="circle3656" />
<radialGradient
   cx="390.56079"
   cy="237.49976"
   r="2.1933601"
   id="XMLID_462_"
   gradientUnits="userSpaceOnUse"
   gradientTransform="matrix(1,0,0,-1,-5.518e-2,484.27881)">
	<stop
   style="stop-color:#ffffff;stop-opacity:1"
   offset="0"
   id="stop3659" />
	<stop
   style="stop-color:#c0272d;stop-opacity:1"
   offset="1"
   id="stop3661" />
</radialGradient>
<circle
   cx="390.50415"
   cy="246.77905"
   r="2.1933601"
   style="fill:url(#XMLID_462_)"
   id="circle3663" />
<radialGradient
   cx="307.8186"
   cy="408.22046"
   r="2.1933601"
   id="XMLID_463_"
   gradientUnits="userSpaceOnUse"
   gradientTransform="matrix(1,0,0,-1,-5.518e-2,484.27881)">
	<stop
   style="stop-color:#ffffff;stop-opacity:1"
   offset="0"
   id="stop3666" />
	<stop
   style="stop-color:#c0272d;stop-opacity:1"
   offset="1"
   id="stop3668" />
</radialGradient>
<circle
   cx="307.76392"
   cy="76.057861"
   r="2.1933601"
   style="fill:url(#XMLID_463_)"
   id="circle3670" />
<radialGradient
   cx="267.66479"
   cy="387.93335"
   r="2.1935999"
   id="XMLID_464_"
   gradientUnits="userSpaceOnUse"
   gradientTransform="matrix(1,0,0,-1,-5.518e-2,484.27881)">
	<stop
   style="stop-color:#ffffff;stop-opacity:1"
   offset="0"
   id="stop3673" />
	<stop
   style="stop-color:#c0272d;stop-opacity:1"
   offset="1"
   id="stop3675" />
</radialGradient>
<circle
   cx="267.61011"
   cy="96.345947"
   r="2.1933601"
   style="fill:url(#XMLID_464_)"
   id="circle3677" />
<radialGradient
   cx="281.74146"
   cy="387.26147"
   r="2.1933601"
   id="XMLID_465_"
   gradientUnits="userSpaceOnUse"
   gradientTransform="matrix(1,0,0,-1,-5.518e-2,484.27881)">
	<stop
   style="stop-color:#ffffff;stop-opacity:1"
   offset="0"
   id="stop3680" />
	<stop
   style="stop-color:#c0272d;stop-opacity:1"
   offset="1"
   id="stop3682" />
</radialGradient>
<circle
   cx="281.68628"
   cy="97.017326"
   r="2.1933601"
   style="fill:url(#XMLID_465_)"
   id="circle3684" />
<radialGradient
   cx="277.47632"
   cy="329.13452"
   r="2.19385"
   id="XMLID_466_"
   gradientUnits="userSpaceOnUse"
   gradientTransform="matrix(1,0,0,-1,-5.518e-2,484.27881)">
	<stop
   style="stop-color:#ffffff;stop-opacity:1"
   offset="0"
   id="stop3687" />
	<stop
   style="stop-color:#c0272d;stop-opacity:1"
   offset="1"
   id="stop3689" />
</radialGradient>
<circle
   cx="277.42114"
   cy="155.14307"
   r="2.1935999"
   style="fill:url(#XMLID_466_)"
   id="circle3691" />
<radialGradient
   cx="289.29663"
   cy="319.50952"
   r="2.1933601"
   id="XMLID_467_"
   gradientUnits="userSpaceOnUse"
   gradientTransform="matrix(1,0,0,-1,-5.518e-2,484.27881)">
	<stop
   style="stop-color:#ffffff;stop-opacity:1"
   offset="0"
   id="stop3694" />
	<stop
   style="stop-color:#c0272d;stop-opacity:1"
   offset="1"
   id="stop3696" />
</radialGradient>
<circle
   cx="289.24146"
   cy="164.76978"
   r="2.1933601"
   style="fill:url(#XMLID_467_)"
   id="circle3698" />
<radialGradient
   cx="288.32153"
   cy="275.88452"
   r="2.1933601"
   id="XMLID_468_"
   gradientUnits="userSpaceOnUse"
   gradientTransform="matrix(1,0,0,-1,-5.518e-2,484.27881)">
	<stop
   style="stop-color:#ffffff;stop-opacity:1"
   offset="0"
   id="stop3701" />
	<stop
   style="stop-color:#c0272d;stop-opacity:1"
   offset="1"
   id="stop3703" />
</radialGradient>
<circle
   cx="288.26636"
   cy="208.39453"
   r="2.1935999"
   style="fill:url(#XMLID_468_)"
   id="circle3705" />
<radialGradient
   cx="307.33032"
   cy="254.19312"
   r="2.1933601"
   id="XMLID_469_"
   gradientUnits="userSpaceOnUse"
   gradientTransform="matrix(1,0,0,-1,-5.518e-2,484.27881)">
	<stop
   style="stop-color:#ffffff;stop-opacity:1"
   offset="0"
   id="stop3708" />
	<stop
   style="stop-color:#c0272d;stop-opacity:1"
   offset="1"
   id="stop3710" />
</radialGradient>
<circle
   cx="307.27563"
   cy="230.08521"
   r="2.1933601"
   style="fill:url(#XMLID_469_)"
   id="circle3712" />
<radialGradient
   cx="376.05884"
   cy="221.53687"
   r="2.1933601"
   id="XMLID_470_"
   gradientUnits="userSpaceOnUse"
   gradientTransform="matrix(1,0,0,-1,-5.518e-2,484.27881)">
	<stop
   style="stop-color:#ffffff;stop-opacity:1"
   offset="0"
   id="stop3715" />
	<stop
   style="stop-color:#c0272d;stop-opacity:1"
   offset="1"
   id="stop3717" />
</radialGradient>
<circle
   cx="376.00415"
   cy="262.74194"
   r="2.1933601"
   style="fill:url(#XMLID_470_)"
   id="circle3719" />
<radialGradient
   cx="409.29321"
   cy="216.32788"
   r="2.1933601"
   id="XMLID_471_"
   gradientUnits="userSpaceOnUse"
   gradientTransform="matrix(1,0,0,-1,-5.518e-2,484.27881)">
	<stop
   style="stop-color:#ffffff;stop-opacity:1"
   offset="0"
   id="stop3722" />
	<stop
   style="stop-color:#c0272d;stop-opacity:1"
   offset="1"
   id="stop3724" />
</radialGradient>
<circle
   cx="409.23657"
   cy="267.95093"
   r="2.1933601"
   style="fill:url(#XMLID_471_)"
   id="circle3726" />
<radialGradient
   cx="338.52759"
   cy="233.72241"
   r="2.1933601"
   id="XMLID_472_"
   gradientUnits="userSpaceOnUse"
   gradientTransform="matrix(1,0,0,-1,-5.518e-2,484.27881)">
	<stop
   style="stop-color:#ffffff;stop-opacity:1"
   offset="0"
   id="stop3729" />
	<stop
   style="stop-color:#c0272d;stop-opacity:1"
   offset="1"
   id="stop3731" />
</radialGradient>
<circle
   cx="338.47095"
   cy="250.5564"
   r="2.1933601"
   style="fill:url(#XMLID_472_)"
   id="circle3733" />
<radialGradient
   cx="386.78345"
   cy="215.9314"
   r="2.1933601"
   id="XMLID_473_"
   gradientUnits="userSpaceOnUse"
   gradientTransform="matrix(1,0,0,-1,-5.518e-2,484.27881)">
	<stop
   style="stop-color:#ffffff;stop-opacity:1"
   offset="0"
   id="stop3736" />
	<stop
   style="stop-color:#c0272d;stop-opacity:1"
   offset="1"
   id="stop3738" />
</radialGradient>
<circle
   cx="386.72681"
   cy="268.34741"
   r="2.1933601"
   style="fill:url(#XMLID_473_)"
   id="circle3740" />
<radialGradient
   cx="382.07251"
   cy="238.62866"
   r="2.1933601"
   id="XMLID_474_"
   gradientUnits="userSpaceOnUse"
   gradientTransform="matrix(1,0,0,-1,-5.518e-2,484.27881)">
	<stop
   style="stop-color:#ffffff;stop-opacity:1"
   offset="0"
   id="stop3743" />
	<stop
   style="stop-color:#c0272d;stop-opacity:1"
   offset="1"
   id="stop3745" />
</radialGradient>
<circle
   cx="382.01782"
   cy="245.6499"
   r="2.1935999"
   style="fill:url(#XMLID_474_)"
   id="circle3747" />
<radialGradient
   cx="281.74243"
   cy="414.20874"
   r="2.1933601"
   id="XMLID_475_"
   gradientUnits="userSpaceOnUse"
   gradientTransform="matrix(1,0,0,-1,-5.518e-2,484.27881)">
	<stop
   style="stop-color:#ffffff;stop-opacity:1"
   offset="0"
   id="stop3750" />
	<stop
   style="stop-color:#c0272d;stop-opacity:1"
   offset="1"
   id="stop3752" />
</radialGradient>
<circle
   cx="281.68726"
   cy="70.070557"
   r="2.1933601"
   style="fill:url(#XMLID_475_)"
   id="circle3754" />
<radialGradient
   cx="345.35181"
   cy="271.73999"
   r="2.1933601"
   id="XMLID_476_"
   gradientUnits="userSpaceOnUse"
   gradientTransform="matrix(1,0,0,-1,-5.518e-2,484.27881)">
	<stop
   style="stop-color:#ffffff;stop-opacity:1"
   offset="0"
   id="stop3757" />
	<stop
   style="stop-color:#c0272d;stop-opacity:1"
   offset="1"
   id="stop3759" />
</radialGradient>
<circle
   cx="345.29517"
   cy="212.53784"
   r="2.1933601"
   style="fill:url(#XMLID_476_)"
   id="circle3761" />
<radialGradient
   cx="356.56274"
   cy="246.88257"
   r="2.1933601"
   id="XMLID_477_"
   gradientUnits="userSpaceOnUse"
   gradientTransform="matrix(1,0,0,-1,-5.518e-2,484.27881)">
	<stop
   style="stop-color:#ffffff;stop-opacity:1"
   offset="0"
   id="stop3764" />
	<stop
   style="stop-color:#c0272d;stop-opacity:1"
   offset="1"
   id="stop3766" />
</radialGradient>
<circle
   cx="356.5061"
   cy="237.39673"
   r="2.1933601"
   style="fill:url(#XMLID_477_)"
   id="circle3768" />
<radialGradient
   cx="294.90942"
   cy="340.94702"
   r="2.19385"
   id="XMLID_478_"
   gradientUnits="userSpaceOnUse"
   gradientTransform="matrix(1,0,0,-1,-5.518e-2,484.27881)">
	<stop
   style="stop-color:#ffffff;stop-opacity:1"
   offset="0"
   id="stop3771" />
	<stop
   style="stop-color:#c0272d;stop-opacity:1"
   offset="1"
   id="stop3773" />
</radialGradient>
<circle
   cx="294.85425"
   cy="143.33057"
   r="2.1935999"
   style="fill:url(#XMLID_478_)"
   id="circle3775" />
<radialGradient
   cx="261.69019"
   cy="361.24976"
   r="2.1933601"
   id="XMLID_479_"
   gradientUnits="userSpaceOnUse"
   gradientTransform="matrix(1,0,0,-1,-5.518e-2,484.27881)">
	<stop
   style="stop-color:#ffffff;stop-opacity:1"
   offset="0"
   id="stop3778" />
	<stop
   style="stop-color:#c0272d;stop-opacity:1"
   offset="1"
   id="stop3780" />
</radialGradient>
<circle
   cx="261.63501"
   cy="123.02905"
   r="2.1933601"
   style="fill:url(#XMLID_479_)"
   id="circle3782" />
<radialGradient
   cx="261.51343"
   cy="377.51343"
   r="2.1933601"
   id="XMLID_480_"
   gradientUnits="userSpaceOnUse"
   gradientTransform="matrix(1,0,0,-1,-5.518e-2,484.27881)">
	<stop
   style="stop-color:#ffffff;stop-opacity:1"
   offset="0"
   id="stop3785" />
	<stop
   style="stop-color:#c0272d;stop-opacity:1"
   offset="1"
   id="stop3787" />
</radialGradient>
<circle
   cx="261.45776"
   cy="106.76587"
   r="2.1933601"
   style="fill:url(#XMLID_480_)"
   id="circle3789" />
<radialGradient
   cx="297.09546"
   cy="374.83179"
   r="2.1933601"
   id="XMLID_481_"
   gradientUnits="userSpaceOnUse"
   gradientTransform="matrix(1,0,0,-1,-5.518e-2,484.27881)">
	<stop
   style="stop-color:#ffffff;stop-opacity:1"
   offset="0"
   id="stop3792" />
	<stop
   style="stop-color:#c0272d;stop-opacity:1"
   offset="1"
   id="stop3794" />
</radialGradient>
<circle
   cx="297.04028"
   cy="109.44653"
   r="2.1933601"
   style="fill:url(#XMLID_481_)"
   id="circle3796" />
<radialGradient
   cx="344.3772"
   cy="297.81812"
   r="2.1933601"
   id="XMLID_482_"
   gradientUnits="userSpaceOnUse"
   gradientTransform="matrix(1,0,0,-1,-5.518e-2,484.27881)">
	<stop
   style="stop-color:#ffffff;stop-opacity:1"
   offset="0"
   id="stop3799" />
	<stop
   style="stop-color:#c0272d;stop-opacity:1"
   offset="1"
   id="stop3801" />
</radialGradient>
<circle
   cx="344.32056"
   cy="186.46021"
   r="2.1933601"
   style="fill:url(#XMLID_482_)"
   id="circle3803" />
<radialGradient
   cx="330.72876"
   cy="322.92163"
   r="2.1933601"
   id="XMLID_483_"
   gradientUnits="userSpaceOnUse"
   gradientTransform="matrix(1,0,0,-1,-5.518e-2,484.27881)">
	<stop
   style="stop-color:#ffffff;stop-opacity:1"
   offset="0"
   id="stop3806" />
	<stop
   style="stop-color:#c0272d;stop-opacity:1"
   offset="1"
   id="stop3808" />
</radialGradient>
<circle
   cx="330.67212"
   cy="161.35767"
   r="2.1933601"
   style="fill:url(#XMLID_483_)"
   id="circle3810" />
<radialGradient
   cx="320.00415"
   cy="276.12671"
   r="2.19385"
   id="XMLID_484_"
   gradientUnits="userSpaceOnUse"
   gradientTransform="matrix(1,0,0,-1,-5.518e-2,484.27881)">
	<stop
   style="stop-color:#ffffff;stop-opacity:1"
   offset="0"
   id="stop3813" />
	<stop
   style="stop-color:#c0272d;stop-opacity:1"
   offset="1"
   id="stop3815" />
</radialGradient>
<circle
   cx="319.94946"
   cy="208.15088"
   r="2.1935999"
   style="fill:url(#XMLID_484_)"
   id="circle3817" />
<radialGradient
   cx="297.09546"
   cy="285.63257"
   r="2.1933601"
   id="XMLID_485_"
   gradientUnits="userSpaceOnUse"
   gradientTransform="matrix(1,0,0,-1,-5.518e-2,484.27881)">
	<stop
   style="stop-color:#ffffff;stop-opacity:1"
   offset="0"
   id="stop3820" />
	<stop
   style="stop-color:#c0272d;stop-opacity:1"
   offset="1"
   id="stop3822" />
</radialGradient>
<circle
   cx="297.04028"
   cy="198.646"
   r="2.1935999"
   style="fill:url(#XMLID_485_)"
   id="circle3824" />
<radialGradient
   cx="324.28149"
   cy="290.74976"
   r="2.1933601"
   id="XMLID_486_"
   gradientUnits="userSpaceOnUse"
   gradientTransform="matrix(1,0,0,-1,-5.518e-2,484.27881)">
	<stop
   style="stop-color:#ffffff;stop-opacity:1"
   offset="0"
   id="stop3827" />
	<stop
   style="stop-color:#c0272d;stop-opacity:1"
   offset="1"
   id="stop3829" />
</radialGradient>
<circle
   cx="324.22485"
   cy="193.52808"
   r="2.1933601"
   style="fill:url(#XMLID_486_)"
   id="circle3831" />
<radialGradient
   cx="331.21509"
   cy="251.26929"
   r="2.1935999"
   id="XMLID_487_"
   gradientUnits="userSpaceOnUse"
   gradientTransform="matrix(1,0,0,-1,-5.518e-2,484.27881)">
	<stop
   style="stop-color:#ffffff;stop-opacity:1"
   offset="0"
   id="stop3834" />
	<stop
   style="stop-color:#c0272d;stop-opacity:1"
   offset="1"
   id="stop3836" />
</radialGradient>
<circle
   cx="331.1604"
   cy="233.00977"
   r="2.1935999"
   style="fill:url(#XMLID_487_)"
   id="circle3838" />
<radialGradient
   cx="268.82446"
   cy="308.05444"
   r="2.1933601"
   id="XMLID_488_"
   gradientUnits="userSpaceOnUse"
   gradientTransform="matrix(1,0,0,-1,-5.518e-2,484.27881)">
	<stop
   style="stop-color:#ffffff;stop-opacity:1"
   offset="0"
   id="stop3841" />
	<stop
   style="stop-color:#c0272d;stop-opacity:1"
   offset="1"
   id="stop3843" />
</radialGradient>
<circle
   cx="268.76929"
   cy="176.22437"
   r="2.1933601"
   style="fill:url(#XMLID_488_)"
   id="circle3845" />
<path
   d="M 336.67798,263.69116 C 336.08228,261.14428 328.44556,255.47632 325.86548,257.61108 C 323.34204,259.69506 327.81861,266.92553 324.54712,270.15014 C 321.11548,273.531 317.41333,270.02123 316.02173,266.66576 C 312.82739,258.95482 310.8479,251.12084 306.9104,243.70873 C 304.5896,239.33812 302.67798,235.80199 297.13745,235.43578 C 290.75317,235.0139 286.54712,240.21898 282.03833,244.22045 C 275.1355,250.3474 261.07642,262.93725 251.70923,255.92943 C 243.32398,249.65599 247.74439,235.37035 251.198,227.76781 C 255.74292,217.76342 260.49732,210.64525 259.99585,199.28295 C 259.84253,195.81859 258.38403,192.42748 258.38208,188.98412 C 258.38013,186.13744 260.38892,182.96166 260.32886,180.5598 C 260.20825,175.67503 258.27808,173.85667 253.68579,171.71263 C 245.86304,168.06273 236.39917,169.7307 228.62134,166.10179 C 222.67505,163.32738 218.16089,157.71702 216.79566,151.15599 C 215.67505,145.76781 219.37086,137.90404 212.87525,136.14085 C 207.23365,134.60911 199.77759,141.05052 198.40162,145.92308 C 196.57301,152.39671 200.76637,153.72093 202.49732,158.88744 C 204.40015,164.56713 202.8191,168.33519 207.1897,173.09105 C 211.07495,177.32103 215.39722,179.59544 220.82056,181.01585 C 233.46314,184.32493 247.9729,183.34153 246.30103,200.14183 C 245.32837,209.91478 242.57789,225.81419 234.29078,232.29271 C 223.71558,226.6682 238.00709,213.0725 233.8318,206.34886 C 231.00416,201.79515 226.35963,205.96507 225.84547,210.26341 C 225.24293,215.31175 230.27418,216.29808 225.1941,220.67943 C 218.22242,226.69213 204.4358,212.53295 201.65406,205.69945 C 198.61695,198.24144 206.38062,192.04027 200.67408,185.12865 C 199.48902,190.54515 195.16187,193.35863 194.04713,198.56713 C 192.64967,205.10522 194.49195,210.15307 199.23024,214.99096 C 205.40944,221.30102 213.26247,224.67016 220.67702,229.09594 C 228.91188,234.01098 230.37575,242.95043 232.8235,251.53295 C 234.77321,258.37084 238.26539,261.83178 243.43483,266.15209 C 248.53053,270.41381 250.66628,276.19897 258.64284,274.97436 C 274.48171,272.54467 282.28591,248.04858 297.04225,262.73022 C 305.49049,271.13647 309.66823,282.37475 321.8987,285.66577 C 324.72097,286.42554 331.13893,288.01929 328.86745,292.48804 C 327.5862,295.00952 318.37136,295.98609 316.06081,295.87085 C 308.78054,295.51538 306.1863,293.57593 307.77761,287.21265 C 309.05886,282.0857 308.90456,279.39429 305.32644,275.02515 C 299.33376,267.70874 298.41091,274.0564 298.50271,281.16773 C 298.62527,290.64429 300.7825,299.25562 311.17605,301.26148 C 318.64871,302.70289 328.44558,304.45289 335.59011,300.65406 C 339.11159,298.78297 338.43581,297.29078 341.0198,294.53492 C 342.64871,292.79664 345.25808,292.56031 346.90261,291.12281 C 356.19558,282.99 334.51589,284.57984 332.73269,277.25562 C 331.45142,271.98608 337.67603,267.96069 336.67798,263.69116 z "
   style="fill:#c0272d"
   id="path3847" />
<path
   d="M 226.41284,282.90601 C 234.67602,275.58765 220.16284,257.13843 213.03149,265.17359 C 211.06079,267.39429 211.91723,272.03882 212.52221,274.56617 C 214.01636,280.80835 219.76099,288.79468 226.41284,282.90601 z "
   style="fill:#6c9d31"
   id="path3849" />
<path
   d="M 174.51489,175.87769 C 183.4143,164.13746 157.05249,156.8606 161.65698,173.35865 C 163.43628,179.73267 170.59448,181.04419 174.51489,175.87769 z "
   style="fill:#cadb2a"
   id="path3851" />
<path
   d="M 167.2395,210.42212 C 176.84643,214.95679 188.46557,210.07691 179.60132,199.39233 C 175.02612,193.87719 168.38403,190.42358 164.1189,184.28491 C 159.76148,178.01489 155.69947,170.15991 153.86499,162.83813 C 152.90552,159.00805 152.34448,149.75952 146.33374,154.97729 C 140.3396,160.18969 145.14282,175.23413 146.90308,181.64526 C 149.87964,192.48267 156.60864,205.40552 167.2395,210.42212 z "
   style="fill:#006e3a"
   id="path3853" />
<path
   d="M 124.61646,178.57495 C 123.14185,172.57056 109.09595,131.78638 124.27369,132.7102 C 131.31666,133.14038 136.00172,144.13891 136.98512,149.8059 C 139.7151,165.5559 144.16871,179.49047 154.5276,191.90209 C 164.24684,203.54711 175.88405,209.25609 188.16481,217.23314 C 193.08766,220.42992 203.49586,236.68968 190.91139,233.07347 C 189.57789,241.25316 197.24879,251.36497 186.23024,253.82201 C 182.71364,254.60521 173.53053,255.07982 169.98268,254.5017 C 160.25123,252.91772 159.07057,241.56078 152.63112,235.45141 C 136.07104,219.74146 129.99927,200.48901 124.61646,178.57495 z "
   style="fill:#28903a"
   id="path3855" />
<linearGradient
   x1="99.302002"
   y1="289.72437"
   x2="211.08081"
   y2="289.72437"
   id="XMLID_489_"
   gradientUnits="userSpaceOnUse"
   gradientTransform="matrix(1,0,0,-1,-5.518e-2,484.27881)">
	<stop
   style="stop-color:#28903a;stop-opacity:1"
   offset="0"
   id="stop3858" />
	<stop
   style="stop-color:#8cc63f;stop-opacity:1"
   offset="1"
   id="stop3860" />
</linearGradient>
<path
   d="M 100.88403,156.61938 C 99.22046,142.59545 95.62573,119.87768 110.19751,111.41186 C 116.54077,107.72534 122.43042,115.0979 121.88501,121.24096 C 121.0188,131.00854 113.19995,132.80053 116.0105,143.20483 C 118.96607,154.14526 121.67652,165.30493 126.43091,175.65405 C 137.79224,200.38745 156.81714,220.42798 180.52515,233.51196 C 186.02173,236.54614 191.94703,237.30102 197.05835,240.81665 C 201.1521,243.63257 208.92896,246.53686 210.80151,251.52319 C 211.906,254.46264 208.66626,265.60132 206.86401,268.13061 C 203.08374,273.4353 200.65991,269.1228 196.13696,269.05834 C 189.94116,268.98217 189.11108,276.04662 184.84497,278.04076 C 178.15845,281.16381 167.13306,272.18724 163.26343,267.44115 C 153.35767,255.29271 141.37183,244.12474 132.27515,231.17015 C 116.24536,208.3391 104.23023,185.06273 100.91919,156.91576 C 100.90747,156.81763 100.89526,156.71851 100.88403,156.61938 z "
   style="fill:url(#XMLID_489_)"
   id="path3862" />
<linearGradient
   x1="81.188721"
   y1="266.24585"
   x2="203.99731"
   y2="266.24585"
   id="XMLID_490_"
   gradientUnits="userSpaceOnUse"
   gradientTransform="matrix(1,0,0,-1,-5.518e-2,484.27881)">
	<stop
   style="stop-color:#006e3a;stop-opacity:1"
   offset="0"
   id="stop3865" />
	<stop
   style="stop-color:#28903a;stop-opacity:1"
   offset="1"
   id="stop3867" />
</linearGradient>
<path
   d="M 105.49829,156.43091 C 111.67309,174.02808 117.62085,190.01587 127.77026,205.73071 C 136.26538,218.88208 146.20874,231.29028 157.9187,241.7268 C 163.82983,246.99584 170.22046,251.77514 177.15405,255.6228 C 180.80981,257.65014 185.44018,258.60913 188.87671,260.85522 C 193.02319,263.5642 191.80249,264.16186 192.35278,269.07983 C 192.82788,273.31616 195.13354,277.78491 196.64428,281.73999 C 199.87084,290.18726 209.36791,310.1853 199.7478,317.50757 C 191.04663,324.13062 177.2185,314.70288 169.04175,311.03101 C 156.79029,305.53101 147.51587,296.48804 138.09107,286.96656 C 117.75416,266.42164 109.60621,234.67896 102.90308,207.64625 C 101.87378,203.49732 101.27613,199.09449 99.14087,195.36646 C 98.06519,193.48804 95.33276,192.4314 93.92944,189.70484 C 89.927,181.93336 90.67651,173.33033 88.33715,165.28394 C 85.82006,156.62818 84.31518,148.00025 82.96899,139.09107 C 82.18725,133.91334 78.60669,120.31666 84.26831,117.06861 C 88.69409,114.52857 97.72241,118.37574 99.47681,122.85084 C 100.77076,126.15162 98.9524,130.73268 99.14429,134.26637 C 99.53003,141.35229 103.14673,149.73071 105.49829,156.43091 z "
   style="fill:url(#XMLID_490_)"
   id="path3869" />
<path
   d="M 149.83325,125.17651 C 140.3562,127.05981 130.95679,138.37329 144.12964,142.9309 C 151.43091,145.45629 161.55347,138.21361 159.12183,129.18578 C 156.86011,120.78394 155.13013,124.12476 149.83325,125.17651 z "
   style="fill:#6c9d31"
   id="path3871" />
<path
   d="M 100.91528,174.61157 C 98.83618,168.34448 90.05102,141.54468 80.31274,151.25415 C 71.81225,159.73071 76.32885,177.8313 78.85424,187.49878 C 81.54858,197.81372 86.03832,206.89819 89.88354,216.76196 C 91.85034,221.80444 94.92407,230.38598 91.88354,235.44848 C 88.83911,240.51782 81.98071,239.43871 80.9309,246.64233 C 79.33129,257.62085 88.04028,254.57592 94.30444,256.55249 C 111.12719,261.85913 101.95288,284.37476 102.99145,296.6521 C 103.69506,304.9646 110.86547,312.96069 115.45043,319.67944 C 121.12621,327.99585 130.9768,327.70874 138.35863,333.71069 C 141.48998,336.25561 142.69213,340.98803 146.0222,343.55639 C 149.77611,346.45092 157.45482,347.74584 162.197,347.406 C 172.05296,346.69506 204.47825,338.38842 191.75315,323.16967 C 183.25169,313.0017 179.69944,300.94115 177.13303,288.2224 C 175.95334,282.38256 176.38157,276.8181 172.55002,271.88842 C 168.59836,266.80444 162.11106,264.71459 157.39231,260.39819 C 145.31028,249.34741 135.80344,235.83227 126.47092,222.47876 C 119.40891,212.37378 110.88547,203.23853 106.40842,191.64282 C 104.27759,186.1272 102.78979,180.26392 100.91528,174.61157 z "
   style="fill:#8cc63f"
   id="path3873" />
<path
   d="M 242.44653,307.97827 C 254.55395,299.40405 243.25464,273.5603 232.59204,290.49975 C 229.23657,295.82983 234.12573,313.8689 242.44653,307.97827 z "
   style="fill:#8cc63f"
   id="path3875" />
<path
   d="M 111.37378,280.61108 C 99.23218,275.15405 99.19702,291.38647 104.42261,297.40991 C 110.38306,304.27905 116.92407,302.68139 116.48609,292.99389 C 116.29224,288.71655 116.44995,282.89233 111.37378,280.61108 z "
   style="fill:#006e3a"
   id="path3877" />
<path
   d="M 110.79224,313.64233 C 119.05591,306.32397 104.54224,287.87475 97.41089,295.90991 C 95.44019,298.13061 96.29712,302.77514 96.90161,305.30249 C 98.39624,311.54272 104.14087,319.53101 110.79224,313.64233 z "
   style="fill:#6c9d31"
   id="path3879" />
<path
   d="M 101.79761,261.82593 C 110.69702,250.0857 84.33521,242.80884 88.94019,259.3064 C 90.71948,265.67944 97.8772,266.99194 101.79761,261.82593 z "
   style="fill:#6c9d31"
   id="path3881" />
<path
   style="fill:#fffbca"
   id="path3883" />
<path
   d="M 83.05005,313.59741 C 83.0603,313.59155 366.1604,154.2522 368.26587,153.07153 C 360.63306,157.37573 367.43189,182.74633 368.47681,189.31176 C 370.79126,203.87084 375.92408,216.80102 387.43384,226.64916 C 388.35767,225.72582 389.92017,225.06811 390.67017,224.40453 C 393.89087,230.7058 400.719,235.11351 407.00611,237.17797 C 414.39088,239.6018 427.82447,244.67358 435.04517,242.45336 C 435.75415,309.83373 434.93775,377.31811 434.93775,444.71459 C 434.93775,447.69701 434.93775,450.68139 434.93775,453.66772 C 434.93775,456.61889 411.70142,458.35717 409.4983,458.50366 C 405.23658,458.78296 401.10182,457.93139 396.97486,458.27514 C 392.21119,458.67162 387.63502,461.17748 382.82252,461.72241 C 364.47291,463.79077 345.60963,463.72046 327.27369,461.73218 C 307.5901,459.59741 287.6858,456.86695 268.26978,452.97241 C 261.04273,451.52319 253.8733,449.09546 246.58765,448.03882 C 242.7566,447.48218 238.50122,448.01929 236.78687,443.4978 C 234.29908,436.94116 242.31421,428.42749 245.84498,423.70092 C 254.5398,412.06615 254.10475,394.44701 236.20875,392.50951 C 221.11695,390.87474 221.44996,405.08568 219.18531,415.79662 C 217.76539,422.50951 211.64625,432.54076 204.15943,433.50365 C 194.51002,434.74388 181.24586,423.72435 173.70679,418.75756 C 161.06958,410.42943 147.18091,401.3767 135.69214,391.55834 C 126.53198,383.73021 116.07593,375.78686 108.37036,366.60912 C 104.00464,361.40795 102.58716,354.51342 99.73852,348.50365 C 98.53052,345.95679 81.11255,314.68726 83.05005,313.59741 z "
   style="opacity:0.18999999;fill:#00adef"
   id="path3885" />
<path
   d="M 212.63062,98.56421 C 214.2356,102.12671 223.10328,93.22241 211.46802,91.82202 C 209.17163,91.54614 196.36157,93.14087 200.5354,97.41138 C 202.90747,99.84009 209.45825,98.37671 212.63062,98.56421 z "
   style="fill:#f7931d"
   id="path3887" />
<path
   d="M 256.39917,181.12134 C 257.77368,179.13159 256.36011,176.01685 251.71509,173.63794 C 244.4646,169.92407 235.93579,170.97974 228.47681,168.03442 C 222.34009,165.61157 218.42652,159.98706 214.99732,154.63842 C 213.27711,151.9558 212.26587,151.29516 211.75757,147.97533 C 211.33472,145.22289 213.57495,141.96654 211.58911,139.40355 C 208.37573,135.26341 201.34057,140.74095 200.80444,144.5681 C 200.0935,149.64915 207.27563,156.50999 209.01098,161.50072 C 213.88452,175.51293 225.59594,174.8059 237.92651,178.54711 C 241.61255,179.66576 244.98559,182.38647 248.78979,182.91772 C 252.76929,183.47485 255.36792,182.61401 256.39917,181.12134 z "
   style="fill:#f7931d"
   id="path3889" />
<path
   d="M 201.67114,63.13257 C 196.11499,67.51929 183.76391,72.33472 181.19604,79.10913 C 178.55346,86.08618 186.95092,85.45874 191.22827,83.97876 C 198.52954,81.4519 200.64477,73.8728 206.00464,68.60767 C 210.57056,64.12232 216.06909,60.23169 221.79663,57.37671 C 225.29907,55.63062 229.53638,55.14966 231.40503,51.53052 C 220.3772,50.43091 210.51587,56.15063 201.67114,63.13257 z "
   style="fill:#f7931d"
   id="path3891" />
<path
   d="M 194.03882,126.11353 C 202.72876,125.04712 197.0603,118.56031 191.3396,120.14429 C 184.52319,122.03247 188.85034,126.74927 194.03882,126.11353 z "
   style="fill:#f7931d"
   id="path3893" />
<linearGradient
   x1="58.456791"
   y1="284.88062"
   x2="84.221626"
   y2="270.72388"
   id="XMLID_491_"
   gradientUnits="userSpaceOnUse"
   gradientTransform="matrix(1,0,0,-1,-5.518e-2,484.27881)">
	<stop
   style="stop-color:#ffc20e;stop-opacity:1"
   offset="0"
   id="stop3896" />
	<stop
   style="stop-color:#fff200;stop-opacity:1"
   offset="1"
   id="stop3898" />
</linearGradient>
<path
   d="M 102.12036,185.03442 C 100.30591,180.18921 98.52954,175.33032 96.79028,170.45825 C 95.17163,165.92456 92.54419,162.01929 91.10083,157.38598 C 90.51001,155.48754 90.47534,153.47338 88.7561,152.16137 C 81.89721,146.93188 80.44409,157.6145 81.34839,162.09008 C 82.55982,168.08862 85.24878,173.93285 87.80493,179.45336 C 91.98657,188.48412 97.14429,196.93236 101.75317,205.72875 C 104.96118,211.85424 113.99487,222.37182 113.99096,229.01098 C 110.49828,228.85912 105.55444,229.67016 105.45434,233.80395 C 105.25073,242.1975 120.58178,241.5559 123.42065,247.77124 C 125.51245,252.35132 119.88891,253.82202 120.88452,258.73218 C 121.48218,261.68335 127.4646,267.32202 130.53052,267.5271 C 137.49732,267.9939 132.06031,263.29272 134.93531,258.6228 C 135.20679,258.18335 146.65748,268.031 147.93677,268.95874 C 153.51734,273.00171 161.05445,274.58179 164.3855,280.9978 C 167.32837,286.66772 167.07691,293.62085 168.22486,299.76343 C 170.30884,310.90796 173.70972,324.11499 182.95631,331.59156 C 186.1858,334.20094 190.59742,335.93531 192.85084,331.08961 C 195.03248,326.3982 190.24684,324.71852 187.34352,321.82984 C 178.49733,313.02711 175.36207,297.70679 173.72096,285.77711 C 172.51588,277.01539 172.82057,273.56031 165.23756,268.5818 C 162.21608,266.59742 158.6775,264.15602 155.81764,261.78297 C 147.80543,255.13649 140.6233,247.53883 134.49928,239.11744 C 128.37282,230.69459 124.93532,219.93678 117.48121,212.52418 C 110.17554,205.2605 105.74878,194.7229 102.12036,185.03442 z "
   style="fill:url(#XMLID_491_)"
   id="path3900" />
<radialGradient
   cx="104.72339"
   cy="249.97046"
   r="7.4810901"
   id="XMLID_492_"
   gradientUnits="userSpaceOnUse"
   gradientTransform="matrix(1,0,0,-1,-5.518e-2,484.27881)">
	<stop
   style="stop-color:#f7931d;stop-opacity:1"
   offset="0"
   id="stop3903" />
	<stop
   style="stop-color:#ffc20e;stop-opacity:1"
   offset="1"
   id="stop3905" />
</radialGradient>
<path
   d="M 113.0686,241.40845 C 108.84253,241.24243 103.47924,236.12622 105.74682,231.72827 C 106.39477,230.47143 113.52758,227.4397 113.72436,228.82153 C 113.89966,230.04712 112.30054,241.37915 113.0686,241.40845 z "
   style="fill:url(#XMLID_492_)"
   id="path3907" />
<radialGradient
   cx="127.56665"
   cy="225.7771"
   r="8.5158005"
   id="XMLID_493_"
   gradientUnits="userSpaceOnUse"
   gradientTransform="matrix(1,0,0,-1,-5.518e-2,484.27881)">
	<stop
   style="stop-color:#f7931d;stop-opacity:1"
   offset="0"
   id="stop3910" />
	<stop
   style="stop-color:#ffc20e;stop-opacity:1"
   offset="1"
   id="stop3912" />
</radialGradient>
<path
   d="M 123.42847,248.72437 C 125.00464,250.56421 120.84449,254.69703 120.52076,256.4939 C 119.91334,259.86304 126.37086,267.31617 129.68775,268.1189 C 134.74781,269.34742 134.62671,263.22632 134.50513,259.86304 C 133.0398,262.6814 129.65064,268.31226 125.87232,265.42359 C 120.85132,261.58569 127.08765,252.99585 123.42847,248.72437 z "
   style="fill:url(#XMLID_493_)"
   id="path3914" />
<linearGradient
   x1="176.2688"
   y1="151.5564"
   x2="176.2688"
   y2="183.16595"
   id="XMLID_494_"
   gradientUnits="userSpaceOnUse"
   gradientTransform="matrix(1,0,0,-1,-5.518e-2,484.27881)">
	<stop
   style="stop-color:#ffc20e;stop-opacity:1"
   offset="0"
   id="stop3917" />
	<stop
   style="stop-color:#fff200;stop-opacity:1"
   offset="1"
   id="stop3919" />
</linearGradient>
<path
   d="M 171.02124,307.13257 C 171.78442,309.56812 172.61304,311.98413 173.46948,314.38452 C 175.56128,320.24975 176.61596,325.26147 181.59594,329.48804 C 184.5559,331.99781 190.59252,335.22827 192.72875,330.00757 C 194.5183,325.63648 189.81762,323.57788 187.36889,320.7478 C 180.87817,313.24585 178.31811,303.81225 175.83813,294.43725 C 174.6643,290.0017 173.52221,285.73608 172.94213,281.30639 C 172.53881,278.22045 172.88988,273.48998 169.50561,271.79272 C 167.97924,271.02905 165.35668,270.80249 163.71801,271.22631 C 162.22729,271.61303 157.98217,274.03881 159.70629,275.8474 C 162.23022,278.49388 163.86791,276.39623 165.63842,280.99193 C 167.61401,286.11693 167.28246,291.76927 168.39281,297.16185 C 169.08569,300.53101 169.99292,303.84937 171.02124,307.13257 z "
   style="fill:url(#XMLID_494_)"
   id="path3921" />
<linearGradient
   x1="74.464111"
   y1="284.96655"
   x2="134.35295"
   y2="275.71542"
   id="XMLID_495_"
   gradientUnits="userSpaceOnUse"
   gradientTransform="matrix(1,0,0,-1,-5.518e-2,484.27881)">
	<stop
   style="stop-color:#f7931d;stop-opacity:1"
   offset="0"
   id="stop3924" />
	<stop
   style="stop-color:#ffc20e;stop-opacity:1"
   offset="0.16854"
   id="stop3926" />
	<stop
   style="stop-color:#fff200;stop-opacity:1"
   offset="1"
   id="stop3928" />
</linearGradient>
<path
   d="M 96.36157,151.82446 C 101.01147,162.52856 105.45532,173.30737 109.36548,184.24292 C 111.09693,189.08618 113.54956,193.40063 116.23706,197.73413 C 119.28882,202.65601 121.04468,208.04419 124.50415,212.64819 C 128.34351,217.75659 131.30151,223.51342 135.32446,228.53442 C 138.75757,232.8186 142.98559,236.5393 146.56323,240.74536 C 153.44995,248.8435 161.63794,255.98218 171.0105,261.06616 C 178.00904,264.86108 182.77857,265.82593 185.36402,273.68921 C 186.47388,277.0603 190.03541,304.41968 196.50806,300.18921 C 201.81275,296.72437 193.21509,279.10132 192.35181,274.56421 C 191.90454,272.21265 192.53443,266.59546 191.30152,264.66773 C 189.71168,262.18531 184.98609,261.6482 182.44996,260.49 C 178.22584,258.55836 174.32642,255.87672 170.30982,253.56227 C 154.98658,244.73805 143.95191,231.56911 133.5813,217.4026 C 130.51978,213.22047 127.30103,208.90944 124.49097,204.50367 C 115.36304,190.19508 109.948,174.02711 104.24732,158.17896 C 101.90064,151.65503 99.31128,145.74976 98.24097,138.86353 C 97.48609,134.00953 98.64868,127.67749 95.7771,123.37818 C 93.68774,120.25025 87.82788,116.16968 85.83081,121.55347 C 82.82251,129.65894 90.82104,139.65308 94.0437,146.64527 C 94.83765,148.36841 95.60962,150.09448 96.36157,151.82446 z "
   style="fill:url(#XMLID_495_)"
   id="path3930" />
<linearGradient
   x1="87.426033"
   y1="335.41968"
   x2="149.20325"
   y2="301.91339"
   id="XMLID_496_"
   gradientUnits="userSpaceOnUse"
   gradientTransform="matrix(1,0,0,-1,-5.518e-2,484.27881)">
	<stop
   style="stop-color:#f7931d;stop-opacity:1"
   offset="0"
   id="stop3933" />
	<stop
   style="stop-color:#ffc20e;stop-opacity:1"
   offset="0.16854"
   id="stop3935" />
	<stop
   style="stop-color:#fff200;stop-opacity:1"
   offset="1"
   id="stop3937" />
</linearGradient>
<path
   d="M 109.41675,151.13892 C 108.88062,149.57203 108.35425,147.99146 107.83618,146.39429 C 104.79565,137.01978 100.84302,123.37915 108.5769,115.12525 C 112.1936,111.26783 118.44653,112.10279 120.2019,117.65211 C 121.85961,122.89381 116.43286,126.38697 114.97827,130.99147 C 113.92847,134.31422 113.69507,137.86012 113.8396,141.35817 C 114.30054,152.5403 117.55151,160.35426 121.85864,170.50075 C 126.56225,181.58327 132.11352,190.48171 139.09643,200.25417 C 142.15258,204.53054 145.3894,208.00808 149.23168,211.49636 C 153.22045,215.11843 156.19945,219.71316 160.25268,223.2781 C 167.8186,229.93484 176.8977,234.45437 185.86303,238.89382 C 191.69848,241.78347 206.21948,246.27321 208.23119,252.99392 C 208.87865,255.15798 208.1018,263.89822 204.90209,263.75564 C 201.6184,263.6072 201.75072,256.02322 202.27172,253.97048 C 197.64281,248.53298 187.79272,246.81423 181.52172,243.74392 C 175.61156,240.85183 170.14916,236.87527 164.45776,233.6155 C 145.70141,222.87185 131.04712,201.44411 121.8977,181.93337 C 117.09253,171.68872 113.03979,161.73022 109.41675,151.13892 z "
   style="fill:url(#XMLID_496_)"
   id="path3939" />
<linearGradient
   x1="237.52222"
   y1="186.89624"
   x2="246.76392"
   y2="186.89624"
   id="XMLID_497_"
   gradientUnits="userSpaceOnUse"
   gradientTransform="matrix(1,0,0,-1,-5.518e-2,484.27881)">
	<stop
   style="stop-color:#f7931d;stop-opacity:1"
   offset="0"
   id="stop3942" />
	<stop
   style="stop-color:#ffc20e;stop-opacity:1"
   offset="0.16854"
   id="stop3944" />
	<stop
   style="stop-color:#fff200;stop-opacity:1"
   offset="1"
   id="stop3946" />
</linearGradient>
<path
   d="M 243.83276,306.06421 C 245.02368,304.45483 245.89282,302.16577 246.1687,300.95874 C 247.0105,297.28491 247.02173,292.89233 245.08911,289.55054 C 244.57593,288.66577 243.90942,287.5232 242.93579,287.11109 C 238.79809,285.35914 237.52563,295.84937 237.47583,298.21851 C 237.42651,300.5857 237.44946,308.06226 241.31079,307.84546 C 242.23218,307.79468 243.09399,307.0603 243.83276,306.06421 z "
   style="fill:url(#XMLID_497_)"
   id="path3948" />
<path
   d="M 308.40845,86.86304 C 305.32105,101.76197 305.71851,122.42359 317.51197,133.75708 C 319.36744,135.53931 327.38111,126.75024 327.38111,126.75024 L 332.19556,131.56469 L 322.38697,139.42358 C 322.38697,139.42358 339.44556,155.50854 358.94361,163.30737 C 358.94361,163.30737 348.46314,216.1936 376.00416,243.73413 C 380.8733,248.60132 389.31275,250.82983 395.88502,251.82788 C 399.57252,252.38843 403.92213,252.84936 407.5608,251.73022 C 411.12721,250.63256 413.69361,246.81225 417.42408,246.53686 C 419.09791,246.41577 421.59986,247.32006 423.17213,247.79077 C 413.75611,263.72241 382.58229,259.07202 371.44557,248.03882 C 354.5276,231.28003 351.47291,202.7356 350.17018,180.36743 C 350.17018,180.36743 350.44166,172.35229 352.1194,165.25708 C 352.1194,165.25708 332.62331,157.45825 318.00026,142.83569 C 311.56471,136.40063 306.81862,128.35815 304.05837,119.7019 C 302.27614,114.11645 303.2112,99.85229 297.05153,97.51879 C 291.43874,95.39233 291.73268,99.41332 291.67848,104.21068 C 291.5442,116.13939 294.58619,128.83031 302.53737,137.84105 C 305.21999,140.88109 322.85573,154.16136 320.32643,157.83714 C 316.20045,163.83568 301.91188,146.44651 299.47829,143.81126 C 297.23073,141.37815 292.16579,132.76438 288.14675,138.32786 C 286.41189,140.72874 288.24196,143.78831 289.60915,146.24925 C 296.532,158.71019 312.50808,172.53636 325.78542,177.80833 C 326.9612,178.27513 329.84597,178.55491 330.69753,179.46897 C 335.89284,185.05491 333.48659,198.74143 335.02175,205.81663 C 338.38113,221.28733 341.68581,235.20628 351.678,248.03684 C 356.2737,253.93723 361.69753,259.30442 367.96511,263.41965 C 372.43581,266.35129 376.86941,270.95676 382.06667,272.41965 C 392.16237,275.25754 403.36745,270.66574 412.44362,266.51926 C 421.33425,262.45481 420.553,269.39817 413.30495,272.91184 C 407.33815,275.80051 401.17995,278.14622 394.51393,278.71848 C 375.19362,280.3845 357.87526,265.947 346.41237,252.04075 C 334.73659,237.87327 330.43581,218.48948 327.24831,200.82981 C 326.44948,196.41917 326.77565,187.5095 324.22487,183.75461 C 322.42214,181.09787 318.79323,180.62277 316.05007,179.28391 C 312.97292,177.78391 304.31081,170.42063 300.94167,171.65647 C 297.19362,173.04661 298.62722,177.79319 300.07351,179.90549 C 303.7405,185.26291 312.4446,186.53342 315.48855,191.67746 C 315.8157,192.23019 315.57058,196.06027 315.58914,196.89523 C 315.8284,207.89962 318.08035,220.6965 321.29129,231.19406 C 323.70731,239.08908 327.36942,246.09543 332.62332,252.5173 C 336.71902,257.52511 345.05301,261.88449 345.80496,268.76535 C 343.10379,268.87277 340.99832,266.34738 338.46121,266.28097 C 334.10769,266.16574 331.99051,275.05245 333.20144,278.30831 C 335.10378,283.42354 340.91433,282.37081 345.13503,283.21651 C 351.01003,284.39229 350.71706,287.55635 344.79714,289.18331 C 341.11159,290.19503 336.25808,289.52315 332.63503,288.48214 C 323.82058,285.94503 315.40847,280.11691 309.82253,272.97628 C 305.1819,267.04855 291.77565,245.96456 298.01687,238.37325 C 302.73318,232.63595 308.97097,254.1794 310.32253,257.98995 C 312.66628,264.59542 316.64968,279.40206 326.66433,274.82003 C 342.30691,267.66378 320.81472,244.31222 317.60964,235.34786 C 312.76198,221.79024 314.23562,201.00509 302.88943,191.09102 C 293.37136,182.7751 281.25906,179.00508 273.23709,168.54561 C 270.67557,165.20381 258.77225,141.54756 268.14139,144.10469 C 272.91532,145.40889 275.62869,155.51533 277.33768,159.33955 C 279.85819,164.98115 282.92752,169.87226 289.21463,171.70332 C 296.95828,173.95869 298.6282,168.90644 294.82693,162.82832 C 291.1282,156.91475 284.845,153.00752 281.29031,146.98262 C 276.34158,138.58662 272.94119,129.18379 272.18338,119.42647 C 271.95291,116.46846 272.4119,106.23067 277.05399,107.61006 C 279.81083,108.42988 279.57499,116.46748 280.08866,119.08662 C 280.70292,122.21894 281.82792,132.42256 285.34403,133.09639 C 292.13944,134.39961 287.14725,118.0041 286.77567,115.06368 C 285.51151,105.06759 286.66141,94.6755 290.20292,85.23604 C 291.24052,82.47237 294.64237,74.51192 288.25517,75.07149 C 285.95878,75.27364 284.48906,78.62715 283.51689,80.43917 C 281.82255,83.59688 282.16044,89.58321 279.31474,91.96798 C 272.26152,97.8796 275.86308,84.46993 276.36064,81.51876 C 269.2332,76.47872 264.38652,87.58565 261.97001,93.08175 C 256.2288,106.14523 258.17948,120.55392 260.9705,134.0715 C 261.70634,137.63644 261.75712,142.23947 257.43779,138.47433 C 254.7625,136.14083 253.89824,128.56857 253.17265,125.30783 C 252.19023,120.88693 253.1624,116.009 249.05644,113.76974 C 242.23124,110.04855 240.66826,116.72775 237.69706,120.11007 C 234.8997,123.29269 230.28349,123.92599 228.40897,118.94503 C 224.87137,109.54659 240.26444,110.91378 245.19754,108.61446 C 251.02127,105.89962 251.27811,100.97872 253.08133,95.62276 C 255.04617,89.78389 257.53397,83.06856 260.68778,77.74483 C 263.83622,72.43184 267.26932,65.69698 272.03495,61.16182 C 273.14384,60.10616 281.9661,62.425 281.34452,63.19063 C 278.67118,66.48653 272.41093,72.40206 273.71903,74.00899 C 276.98514,78.02364 284.30057,69.89815 289.48905,65.25167 L 295.67704,66.37032 C 294.11747,67.8088 292.72977,69.38595 291.63309,71.17794 C 290.72098,72.66573 297.616,71.88692 298.55301,71.32052 C 300.42655,70.18771 301.35867,69.32247 302.34793,68.80929 C 303.3367,68.29708 320.20731,73.79611 320.12137,74.08419 C 319.62528,75.73507 319.0452,77.35812 317.98465,78.56466 C 314.56668,74.91818 308.25809,70.02853 303.6282,73.08859 C 300.25613,75.31613 293.79763,87.18771 295.05447,91.155 C 298.91482,103.32053 303.43875,82.36984 305.44851,80.93381 C 309.28738,78.19113 309.69558,81.29856 308.85964,84.82883 C 308.70239,85.49438 308.552,86.17212 308.40845,86.86304 z "
   style="fill:#f7931d"
   id="path3950" />
<linearGradient
   x1="105.40454"
   y1="176.56812"
   x2="109.87674"
   y2="174.1425"
   id="XMLID_498_"
   gradientUnits="userSpaceOnUse"
   gradientTransform="matrix(1,0,0,-1,-5.518e-2,484.27881)">
	<stop
   style="stop-color:#f7931d;stop-opacity:1"
   offset="0"
   id="stop3953" />
	<stop
   style="stop-color:#ffc20e;stop-opacity:1"
   offset="0.16854"
   id="stop3955" />
	<stop
   style="stop-color:#fff200;stop-opacity:1"
   offset="1"
   id="stop3957" />
</linearGradient>
<path
   d="M 110.76685,306.66382 C 109.20435,307.30054 105.63746,307.51538 104.64722,309.03296 C 102.09009,312.94897 111.11694,313.05249 110.76685,306.66382 z "
   style="fill:url(#XMLID_498_)"
   id="path3959" />
<path
   style="fill:#f7931d"
   id="path3961" />
<path
   d="M 223.43872,366.6853 C 230.76538,362.34936 233.03589,350.96655 228.60132,343.80249 C 224.37085,336.96851 215.14087,339.02905 211.05884,345.08569 C 205.07349,353.9646 210.19604,374.52515 223.43872,366.6853 z "
   style="fill:#f7931d"
   id="path3963" />
<path
   d="M 225.73657,431.58179 C 221.84692,430.12281 215.68237,432.75757 214.22436,428.69312 C 213.16088,425.73218 216.59252,420.93335 216.5061,417.73609 C 216.34155,411.65992 214.18628,407.27125 217.63891,401.54078 C 220.54467,396.72047 226.13012,392.49976 231.83325,391.91187 C 241.698,390.89429 249.26733,396.59742 251.781,406.01734 C 254.92553,417.79859 242.32836,416.78687 236.23168,423.22828 C 232.60717,427.05836 231.27074,431.44703 234.98754,435.82594 C 234.78197,435.5818 227.48852,432.32789 226.45092,431.87086 C 226.21655,431.76929 225.97876,431.67163 225.73657,431.58179 z "
   style="fill:#004821"
   id="path3965" />
<path
   d="M 224.43823,434.69702 C 230.49389,437.04272 233.67163,442.14819 238.86694,445.61304 C 233.01684,433.19507 245.43188,428.07398 250.62622,419.58765 C 255.73852,411.23023 249.69897,396.01343 238.51294,398.69117 C 231.20239,400.43922 229.49146,408.19117 226.32153,413.94703 C 225.16284,416.0525 212.67358,433.84742 211.47094,432.47828 C 214.12036,435.49585 220.7063,433.25171 224.43823,434.69702 z "
   style="fill:#6c9d31"
   id="path3967" />
<path
   d="M 436.3186,464.87866 C 424.48071,467.57983 412.17993,468.80054 400.10376,469.76147 C 371.60376,472.03295 342.84204,471.31811 314.46411,467.88452 C 295.99487,465.64819 277.66772,462.23022 259.64722,457.60327 C 250.79859,455.33179 236.54029,452.85327 233.2605,443.15991 C 229.33911,431.56616 237.15113,429.93725 244.39624,423.46069 C 251.61792,417.00366 250.34155,397.57788 237.22095,402.00366 C 230.06861,404.41382 228.69458,410.88843 227.81226,417.25757 C 226.27759,428.33765 222.32496,438.9939 209.53345,437.01538 C 193.84546,434.59155 181.80542,429.18725 167.89868,421.24194 C 151.79321,412.03686 136.49927,401.36303 122.5686,389.10327 C 106.98217,375.38452 92.94604,359.64038 82.03491,341.92944 C 81.37622,340.86108 70.43188,322.19897 71.64966,321.46069 C 71.65259,321.46069 83.04712,314.57202 83.05005,314.57202 C 81.52075,315.49585 90.98023,333.25366 91.60669,334.37475 C 103.00855,354.82202 119.16235,372.67944 138.00659,386.54077 C 148.88891,394.54468 159.71118,402.82202 170.41772,411.031 C 179.32543,417.85717 190.3811,427.5603 202.09838,428.42944 C 210.31518,429.03882 217.32787,425.40014 219.88012,417.70483 C 222.18676,410.7478 222.34643,404.15014 227.95971,398.63842 C 233.13598,393.55834 240.50414,391.77319 246.84448,395.906 C 256.95874,402.5017 256.63794,418.51538 249.29516,426.99389 C 246.85717,429.8103 241.11352,431.48022 239.64575,434.90209 C 236.65747,441.87279 246.9978,441.76732 250.86694,442.13647 C 258.51147,442.86694 265.99536,446.031 273.48462,447.74585 C 291.06714,451.76733 308.85669,454.92358 326.77564,457.00757 C 356.58228,460.47046 386.81861,460.97827 416.64087,457.38648 C 422.76392,456.64625 428.86939,455.73609 434.93775,454.64234 L 436.3186,464.87866 z "
   style="fill:#cadb2a"
   id="path3969" />
<path
   d="M 82.71362,316.72827 C 59.16382,296.49975 47.06567,264.50366 40.97485,234.81958 C 33.8186,199.9436 28.63696,162.34497 35.37133,126.88745 C 38.33862,111.26587 41.43383,94.80981 47.15844,79.927 C 52.86645,65.0852 64.6599,54.30835 74.06078,41.86938 C 79.29418,34.94458 86.73705,23.94799 94.73949,19.93774 C 99.41283,17.59692 98.28002,18.11889 104.114,18.51001 C 122.18236,19.72388 320.43382,72.87622 320.12132,74.08423 C 318.62132,79.86011 316.59007,86.81568 316.90062,96.38306 C 317.30394,108.79761 321.45335,121.37427 330.19164,130.43579 C 340.95531,141.5979 355.83031,144.58032 368.76391,151.93091"
   style="opacity:0.16000001;fill:#99dbf9"
   id="path3971" />
<path
   d="M 82.16284,314.57202 C 82.16284,314.57202 17.28686,233.68774 32.94214,132.59936 C 46.99536,41.8562 104.11401,18.51001 104.11401,18.51001 L 93.55249,15.90649 C 93.55249,15.90649 36.84155,39.01342 20.2688,131.62475 C 20.2688,131.62475 0.77173,221.3684 71.93628,320.28881 L 82.16284,314.57202 z "
   style="fill:#6c9d31"
   id="path3973" />




<g
   id="g4107">
	
	
	
	
	
	
	
	
	
	
	
	
	
	
	
	
	
	
	
	
	
	
	
	
	
</g>



<path
   d="M 320.81079,69.3728 L 320.81079,44.51489 C 320.81079,44.51489 321.37524,33.68579 332.42212,31.73608 L 413.33618,31.73608 L 421.13501,26.86206 L 420.1604,31.73608 L 553.71509,31.73608 C 553.71509,31.73608 565.90064,36.61059 565.90064,47.82153 L 565.90064,135.07104"
   style="fill:none;stroke:#000000;stroke-width:0.97486001"
   id="path4231" />
<path
   id="path4233" />
<polyline
   fill="none"
   stroke="#000000"
   stroke-width="0.97486"
   points="475.88501,270.7439 467.09985,234.92603   468.90063,238.01294 "
   id="polyline4235"
   style="fill:none;stroke:#000000;stroke-width:0.97486001" />
<polyline
   fill="none"
   stroke="#000000"
   stroke-width="0.97486"
   points="531.94165,248.48022 510.16235,164.54224   511.48657,166.1521 "
   id="polyline4237"
   style="fill:none;stroke:#000000;stroke-width:0.97486001" />

<path
   d="M 272.63062,56.10767 L 272.63062,35.31079 C 272.63062,35.31079 272.22046,31.08716 276.85474,31.08716 C 283.67994,31.08716 292.12769,31.08716 292.12769,31.08716 L 297.48951,25.72534 L 298.73658,31.08716 L 313.03346,31.08716 C 313.03346,31.08716 318.77369,31.23169 317.79909,35.96118 L 317.79909,68.4563"
   style="fill:none;stroke:#000000;stroke-width:0.97486001"
   id="path4259" />
<polyline
   fill="none"
   stroke="#000000"
   stroke-width="0.97486"
   points="432.92798,252.6228 431.20728,250.42944   453.30493,306.32007 387.01392,268.62671 389.43188,270.82593 "
   id="polyline4261"
   style="fill:none;stroke:#000000;stroke-width:0.97486001" />
<path
   d="M 290.82837,321.91772 L 306.75025,337.84155 C 306.75025,337.84155 317.88306,343.60718 322.02369,339.46655 L 343.47096,326.4685 L 364.06276,327.32202 L 351.92018,321.26929 L 371.41627,303.72241 C 371.41627,303.72241 382.78932,296.89819 374.66627,288.77319 L 358.74439,272.85131"
   style="fill:none;stroke:#000000;stroke-width:0.97486001"
   id="path4263" />
<polyline
   points="439.41235,457.99194 411.38501,465.54858   413.90454,465.79077 "
   id="polyline4265"
   stroke-width="0.97486"
   stroke="#000000"
   fill="none"
   style="fill:none;stroke:#000000;stroke-width:0.97486001" />
<polyline
   fill="none"
   stroke="#000000"
   stroke-width="0.97486"
   points="100.40698,409.00562 141.35083,304.69702   140.83667,308.60132 "
   id="polyline4267"
   style="fill:none;stroke:#000000;stroke-width:0.97486001" />

<polyline
   fill="none"
   stroke="#000000"
   stroke-width="0.97486"
   points="223.58032,330.01343 220.31421,329.48804   364.59204,385.60913 241.13843,303.3689 243.802,304.02124 "
   id="polyline4303"
   style="fill:none;stroke:#000000;stroke-width:0.97486001" />
<polyline
   fill="none"
   stroke="#000000"
   stroke-width="0.97486"
   points="399.68774,415.82983 220.31421,355.38843   223.71069,355.74585 "
   id="polyline4305"
   style="fill:none;stroke:#000000;stroke-width:0.97486001" />
<rect
   width="612"
   height="485.97656"
   x="0.00023999999"
   y="-0.00023999999"
   style="fill:none"
   id="rect4307" />
<text
   xml:space="preserve"
   x="398.33594"
   y="19.812258"
   id="text2629"><tspan
     sodipodi:role="line"
     id="tspan2631"
     x="398.33594"
     y="19.812258"><tspan
       x="398.33594"
       y="19.812258"
       style="font-size:14px;font-family:Arial"
       id="tspan2633">Zellkern</tspan></tspan></text>
<text
   xml:space="preserve"
   x="146.96875"
   y="19.194094"
   id="text2635"><tspan
     sodipodi:role="line"
     id="tspan2637"
     x="146.96875"
     y="19.194094"><tspan
       x="146.96875"
       y="19.194094"
       style="font-size:14px;font-family:Arial"
       id="tspan2639">Raues Endoplasmatisches Retikulum</tspan></tspan></text>
<text
   xml:space="preserve"
   x="507.58649"
   y="263.74234"
   id="text2641"><tspan
     sodipodi:role="line"
     id="tspan2643"
     x="507.58649"
     y="263.74234"><tspan
       x="507.58649"
       y="263.74234"
       style="font-size:14px;font-family:Arial"
       id="tspan2645">Kernhülle</tspan></tspan></text>
<text
   xml:space="preserve"
   x="472.73932"
   y="288.22955"
   id="text2647"><tspan
     sodipodi:role="line"
     id="tspan2649"
     x="472.73932"
     y="288.22955"><tspan
       x="472.73932"
       y="288.22955"
       style="font-size:14px;font-family:Arial"
       id="tspan2651">Kernpore</tspan></tspan></text>
<text
   xml:space="preserve"
   x="458.61209"
   y="314.60037"
   id="text2653"><tspan
     sodipodi:role="line"
     id="tspan2655"
     x="458.61209"
     y="314.60037"><tspan
       x="458.61209"
       y="314.60037"
       style="font-size:14px;font-family:Arial"
       id="tspan2657">Ribosomen</tspan></tspan></text>
<text
   xml:space="preserve"
   x="368.29529"
   y="333.76031"
   id="text2659"><tspan
     sodipodi:role="line"
     id="tspan2661"
     x="368.29529"
     y="333.76031"><tspan
       x="368.29529"
       y="333.76031"
       style="font-size:14px;font-family:Arial"
       id="tspan2663">Glattes Endoplasmatisches Retikulum</tspan></tspan></text>
<text
   xml:space="preserve"
   x="29.14444"
   y="424.79272"
   id="text2665"><tspan
     sodipodi:role="line"
     id="tspan2667"
     x="29.14444"
     y="424.79272"><tspan
       x="29.14444"
       y="424.79272"
       style="font-size:14px;font-family:Arial"
       id="tspan2669">Golgi-Apparat</tspan></tspan></text>
<text
   xml:space="preserve"
   x="406.81229"
   y="420.08365"
   id="text2671"><tspan
     sodipodi:role="line"
     id="tspan2673"
     x="406.81229"
     y="420.08365"><tspan
       x="406.81229"
       y="420.08365"
       style="font-size:14px;font-family:Arial"
       id="tspan2675">Lysosom</tspan></tspan></text>
<text
   xml:space="preserve"
   x="444.48486"
   y="461.52353"
   id="text2677"><tspan
     sodipodi:role="line"
     id="tspan2679"
     x="444.48486"
     y="461.52353"><tspan
       x="444.48486"
       y="461.52353"
       style="font-size:14px;font-family:Arial"
       id="tspan2681">Zellmembran</tspan></tspan></text>
<text
   xml:space="preserve"
   x="371.02332"
   y="390.88739"
   id="text2683"><tspan
     sodipodi:role="line"
     id="tspan2685"
     x="371.02332"
     y="390.88739"><tspan
       x="371.02332"
       y="390.88739"
       style="font-size:14px;font-family:Arial"
       id="tspan2687">Sekretvesikel</tspan></tspan></text>
</svg>