<?xml version="1.0" encoding="utf-8"?>
<!-- Generator: Adobe Illustrator 13.0.0, SVG Export Plug-In . SVG Version: 6.00 Build 14948)  -->
<!DOCTYPE svg PUBLIC "-//W3C//DTD SVG 1.1//EN" "http://www.w3.org/Graphics/SVG/1.1/DTD/svg11.dtd">
<svg version="1.1" xmlns="http://www.w3.org/2000/svg" xmlns:xlink="http://www.w3.org/1999/xlink" x="0px" y="0px" width="551px"
	 height="694px" viewBox="0 0 551 694" enable-background="new 0 0 551 694" xml:space="preserve">
<g id="Ebene_2">
	<g>
		<radialGradient id="SVGID_1_" cx="360.834" cy="400.5" r="5.7505" gradientUnits="userSpaceOnUse">
			<stop  offset="0" style="stop-color:#F5E4F4"/>
			<stop  offset="0.6813" style="stop-color:#D288B9"/>
		</radialGradient>
		<path fill="url(#SVGID_1_)" d="M360.834,406.25c-3.172,0-5.752-2.579-5.752-5.749c0-3.173,2.58-5.751,5.752-5.751
			s5.751,2.578,5.751,5.751C366.585,403.671,364.006,406.25,360.834,406.25L360.834,406.25z"/>
		<path fill="#020202" d="M360.834,393c4.143,0,7.5,3.358,7.5,7.5c0,4.143-3.357,7.5-7.5,7.5s-7.5-3.357-7.5-7.5
			C353.334,396.358,356.691,393,360.834,393 M360.834,396.5c-2.206,0-4,1.795-4,4c0,2.206,1.794,4,4,4c2.205,0,4-1.794,4-4
			C364.834,398.295,363.039,396.5,360.834,396.5L360.834,396.5z"/>
	</g>
	<g>
		<radialGradient id="SVGID_2_" cx="176.0005" cy="388.833" r="5.7507" gradientUnits="userSpaceOnUse">
			<stop  offset="0" style="stop-color:#F5E4F4"/>
			<stop  offset="0.6813" style="stop-color:#D288B9"/>
		</radialGradient>
		<path fill="url(#SVGID_2_)" d="M176.001,394.583c-3.172,0-5.752-2.579-5.752-5.749c0-3.173,2.58-5.751,5.752-5.751
			s5.751,2.578,5.751,5.751C181.752,392.004,179.173,394.583,176.001,394.583L176.001,394.583z"/>
		<path fill="#020202" d="M176.001,381.333c4.143,0,7.5,3.358,7.5,7.5c0,4.143-3.357,7.5-7.5,7.5s-7.5-3.357-7.5-7.5
			C168.501,384.691,171.858,381.333,176.001,381.333 M176.001,384.833c-2.206,0-4,1.795-4,4c0,2.206,1.794,4,4,4
			c2.205,0,4-1.794,4-4C180.001,386.628,178.206,384.833,176.001,384.833L176.001,384.833z"/>
	</g>
	<g>
		<radialGradient id="SVGID_3_" cx="239.8335" cy="394.333" r="5.7507" gradientUnits="userSpaceOnUse">
			<stop  offset="0" style="stop-color:#F5E4F4"/>
			<stop  offset="0.6813" style="stop-color:#D288B9"/>
		</radialGradient>
		<path fill="url(#SVGID_3_)" d="M239.834,400.083c-3.172,0-5.752-2.579-5.752-5.749c0-3.173,2.58-5.751,5.752-5.751
			s5.751,2.578,5.751,5.751C245.585,397.504,243.006,400.083,239.834,400.083L239.834,400.083z"/>
		<path fill="#020202" d="M239.834,386.833c4.143,0,7.5,3.358,7.5,7.5c0,4.143-3.357,7.5-7.5,7.5s-7.5-3.357-7.5-7.5
			C232.334,390.191,235.691,386.833,239.834,386.833 M239.834,390.333c-2.206,0-4,1.795-4,4c0,2.206,1.794,4,4,4
			c2.205,0,4-1.794,4-4C243.834,392.128,242.039,390.333,239.834,390.333L239.834,390.333z"/>
	</g>
	<g>
		<linearGradient id="SVGID_4_" gradientUnits="userSpaceOnUse" x1="99.666" y1="534.5918" x2="456.667" y2="534.5918">
			<stop  offset="0" style="stop-color:#E1A54F"/>
			<stop  offset="1" style="stop-color:#EBED4A"/>
		</linearGradient>
		<path fill="url(#SVGID_4_)" d="M328.797,682.001H221.362c-1.6-2.439-9.53-15.636-9.53-37.334c0-13.9,3.63-34.834,7.14-55.077
			c3.187-18.375,6.195-35.731,6.195-46.257c0-29.629-16.535-42.004-39.421-59.137c-1.951-1.46-3.944-2.953-5.977-4.493
			c-7.401-5.61-15.173-11.179-22.689-16.566c-29.525-21.158-57.415-41.146-57.415-59.303c0-9.473,11.453-15.835,13.834-15.835
			c2.917,0,33.465,10.649,53.435,17.86c1.208,1.255,8.26,8.129,17.824,8.129c3.383,0,6.709-0.878,9.885-2.61
			c9.75-5.317,11.251-14.873,11.48-17.83l10.993-1.467c1.634,2.837,8.99,14.134,22.509,14.134c0.525,0,1.058-0.017,1.604-0.052
			c12.19-0.779,17.965-15.13,19.16-18.513l19.775-0.467c1.368,3.233,7.854,16.834,20.437,17.647c0.521,0.035,1.034,0.05,1.539,0.05
			c13.308,0,20.454-11.106,22.073-13.959l16.922,2.463c0.617,3.179,3.651,15.359,14.396,18.734c2.452,0.771,4.913,1.163,7.315,1.163
			c9.976,0,16.196-6.54,17.394-7.915c23.33-7.215,58.913-17.867,62.092-17.867c5.994,0,14.333,8.063,14.333,15.999
			c0,17.192-27.08,36.025-55.748,55.963c-9.633,6.696-19.591,13.622-28.971,20.772c-3.068,2.339-6.084,4.562-8.999,6.71
			c-21.297,15.699-38.117,28.099-38.117,58.057c0,10.894,2.766,25.781,5.694,41.546c3.504,18.862,7.475,40.241,7.475,58.953
			C338.001,666.426,330.362,679.533,328.797,682.001L328.797,682.001z"/>
		<path d="M280.834,386.166c0,0,6.335,16.795,19.833,17.667c0.499,0.032,0.993,0.048,1.477,0.048
			c14.501,0,21.523-14.048,21.523-14.048L342,392.5c0,0,2.166,15,13.833,18.666c2.508,0.788,4.854,1.115,7.017,1.115
			c10.557,0,16.817-7.781,16.817-7.781s58.166-18,62.666-18c6.669,0,15.334,8.56,15.334,17c0,23.524-47.198,48.634-85.113,77.528
			c-25.452,19.396-46.721,30.473-46.721,63.972c0,23.796,13.167,66.065,13.167,100.5c0,23.833-9.667,37.5-9.667,37.5h-108.5
			c0,0-10-13.667-10-38.333c0-26.674,13.333-79.386,13.333-101.334c0-31.666-19.628-43.601-45.001-62.833
			c-36.5-27.667-80.5-53.254-80.5-76.667C98.667,393.72,110.818,387,113.5,387c4.167,0,54,18,54,18s7.282,7.988,17.261,7.988
			c2.94,0,6.113-0.692,9.405-2.488c11-6,11-17.834,11-17.834l12.5-1.666c0,0,7.021,14.216,21.962,14.216
			c0.504,0,1.016-0.017,1.539-0.05c12.999-0.832,18.5-18.5,18.5-18.5L280.834,386.166 M279.521,388.197l-18.426,0.436
			c-1.664,4.405-7.689,17.754-19.8,18.529c-0.557,0.035-1.118,0.054-1.667,0.054c-13.425,0-20.828-10.352-23.045-14.054
			l-9.543,1.272c-0.453,3.786-2.518,12.695-11.916,17.821c-3.324,1.813-6.811,2.732-10.363,2.732
			c-9.572,0-16.712-6.585-18.379-8.266c-19-6.857-49.793-17.603-52.894-17.723c-1.701,0.084-12.822,6.007-12.822,14.833
			c0,17.645,27.685,37.484,56.995,58.489c7.522,5.391,15.3,10.965,22.713,16.584c2.029,1.538,4.021,3.029,5.97,4.487
			c22.249,16.654,39.823,29.809,39.823,59.939c0,10.611-3.016,28.009-6.209,46.428c-3.502,20.202-7.124,41.092-7.124,54.906
			c0,20.337,7.048,33.086,9.077,36.333h106.327c1.985-3.277,8.763-15.907,8.763-35.5c0-18.619-3.962-39.95-7.457-58.771
			c-2.937-15.81-5.71-30.743-5.71-41.729c0-30.462,16.999-42.994,38.521-58.861c2.913-2.147,5.925-4.367,8.987-6.701
			c9.396-7.16,19.362-14.091,29.001-20.794c28.451-19.785,55.324-38.473,55.324-55.144c0-7.441-7.758-15-13.334-15
			c-3.219,0.058-39.208,10.84-61.531,17.742c-1.659,1.827-8.031,8.039-17.952,8.039c-2.505,0-5.067-0.406-7.616-1.207
			c-10.572-3.322-14.013-14.678-14.929-18.8l-15.569-2.265c-2.223,3.677-9.563,13.871-22.592,13.871
			c-0.529,0-1.069-0.018-1.605-0.052C288.104,405.025,281.412,392.401,279.521,388.197L279.521,388.197z"/>
	</g>
	<g>
		<linearGradient id="SVGID_5_" gradientUnits="userSpaceOnUse" x1="140.7515" y1="157.9082" x2="408.124" y2="157.9082">
			<stop  offset="0" style="stop-color:#E1A54F"/>
			<stop  offset="1" style="stop-color:#EBED4A"/>
		</linearGradient>
		<path fill="url(#SVGID_5_)" d="M376.375,295.999c-3.945,0-19.63-4.33-23.897-5.53c1.561-4.173,5.682-19.233-11.764-28.355
			c-3.796-1.983-7.576-2.991-11.233-2.991c-12.096,0-19.425,10.671-21.279,13.737c-3.538-1.453-17.845-6.861-34.451-6.861
			c-16.587,0-31.07,5.958-34.696,7.576c-1.876-3.256-9.316-14.564-22.094-14.564c-3.975,0-8.115,1.13-12.305,3.358
			c-14.972,7.956-12.042,24.673-11.089,28.679c-2.712,1.139-12.184,4.825-21.191,4.825c-12.895,0-31.624-9.007-31.624-23.124
			c0-14.542,16.78-28.922,34.545-44.148c2.142-1.835,4.307-3.69,6.475-5.571c2.121-1.841,4.245-3.641,6.345-5.423
			c18.454-15.653,35.885-30.435,35.885-59.981c0-15.225-2.846-30.27-5.86-46.201c-3.264-17.26-6.639-35.109-6.639-54.675
			c0-27.271,7.922-35.641,9.358-36.932h106.484c1.567,1.618,9.903,11.417,9.903,36.433c0,14.485-3.744,35.699-7.368,56.213
			c-3.153,17.848-6.132,34.707-6.132,44.786c0,28.594,16.861,43.043,36.383,59.776l1.051,0.901c1.864,1.599,3.736,3.193,5.604,4.786
			c21.259,18.113,41.338,35.223,41.338,49.538C408.124,283.924,396.249,295.999,376.375,295.999L376.375,295.999z"/>
		<path d="M327.75,18.817c0,0,10.5,9.058,10.5,37.433c0,27.423-13.5,79.677-13.5,101c0,28.647,17.534,43.152,37.083,59.917
			c22.941,19.673,47.292,39,47.292,55.083c0,11.767-11.897,24.75-32.75,24.75c-4.75,0-25.25-5.875-25.25-5.875
			S359.92,273.284,340.25,263c-3.922-2.051-7.521-2.876-10.77-2.876c-13.384-0.001-20.855,14.001-20.855,14.001
			S292.834,267,273.75,267c-19.083,0-35.125,7.875-35.125,7.875s-7.504-14.862-21.665-14.864c-3.535,0-7.482,0.925-11.835,3.239
			c-16.458,8.75-10.375,28.375-10.375,28.375s-11.417,5.25-22.375,5.25c-14.015,0-32.625-9.812-32.625-24.125
			c0-16.75,20.64-32.485,41.366-50.475C202.014,204.135,223,190,223,157.625c0-31.639-12.5-63.201-12.5-100.875
			c0-30.917,10-37.933,10-37.933H327.75 M326.909,20.817H221.258c-1.791,1.796-8.758,10.428-8.758,35.933
			c0,19.471,3.367,37.274,6.624,54.491c3.021,15.977,5.876,31.067,5.876,46.384c0,30.009-17.601,44.937-36.234,60.742
			c-2.076,1.76-4.222,3.581-6.339,5.418c-2.168,1.882-4.334,3.739-6.477,5.575c-17.587,15.073-34.2,29.31-34.2,43.39
			c0,7.858,6.367,13.249,10.162,15.763c5.925,3.924,13.766,6.362,20.463,6.362c8.119,0,16.655-3.073,20.036-4.433
			c-1.089-5.306-2.913-21.149,11.775-28.958c4.335-2.305,8.633-3.473,12.774-3.473c12.406,0.001,19.951,10.177,22.494,14.289
			c4.692-2.036,18.367-7.3,34.296-7.3c15.947,0,29.47,4.785,34.053,6.613c2.508-3.875,9.915-13.491,21.678-13.49
			c3.822,0,7.758,1.045,11.696,3.104c16.923,8.848,14.347,23.112,12.589,28.565c6.668,1.861,19.332,5.207,22.609,5.207
			c19.248,0,30.75-11.567,30.75-22.75c0-13.854-20.836-31.607-40.985-48.776c-1.87-1.593-3.744-3.189-5.608-4.789l-1.051-0.901
			c-18.89-16.19-36.73-31.482-36.73-60.534c0-10.167,2.985-27.068,6.146-44.961c3.615-20.472,7.354-41.641,7.354-56.039
			C336.25,32.827,328.876,23.016,326.909,20.817L326.909,20.817z"/>
	</g>
	<g>
		<g>
			<radialGradient id="SVGID_6_" cx="241.4702" cy="406.6396" r="19.0366" gradientUnits="userSpaceOnUse">
				<stop  offset="0.3022" style="stop-color:#BBC8FF"/>
				<stop  offset="1" style="stop-color:#667BF8"/>
			</radialGradient>
			<polygon fill="url(#SVGID_6_)" points="232.321,425.233 231.763,388.934 239.021,388.767 240.063,425.067 232.321,425.233 			"/>
			<path fill="#020202" d="M239.75,388l1.083,37.8l-9.25,0.2L231,388.199L239.75,388 M238.293,389.533l-5.771,0.132l0.537,34.803
				l6.231-0.135L238.293,389.533L238.293,389.533z"/>
		</g>
		<g>
			<radialGradient id="SVGID_7_" cx="243.6113" cy="406.6299" r="18.428" gradientUnits="userSpaceOnUse">
				<stop  offset="0.3022" style="stop-color:#BBC8FF"/>
				<stop  offset="1" style="stop-color:#667BF8"/>
			</radialGradient>
			<polygon fill="url(#SVGID_7_)" points="246.07,424.983 245.511,388.683 252.771,388.516 253.814,424.817 246.07,424.983 			"/>
			<path fill="#020202" d="M253.5,387.75l1.083,37.8l-9.25,0.2l-0.583-37.801L253.5,387.75 M252.043,389.283l-5.771,0.132
				l0.537,34.803l6.231-0.135L252.043,389.283L252.043,389.283z"/>
		</g>
	</g>
	<g>
		<g>
			<radialGradient id="SVGID_8_" cx="182.4702" cy="409.6396" r="19.0366" gradientUnits="userSpaceOnUse">
				<stop  offset="0.3022" style="stop-color:#BBC8FF"/>
				<stop  offset="1" style="stop-color:#667BF8"/>
			</radialGradient>
			<polygon fill="url(#SVGID_8_)" points="173.321,428.233 172.763,391.934 180.021,391.767 181.063,428.067 173.321,428.233 			"/>
			<path fill="#020202" d="M180.75,391l1.083,37.8l-9.25,0.2L172,391.199L180.75,391 M179.293,392.533l-5.771,0.132l0.537,34.803
				l6.231-0.135L179.293,392.533L179.293,392.533z"/>
		</g>
		<g>
			<radialGradient id="SVGID_9_" cx="184.6113" cy="409.6299" r="18.428" gradientUnits="userSpaceOnUse">
				<stop  offset="0.3022" style="stop-color:#BBC8FF"/>
				<stop  offset="1" style="stop-color:#667BF8"/>
			</radialGradient>
			<polygon fill="url(#SVGID_9_)" points="187.07,427.983 186.511,391.683 193.771,391.516 194.814,427.817 187.07,427.983 			"/>
			<path fill="#020202" d="M194.5,390.75l1.083,37.8l-9.25,0.2l-0.583-37.801L194.5,390.75 M193.043,392.283l-5.771,0.132
				l0.537,34.803l6.231-0.135L193.043,392.283L193.043,392.283z"/>
		</g>
	</g>
	<g>
		<g>
			<radialGradient id="SVGID_10_" cx="167.8398" cy="286.5386" r="18.4756" gradientUnits="userSpaceOnUse">
				<stop  offset="0.3022" style="stop-color:#BBC8FF"/>
				<stop  offset="1" style="stop-color:#667BF8"/>
			</radialGradient>
			<polygon fill="url(#SVGID_10_)" points="143.49,304.077 137.044,299.794 157.324,269.679 163.377,273.689 143.49,304.077 			"/>
			<path fill="#020202" d="M157.118,268.644l7.295,4.835l-20.708,31.642L136,300L157.118,268.644 M157.53,270.716l-19.443,28.87
				l5.19,3.449l19.064-29.13L157.53,270.716L157.53,270.716z"/>
		</g>
		<g>
			<radialGradient id="SVGID_11_" cx="142.4448" cy="294.416" r="32.2074" gradientUnits="userSpaceOnUse">
				<stop  offset="0.3022" style="stop-color:#BBC8FF"/>
				<stop  offset="1" style="stop-color:#667BF8"/>
			</radialGradient>
			<polygon fill="url(#SVGID_11_)" points="154.919,311.729 148.471,307.443 168.752,277.33 174.805,281.343 154.919,311.729 			"/>
			<path fill="#020202" d="M168.545,276.294l7.295,4.836l-20.708,31.642l-7.706-5.121L168.545,276.294 M168.958,278.367
				l-19.444,28.87l5.191,3.45l19.064-29.13L168.958,278.367L168.958,278.367z"/>
		</g>
	</g>
	<g>
		<g>
			<linearGradient id="SVGID_12_" gradientUnits="userSpaceOnUse" x1="348.0264" y1="207.3008" x2="380.1338" y2="207.3008">
				<stop  offset="0" style="stop-color:#FDFFF1"/>
				<stop  offset="1" style="stop-color:#7CE883"/>
			</linearGradient>
			<polygon fill="url(#SVGID_12_)" points="353.17,222.174 348.026,216.389 375.302,192.428 380.134,197.849 353.17,222.174 			"/>
			<path fill="#020202" d="M375.366,191.373l5.824,6.533l-28.078,25.33l-6.148-6.913L375.366,191.373 M375.237,193.482
				l-26.149,22.971l4.142,4.656l25.849-23.319L375.237,193.482L375.237,193.482z"/>
		</g>
		<g>
			<linearGradient id="SVGID_13_" gradientUnits="userSpaceOnUse" x1="357.1289" y1="217.6064" x2="389.2383" y2="217.6064">
				<stop  offset="0" style="stop-color:#FDFFF1"/>
				<stop  offset="1" style="stop-color:#7CE883"/>
			</linearGradient>
			<polygon fill="url(#SVGID_13_)" points="362.276,232.479 357.129,226.694 384.405,202.734 389.238,208.157 362.276,232.479 			
				"/>
			<path fill="#020202" d="M384.47,201.679l5.825,6.534l-28.078,25.33l-6.148-6.914L384.47,201.679 M384.341,203.789l-26.148,22.971
				l4.142,4.657l25.849-23.319L384.341,203.789L384.341,203.789z"/>
		</g>
	</g>
	<g>
		<g>
			<radialGradient id="SVGID_14_" cx="299.0869" cy="405.6338" r="18.96" gradientUnits="userSpaceOnUse">
				<stop  offset="0.3022" style="stop-color:#BBC8FF"/>
				<stop  offset="1" style="stop-color:#667BF8"/>
			</radialGradient>
			<polygon fill="url(#SVGID_14_)" points="297.774,424.159 290.03,424.132 290.384,387.826 297.644,387.843 297.774,424.159 			"/>
			<path fill="#020202" d="M289.64,387.075l8.752,0.021l0.134,37.815l-9.252-0.032L289.64,387.075 M291.125,388.579l-0.337,34.805
				l6.231,0.022l-0.123-34.814L291.125,388.579L291.125,388.579z"/>
		</g>
		<g>
			<radialGradient id="SVGID_15_" cx="302.0127" cy="405.9688" r="18.0883" gradientUnits="userSpaceOnUse">
				<stop  offset="0.3022" style="stop-color:#BBC8FF"/>
				<stop  offset="1" style="stop-color:#667BF8"/>
			</radialGradient>
			<polygon fill="url(#SVGID_15_)" points="311.525,424.254 303.784,424.227 304.135,387.921 311.396,387.938 311.525,424.254 			
				"/>
			<path fill="#020202" d="M303.392,387.17l8.752,0.021l0.134,37.815l-9.252-0.032L303.392,387.17 M304.877,388.674l-0.337,34.805
				l6.231,0.022l-0.123-34.814L304.877,388.674L304.877,388.674z"/>
		</g>
	</g>
	<g>
		<g>
			<radialGradient id="SVGID_16_" cx="371.0869" cy="414.6338" r="18.96" gradientUnits="userSpaceOnUse">
				<stop  offset="0.3022" style="stop-color:#BBC8FF"/>
				<stop  offset="1" style="stop-color:#667BF8"/>
			</radialGradient>
			<polygon fill="url(#SVGID_16_)" points="369.774,433.159 362.03,433.132 362.384,396.826 369.644,396.843 369.774,433.159 			"/>
			<path fill="#020202" d="M361.64,396.075l8.752,0.021l0.134,37.815l-9.252-0.032L361.64,396.075 M363.125,397.579l-0.337,34.805
				l6.231,0.022l-0.123-34.814L363.125,397.579L363.125,397.579z"/>
		</g>
		<g>
			<radialGradient id="SVGID_17_" cx="374.0127" cy="414.9688" r="18.0883" gradientUnits="userSpaceOnUse">
				<stop  offset="0.3022" style="stop-color:#BBC8FF"/>
				<stop  offset="1" style="stop-color:#667BF8"/>
			</radialGradient>
			<polygon fill="url(#SVGID_17_)" points="383.525,433.254 375.784,433.227 376.135,396.921 383.396,396.938 383.525,433.254 			
				"/>
			<path fill="#020202" d="M375.392,396.17l8.752,0.021l0.134,37.815l-9.252-0.032L375.392,396.17 M376.877,397.674l-0.337,34.805
				l6.231,0.022l-0.123-34.814L376.877,397.674L376.877,397.674z"/>
		</g>
	</g>
	<g>
		<radialGradient id="SVGID_18_" cx="273.334" cy="314.999" r="5.7507" gradientUnits="userSpaceOnUse">
			<stop  offset="0" style="stop-color:#F5E4F4"/>
			<stop  offset="0.6813" style="stop-color:#D288B9"/>
		</radialGradient>
		<path fill="url(#SVGID_18_)" d="M273.333,320.75c-3.172,0-5.751-2.579-5.751-5.749c0-3.172,2.579-5.751,5.751-5.751
			s5.751,2.579,5.751,5.751C279.085,318.17,276.505,320.75,273.333,320.75L273.333,320.75z"/>
		<path fill="#020202" d="M273.333,307.5c4.143,0,7.5,3.358,7.5,7.5s-3.358,7.5-7.5,7.5c-4.142,0-7.5-3.358-7.5-7.5
			S269.191,307.5,273.333,307.5 M273.333,311c-2.206,0-4,1.794-4,4s1.794,4,4,4c2.206,0,4-1.794,4-4S275.54,311,273.333,311
			L273.333,311z"/>
	</g>
	<circle fill="#FBFFFF" stroke="#020202" stroke-width="1.9422" cx="246.084" cy="218.25" r="22.416"/>
	<g>
		<radialGradient id="SVGID_19_" cx="335" cy="292.666" r="5.751" gradientUnits="userSpaceOnUse">
			<stop  offset="0" style="stop-color:#F5E4F4"/>
			<stop  offset="0.6813" style="stop-color:#D288B9"/>
		</radialGradient>
		<path fill="url(#SVGID_19_)" d="M335,298.416c-3.172,0-5.751-2.579-5.751-5.749c0-3.172,2.579-5.751,5.751-5.751
			s5.752,2.579,5.752,5.751C340.752,295.837,338.172,298.416,335,298.416L335,298.416z"/>
		<path fill="#020202" d="M335,285.167c4.143,0,7.5,3.358,7.5,7.5s-3.357,7.5-7.5,7.5s-7.5-3.358-7.5-7.5
			S330.857,285.167,335,285.167 M335,288.667c-2.205,0-4,1.794-4,4s1.795,4,4,4c2.206,0,4-1.794,4-4S337.206,288.667,335,288.667
			L335,288.667z"/>
	</g>
	<g>
		<radialGradient id="SVGID_20_" cx="326.5" cy="273.333" r="5.751" gradientUnits="userSpaceOnUse">
			<stop  offset="0" style="stop-color:#F5E4F4"/>
			<stop  offset="0.6813" style="stop-color:#D288B9"/>
		</radialGradient>
		<path fill="url(#SVGID_20_)" d="M326.5,279.083c-3.172,0-5.751-2.579-5.751-5.749c0-3.172,2.579-5.751,5.751-5.751
			s5.752,2.579,5.752,5.751C332.252,276.504,329.672,279.083,326.5,279.083L326.5,279.083z"/>
		<path fill="#020202" d="M326.5,265.833c4.143,0,7.5,3.358,7.5,7.5s-3.357,7.5-7.5,7.5s-7.5-3.358-7.5-7.5
			S322.357,265.833,326.5,265.833 M326.5,269.333c-2.205,0-4,1.794-4,4s1.795,4,4,4c2.206,0,4-1.794,4-4
			S328.706,269.333,326.5,269.333L326.5,269.333z"/>
	</g>
	<g>
		<radialGradient id="SVGID_21_" cx="223.334" cy="302.333" r="5.7505" gradientUnits="userSpaceOnUse">
			<stop  offset="0" style="stop-color:#F5E4F4"/>
			<stop  offset="0.6813" style="stop-color:#D288B9"/>
		</radialGradient>
		<path fill="url(#SVGID_21_)" d="M223.333,308.083c-3.172,0-5.751-2.579-5.751-5.749c0-3.172,2.579-5.751,5.751-5.751
			s5.751,2.579,5.751,5.751C229.085,305.504,226.505,308.083,223.333,308.083L223.333,308.083z"/>
		<path fill="#020202" d="M223.333,294.833c4.143,0,7.5,3.358,7.5,7.5s-3.358,7.5-7.5,7.5c-4.142,0-7.5-3.358-7.5-7.5
			S219.191,294.833,223.333,294.833 M223.333,298.333c-2.206,0-4,1.794-4,4s1.794,4,4,4c2.206,0,4-1.794,4-4
			S225.54,298.333,223.333,298.333L223.333,298.333z"/>
	</g>
	<g>
		<radialGradient id="SVGID_22_" cx="204.334" cy="294.166" r="5.7507" gradientUnits="userSpaceOnUse">
			<stop  offset="0" style="stop-color:#F5E4F4"/>
			<stop  offset="0.6813" style="stop-color:#D288B9"/>
		</radialGradient>
		<path fill="url(#SVGID_22_)" d="M204.333,299.917c-3.172,0-5.751-2.579-5.751-5.749c0-3.172,2.579-5.751,5.751-5.751
			s5.751,2.579,5.751,5.751C210.085,297.337,207.505,299.917,204.333,299.917L204.333,299.917z"/>
		<path fill="#020202" d="M204.333,286.667c4.143,0,7.5,3.358,7.5,7.5s-3.358,7.5-7.5,7.5c-4.142,0-7.5-3.358-7.5-7.5
			S200.191,286.667,204.333,286.667 M204.333,290.167c-2.206,0-4,1.794-4,4s1.794,4,4,4c2.206,0,4-1.794,4-4
			S206.54,290.167,204.333,290.167L204.333,290.167z"/>
	</g>
	<g>
		<radialGradient id="SVGID_23_" cx="212.167" cy="276.666" r="5.7507" gradientUnits="userSpaceOnUse">
			<stop  offset="0" style="stop-color:#F5E4F4"/>
			<stop  offset="0.6813" style="stop-color:#D288B9"/>
		</radialGradient>
		<path fill="url(#SVGID_23_)" d="M212.167,282.417c-3.172,0-5.751-2.579-5.751-5.749c0-3.172,2.579-5.751,5.751-5.751
			s5.751,2.579,5.751,5.751C217.918,279.837,215.338,282.417,212.167,282.417L212.167,282.417z"/>
		<path fill="#020202" d="M212.167,269.167c4.143,0,7.5,3.358,7.5,7.5s-3.358,7.5-7.5,7.5c-4.142,0-7.5-3.358-7.5-7.5
			S208.024,269.167,212.167,269.167 M212.167,272.667c-2.206,0-4,1.794-4,4s1.794,4,4,4c2.206,0,4-1.794,4-4
			S214.373,272.667,212.167,272.667L212.167,272.667z"/>
	</g>
	<g>
		<radialGradient id="SVGID_24_" cx="240.667" cy="208" r="5.7505" gradientUnits="userSpaceOnUse">
			<stop  offset="0" style="stop-color:#F5E4F4"/>
			<stop  offset="0.6813" style="stop-color:#D288B9"/>
		</radialGradient>
		<path fill="url(#SVGID_24_)" d="M240.667,213.75c-3.172,0-5.751-2.579-5.751-5.749c0-3.172,2.579-5.751,5.751-5.751
			s5.751,2.579,5.751,5.751C246.418,211.171,243.838,213.75,240.667,213.75L240.667,213.75z"/>
		<path fill="#020202" d="M240.667,200.5c4.143,0,7.5,3.358,7.5,7.5s-3.358,7.5-7.5,7.5c-4.142,0-7.5-3.358-7.5-7.5
			S236.524,200.5,240.667,200.5 M240.667,204c-2.206,0-4,1.794-4,4s1.794,4,4,4c2.206,0,4-1.794,4-4S242.873,204,240.667,204
			L240.667,204z"/>
	</g>
	<g>
		<radialGradient id="SVGID_25_" cx="257.833" cy="213.333" r="5.7507" gradientUnits="userSpaceOnUse">
			<stop  offset="0" style="stop-color:#F5E4F4"/>
			<stop  offset="0.6813" style="stop-color:#D288B9"/>
		</radialGradient>
		<path fill="url(#SVGID_25_)" d="M257.833,219.083c-3.172,0-5.751-2.579-5.751-5.749c0-3.172,2.579-5.751,5.751-5.751
			s5.751,2.579,5.751,5.751C263.584,216.504,261.005,219.083,257.833,219.083L257.833,219.083z"/>
		<path fill="#020202" d="M257.833,205.833c4.143,0,7.5,3.358,7.5,7.5s-3.358,7.5-7.5,7.5c-4.142,0-7.5-3.358-7.5-7.5
			S253.691,205.833,257.833,205.833 M257.833,209.333c-2.206,0-4,1.794-4,4s1.794,4,4,4c2.206,0,4-1.794,4-4
			S260.039,209.333,257.833,209.333L257.833,209.333z"/>
	</g>
	<g>
		<radialGradient id="SVGID_26_" cx="252.333" cy="228.833" r="5.7507" gradientUnits="userSpaceOnUse">
			<stop  offset="0" style="stop-color:#F5E4F4"/>
			<stop  offset="0.6813" style="stop-color:#D288B9"/>
		</radialGradient>
		<path fill="url(#SVGID_26_)" d="M252.333,234.583c-3.172,0-5.751-2.579-5.751-5.749c0-3.172,2.579-5.751,5.751-5.751
			s5.751,2.579,5.751,5.751C258.084,232.004,255.505,234.583,252.333,234.583L252.333,234.583z"/>
		<path fill="#020202" d="M252.333,221.333c4.143,0,7.5,3.358,7.5,7.5s-3.358,7.5-7.5,7.5c-4.142,0-7.5-3.358-7.5-7.5
			S248.191,221.333,252.333,221.333 M252.333,224.833c-2.206,0-4,1.794-4,4s1.794,4,4,4c2.206,0,4-1.794,4-4
			S254.539,224.833,252.333,224.833L252.333,224.833z"/>
	</g>
	<g>
		<radialGradient id="SVGID_27_" cx="234.833" cy="222.833" r="5.7507" gradientUnits="userSpaceOnUse">
			<stop  offset="0" style="stop-color:#F5E4F4"/>
			<stop  offset="0.6813" style="stop-color:#D288B9"/>
		</radialGradient>
		<path fill="url(#SVGID_27_)" d="M234.833,228.583c-3.172,0-5.751-2.579-5.751-5.749c0-3.172,2.579-5.751,5.751-5.751
			s5.751,2.579,5.751,5.751C240.584,226.004,238.005,228.583,234.833,228.583L234.833,228.583z"/>
		<path fill="#020202" d="M234.833,215.333c4.143,0,7.5,3.358,7.5,7.5s-3.358,7.5-7.5,7.5c-4.142,0-7.5-3.358-7.5-7.5
			S230.691,215.333,234.833,215.333 M234.833,218.833c-2.206,0-4,1.794-4,4s1.794,4,4,4c2.206,0,4-1.794,4-4
			S237.039,218.833,234.833,218.833L234.833,218.833z"/>
	</g>
	<g>
		<radialGradient id="SVGID_28_" cx="229.5" cy="279.499" r="5.751" gradientUnits="userSpaceOnUse">
			<stop  offset="0" style="stop-color:#F5E4F4"/>
			<stop  offset="0.6813" style="stop-color:#D288B9"/>
		</radialGradient>
		<path fill="url(#SVGID_28_)" d="M229.5,285.25c-3.172,0-5.751-2.579-5.751-5.749c0-3.172,2.579-5.751,5.751-5.751
			s5.751,2.579,5.751,5.751C235.251,282.67,232.672,285.25,229.5,285.25L229.5,285.25z"/>
		<path fill="#020202" d="M229.5,272c4.143,0,7.5,3.358,7.5,7.5s-3.358,7.5-7.5,7.5c-4.142,0-7.5-3.358-7.5-7.5
			S225.358,272,229.5,272 M229.5,275.5c-2.206,0-4,1.794-4,4s1.794,4,4,4c2.206,0,4-1.794,4-4S231.706,275.5,229.5,275.5
			L229.5,275.5z"/>
	</g>
	<g>
		<radialGradient id="SVGID_29_" cx="318.334" cy="354.667" r="5.7505" gradientUnits="userSpaceOnUse">
			<stop  offset="0" style="stop-color:#F5E4F4"/>
			<stop  offset="0.6813" style="stop-color:#D288B9"/>
		</radialGradient>
		<path fill="url(#SVGID_29_)" d="M318.334,360.417c-3.172,0-5.752-2.579-5.752-5.749c0-3.173,2.58-5.751,5.752-5.751
			s5.751,2.578,5.751,5.751C324.085,357.838,321.506,360.417,318.334,360.417L318.334,360.417z"/>
		<path fill="#020202" d="M318.334,347.167c4.143,0,7.5,3.358,7.5,7.5c0,4.143-3.357,7.5-7.5,7.5s-7.5-3.357-7.5-7.5
			C310.834,350.525,314.191,347.167,318.334,347.167 M318.334,350.667c-2.206,0-4,1.795-4,4c0,2.206,1.794,4,4,4
			c2.205,0,4-1.794,4-4C322.334,352.462,320.539,350.667,318.334,350.667L318.334,350.667z"/>
	</g>
	<g>
		<radialGradient id="SVGID_30_" cx="233.667" cy="358.833" r="5.7507" gradientUnits="userSpaceOnUse">
			<stop  offset="0" style="stop-color:#F5E4F4"/>
			<stop  offset="0.6813" style="stop-color:#D288B9"/>
		</radialGradient>
		<path fill="url(#SVGID_30_)" d="M233.667,364.583c-3.172,0-5.752-2.579-5.752-5.749c0-3.173,2.58-5.751,5.752-5.751
			s5.751,2.578,5.751,5.751C239.418,362.004,236.839,364.583,233.667,364.583L233.667,364.583z"/>
		<path fill="#020202" d="M233.667,351.333c4.143,0,7.5,3.358,7.5,7.5c0,4.143-3.357,7.5-7.5,7.5s-7.5-3.357-7.5-7.5
			C226.167,354.691,229.525,351.333,233.667,351.333 M233.667,354.833c-2.206,0-4,1.795-4,4c0,2.206,1.794,4,4,4
			c2.205,0,4-1.794,4-4C237.667,356.628,235.873,354.833,233.667,354.833L233.667,354.833z"/>
	</g>
	<g>
		<radialGradient id="SVGID_31_" cx="196.5005" cy="344.666" r="5.7507" gradientUnits="userSpaceOnUse">
			<stop  offset="0" style="stop-color:#F5E4F4"/>
			<stop  offset="0.6813" style="stop-color:#D288B9"/>
		</radialGradient>
		<path fill="url(#SVGID_31_)" d="M196.501,350.416c-3.172,0-5.752-2.579-5.752-5.749c0-3.173,2.58-5.751,5.752-5.751
			s5.751,2.578,5.751,5.751C202.252,347.837,199.673,350.416,196.501,350.416L196.501,350.416z"/>
		<path fill="#020202" d="M196.501,337.166c4.143,0,7.5,3.358,7.5,7.5c0,4.143-3.357,7.5-7.5,7.5s-7.5-3.357-7.5-7.5
			C189.001,340.524,192.358,337.166,196.501,337.166 M196.501,340.666c-2.206,0-4,1.795-4,4c0,2.206,1.794,4,4,4
			c2.205,0,4-1.794,4-4C200.501,342.461,198.706,340.666,196.501,340.666L196.501,340.666z"/>
	</g>
	<g>
		<path fill="#F31A71" d="M393.125,300.624c-7.099,0-12.874-5.775-12.874-12.875c0-7.097,5.775-12.872,12.874-12.872
			c7.1,0,12.875,5.775,12.875,12.872C406,294.849,400.225,300.624,393.125,300.624L393.125,300.624z"/>
		<path fill="#020202" d="M393.125,273.875c7.663,0,13.875,6.212,13.875,13.875s-6.212,13.875-13.875,13.875
			c-7.662,0-13.875-6.212-13.875-13.875S385.463,273.875,393.125,273.875 M393.125,275.875c-6.548,0-11.875,5.327-11.875,11.875
			s5.327,11.875,11.875,11.875S405,294.298,405,287.75S399.673,275.875,393.125,275.875L393.125,275.875z"/>
	</g>
	<g>
		<path fill="#AFC96E" d="M279.057,163.391c-2.75,0-4.968-0.816-6.412-2.362c-4.696-5.029-0.512-16.894,9.138-25.909
			c6.415-5.992,14.102-9.716,20.062-9.716c2.75,0,4.965,0.816,6.409,2.362c4.696,5.029,0.513,16.894-9.137,25.909
			C292.7,159.668,285.014,163.391,279.057,163.391L279.057,163.391z"/>
		<path fill="#020202" d="M301.843,124.206c3.004,0,5.55,0.884,7.286,2.743c5.237,5.607,1.122,17.965-9.195,27.603
			c-6.897,6.443-14.819,10.039-20.879,10.039c-3.003,0-5.549-0.883-7.285-2.742c-5.238-5.608-1.122-17.966,9.194-27.604
			C287.861,127.802,295.783,124.207,301.843,124.206 M301.844,126.604C301.843,126.604,301.843,126.604,301.844,126.604
			c-5.668,0-13.041,3.6-19.243,9.394c-10.125,9.458-12.869,20.157-9.079,24.214c1.228,1.314,3.089,1.98,5.533,1.98
			c5.666,0,13.04-3.599,19.242-9.394c10.125-9.458,12.869-20.156,9.08-24.213C306.148,127.271,304.287,126.604,301.844,126.604
			L301.844,126.604z"/>
	</g>
	<path fill="none" stroke="#020202" stroke-width="3" d="M274.625,155.875c3.347,3.194,3.854-3.554,6.625-3
		c2.968,0.594,4.416,4.341,6.5,3.125c3.477-2.028-0.727-6.759,2.375-8c1.796-0.718,3.638,3.342,5.875,2
		c2.271-1.362-0.036-6.227,1-6.875c2.247-1.404,5.013,1.465,6-1.25c0.5-1.375,0.25-4.75,0.375-6s2.375-5.25,0.875-6.125
		c-4.859-2.835-2.732,9.06-6.125,8.75c-1.375-0.125-5-5-6.25-4.125c-2.441,1.709,2.126,7.718,0.25,9.125
		c-1.616,1.212-6.132-4.119-8-2.25c-2.498,2.499,4.346,6.144,2,8.75c-2.862,3.18-5.727-1.729-8.5-2.125
		C275.458,147.565,273.383,154.69,274.625,155.875z"/>
</g>
<g id="Ebene_3">
	<circle fill="#DCDCDC" stroke="#020202" stroke-width="1.9422" cx="276.642" cy="622.892" r="34.875"/>
	<circle fill="#DCDCDC" stroke="#020202" stroke-width="1.9422" cx="276.642" cy="63.558" r="34.875"/>
	<g>
		<path fill="#DCDCDC" d="M45.891,104.001c-10.271,0-18.625-8.355-18.625-18.626S35.621,66.75,45.891,66.75
			s18.625,8.355,18.625,18.625S56.162,104.001,45.891,104.001L45.891,104.001z"/>
		<path fill="#020202" d="M45.892,65.75c10.839,0,19.625,8.786,19.625,19.625s-8.786,19.625-19.625,19.625
			s-19.625-8.786-19.625-19.625S35.053,65.75,45.892,65.75 M45.892,67.75c-9.719,0-17.625,7.907-17.625,17.625
			s7.907,17.625,17.625,17.625s17.625-7.907,17.625-17.625S55.611,67.75,45.892,67.75L45.892,67.75z"/>
	</g>
	<g>
		<path fill="#DCDCDC" d="M45.892,203.668c-10.269,0-18.624-8.354-18.624-18.626c0-10.269,8.355-18.624,18.624-18.624
			s18.624,8.354,18.624,18.624C64.516,195.313,56.161,203.668,45.892,203.668L45.892,203.668z"/>
		<path fill="#020202" d="M45.892,165.417c10.839,0,19.625,8.786,19.625,19.625s-8.786,19.625-19.625,19.625
			s-19.625-8.786-19.625-19.625S35.053,165.417,45.892,165.417 M45.892,167.417c-9.719,0-17.625,7.907-17.625,17.625
			s7.907,17.625,17.625,17.625s17.625-7.907,17.625-17.625S55.611,167.417,45.892,167.417L45.892,167.417z"/>
	</g>
	<g>
		<path fill="#DCDCDC" d="M45.891,303.333c-10.269,0-18.623-8.354-18.623-18.625c0-10.27,8.354-18.623,18.623-18.623
			c10.271,0,18.625,8.354,18.625,18.623C64.517,294.979,56.163,303.333,45.891,303.333L45.891,303.333z"/>
		<path fill="#020202" d="M45.892,265.083c10.839,0,19.625,8.786,19.625,19.625s-8.786,19.625-19.625,19.625
			s-19.625-8.786-19.625-19.625S35.053,265.083,45.892,265.083 M45.892,267.083c-9.719,0-17.625,7.907-17.625,17.625
			s7.907,17.625,17.625,17.625s17.625-7.907,17.625-17.625S55.611,267.083,45.892,267.083L45.892,267.083z"/>
	</g>
	<g>
		<path fill="#DCDCDC" d="M45.891,370.334c-10.269,0-18.624-8.354-18.624-18.626c0-10.269,8.354-18.623,18.624-18.623
			c10.271,0,18.625,8.354,18.625,18.623C64.517,361.979,56.163,370.334,45.891,370.334L45.891,370.334z"/>
		<path fill="#020202" d="M45.892,332.083c10.839,0,19.625,8.786,19.625,19.625c0,10.84-8.786,19.625-19.625,19.625
			s-19.625-8.785-19.625-19.625C26.267,340.87,35.053,332.083,45.892,332.083 M45.892,334.083c-9.719,0-17.625,7.907-17.625,17.625
			s7.907,17.625,17.625,17.625s17.625-7.906,17.625-17.625S55.611,334.083,45.892,334.083L45.892,334.083z"/>
	</g>
	<g>
		<path fill="#DCDCDC" d="M45.892,547.669c-10.271,0-18.626-8.355-18.626-18.626c0-10.27,8.355-18.625,18.626-18.625
			c10.271,0,18.627,8.355,18.627,18.625C64.519,539.313,56.163,547.669,45.892,547.669L45.892,547.669z"/>
		<path fill="#020202" d="M45.892,509.418c10.839,0,19.625,8.785,19.625,19.625s-8.786,19.625-19.625,19.625
			s-19.625-8.785-19.625-19.625S35.053,509.418,45.892,509.418 M45.892,511.418c-9.719,0-17.625,7.906-17.625,17.625
			s7.907,17.625,17.625,17.625s17.625-7.906,17.625-17.625S55.611,511.418,45.892,511.418L45.892,511.418z"/>
	</g>
	<g>
		<path fill="#DCDCDC" d="M507.225,311c-10.271,0-18.625-8.354-18.625-18.623c0-10.271,8.354-18.625,18.625-18.625
			s18.628,8.355,18.628,18.625C525.853,302.646,517.495,311,507.225,311L507.225,311z"/>
		<path fill="#020202" d="M507.226,272.751c10.839,0,19.626,8.785,19.626,19.625s-8.787,19.625-19.626,19.625
			s-19.626-8.785-19.626-19.625S496.387,272.751,507.226,272.751 M507.226,274.751c-9.719,0-17.626,7.907-17.626,17.625
			s7.907,17.625,17.626,17.625s17.626-7.907,17.626-17.625S516.944,274.751,507.226,274.751L507.226,274.751z"/>
	</g>
	<g>
		<path fill="#DCDCDC" d="M507.225,203c-10.271,0-18.625-8.354-18.625-18.623c0-10.271,8.354-18.625,18.625-18.625
			s18.628,8.355,18.628,18.625C525.853,194.646,517.495,203,507.225,203L507.225,203z"/>
		<path fill="#020202" d="M507.226,164.751c10.839,0,19.626,8.785,19.626,19.625s-8.787,19.625-19.626,19.625
			s-19.626-8.785-19.626-19.625S496.387,164.751,507.226,164.751 M507.226,166.751c-9.719,0-17.626,7.907-17.626,17.625
			s7.907,17.625,17.626,17.625s17.626-7.907,17.626-17.625S516.944,166.751,507.226,166.751L507.226,166.751z"/>
	</g>
	<g>
		<path fill="#DCDCDC" d="M507.225,103c-10.271,0-18.625-8.355-18.625-18.624c0-10.271,8.354-18.625,18.625-18.625
			s18.628,8.354,18.628,18.625C525.853,94.646,517.495,103,507.225,103L507.225,103z"/>
		<path fill="#020202" d="M507.226,64.751c10.839,0,19.626,8.785,19.626,19.625s-8.787,19.625-19.626,19.625
			S487.6,95.216,487.6,84.376S496.387,64.751,507.226,64.751 M507.226,66.751c-9.719,0-17.626,7.907-17.626,17.625
			s7.907,17.625,17.626,17.625s17.626-7.907,17.626-17.625S516.944,66.751,507.226,66.751L507.226,66.751z"/>
	</g>
	<g>
		<g>
			<line fill="none" stroke="#020202" stroke-width="1.5" x1="75" y1="90" x2="267.333" y2="135"/>
			<polygon fill="#020202" points="277.646,137.413 261.725,139.95 266.563,134.819 264.502,128.076 			"/>
		</g>
	</g>
	<g>
		<g>
			<line fill="none" stroke="#020202" stroke-width="1.5" x1="73.333" y1="194.333" x2="214.482" y2="214.667"/>
			<polygon fill="#020202" points="224.965,216.177 209.324,220.084 213.699,214.554 211.063,208.015 			"/>
		</g>
	</g>
	<g>
		<g>
			<line fill="none" stroke="#020202" stroke-width="1.5" x1="475.333" y1="114.333" x2="391.333" y2="185"/>
			<polygon fill="#020202" points="383.229,191.817 390.724,177.544 391.938,184.49 398.574,186.875 			"/>
		</g>
	</g>
	<g>
		<g>
			<line fill="none" stroke="#020202" stroke-width="1.5" x1="476.666" y1="196" x2="361.667" y2="254.333"/>
			<polygon fill="#020202" points="352.222,259.124 362.773,246.935 362.373,253.975 368.29,257.81 			"/>
		</g>
	</g>
	<g>
		<g>
			<line fill="none" stroke="#020202" stroke-width="1.5" x1="474.666" y1="292" x2="429.667" y2="288"/>
			<polygon fill="#020202" points="419.118,287.062 434.523,282.31 430.456,288.07 433.443,294.456 			"/>
		</g>
	</g>
	<g>
		<g>
			<line fill="none" stroke="#020202" stroke-width="1.5" x1="414.333" y1="297.333" x2="392.667" y2="261"/>
			<polygon fill="#020202" points="385.887,249.629 401.987,261.749 393.174,261.85 388.896,269.555 			"/>
		</g>
	</g>
	<g>
		<g>
			<line fill="none" stroke="#020202" stroke-width="1.5" x1="369" y1="272.333" x2="391.999" y2="311.333"/>
			<polygon fill="#020202" points="398.724,322.736 382.682,310.538 391.496,310.48 395.812,302.795 			"/>
		</g>
	</g>
	<g>
		<g>
			<line fill="none" stroke="#020202" stroke-width="1.5" x1="70.667" y1="288.333" x2="125" y2="293.667"/>
			<polygon fill="#020202" points="135.54,294.702 120.091,299.312 124.212,293.59 121.283,287.176 			"/>
		</g>
	</g>
	<g>
		<g>
			<line fill="none" stroke="#F93735" stroke-width="1.0929" x1="187" y1="438.666" x2="227.333" y2="485"/>
			<polygon fill="#F93735" points="232.4,490.82 221.909,485.535 226.955,484.564 228.611,479.701 			"/>
		</g>
	</g>
	<g>
		<g>
			<line fill="none" stroke="#F93735" stroke-width="1.0929" x1="227" y1="426.333" x2="240" y2="481.666"/>
			<polygon fill="#F93735" points="241.765,489.178 234.953,479.608 239.868,481.104 243.602,477.576 			"/>
		</g>
	</g>
	<g>
		<g>
			<line fill="none" stroke="#F93735" stroke-width="1.0929" x1="251.333" y1="438" x2="255" y2="480.666"/>
			<polygon fill="#F93735" points="255.661,488.354 250.303,477.9 254.951,480.091 259.155,477.14 			"/>
		</g>
	</g>
	<g>
		<g>
			<line fill="none" stroke="#020202" stroke-width="1.5" x1="63.333" y1="510.333" x2="161.333" y2="441"/>
			<polygon fill="#020202" points="169.979,434.883 161.317,448.48 160.687,441.457 154.274,438.526 			"/>
		</g>
	</g>
	<path fill="none" stroke="#F1613E" stroke-width="3" d="M95.5,385.833c-20.086-4.506-9.037-32.001-14.667-39.166
		C77.167,342,70.333,342,70.333,342s6-3.333,11.667-3c0.499,0.029-5-38.167,19-37.167"/>
</g>
<g id="Ebene_4">
	<g>
		<path d="M268.834,68.237l-4.55,13.78h-5.85l14.886-43.812h6.825l14.95,43.812h-6.045l-4.681-13.78H268.834z M283.199,63.816
			l-4.354-12.61c-0.91-2.86-1.56-5.46-2.21-7.996h-0.195c-0.585,2.535-1.3,5.266-2.145,7.931l-4.291,12.675H283.199z"/>
	</g>
	<g>
		<path d="M264.584,601.056c2.47-0.585,6.435-0.976,10.335-0.976c5.655,0,9.296,0.976,11.961,3.186
			c2.274,1.689,3.705,4.29,3.705,7.735c0,4.29-2.86,7.995-7.41,9.62v0.195c4.16,0.975,9.035,4.42,9.035,10.92
			c0,3.771-1.495,6.631-3.771,8.775c-2.99,2.795-7.93,4.096-15.081,4.096c-3.9,0-6.89-0.261-8.775-0.521V601.056z M270.239,618.996
			h5.135c5.915,0,9.426-3.186,9.426-7.41c0-5.07-3.836-7.15-9.556-7.15c-2.6,0-4.095,0.195-5.005,0.39V618.996z M270.239,639.927
			c1.17,0.195,2.73,0.26,4.746,0.26c5.85,0,11.245-2.145,11.245-8.515c0-5.916-5.135-8.45-11.311-8.45h-4.68V639.927z"/>
	</g>
	<g>
		<path d="M44.813,75.226h-0.08l-4.519,2.44l-0.68-2.68l5.679-3.04h3v25.996h-3.399V75.226z"/>
	</g>
	<g>
		<path d="M37.175,197.442v-2.16l2.759-2.68c6.639-6.319,9.679-9.678,9.679-13.598c0-2.64-1.24-5.079-5.119-5.079
			c-2.36,0-4.319,1.2-5.519,2.2l-1.12-2.479c1.76-1.48,4.359-2.64,7.359-2.64c5.559,0,7.918,3.839,7.918,7.559
			c0,4.799-3.479,8.679-8.958,13.958l-2.04,1.919v0.08h11.638v2.919H37.175z"/>
	</g>
	<g>
		<path d="M39.432,293.576c1,0.6,3.279,1.6,5.759,1.6c4.479,0,5.919-2.84,5.879-5.04c-0.04-3.639-3.32-5.199-6.719-5.199h-1.959
			v-2.64h1.959c2.56,0,5.799-1.32,5.799-4.399c0-2.08-1.32-3.919-4.56-3.919c-2.08,0-4.079,0.92-5.199,1.72l-0.96-2.56
			c1.4-1,4.039-2,6.839-2c5.119,0,7.438,3.04,7.438,6.199c0,2.72-1.64,5-4.799,6.159v0.08c3.199,0.6,5.799,3,5.799,6.639
			c0,4.16-3.279,7.799-9.479,7.799c-2.919,0-5.479-0.92-6.759-1.76L39.432,293.576z"/>
	</g>
	<g>
		<path d="M46.919,364.076v-7.119H34.841v-2.279l11.598-16.598h3.799v16.157h3.64v2.72h-3.64v7.119H46.919z M46.919,354.237v-8.679
			c0-1.359,0.04-2.719,0.12-4.079h-0.12c-0.8,1.52-1.439,2.64-2.16,3.839l-6.359,8.838v0.08H46.919z"/>
	</g>
	<g>
		<path d="M53.542,519.54h-9.918l-1,6.679c0.6-0.08,1.16-0.16,2.12-0.16c2.04,0,4,0.44,5.599,1.399
			c2.04,1.12,3.719,3.399,3.719,6.68c0,5.079-4.039,8.878-9.678,8.878c-2.839,0-5.199-0.8-6.479-1.6l0.88-2.68
			c1.08,0.641,3.199,1.44,5.599,1.44c3.279,0,6.159-2.16,6.119-5.68c0-3.319-2.28-5.719-7.439-5.719c-1.52,0-2.68,0.12-3.64,0.28
			l1.68-12.479h12.438V519.54z"/>
	</g>
	<g>
		<path d="M507.46,278.439c5.04,0,7.6,3.12,7.6,6.399c0,2.2-1.12,4.599-4.319,6.079v0.12c3.239,1.28,5.238,3.6,5.238,6.719
			c0,4.559-3.879,7.559-8.838,7.559c-5.439,0-8.719-3.2-8.719-6.999c0-3.279,1.96-5.639,5.119-6.999v-0.12
			c-2.92-1.36-4.159-3.6-4.159-5.839c0-4.12,3.479-6.919,8.038-6.919H507.46z M507.221,302.755c3.159,0,5.199-1.959,5.199-4.639
			c0-3.12-2.2-4.679-5.72-5.679c-3.039,0.88-4.679,2.919-4.679,5.399c-0.12,2.6,1.88,4.919,5.159,4.919H507.221z M507.261,280.959
			c-2.92,0-4.52,1.92-4.52,4.159c-0.04,2.6,1.96,4,4.959,4.799c2.24-0.76,3.96-2.359,3.96-4.719c0-2.08-1.24-4.239-4.359-4.239
			H507.261z"/>
	</g>
	<g>
		<path d="M516.186,171.797v2.32l-11.317,23.676h-3.6l11.238-22.996v-0.08h-12.718v-2.919H516.186z"/>
	</g>
	<g>
		<path d="M512.445,73.209c-0.72-0.04-1.64,0.04-2.64,0.2c-5.56,0.88-8.438,4.879-9.039,9.198h0.08c1.24-1.68,3.439-3.04,6.319-3.04
			c4.6,0,7.839,3.359,7.839,8.399c0,4.799-3.239,9.198-8.679,9.198c-5.52,0-9.158-4.319-9.158-11.078
			c0-5.119,1.8-9.159,4.398-11.718c2.16-2.12,5.04-3.439,8.319-3.839c1.04-0.16,1.919-0.2,2.56-0.2V73.209z M506.406,94.446
			c2.999,0,5.039-2.52,5.039-6.239s-2.12-5.959-5.359-5.959c-2.119,0-4.119,1.28-5.079,3.199c-0.2,0.4-0.359,0.88-0.359,1.52
			c0.04,4.279,2.039,7.479,5.719,7.479H506.406z"/>
	</g>
</g>
</svg>
