<?xml version="1.0" encoding="utf-8"?>
<!-- Generator: Adobe Illustrator 18.1.0, SVG Export Plug-In . SVG Version: 6.00 Build 0)  -->
<svg version="1.1" xmlns="http://www.w3.org/2000/svg" xmlns:xlink="http://www.w3.org/1999/xlink" x="0px" y="0px"
	 viewBox="0 0 1263 1200" enable-background="new 0 0 1263 1200" xml:space="preserve">
<g id="sfondo">
	<polyline fill="#724B0D" points="1263.2,824.2 1204.6,824.2 1204.6,225.2 1263.2,225.2 1263.2,824.2 	"/>
	<polyline fill="#AFC362" points="1156,75.1 0,75.1 0,75.5 1146,75.5 1146,225.1 1146,373.7 0,373.7 0,373.7 1146,373.7 1146,524 
		1146,673.2 1146,823 0,823 0,976.1 1156,976.1 1156,75.1 	"/>
	<polyline fill="#E4F7FC" points="1146,75.1 0,75.1 0,225.1 1146,225.1 1146,75.1 	"/>
	<polyline fill="#DAF2ED" points="1146,225.1 1146,225.1 0,225.1 0,373.7 1146,373.7 1146,225.1 	"/>
	<polyline fill="#D7E1B1" points="1146,373.7 0,373.7 0,524 1146,524 1146,373.7 	"/>
	<polyline fill="#CFDBA1" points="1146,524 1146,524 0,524 0,673.2 1146,673.2 1146,524 	"/>
	<polyline fill="#FFFFFF" points="0,673.2 -0.4,673.2 -0.4,823 0,823 0,673.2 	"/>
	<polyline fill="#C7D591" points="1146,673.2 1146,673.2 0,673.2 0,823 1146,823 1146,673.2 	"/>
	<polyline fill="#CEC0AB" points="1204.6,225.1 1146,225.1 1146,373.7 1204.6,373.7 1204.6,225.1 	"/>
	<polyline fill="#B9A586" points="1204.6,373.7 1204.6,373.7 1146,373.7 1146,524 1204.6,524 1204.6,373.7 	"/>
	<polyline fill="#AA936E" points="1204.6,524 1204.6,524 1146,524 1146,673.2 1204.6,673.2 1204.6,524 	"/>
	<polyline fill="#9D8156" points="1204.6,673.2 1204.6,673.2 1146,673.2 1146,823.3 1204.6,823.3 1204.6,673.2 	"/>
	<rect x="1146" y="75.1" fill="#95DFF5" width="117" height="150"/>
	<rect x="1146" y="823.1" fill="#83924A" width="117" height="154"/>
	<rect x="1146" y="976.1" fill="#9D8156" width="117" height="224"/>
	<text transform="matrix(4.489659e-11 -1 1 4.489659e-11 1226.7045 192.343)"><tspan x="0" y="0" fill="#FFFFFF" font-family="'Arial-BoldMT'" font-size="20">ENERGIE</tspan><tspan x="-7.2" y="24" fill="#FFFFFF" font-family="'Arial-BoldMT'" font-size="20">QUELLEN</tspan></text>
	<g>
		<text transform="matrix(4.489659e-11 -1 1 4.489659e-11 1169.5852 345.7141)"><tspan x="0" y="0" fill="#FFFFFF" font-family="'ArialMT'" font-size="17">SPITZENPRÄDATOR</tspan><tspan x="-3.3" y="20.4" fill="#FFFFFF" font-family="'ArialMT'" font-size="17"> PREDATOR</tspan></text>
	</g>
	<g>
		
			<text transform="matrix(4.489659e-11 -1 1 4.489659e-11 1179.7852 496.0755)" fill="#FFFFFF" font-family="'ArialMT'" font-size="17">PRÄDATOR</text>
	</g>
	<g>
		
			<text transform="matrix(4.489659e-11 -1 1 4.489659e-11 1179.7852 650.5579)" fill="#FFFFFF" font-family="'ArialMT'" font-size="17">OMNIVOREN</text>
	</g>
	<g>
		
			<text transform="matrix(4.489659e-11 -1 1 4.489659e-11 1179.7852 804.0188)" fill="#FFFFFF" font-family="'ArialMT'" font-size="17">HERBIVOREN</text>
	</g>
	
		<text transform="matrix(4.489659e-11 -1 1 4.489659e-11 1238.705 591.2844)" fill="#FFFFFF" font-family="'Arial-BoldMT'" font-size="20">KONSUMENTEN</text>
	
		<text transform="matrix(4.489659e-11 -1 1 4.489659e-11 1238.7051 964.0081)" fill="#FFFFFF" font-family="'Arial-BoldMT'" font-size="20">PRODUZENTEN</text>
	
		<text transform="matrix(4.489659e-11 -1 1 4.489659e-11 1238.7051 1147.0247)" fill="#FFFFFF" font-family="'Arial-BoldMT'" font-size="20">DESTRUENTEN</text>
	<g>
		<path fill="#83924A" d="M647.9,976.1h-48.3c0,0-2.6-1.6-2.3-3.3c0,0-4.4,3-8.2-1.8c-3.8-4.7,0-7.8,0-7.8s-2.2-1.6,0-3.1
			c0,0-5.5-1.3-5.5-7.3c0-6,4.4-7.3,4.4-7.3s-3.6-8.8,0.7-13c3.9-3.9,9-5.8,13.9-3.4c0,0,1.2-3.7,5.5-5.1c3.9-1.3,7.4,0.5,7.7,0.8
			c0.2,0.3,1.3-6.7,8.6-4.6c7.6,2.2,4.6,8.7,4.6,8.7s1.3-0.2,3.3,1.4c0,0,5.4-8.4,13.7-4c8.4,4.4,6.3,11.2,5.9,12
			c0,0,5.5-0.2,7.6,4.7c2.1,5-2.5,9.2-2.5,9.2s2.4,1.7,1.7,4.7c0,0,4.1,1,3.1,6.7c-1,5.5-5,4.6-5,4.6
			C655.9,973.3,647.9,976.1,647.9,976.1z"/>
		<path fill="#83924A" d="M740.1,976.1h-48.3c0,0-2.6-1.6-2.3-3.3c0,0-4.4,3-8.2-1.8c-3.8-4.7,0-7.8,0-7.8s-2.2-1.6,0-3.1
			c0,0-5.5-1.3-5.5-7.3c0-6,4.4-7.3,4.4-7.3s-3.6-8.8,0.7-13c3.9-3.9,9-5.8,13.9-3.4c0,0,1.2-3.7,5.5-5.1c3.9-1.3,7.4,0.5,7.7,0.8
			c0.2,0.3,1.3-6.7,8.6-4.6c7.6,2.2,4.6,8.7,4.6,8.7s1.3-0.2,3.3,1.4c0,0,5.4-8.4,13.7-4c8.4,4.4,6.3,11.2,5.9,12
			c0,0,5.5-0.2,7.6,4.7c2.1,5-2.5,9.2-2.5,9.2s2.4,1.7,1.7,4.7c0,0,4.1,1,3.1,6.7c-1,5.5-5,4.6-5,4.6
			C748.1,973.3,740.1,976.1,740.1,976.1z"/>
		<path fill="#83924A" d="M832.2,976.1h-48.3c0,0-2.6-1.6-2.3-3.3c0,0-4.4,3-8.2-1.8c-3.8-4.7,0-7.8,0-7.8s-2.2-1.6,0-3.1
			c0,0-5.5-1.3-5.5-7.3c0-6,4.4-7.3,4.4-7.3s-3.6-8.8,0.7-13c3.9-3.9,9-5.8,13.9-3.4c0,0,1.2-3.7,5.5-5.1c3.9-1.3,7.4,0.5,7.7,0.8
			c0.2,0.3,1.3-6.7,8.6-4.6c7.6,2.2,4.6,8.7,4.6,8.7s1.3-0.2,3.3,1.4c0,0,5.4-8.4,13.7-4c8.4,4.4,6.3,11.2,5.9,12
			c0,0,5.5-0.2,7.6,4.7c2.1,5-2.5,9.2-2.5,9.2s2.4,1.7,1.7,4.7c0,0,4.1,1,3.1,6.7c-1,5.5-5,4.6-5,4.6
			C840.3,973.3,832.2,976.1,832.2,976.1z"/>
		<path fill="#83924A" d="M924.4,976.1h-48.3c0,0-2.6-1.6-2.3-3.3c0,0-4.4,3-8.2-1.8c-3.8-4.7,0-7.8,0-7.8s-2.2-1.6,0-3.1
			c0,0-5.5-1.3-5.5-7.3c0-6,4.4-7.3,4.4-7.3s-3.6-8.8,0.7-13c3.9-3.9,9-5.8,13.9-3.4c0,0,1.2-3.7,5.5-5.1c3.9-1.3,7.5,0.5,7.7,0.8
			c0.2,0.3,1.3-6.7,8.6-4.6c7.6,2.2,4.6,8.7,4.6,8.7s1.3-0.2,3.3,1.4c0,0,5.4-8.4,13.7-4c8.4,4.4,6.3,11.2,5.9,12
			c0,0,5.5-0.2,7.6,4.7c2.1,5-2.5,9.2-2.5,9.2s2.4,1.7,1.7,4.7c0,0,4.1,1,3.1,6.7c-1,5.5-5,4.6-5,4.6
			C932.4,973.3,924.4,976.1,924.4,976.1z"/>
		<path fill="#83924A" d="M1016.5,976.1h-48.3c0,0-2.6-1.6-2.3-3.3c0,0-4.4,3-8.2-1.8c-3.8-4.7,0-7.8,0-7.8s-2.2-1.6,0-3.1
			c0,0-5.5-1.3-5.5-7.3c0-6,4.4-7.3,4.4-7.3s-3.6-8.8,0.7-13c3.9-3.9,9-5.8,13.9-3.4c0,0,1.2-3.7,5.5-5.1c3.9-1.3,7.4,0.5,7.7,0.8
			c0.2,0.3,1.3-6.7,8.6-4.6c7.6,2.2,4.6,8.7,4.6,8.7s1.3-0.2,3.3,1.4c0,0,5.4-8.4,13.7-4c8.4,4.4,6.3,11.2,5.9,12
			c0,0,5.5-0.2,7.6,4.7c2.1,5-2.5,9.2-2.5,9.2s2.4,1.7,1.7,4.7c0,0,4.1,1,3.1,6.7c-1,5.5-5,4.6-5,4.6
			C1024.6,973.3,1016.5,976.1,1016.5,976.1z"/>
		<path fill="#83924A" d="M368.3,976.1H320c0,0-2.6-1.6-2.3-3.3c0,0-4.4,3-8.2-1.8c-3.8-4.7,0-7.8,0-7.8s-2.2-1.6,0-3.1
			c0,0-5.5-1.3-5.5-7.3c0-6,4.4-7.3,4.4-7.3s-3.6-8.8,0.7-13c3.9-3.9,9-5.8,13.9-3.4c0,0,1.2-3.7,5.5-5.1c3.9-1.3,7.4,0.5,7.7,0.8
			c0.2,0.3,1.3-6.7,8.6-4.6c7.6,2.2,4.6,8.7,4.6,8.7s1.3-0.2,3.3,1.4c0,0,5.4-8.4,13.7-4c8.4,4.4,6.3,11.2,5.9,12
			c0,0,5.5-0.2,7.6,4.7c2.1,5-2.5,9.2-2.5,9.2s2.4,1.7,1.7,4.7c0,0,4.1,1,3.1,6.7c-1,5.5-5,4.6-5,4.6
			C376.3,973.3,368.3,976.1,368.3,976.1z"/>
		<path fill="#83924A" d="M460.4,976.1h-48.3c0,0-2.6-1.6-2.3-3.3c0,0-4.4,3-8.2-1.8c-3.8-4.7,0-7.8,0-7.8s-2.2-1.6,0-3.1
			c0,0-5.5-1.3-5.5-7.3c0-6,4.4-7.3,4.4-7.3s-3.6-8.8,0.7-13c3.9-3.9,9-5.8,13.9-3.4c0,0,1.2-3.7,5.5-5.1c3.9-1.3,7.4,0.5,7.7,0.8
			c0.2,0.3,1.3-6.7,8.6-4.6c7.6,2.2,4.6,8.7,4.6,8.7s1.3-0.2,3.3,1.4c0,0,5.4-8.4,13.7-4c8.4,4.4,6.3,11.2,5.9,12
			c0,0,5.5-0.2,7.6,4.7c2.1,5-2.5,9.2-2.5,9.2s2.4,1.7,1.7,4.7c0,0,4.1,1,3.1,6.7c-1,5.5-5,4.6-5,4.6
			C468.5,973.3,460.4,976.1,460.4,976.1z"/>
		<path fill="#83924A" d="M552.6,976.1h-48.3c0,0-2.6-1.6-2.3-3.3c0,0-4.4,3-8.2-1.8c-3.8-4.7,0-7.8,0-7.8s-2.2-1.6,0-3.1
			c0,0-5.5-1.3-5.5-7.3c0-6,4.4-7.3,4.4-7.3s-3.6-8.8,0.7-13c3.9-3.9,9-5.8,13.9-3.4c0,0,1.2-3.7,5.5-5.1c3.9-1.3,7.5,0.5,7.7,0.8
			c0.2,0.3,1.3-6.7,8.6-4.6c7.6,2.2,4.6,8.7,4.6,8.7s1.3-0.2,3.3,1.4c0,0,5.4-8.4,13.7-4c8.4,4.4,6.3,11.2,5.9,12
			c0,0,5.5-0.2,7.6,4.7c2.1,5-2.5,9.2-2.5,9.2s2.4,1.7,1.7,4.7c0,0,4.1,1,3.1,6.7c-1,5.5-5,4.6-5,4.6
			C560.6,973.3,552.6,976.1,552.6,976.1z"/>
		<path fill="#83924A" d="M88.6,976.1H40.4c0,0-2.6-1.6-2.3-3.3c0,0-4.4,3-8.2-1.8c-3.8-4.7,0-7.8,0-7.8s-2.2-1.6,0-3.1
			c0,0-5.5-1.3-5.5-7.3c0-6,4.4-7.3,4.4-7.3s-3.6-8.8,0.7-13c3.9-3.9,9-5.8,13.9-3.4c0,0,1.2-3.7,5.5-5.1c3.9-1.3,7.5,0.5,7.7,0.8
			c0.2,0.3,1.3-6.7,8.6-4.6c7.6,2.2,4.6,8.7,4.6,8.7s1.3-0.2,3.3,1.4c0,0,5.4-8.4,13.7-4c8.4,4.4,6.3,11.2,5.9,12
			c0,0,5.5-0.2,7.6,4.7c2.1,5-2.5,9.2-2.5,9.2s2.4,1.7,1.7,4.7c0,0,4.1,1,3.1,6.7c-1,5.5-5,4.6-5,4.6
			C96.7,973.3,88.6,976.1,88.6,976.1z"/>
		<path fill="#83924A" d="M180.8,976.1h-48.3c0,0-2.6-1.6-2.3-3.3c0,0-4.4,3-8.2-1.8c-3.8-4.7,0-7.8,0-7.8s-2.2-1.6,0-3.1
			c0,0-5.5-1.3-5.5-7.3c0-6,4.4-7.3,4.4-7.3s-3.6-8.8,0.7-13c3.9-3.9,9-5.8,13.9-3.4c0,0,1.2-3.7,5.5-5.1c3.9-1.3,7.5,0.5,7.7,0.8
			c0.2,0.3,1.3-6.7,8.6-4.6c7.6,2.2,4.6,8.7,4.6,8.7s1.3-0.2,3.3,1.4c0,0,5.4-8.4,13.7-4c8.4,4.4,6.3,11.2,5.9,12
			c0,0,5.5-0.2,7.6,4.7c2.1,5-2.5,9.2-2.5,9.2s2.4,1.7,1.7,4.7c0,0,4.1,1,3.1,6.7c-1,5.5-5,4.6-5,4.6
			C188.8,973.3,180.8,976.1,180.8,976.1z"/>
		<path fill="#83924A" d="M272.9,976.1h-48.3c0,0-2.6-1.6-2.3-3.3c0,0-4.4,3-8.2-1.8c-3.8-4.7,0-7.8,0-7.8s-2.2-1.6,0-3.1
			c0,0-5.5-1.3-5.5-7.3c0-6,4.4-7.3,4.4-7.3s-3.6-8.8,0.7-13c3.9-3.9,9-5.8,13.9-3.4c0,0,1.2-3.7,5.5-5.1c3.9-1.3,7.4,0.5,7.7,0.8
			c0.2,0.3,1.3-6.7,8.6-4.6c7.6,2.2,4.6,8.7,4.6,8.7s1.3-0.2,3.3,1.4c0,0,5.4-8.4,13.7-4c8.4,4.4,6.3,11.2,5.9,12
			c0,0,5.5-0.2,7.6,4.7c2.1,5-2.5,9.2-2.5,9.2s2.4,1.7,1.7,4.7c0,0,4.1,1,3.1,6.7c-1,5.5-5,4.6-5,4.6
			C281,973.3,272.9,976.1,272.9,976.1z"/>
		<path fill="#83924A" d="M1108.7,976.1h-48.3c0,0-2.6-1.6-2.3-3.3c0,0-4.4,3-8.2-1.8c-3.8-4.7,0-7.8,0-7.8s-2.2-1.6,0-3.1
			c0,0-5.5-1.3-5.5-7.3c0-6,4.4-7.3,4.4-7.3s-3.6-8.8,0.7-13c3.9-3.9,9-5.8,13.9-3.4c0,0,1.2-3.7,5.5-5.1c3.9-1.3,7.4,0.5,7.7,0.8
			c0.2,0.3,1.3-6.7,8.6-4.6c7.6,2.2,4.6,8.7,4.6,8.7s1.3-0.2,3.3,1.4c0,0,5.4-8.4,13.7-4c8.4,4.4,6.3,11.2,5.9,12
			c0,0,5.5-0.2,7.6,4.7c2.1,5-2.5,9.2-2.5,9.2s2.4,1.7,1.7,4.7c0,0,4.1,1,3.1,6.7c-1,5.5-5,4.6-5,4.6
			C1116.7,973.3,1108.7,976.1,1108.7,976.1z"/>
		<g>
			<path fill-rule="evenodd" clip-rule="evenodd" fill="#724B0D" stroke="#FFFFFF" stroke-miterlimit="10" d="M1053.8,949
				c-0.1-2.7-1.6-2.3-3.4-1.8c-1.1,0.3-2.4,1.3-3.1,2c-2.6-3.7-7.2-5.4-12-4.9c-5,0.5,1.6,8.1,3.2,10.7c1.6,2.7,5,13.3,9,7.9
				c3.3-4.4,2.1-9.1,0.9-11.8c0.6-0.4,1.8-0.9,2.7-0.8c1.3,0,1.4,0.4,2.1,0.7C1053.7,951.2,1053.9,951.3,1053.8,949z"/>
			<path fill-rule="evenodd" clip-rule="evenodd" fill="#9D8156" stroke="#FFFFFF" stroke-miterlimit="10" d="M1041.1,953.1
				c1.6,3,5,9.2,3.7,10.7c-4.1,5.1-17.2,4-19.6-0.4c-3.2-5.9,3.9-17.5,8.9-17.5C1035.6,945.9,1036.9,947,1041.1,953.1z"/>
			<path fill-rule="evenodd" clip-rule="evenodd" fill="#724B0D" stroke="#FFFFFF" stroke-miterlimit="10" d="M1073.9,955
				c-0.1-2.7-1.6-2.3-3.4-1.8c-1.1,0.3-2.4,1.3-3.1,2c-2.6-3.7-7.2-5.4-12-4.9c-5,0.5,1.6,8.1,3.2,10.7c1.6,2.7,5,13.3,9,7.9
				c3.3-4.4,2.1-9.1,0.9-11.8c0.6-0.4,1.8-0.9,2.7-0.8c1.3,0,1.4,0.4,2.1,0.7C1073.8,957.2,1074,957.3,1073.9,955z"/>
			<path fill-rule="evenodd" clip-rule="evenodd" fill="#9D8156" stroke="#FFFFFF" stroke-miterlimit="10" d="M1061.2,959.2
				c1.6,3,5,9.2,3.7,10.7c-4.1,5.1-17.2,4-19.6-0.4c-3.2-5.9,3.9-17.5,8.9-17.5C1055.7,951.9,1057,953,1061.2,959.2z"/>
			<path fill-rule="evenodd" clip-rule="evenodd" fill="#724B0D" stroke="#FFFFFF" stroke-miterlimit="10" d="M1034.7,955
				c-0.1-2.7-1.6-2.3-3.4-1.8c-1.1,0.3-2.4,1.3-3.1,2c-2.6-3.7-7.2-5.4-12-4.9c-5,0.5,1.6,8.1,3.2,10.7c1.6,2.7,5,13.3,9,7.9
				c3.3-4.4,2.1-9.1,0.9-11.8c0.6-0.4,1.8-0.9,2.7-0.8c1.3,0,1.4,0.4,2.1,0.7C1034.6,957.2,1034.8,957.3,1034.7,955z"/>
			<path fill-rule="evenodd" clip-rule="evenodd" fill="#9D8156" stroke="#FFFFFF" stroke-miterlimit="10" d="M1022,959.2
				c1.6,3,5,9.2,3.7,10.7c-4.1,5.1-17.2,4-19.6-0.4c-3.2-5.9,3.9-17.5,8.9-17.5C1016.5,951.9,1017.8,953,1022,959.2z"/>
		</g>
	</g>
	<rect x="0" y="0.1" fill="#724B0D" width="1263" height="75.1"/>
	<rect x="-0.4" y="975.8" fill="#724B0D" width="1146.9" height="184.6"/>
	<circle fill="none" stroke="#FFFFFF" stroke-miterlimit="10" cx="573.5" cy="650.5" r="251.2"/>
	<rect x="21.9" y="93.6" fill="none" width="211" height="34.2"/>
	<text transform="matrix(1 0 0 1 21.9436 108.5999)" fill="#724B0D" font-family="'Arial-BoldMT'" font-size="21">WALD</text>
	<path fill="#95DFF5" d="M824.7,650.5c0,138.7-112.4,251.2-251.2,251.2c-138.7,0-251.2-112.4-251.2-251.2
		c0-138.7,112.4-251.2,251.2-251.2C712.2,399.4,824.7,511.8,824.7,650.5"/>
	<path fill="#FFFFFF" d="M824.7,650.5h-0.5c0,69.2-28.1,131.9-73.4,177.2c-45.4,45.4-108,73.4-177.2,73.4
		c-69.2,0-131.9-28.1-177.2-73.4c-45.4-45.4-73.4-108-73.4-177.2c0-69.2,28.1-131.9,73.4-177.2c45.4-45.4,108-73.4,177.2-73.4
		c69.2,0,131.9,28.1,177.2,73.4c45.4,45.4,73.4,108,73.4,177.2H824.7h0.5c0-139-112.7-251.7-251.7-251.7
		c-139,0-251.7,112.7-251.7,251.7c0,139,112.7,251.7,251.7,251.7c139,0,251.7-112.7,251.7-251.7H824.7"/>
	<path fill="#CAEFFA" d="M573.5,399.9c-69.2,0-131.9,28.1-177.2,73.4c-15.1,15.1-28.3,32.1-39.2,50.7h432.8
		c-10.9-18.5-24.1-35.6-39.2-50.7C705.4,427.9,642.7,399.9,573.5,399.9"/>
	<path fill="#FFFFFF" d="M573.5,398.9c-92.8,0-174,50.3-217.6,125.1h1.2c10.9-18.5,24.1-35.6,39.2-50.7
		c45.4-45.4,108-73.4,177.2-73.4c69.2,0,131.9,28.1,177.2,73.4c15.1,15.1,28.3,32.1,39.2,50.7h1.2
		C747.5,449.2,666.3,398.9,573.5,398.9"/>
	<path fill="#BFECF9" d="M789.9,524H357.1c-21.8,37.1-34.2,80.4-34.2,126.6c0,7.7,0.3,15.2,1,22.7h499.3c0.7-7.5,1-15.1,1-22.7h0.5
		l0,0h-0.5C824.2,604.4,811.7,561.1,789.9,524"/>
	<path fill="#FFFFFF" d="M825.2,650.5h-0.5h-0.5c0,7.7-0.3,15.2-1,22.7h1C824.8,665.8,825.2,658.2,825.2,650.5 M357.1,524h-1.2
		c-21.7,37.2-34.1,80.4-34.1,126.6c0,7.7,0.3,15.2,1,22.7h1c-0.7-7.5-1-15.1-1-22.7C322.8,604.4,335.3,561.1,357.1,524 M791.1,524
		h-1.2c21.8,37.1,34.2,80.4,34.2,126.6h0.5h0.5l0,0C825.2,604.4,812.7,561.2,791.1,524"/>
	<path fill="#B5E9F8" d="M823.1,673.2H323.9c5.2,57.8,30,110,67.8,149.8h363.8C793.1,783.2,817.9,731.1,823.1,673.2"/>
	<path fill="#FFFFFF" d="M323.9,673.2h-1C328,731,352.7,783.1,390.2,823h1.4C353.9,783.2,329.1,731.1,323.9,673.2 M824.1,673.2h-1
		c-5.2,57.8-30,110-67.8,149.8h1.4C794.3,783.1,819,731,824.1,673.2"/>
	<path fill="#FFFFFF" d="M322.9,673.2H0v0L322.9,673.2C322.9,673.2,322.9,673.2,322.9,673.2 M1146,673.2H824.1c0,0,0,0,0,0
		L1146,673.2"/>
	<polyline fill="#D2F2FB" points="823.1,673.2 323.9,673.2 323.9,673.2 823.1,673.2 823.1,673.2 	"/>
	<path fill="#FFFFFF" d="M323.9,673.2h-1c0,0,0,0,0,0L323.9,673.2L323.9,673.2 M824.1,673.2h-1l0,0L824.1,673.2
		C824.1,673.2,824.1,673.2,824.1,673.2"/>
	<g>
		<defs>
			<circle id="SVGID_7_" cx="573.5" cy="650.5" r="251.2"/>
		</defs>
		<clipPath id="SVGID_1_">
			<use xlink:href="#SVGID_7_"  overflow="visible"/>
		</clipPath>
		<path clip-path="url(#SVGID_1_)" fill-rule="evenodd" clip-rule="evenodd" fill="#83924A" d="M440.3,897.5
			c-0.2-1.2-0.3-2.3-0.5-3.5c-0.8-4.4-0.2-8.7,1.3-12.9c0.8-2.3,1.5-4.6,2.3-6.9c1-3,1-6.1,0.5-9.3c-0.4-2.6-1.4-5-2.2-7.5
			c-1.1-3.3-2.8-6.3-4.2-9.5c-1.6-3.6-2.8-7.4-3-11.4c-0.2-2.5,0.1-5,0.5-7.5c0.3-1.7,0.6-3.5,0.9-5.2c0.1-0.6,0.1-1.2,0.2-1.8
			c0.1-0.5,0.2-0.9,0.7-1.1c0.3-0.1,0.5-0.1,0.6,0.3c0.1,0.4,0.2,0.8,0.2,1.2c-0.5,3.3,0.1,6.6,1,9.8c0.8,2.8,1.6,5.6,2.9,8.3
			c1,2,2.3,3.8,3.9,5.4c1.1,1.1,2.3,2.2,3.4,3.4c2.2,2.4,3.3,5.3,4.2,8.4c0.7,2.4,0.9,4.9,0.9,7.4c0,0.1,0,0.1,0.1,0.2
			c0.2-0.9,0.4-1.8,0.6-2.7c0.4-2.3,0.7-4.6,0.6-6.9c-0.1-1.1-0.2-2.1-0.6-3.2c-0.3-0.6-0.2-1.3-0.4-1.9c-0.3-1.3-0.7-2.5-1-3.8
			c-1.2-4.5-1.3-9,0-13.5c0.9-3,1.7-6.1,2.6-9.1c0.5-1.5,1.2-2.9,2.3-4.2c0.3-0.3,0.5-0.3,0.8-0.1c0.1,0.1,0.2,0.4,0.1,0.6
			c-0.4,1.2-0.8,2.3-1.2,3.5c-0.2,0.5-0.3,1.1-0.4,1.6c-0.2,2.8-0.4,5.6,0,8.4c0.3,2.2,0.9,4.4,1.6,6.6c0.9,2.7,1.8,5.4,2.6,8.2
			c1.2,4.6,1.4,9.3,0.3,14c-0.4,1.7-1.1,3.4-1.8,5.1c-1.5,3.7-2.8,7.4-3.3,11.4c-0.3,2.4,0,4.8,0.8,7.2c0.3,0.9,0.8,1.8,1.2,2.8
			c0.6-0.4,0.9-0.9,1-1.4c0.6-1.7,1.2-3.3,1.7-5c0.6-2,1.1-4.1,1.9-6.1c0.5-1.5,1.3-2.8,2-4.2c0.3-0.6,0.6-1.2,0.9-1.8
			c0.3-0.5,0.6-1,0.9-1.5c0.4-0.6,0.9-1.2,1.2-1.8c1.4-3.1,3.5-5.8,5.5-8.5c0.3-0.3,0.5-0.7,0.8-1c0.3-0.2,0.7-0.4,1.1-0.5
			c0.5-0.1,0.6,0.2,0.5,0.7c0,0.1,0,0.2-0.1,0.3c-0.9,1.6-1.1,3.4-1.5,5.1c-0.3,1.3-0.8,2.4-1.4,3.5c-0.7,1.3-1.3,2.6-2.1,3.9
			c-0.4,0.6-0.8,1.2-1.2,1.8c-0.1,0.2-0.2,0.3-0.3,0.5c-1.3,3.7-2.6,7.4-3.4,11.2c-0.5,2.5-0.6,4.9-0.1,7.4c0.1,0.5,0.2,1,0.4,1.4
			c0.9,2,0.8,4,0.5,6c-0.2,1.2-0.6,2.2-1.6,2.9c-0.3,0.2-0.6,0.6-0.8,0.9c-1,1.1-2,2.2-3.3,3c-3.9,0.8-13,1.7-22.6,1.6
			c-0.5-0.3-1-0.7-1.4-1.2c-1-1.1-2.2-1.8-3.5-2.3c-1.5-0.6-3-1.3-4.3-2.1c-2.9-1.7-4.4-4.3-5.1-7.6c-0.7-3.1-0.4-6.1,0.4-9.2
			c1.4-5.6,2.4-11.4,3.1-17.1c0.2-1.8,0.3-3.6,0.4-5.5c0-0.3,0.1-0.6,0.2-0.9c0.2-0.7,0.9-0.9,1.4-0.3c0.2,0.3,0.4,0.6,0.6,0.9
			c1.1,2.3,1.5,4.8,1.5,7.4c0.1,3.7-0.1,7.3-0.4,11c-0.2,2.6-0.3,5.2,0.1,7.8c0.5,2.6,1.7,4.8,3.9,6.3c1.6,1,3.2,2,4.8,3
			C440.2,897.5,440.3,897.5,440.3,897.5z"/>
		<path clip-path="url(#SVGID_1_)" fill-rule="evenodd" clip-rule="evenodd" fill="#83924A" d="M505.3,897.5
			c-0.2-1.2-0.3-2.3-0.5-3.5c-0.8-4.4-0.2-8.7,1.3-12.9c0.8-2.3,1.5-4.6,2.3-6.9c1-3,1-6.1,0.5-9.3c-0.4-2.6-1.4-5-2.2-7.5
			c-1.1-3.3-2.8-6.3-4.2-9.5c-1.6-3.6-2.8-7.4-3-11.4c-0.2-2.5,0.1-5,0.5-7.5c0.3-1.7,0.6-3.5,0.9-5.2c0.1-0.6,0.1-1.2,0.2-1.8
			c0.1-0.5,0.2-0.9,0.7-1.1c0.3-0.1,0.5-0.1,0.6,0.3c0.1,0.4,0.2,0.8,0.2,1.2c-0.5,3.3,0.1,6.6,1,9.8c0.8,2.8,1.6,5.6,2.9,8.3
			c1,2,2.3,3.8,3.9,5.4c1.1,1.1,2.3,2.2,3.4,3.4c2.2,2.4,3.3,5.3,4.2,8.4c0.7,2.4,0.9,4.9,0.9,7.4c0,0.1,0,0.1,0.1,0.2
			c0.2-0.9,0.4-1.8,0.6-2.7c0.4-2.3,0.7-4.6,0.6-6.9c-0.1-1.1-0.2-2.1-0.7-3.2c-0.3-0.6-0.2-1.3-0.4-1.9c-0.3-1.3-0.7-2.5-1-3.8
			c-1.2-4.5-1.3-9,0-13.5c0.9-3,1.7-6.1,2.6-9.1c0.5-1.5,1.2-2.9,2.3-4.2c0.3-0.3,0.5-0.3,0.8-0.1c0.1,0.1,0.2,0.4,0.1,0.6
			c-0.4,1.2-0.8,2.3-1.2,3.5c-0.2,0.5-0.3,1.1-0.4,1.6c-0.2,2.8-0.4,5.6,0,8.4c0.3,2.2,0.9,4.4,1.6,6.6c0.9,2.7,1.8,5.4,2.6,8.2
			c1.2,4.6,1.4,9.3,0.3,14c-0.4,1.7-1.1,3.4-1.8,5.1c-1.5,3.7-2.8,7.4-3.3,11.4c-0.3,2.4,0,4.8,0.8,7.2c0.3,0.9,0.8,1.8,1.2,2.8
			c0.6-0.4,0.9-0.9,1-1.4c0.6-1.7,1.2-3.3,1.7-5c0.6-2,1.1-4.1,1.9-6.1c0.5-1.5,1.3-2.8,2-4.2c0.3-0.6,0.6-1.2,0.9-1.8
			c0.3-0.5,0.6-1,0.9-1.5c0.4-0.6,0.9-1.2,1.2-1.8c1.4-3.1,3.5-5.8,5.5-8.5c0.3-0.3,0.5-0.7,0.8-1c0.3-0.2,0.7-0.4,1.1-0.5
			c0.5-0.1,0.6,0.2,0.5,0.7c0,0.1,0,0.2-0.1,0.3c-0.9,1.6-1.1,3.4-1.5,5.1c-0.3,1.3-0.8,2.4-1.4,3.5c-0.7,1.3-1.3,2.6-2.1,3.9
			c-0.4,0.6-0.8,1.2-1.2,1.8c-0.1,0.2-0.2,0.3-0.3,0.5c-1.3,3.7-2.6,7.4-3.4,11.2c-0.5,2.5-0.6,4.9-0.1,7.4c0.1,0.5,0.2,1,0.4,1.4
			c0.9,2,0.8,4,0.5,6c-0.2,1.2-0.6,2.2-1.6,2.9c-0.3,0.2-0.6,0.6-0.8,0.9c-1,1.1-2,2.2-3.3,3c-3.9,0.8-13,1.7-22.6,1.6
			c-0.5-0.3-1-0.7-1.4-1.2c-1-1.1-2.2-1.8-3.5-2.3c-1.5-0.6-3-1.3-4.3-2.1c-2.9-1.7-4.4-4.3-5.1-7.6c-0.7-3.1-0.4-6.1,0.4-9.2
			c1.4-5.6,2.4-11.4,3.1-17.1c0.2-1.8,0.3-3.6,0.4-5.5c0-0.3,0.1-0.6,0.2-0.9c0.2-0.7,0.9-0.9,1.4-0.3c0.2,0.3,0.4,0.6,0.6,0.9
			c1.1,2.3,1.5,4.8,1.5,7.4c0.1,3.7-0.1,7.3-0.4,11c-0.2,2.6-0.3,5.2,0.1,7.8c0.5,2.6,1.7,4.8,3.9,6.3c1.6,1,3.2,2,4.8,3
			C505.2,897.5,505.2,897.5,505.3,897.5z"/>
		<path clip-path="url(#SVGID_1_)" fill-rule="evenodd" clip-rule="evenodd" fill="#83924A" d="M570.2,897.5
			c-0.2-1.2-0.3-2.3-0.5-3.5c-0.8-4.4-0.2-8.7,1.3-12.9c0.8-2.3,1.5-4.6,2.3-6.9c1-3,1-6.1,0.5-9.3c-0.4-2.6-1.4-5-2.2-7.5
			c-1.1-3.3-2.8-6.3-4.2-9.5c-1.6-3.6-2.8-7.4-3-11.4c-0.2-2.5,0.1-5,0.5-7.5c0.3-1.7,0.6-3.5,0.9-5.2c0.1-0.6,0.1-1.2,0.2-1.8
			c0.1-0.5,0.2-0.9,0.7-1.1c0.3-0.1,0.5-0.1,0.6,0.3c0.1,0.4,0.2,0.8,0.2,1.2c-0.5,3.3,0.1,6.6,1,9.8c0.8,2.8,1.6,5.6,2.9,8.3
			c1,2,2.3,3.8,3.9,5.4c1.1,1.1,2.3,2.2,3.4,3.4c2.2,2.4,3.3,5.3,4.2,8.4c0.7,2.4,0.9,4.9,0.9,7.4c0,0.1,0,0.1,0.1,0.2
			c0.2-0.9,0.4-1.8,0.6-2.7c0.4-2.3,0.7-4.6,0.6-6.9c-0.1-1.1-0.2-2.1-0.6-3.2c-0.3-0.6-0.2-1.3-0.4-1.9c-0.3-1.3-0.7-2.5-1-3.8
			c-1.2-4.5-1.3-9,0-13.5c0.9-3,1.7-6.1,2.6-9.1c0.5-1.5,1.2-2.9,2.3-4.2c0.3-0.3,0.5-0.3,0.8-0.1c0.1,0.1,0.2,0.4,0.1,0.6
			c-0.4,1.2-0.8,2.3-1.2,3.5c-0.2,0.5-0.3,1.1-0.4,1.6c-0.2,2.8-0.4,5.6,0,8.4c0.3,2.2,0.9,4.4,1.6,6.6c0.9,2.7,1.8,5.4,2.6,8.2
			c1.2,4.6,1.4,9.3,0.3,14c-0.4,1.7-1.1,3.4-1.8,5.1c-1.5,3.7-2.8,7.4-3.3,11.4c-0.3,2.4,0,4.8,0.8,7.2c0.3,0.9,0.8,1.8,1.2,2.8
			c0.6-0.4,0.9-0.9,1-1.4c0.6-1.7,1.2-3.3,1.7-5c0.6-2,1.1-4.1,1.9-6.1c0.5-1.5,1.3-2.8,2-4.2c0.3-0.6,0.6-1.2,0.9-1.8
			c0.3-0.5,0.6-1,0.9-1.5c0.4-0.6,0.9-1.2,1.2-1.8c1.4-3.1,3.5-5.8,5.5-8.5c0.3-0.3,0.5-0.7,0.8-1c0.3-0.2,0.7-0.4,1.1-0.5
			c0.5-0.1,0.6,0.2,0.5,0.7c0,0.1,0,0.2-0.1,0.3c-0.9,1.6-1.1,3.4-1.5,5.1c-0.3,1.3-0.8,2.4-1.4,3.5c-0.7,1.3-1.3,2.6-2.1,3.9
			c-0.4,0.6-0.8,1.2-1.2,1.8c-0.1,0.2-0.2,0.3-0.3,0.5c-1.3,3.7-2.6,7.4-3.4,11.2c-0.5,2.5-0.6,4.9-0.1,7.4c0.1,0.5,0.2,1,0.4,1.4
			c0.9,2,0.8,4,0.5,6c-0.2,1.2-0.6,2.2-1.6,2.9c-0.3,0.2-0.6,0.6-0.8,0.9c-1,1.1-2,2.2-3.3,3c-3.9,0.8-13,1.7-22.6,1.6
			c-0.5-0.3-1-0.7-1.4-1.2c-1-1.1-2.2-1.8-3.5-2.3c-1.5-0.6-3-1.3-4.3-2.1c-2.9-1.7-4.4-4.3-5.1-7.6c-0.7-3.1-0.4-6.1,0.4-9.2
			c1.4-5.6,2.4-11.4,3.1-17.1c0.2-1.8,0.3-3.6,0.4-5.5c0-0.3,0.1-0.6,0.2-0.9c0.2-0.7,0.9-0.9,1.4-0.3c0.2,0.3,0.4,0.6,0.6,0.9
			c1.1,2.3,1.5,4.8,1.5,7.4c0.1,3.7-0.1,7.3-0.4,11c-0.2,2.6-0.3,5.2,0.1,7.8c0.5,2.6,1.7,4.8,3.9,6.3c1.6,1,3.2,2,4.8,3
			C570.1,897.5,570.1,897.5,570.2,897.5z"/>
		<path clip-path="url(#SVGID_1_)" fill-rule="evenodd" clip-rule="evenodd" fill="#83924A" d="M635.1,897.5
			c-0.2-1.2-0.3-2.3-0.5-3.5c-0.8-4.4-0.2-8.7,1.3-12.9c0.8-2.3,1.5-4.6,2.3-6.9c1-3,1-6.1,0.5-9.3c-0.4-2.6-1.4-5-2.2-7.5
			c-1.1-3.3-2.8-6.3-4.2-9.5c-1.6-3.6-2.8-7.4-3-11.4c-0.2-2.5,0.1-5,0.5-7.5c0.3-1.7,0.6-3.5,0.9-5.2c0.1-0.6,0.1-1.2,0.2-1.8
			c0.1-0.5,0.2-0.9,0.7-1.1c0.3-0.1,0.5-0.1,0.6,0.3c0.1,0.4,0.2,0.8,0.2,1.2c-0.5,3.3,0.1,6.6,1,9.8c0.8,2.8,1.6,5.6,2.9,8.3
			c1,2,2.3,3.8,3.9,5.4c1.1,1.1,2.3,2.2,3.4,3.4c2.2,2.4,3.3,5.3,4.2,8.4c0.7,2.4,0.9,4.9,0.9,7.4c0,0.1,0,0.1,0.1,0.2
			c0.2-0.9,0.4-1.8,0.6-2.7c0.4-2.3,0.7-4.6,0.6-6.9c-0.1-1.1-0.2-2.1-0.6-3.2c-0.3-0.6-0.2-1.3-0.4-1.9c-0.3-1.3-0.7-2.5-1-3.8
			c-1.2-4.5-1.3-9,0-13.5c0.9-3,1.7-6.1,2.6-9.1c0.5-1.5,1.2-2.9,2.3-4.2c0.3-0.3,0.5-0.3,0.8-0.1c0.1,0.1,0.2,0.4,0.1,0.6
			c-0.4,1.2-0.8,2.3-1.2,3.5c-0.2,0.5-0.3,1.1-0.4,1.6c-0.2,2.8-0.4,5.6,0,8.4c0.3,2.2,0.9,4.4,1.6,6.6c0.9,2.7,1.8,5.4,2.6,8.2
			c1.2,4.6,1.4,9.3,0.3,14c-0.4,1.7-1.1,3.4-1.8,5.1c-1.5,3.7-2.8,7.4-3.3,11.4c-0.3,2.4,0,4.8,0.8,7.2c0.3,0.9,0.8,1.8,1.2,2.8
			c0.6-0.4,0.9-0.9,1-1.4c0.6-1.7,1.2-3.3,1.7-5c0.6-2,1.1-4.1,1.9-6.1c0.5-1.5,1.3-2.8,2-4.2c0.3-0.6,0.6-1.2,0.9-1.8
			c0.3-0.5,0.6-1,0.9-1.5c0.4-0.6,0.9-1.2,1.2-1.8c1.4-3.1,3.5-5.8,5.5-8.5c0.3-0.3,0.5-0.7,0.8-1c0.3-0.2,0.7-0.4,1.1-0.5
			c0.5-0.1,0.6,0.2,0.5,0.7c0,0.1,0,0.2-0.1,0.3c-0.9,1.6-1.1,3.4-1.5,5.1c-0.3,1.3-0.8,2.4-1.4,3.5c-0.7,1.3-1.3,2.6-2.1,3.9
			c-0.4,0.6-0.8,1.2-1.2,1.8c-0.1,0.2-0.2,0.3-0.3,0.5c-1.3,3.7-2.6,7.4-3.4,11.2c-0.5,2.5-0.6,4.9-0.1,7.4c0.1,0.5,0.2,1,0.4,1.4
			c0.9,2,0.8,4,0.5,6c-0.2,1.2-0.6,2.2-1.6,2.9c-0.3,0.2-0.6,0.6-0.8,0.9c-1,1.1-2,2.2-3.3,3c-3.9,0.8-13,1.7-22.6,1.6
			c-0.5-0.3-1-0.7-1.4-1.2c-1-1.1-2.2-1.8-3.5-2.3c-1.5-0.6-3-1.3-4.3-2.1c-2.9-1.7-4.4-4.3-5.1-7.6c-0.7-3.1-0.4-6.1,0.4-9.2
			c1.4-5.6,2.4-11.4,3.1-17.1c0.2-1.8,0.3-3.6,0.4-5.5c0-0.3,0.1-0.6,0.2-0.9c0.2-0.7,0.9-0.9,1.4-0.3c0.2,0.3,0.4,0.6,0.6,0.9
			c1.1,2.3,1.5,4.8,1.5,7.4c0.1,3.7-0.1,7.3-0.4,11c-0.2,2.6-0.3,5.2,0.1,7.8c0.5,2.6,1.7,4.8,3.9,6.3c1.6,1,3.2,2,4.8,3
			C635,897.5,635.1,897.5,635.1,897.5z"/>
		<path clip-path="url(#SVGID_1_)" fill-rule="evenodd" clip-rule="evenodd" fill="#83924A" d="M700,897.5c-0.2-1.2-0.3-2.3-0.5-3.5
			c-0.8-4.4-0.2-8.7,1.3-12.9c0.8-2.3,1.5-4.6,2.3-6.9c1-3,1-6.1,0.5-9.3c-0.4-2.6-1.4-5-2.2-7.5c-1.1-3.3-2.8-6.3-4.2-9.5
			c-1.6-3.6-2.8-7.4-3-11.4c-0.2-2.5,0.1-5,0.5-7.5c0.3-1.7,0.6-3.5,0.9-5.2c0.1-0.6,0.1-1.2,0.2-1.8c0.1-0.5,0.2-0.9,0.7-1.1
			c0.3-0.1,0.5-0.1,0.6,0.3c0.1,0.4,0.2,0.8,0.2,1.2c-0.5,3.3,0.1,6.6,1,9.8c0.8,2.8,1.6,5.6,2.9,8.3c1,2,2.3,3.8,3.9,5.4
			c1.1,1.1,2.3,2.2,3.4,3.4c2.2,2.4,3.3,5.3,4.2,8.4c0.7,2.4,0.9,4.9,0.9,7.4c0,0.1,0,0.1,0.1,0.2c0.2-0.9,0.4-1.8,0.6-2.7
			c0.4-2.3,0.7-4.6,0.6-6.9c-0.1-1.1-0.2-2.1-0.7-3.2c-0.3-0.6-0.2-1.3-0.4-1.9c-0.3-1.3-0.7-2.5-1-3.8c-1.2-4.5-1.3-9,0-13.5
			c0.9-3,1.7-6.1,2.6-9.1c0.5-1.5,1.2-2.9,2.3-4.2c0.3-0.3,0.5-0.3,0.8-0.1c0.1,0.1,0.2,0.4,0.1,0.6c-0.4,1.2-0.8,2.3-1.2,3.5
			c-0.2,0.5-0.3,1.1-0.4,1.6c-0.2,2.8-0.4,5.6,0,8.4c0.3,2.2,0.9,4.4,1.6,6.6c0.9,2.7,1.8,5.4,2.6,8.2c1.2,4.6,1.4,9.3,0.3,14
			c-0.4,1.7-1.1,3.4-1.8,5.1c-1.5,3.7-2.8,7.4-3.3,11.4c-0.3,2.4,0,4.8,0.8,7.2c0.3,0.9,0.8,1.8,1.2,2.8c0.6-0.4,0.9-0.9,1-1.4
			c0.6-1.7,1.2-3.3,1.7-5c0.6-2,1.1-4.1,1.9-6.1c0.5-1.5,1.3-2.8,2-4.2c0.3-0.6,0.6-1.2,0.9-1.8c0.3-0.5,0.6-1,0.9-1.5
			c0.4-0.6,0.9-1.2,1.2-1.8c1.4-3.1,3.5-5.8,5.5-8.5c0.3-0.3,0.5-0.7,0.8-1c0.3-0.2,0.7-0.4,1.1-0.5c0.5-0.1,0.6,0.2,0.5,0.7
			c0,0.1,0,0.2-0.1,0.3c-0.9,1.6-1.1,3.4-1.5,5.1c-0.3,1.3-0.8,2.4-1.4,3.5c-0.7,1.3-1.3,2.6-2.1,3.9c-0.4,0.6-0.8,1.2-1.2,1.8
			c-0.1,0.2-0.2,0.3-0.3,0.5c-1.3,3.7-2.6,7.4-3.4,11.2c-0.5,2.5-0.6,4.9-0.1,7.4c0.1,0.5,0.2,1,0.4,1.4c0.9,2,0.8,4,0.5,6
			c-0.2,1.2-0.6,2.2-1.6,2.9c-0.3,0.2-0.6,0.6-0.8,0.9c-1,1.1-2,2.2-3.3,3c-3.9,0.8-13,1.7-22.6,1.6c-0.5-0.3-1-0.7-1.4-1.2
			c-1-1.1-2.2-1.8-3.5-2.3c-1.5-0.6-3-1.3-4.3-2.1c-2.9-1.7-4.4-4.3-5.1-7.6c-0.7-3.1-0.4-6.1,0.4-9.2c1.4-5.6,2.4-11.4,3.1-17.1
			c0.2-1.8,0.3-3.6,0.4-5.5c0-0.3,0.1-0.6,0.2-0.9c0.2-0.7,0.9-0.9,1.4-0.3c0.2,0.3,0.4,0.6,0.6,0.9c1.1,2.3,1.5,4.8,1.5,7.4
			c0.1,3.7-0.1,7.3-0.4,11c-0.2,2.6-0.3,5.2,0.1,7.8c0.5,2.6,1.7,4.8,3.9,6.3c1.6,1,3.2,2,4.8,3C699.9,897.5,700,897.5,700,897.5z"
			/>
	</g>
</g>
<g id="Layer_4">
	<g>
		<path fill="#FD8C24" d="M1091.4,155.3l19.5-5.8l-0.1,0l0,0l-11.9-3.6l-7.4-2.2l9.9-9.1l-13.6,0.6l9.5-17.6l-18,9.7l0.6-14.2
			l-8.4,9.2l-5.8-19.4l-5.8,19.3l-9.1-9.9l0.6,13.6l-17.6-9.5l9.7,18l-14.2-0.6l9.2,8.4l-19.4,5.8l0.1,0l0,0l19.3,5.8l-9.9,9.1
			l13.6-0.6l-9.5,17.6l18-9.7l-0.6,14.2l8.4-9.2l5.8,19.4l5.8-19.3l9.1,9.9l-0.6-13.6l17.6,9.5l-9.7-18l14.2,0.6L1091.4,155.3z"/>
		<ellipse fill="#FDCE57" cx="1065" cy="148.7" rx="21.5" ry="20.9"/>
	</g>
</g>
<g id="frecce">
	<rect x="-4.2" y="28.8" fill="none" width="1271.5" height="17.8"/>
	<text transform="matrix(1 0 0 1 231.859 43.8108)"><tspan x="0" y="0" fill="#FFFFFF" font-family="'ArialMT'" font-size="21">A </tspan><tspan x="19.8" y="0" fill="#FFFFFF" font-family="'Arial-BoldMT'" font-size="21">NAHRUNGSNETZ</tspan><tspan x="135.3" y="0" fill="#FFFFFF" font-family="'ArialMT'" font-size="21"> CONSISTS OF ALL THE FOOD CHAINS IN A SINGLE ECOSYSTEM.</tspan></text>
	<circle fill="none" stroke="#FFFFFF" stroke-width="2" stroke-miterlimit="10" cx="573.2" cy="298.5" r="85"/>
	<circle fill="none" stroke="#FFFFFF" stroke-width="2" stroke-miterlimit="10" cx="939.3" cy="448.7" r="52.2"/>
	<circle fill="none" stroke="#FFFFFF" stroke-width="2" stroke-miterlimit="10" cx="1034.2" cy="600" r="52.2"/>
	<circle fill="none" stroke="#FFFFFF" stroke-width="2" stroke-miterlimit="10" cx="202.1" cy="448.7" r="52.2"/>
	<circle fill="none" stroke="#FFFFFF" stroke-width="2" stroke-miterlimit="10" cx="899.5" cy="747.8" r="52.2"/>
	<circle fill="none" stroke="#FFFFFF" stroke-width="2" stroke-miterlimit="10" cx="252.8" cy="747.3" r="52.2"/>
	<circle fill="none" stroke="#FFFFFF" stroke-width="2" stroke-miterlimit="10" cx="112.8" cy="600" r="52.2"/>
	<circle fill="none" stroke="#FFFFFF" stroke-width="2" stroke-miterlimit="10" cx="709.7" cy="747.8" r="52.2"/>
	<circle fill="none" stroke="#FFFFFF" stroke-width="2" stroke-miterlimit="10" cx="386.2" cy="623.1" r="52.2"/>
	<circle fill="none" stroke="#FFFFFF" stroke-width="2" stroke-miterlimit="10" cx="623.3" cy="466.8" r="52.2"/>
	<g>
		<g>
			<line fill="none" stroke="#FFFFFF" stroke-linecap="round" stroke-linejoin="round" x1="890.5" y1="429.9" x2="661" y2="326.4"/>
			<g>
				<polygon fill="#FFFFFF" points="664.4,322.4 654.5,323.4 660.3,331.5 				"/>
			</g>
		</g>
	</g>
	<g>
		<g>
			
				<line fill="none" stroke="#FFFFFF" stroke-linecap="round" stroke-linejoin="round" x1="418.6" y1="582.2" x2="536.1" y2="382.9"/>
			<g>
				<polygon fill="#FFFFFF" points="539.7,386.7 539.8,376.7 531.1,381.6 				"/>
			</g>
		</g>
	</g>
	<g>
		<g>
			
				<line fill="none" stroke="#FFFFFF" stroke-linecap="round" stroke-linejoin="round" x1="246.1" y1="420.6" x2="481.6" y2="319.5"/>
			<g>
				<polygon fill="#FFFFFF" points="482.2,324.7 488.2,316.7 478.3,315.5 				"/>
			</g>
		</g>
	</g>
	<g>
		<g>
			
				<line fill="none" stroke="#FFFFFF" stroke-linecap="round" stroke-linejoin="round" x1="163.3" y1="586.3" x2="501.2" y2="356.1"/>
			<g>
				<polygon fill="#FFFFFF" points="502.8,361.1 507.2,352.1 497.2,352.8 				"/>
			</g>
		</g>
	</g>
	<g>
		<g>
			
				<line fill="none" stroke="#FFFFFF" stroke-linecap="round" stroke-linejoin="round" x1="996.2" y1="564.1" x2="648.4" y2="351.8"/>
			<g>
				<polygon fill="#FFFFFF" points="652.2,348.3 642.3,348.1 647,356.8 				"/>
			</g>
		</g>
	</g>
	<g>
		<g>
			<line fill="none" stroke="#FFFFFF" stroke-linecap="round" stroke-linejoin="round" x1="879.3" y1="695.5" x2="628.8" y2="372"/>
			<g>
				<polygon fill="#FFFFFF" points="633.6,370.1 624.4,366.4 625.7,376.3 				"/>
			</g>
		</g>
	</g>
	<g>
		<g>
			
				<line fill="none" stroke="#FFFFFF" stroke-linecap="round" stroke-linejoin="round" x1="1005.1" y1="556.6" x2="968.4" y2="500.5"/>
			<g>
				<polygon fill="#FFFFFF" points="973.4,499 964.5,494.5 965,504.4 				"/>
			</g>
		</g>
	</g>
	<g>
		<g>
			
				<line fill="none" stroke="#FFFFFF" stroke-linecap="round" stroke-linejoin="round" x1="675.5" y1="466.8" x2="879.9" y2="449.3"/>
			<g>
				<polygon fill="#FFFFFF" points="878.8,454.4 887,448.7 878,444.5 				"/>
			</g>
		</g>
	</g>
	<g>
		<g>
			<line fill="none" stroke="#FFFFFF" stroke-linecap="round" stroke-linejoin="round" x1="219" y1="396.6" x2="925" y2="396.6"/>
			<g>
				<polygon fill="#FFFFFF" points="220,401.5 211.4,396.5 220,391.5 				"/>
			</g>
			<g>
				<polygon fill="#FFFFFF" points="924,401.5 932.6,396.5 924,391.5 				"/>
			</g>
		</g>
	</g>
	<g>
		<g>
			<line fill="none" stroke="#FFFFFF" stroke-linecap="round" stroke-linejoin="round" x1="154.4" y1="568.3" x2="913" y2="498"/>
			<g>
				<polygon fill="#FFFFFF" points="912,503.1 920.1,497.4 911.1,493.2 				"/>
			</g>
		</g>
	</g>
	<g>
		<g>
			<line fill="none" stroke="#FFFFFF" stroke-linecap="round" stroke-linejoin="round" x1="907.7" y1="694.6" x2="933" y2="508.1"/>
			<g>
				<polygon fill="#FFFFFF" points="937.8,510.2 934,501 927.9,508.9 				"/>
			</g>
		</g>
	</g>
	<g>
		<g>
			
				<line fill="none" stroke="#FFFFFF" stroke-linecap="round" stroke-linejoin="round" x1="349.1" y1="586.3" x2="242.3" y2="492.4"/>
			<g>
				<polygon fill="#FFFFFF" points="246.7,489.6 236.9,487.6 240.1,497.1 				"/>
			</g>
		</g>
	</g>
	<g>
		<g>
			<line fill="none" stroke="#FFFFFF" stroke-linecap="round" stroke-linejoin="round" x1="981.9" y1="606" x2="261.3" y2="450.2"/>
			<g>
				<polygon fill="#FFFFFF" points="263.8,445.7 254.3,448.7 261.7,455.4 				"/>
			</g>
		</g>
	</g>
	<g>
		<g>
			
				<line fill="none" stroke="#FFFFFF" stroke-linecap="round" stroke-linejoin="round" x1="867.8" y1="706.3" x2="258.1" y2="472.4"/>
			<g>
				<polygon fill="#FFFFFF" points="261.3,468.2 251.4,469.8 257.7,477.5 				"/>
			</g>
		</g>
	</g>
	<g>
		<g>
			<line fill="none" stroke="#FFFFFF" stroke-linecap="round" stroke-linejoin="round" x1="435.5" y1="606" x2="574" y2="500"/>
			<g>
				<polygon fill="#FFFFFF" points="575.9,504.9 579.7,495.7 569.8,496.9 				"/>
			</g>
		</g>
	</g>
	<g>
		<g>
			<line fill="none" stroke="#FFFFFF" stroke-linecap="round" stroke-linejoin="round" x1="296.6" y1="775.7" x2="636.2" y2="520"/>
			<g>
				<polygon fill="#FFFFFF" points="638,524.8 641.9,515.6 632,516.9 				"/>
			</g>
		</g>
	</g>
	<g>
		<g>
			
				<line fill="none" stroke="#FFFFFF" stroke-linecap="round" stroke-linejoin="round" x1="656.9" y1="737.9" x2="443.2" y2="639.4"/>
			<g>
				<polygon fill="#FFFFFF" points="446.6,635.5 436.7,636.4 442.5,644.5 				"/>
			</g>
		</g>
	</g>
	<g>
		<g>
			
				<line fill="none" stroke="#FFFFFF" stroke-linecap="round" stroke-linejoin="round" x1="467.9" y1="872.2" x2="416.7" y2="673.7"/>
			<g>
				<polygon fill="#FFFFFF" points="421.9,673.9 414.9,666.7 412.2,676.4 				"/>
			</g>
		</g>
	</g>
	<g>
		<g>
			
				<line fill="none" stroke="#FFFFFF" stroke-linecap="round" stroke-linejoin="round" x1="645.3" y1="872.2" x2="673.7" y2="795.6"/>
			<g>
				<polygon fill="#FFFFFF" points="677.8,798.7 676.1,788.9 668.5,795.3 				"/>
			</g>
		</g>
	</g>
	<g>
		<g>
			
				<line fill="none" stroke="#FFFFFF" stroke-linecap="round" stroke-linejoin="round" x1="214.1" y1="712.3" x2="147.4" y2="648.2"/>
			<g>
				<polygon fill="#FFFFFF" points="151.9,645.6 142.2,643.2 145,652.8 				"/>
			</g>
		</g>
	</g>
	<g>
		<g>
			
				<line fill="none" stroke="#FFFFFF" stroke-linecap="round" stroke-linejoin="round" x1="152.3" y1="957.2" x2="113.7" y2="659.4"/>
			<g>
				<polygon fill="#FFFFFF" points="118.9,660.2 112.8,652.2 109,661.4 				"/>
			</g>
		</g>
	</g>
	<g>
		<g>
			
				<line fill="none" stroke="#FFFFFF" stroke-linecap="round" stroke-linejoin="round" x1="241.8" y1="957.2" x2="252.3" y2="806.7"/>
			<g>
				<polygon fill="#FFFFFF" points="257.2,808.5 252.9,799.5 247.3,807.8 				"/>
			</g>
		</g>
	</g>
	<g>
		<g>
			<line fill="none" stroke="#FFFFFF" stroke-linecap="round" stroke-linejoin="round" x1="660.7" y1="766" x2="166.6" y2="625.1"/>
			<g>
				<polygon fill="#FFFFFF" points="169.4,620.7 159.7,623.1 166.6,630.3 				"/>
			</g>
		</g>
	</g>
	<g>
		<g>
			
				<line fill="none" stroke="#FFFFFF" stroke-linecap="round" stroke-linejoin="round" x1="1012.3" y1="957.2" x2="927" y2="800.4"/>
			<g>
				<polygon fill="#FFFFFF" points="932.1,799.3 923.6,794.1 923.4,804.1 				"/>
			</g>
		</g>
	</g>
	<g>
		<g>
			
				<line fill="none" stroke="#FFFFFF" stroke-linecap="round" stroke-linejoin="round" x1="1079.1" y1="957.2" x2="1035.2" y2="659.3"/>
			<g>
				<polygon fill="#FFFFFF" points="1040.4,660.1 1034.2,652.2 1030.5,661.5 				"/>
			</g>
		</g>
	</g>
	
		<circle fill="none" stroke="#FFFFFF" stroke-linecap="round" stroke-linejoin="round" stroke-miterlimit="10" cx="143.7" cy="1090.2" r="44"/>
	
		<circle fill="none" stroke="#FFFFFF" stroke-linecap="round" stroke-linejoin="round" stroke-miterlimit="10" cx="406.3" cy="1090.2" r="44"/>
	
		<circle fill="none" stroke="#FFFFFF" stroke-linecap="round" stroke-linejoin="round" stroke-miterlimit="10" cx="668.9" cy="1090.2" r="44"/>
	
		<circle fill="none" stroke="#FFFFFF" stroke-linecap="round" stroke-linejoin="round" stroke-miterlimit="10" cx="931.5" cy="1090.2" r="44"/>
	<polyline fill="none" stroke="#FFFFFF" stroke-linecap="round" stroke-linejoin="round" stroke-miterlimit="10" points="
		24.3,976.1 24.5,1007.6 1122.5,1007.6 1122.5,976.1 	"/>
	<g>
		<g>
			
				<line fill="none" stroke="#FFFFFF" stroke-linecap="round" stroke-linejoin="round" x1="144.5" y1="1008.1" x2="144.5" y2="1038.1"/>
			<g>
				<polygon fill="#FFFFFF" points="139.2,1037.1 144.2,1045.7 149.2,1037.1 				"/>
			</g>
		</g>
	</g>
	<g>
		<g>
			
				<line fill="none" stroke="#FFFFFF" stroke-linecap="round" stroke-linejoin="round" x1="406.5" y1="1008.1" x2="406.5" y2="1038.1"/>
			<g>
				<polygon fill="#FFFFFF" points="401.3,1037.1 406.3,1045.7 411.3,1037.1 				"/>
			</g>
		</g>
	</g>
	<g>
		<g>
			
				<line fill="none" stroke="#FFFFFF" stroke-linecap="round" stroke-linejoin="round" x1="668.5" y1="1008.1" x2="668.5" y2="1038.1"/>
			<g>
				<polygon fill="#FFFFFF" points="663.7,1037.1 668.7,1045.7 673.7,1037.1 				"/>
			</g>
		</g>
	</g>
	<g>
		<g>
			
				<line fill="none" stroke="#FFFFFF" stroke-linecap="round" stroke-linejoin="round" x1="931.5" y1="1008.1" x2="931.5" y2="1038.1"/>
			<g>
				<polygon fill="#FFFFFF" points="927,1037.1 932,1045.7 937,1037.1 				"/>
			</g>
		</g>
	</g>
	<g>
		<g>
			
				<line fill="none" stroke="#FFFFFF" stroke-linecap="round" stroke-linejoin="round" x1="1094.5" y1="192.1" x2="1094.5" y2="949.1"/>
			<g>
				<polygon fill="#FFFFFF" points="1089.8,948.1 1094.8,956.7 1099.7,948.1 				"/>
			</g>
		</g>
	</g>
	<circle fill="none" stroke="#FFFFFF" stroke-width="2" stroke-miterlimit="10" cx="1065.3" cy="148.7" r="52.2"/>
	<g>
		<g>
			
				<line fill="none" stroke="#FFFFFF" stroke-linecap="round" stroke-linejoin="round" x1="1015.1" y1="172.9" x2="521.7" y2="866.3"/>
			<g>
				<polygon fill="#FFFFFF" points="518.4,862.2 517.5,872.1 526.6,868 				"/>
			</g>
		</g>
	</g>
	<rect x="-0.4" y="1160.3" fill="#B9A586" width="1147.4" height="39.8"/>
	<text transform="matrix(1 0 0 1 425.8784 1187.0029)" fill="#FFFFFF" font-family="'Arial-BoldMT'" font-size="16">LEGENDE:</text>
	<rect x="689.1" y="1176.2" fill="none" width="88.2" height="12.9"/>
	<text transform="matrix(1 0 0 1 689.0634 1186.9695)" fill="#FFFFFF" font-family="'ArialMT'" font-size="15">WER FRISST</text>
	<rect x="506.5" y="1176.2" fill="none" width="124.3" height="15.5"/>
	<text transform="matrix(1 0 0 1 506.4712 1186.9695)" fill="#FFFFFF" font-family="'ArialMT'" font-size="15">WER WIRD GEFRESSEN</text>
	<g>
		<g>
			<line fill="none" stroke="#FFFFFF" stroke-linecap="round" stroke-linejoin="round" x1="636" y1="1180.6" x2="667" y2="1180.6"/>
			<g>
				<polygon fill="#FFFFFF" points="666,1185.6 674.6,1180.6 666,1175.6 				"/>
			</g>
		</g>
	</g>
</g>
<g id="animali">
	<path fill="#724B0D" stroke="#FFFFFF" stroke-linecap="round" stroke-linejoin="round" stroke-miterlimit="10" d="M926.7,755.9
		c-3.3-2.3-10.3,1-10.3,1l-1-1.4c0,0,2.3-4,2.6-4.8c0,0,10.9,0.5,16-3.8c0,0-2.7-16.8-16.4-15.7l2.4-7.9c0,0-5.2-0.1-8.7,7.9
		c-3.4,8-4,12.7-5.5,14.1c-1.4,1.3-7.9,3-13.5,7.3c-6.3,4.8-13.5,9.8-13.5,17.4c0,4.9,0.7,9.9,3,12.9c2.2,3,6,5.6,12.1,5.6
		c14.9,0,25.2,0,25.2,0s-1.9-5.3-8.2-5.3c-4.3,0-5.3-0.3-5.6-0.3c0.4-0.4,4.3-4.2,4.3-7.8c0-3.8-1.5-8.3-2.4-9.7
		c0,0,2.8,0.8,5.6,0.8c2.9,0,9.7-1.6,12.8-6.7l3.1,1.3C928.7,761,930,758.2,926.7,755.9z"/>
	<path fill="#9D8156" stroke="#FFFFFF" stroke-linecap="round" stroke-linejoin="round" stroke-miterlimit="10" d="M892.3,752.7
		c7.7-5.7,15.4-15.2,15.4-25.7c0-7.7-4.5-20.4-20.6-20.4c-12.7,0-22,16.5-22,24.2c0,7.7,3.4-2.6,9.6-2.6c6.2,0,8.9,5.3,8.9,9.6
		c0,7.8-10.6,14-9.7,31.8c0.3,5.6,4,10.3,7.6,13.1c-1.9-3.2-2.6-7.6-2.6-12.5C878.8,762.5,885.9,757.4,892.3,752.7z"/>
	<path fill="#724B0D" stroke="#FFFFFF" stroke-linecap="round" stroke-linejoin="round" stroke-miterlimit="10" d="M940.7,467.7
		c-2.1,0.4-4.2,0.7-5.8,0.7c-5.1,0-12.6-4.7-15-5.2c-1.7-0.4-6.4-0.3-5.7,3.5c0.9,4.6,23.8,6.9,26.9,12.3c2.9,5.1-8,10.1-8,10.1
		s2.1-1.7,1.3-5.9c-0.8-4.1-28.8-2.4-28.8-18.3c0-7.5,8.3-8.9,12.7-8.9c4.2,0,13.8,3.6,16,3.6"/>
	<path fill="#724B0D" stroke="#FFFFFF" stroke-linecap="round" stroke-linejoin="round" stroke-miterlimit="10" d="M938.6,459.2
		c5.4-0.6,14.5-1.8,20.4-1.8c8,0,13.8,3.6,13.8,11.3c0,7.7-10,16-21.6,16s-22.2-10.1-24-16.5c-2-6.8-0.2-11.4-0.2-19.8
		c0-8-2.1-19.5-2.1-24.4c0-4.9,1.6-15.6,18.5-15.6c3.7,0,13.7,3.1,13.7,16.5c0,13.4-18.2,19.3-18.6,23.5c-0.4,4.1-1.3,13.4,4.1,19.7
		c4.6,5.4,6.1,6.5,11.4,6.5c4.7,0,8.2-3.7,8.2-5.7c0-3.2-5.4-4.3-9.4-4.3c-2.8,0-6.7,1-11.4,2"/>
	<path fill="#9D8156" stroke="#FFFFFF" stroke-linecap="round" stroke-linejoin="round" stroke-miterlimit="10" d="M936.3,469.3
		c3.4,6.4,9.7,9.7,17,9.7c10.9,0,19.6-2.6,19.6-9.4c0,7.7-10,16-21.6,16s-22.2-10.1-24-16.5c-2.1-7-0.3-20.6-0.2-21.2
		c0.4-9.3,13.1-29.4,13.1-29.4l7.1-1c0,0-13.5,26.4-13.5,40.2C933.7,462.3,934.6,466.2,936.3,469.3"/>
	<path fill="#724B0D" stroke="#FFFFFF" stroke-linecap="round" stroke-linejoin="round" stroke-miterlimit="10" d="M955.7,417.3
		c-2.4-2.3-4.8-1.7-6.5-1.2c-1.6,0.5-11,5.4-11,5.4s-0.7-5.8-1-8.1c-0.2-2.2-5-2.8-5-2.8l0,0c2.7-1.4,6.2-2.3,11.1-2.3
		C948.2,408.4,953.4,411.1,955.7,417.3z"/>
	<path fill="#724B0D" stroke="#FFFFFF" stroke-linecap="round" stroke-linejoin="round" stroke-miterlimit="10" d="M534.5,233.8
		c0,0-0.5,7.7,7,12c7.5,4.2,18.7,10,22.5,15.5c3.7,5.5,14.7,31.2,19.5,33.7c4.7,2.5,10.9,3.7,10.9,3.7l-5.4,10.5l6.2,8
		c0,0,8.6,0.5,13.8,9.1c6,10.1,17.5,16.8,17.5,16.8c-30,17.2-65.6-15.7-70.9-25.2C550.1,308.4,527.2,281.2,534.5,233.8z"/>
	<path fill="#724B0D" stroke="#FFFFFF" stroke-linecap="round" stroke-linejoin="round" stroke-miterlimit="10" d="M544,313.9
		c-3.2-4.7-20-13-20-13s2,20.1,6.5,30.1c4.5,10,18,23.1,20,24.1c1.7,0.9,1.6-20.5,12.7-28.7C553.8,323.5,546.4,317.4,544,313.9z"/>
	<path fill="#724B0D" stroke="#FFFFFF" stroke-linecap="round" stroke-linejoin="round" stroke-miterlimit="10" d="M603.7,297.2
		c-14.2,0-32.5,13-39.7,13c-7.2,0-40-9.2-40-9.2s16.7,8.2,20,13c2.4,3.5,9.8,9.6,19.2,12.5c3.3,1.1,6.9,1.7,10.6,1.7
		c14,0,25-17.7,33.5-17.7c8.5,0,13.2,9,13.2,9S617.9,297.2,603.7,297.2z"/>
	<path fill="#CEC0AB" stroke="#FFFFFF" stroke-linecap="round" stroke-linejoin="round" stroke-miterlimit="10" d="M595.1,317.2
		c3.8-3.1,8.9-6.7,12-6.7c8.5,0,13.2,9,13.2,9s-2.5-22.2-16.7-22.2c-2.7,0-6.4,0.7-9.4,1.5l-5.4,10.5L595.1,317.2z"/>
	<polygon fill="#9D8156" stroke="#FFFFFF" stroke-linecap="round" stroke-linejoin="round" stroke-miterlimit="10" points="
		546.6,316.9 546.5,326.3 549.8,319.5 	"/>
	<polygon fill="#9D8156" stroke="#FFFFFF" stroke-linecap="round" stroke-linejoin="round" stroke-miterlimit="10" points="
		554.4,322.6 553.4,330.7 557.5,324.2 	"/>
	<path fill="#9D8156" stroke="#FFFFFF" stroke-linecap="round" stroke-linejoin="round" stroke-miterlimit="10" d="M606.7,308.3
		c0,0,0.3,2.1,0.5,2.1c8.5,0,13.2,9,13.2,9s-1-6.6-3-11.1L606.7,308.3z"/>
	
		<path fill-rule="evenodd" clip-rule="evenodd" fill="#724B0D" stroke="#FFFFFF" stroke-linecap="round" stroke-linejoin="round" stroke-miterlimit="10" d="
		M207.3,474.1c-3.4-2.2-15-23.3-43-10c0,0,6.7,13.1,20.1,17c13.4,4,23.9,4.9,26.5,4.9C213.4,486,207.3,474.1,207.3,474.1z"/>
	<path fill="#9D8156" stroke="#FFFFFF" stroke-linecap="round" stroke-linejoin="round" stroke-miterlimit="10" d="M185.9,460.2
		c-6.6-1.9-14.1,0.6-22.7,3.9c0,0,5.7,11,17,15.9c3.8-1.7,7.6-5.4,8.1-9.4C189,465.2,185.9,460.2,185.9,460.2z"/>
	
		<path fill-rule="evenodd" clip-rule="evenodd" fill="#724B0D" stroke="#FFFFFF" stroke-linecap="round" stroke-linejoin="round" stroke-miterlimit="10" d="
		M230.4,462.5c1.7-1.7,6.8-3.4,8.9-1.4c2.1,2.1,5.7,12.5-13.8,25.5h-7.7L230.4,462.5z"/>
	
		<path fill-rule="evenodd" clip-rule="evenodd" fill="#724B0D" stroke="#FFFFFF" stroke-linecap="round" stroke-linejoin="round" stroke-miterlimit="10" d="
		M204.9,462.5c-1.7-1.7-6.8-3.4-8.9-1.4c-2.1,2.1-5.7,12.5,13.8,25.5h7.7L204.9,462.5z"/>
	
		<path fill-rule="evenodd" clip-rule="evenodd" fill="#724B0D" stroke="#FFFFFF" stroke-linecap="round" stroke-linejoin="round" stroke-miterlimit="10" d="
		M230.8,442.9l-13.1,0l-13.2,0c-1.5,1.5-2.2,16.5-0.5,22.1c1.7,5.6,3.1,11.7,9.5,18.1c0,0-3.7-0.4-3.7,3.6h7.9h7.7
		c0-4-3.7-3.6-3.7-3.6c6.4-6.4,7.8-12.3,9.5-17.9C232.9,459.5,232.4,444.4,230.8,442.9z"/>
	
		<polygon fill-rule="evenodd" clip-rule="evenodd" fill="#9D8156" stroke="#FFFFFF" stroke-linecap="round" stroke-linejoin="round" stroke-miterlimit="10" points="
		204.7,442.9 217.7,482.9 230.7,442.9 	"/>
	
		<path fill-rule="evenodd" clip-rule="evenodd" fill="#9D8156" stroke="#FFFFFF" stroke-linecap="round" stroke-linejoin="round" stroke-miterlimit="10" d="
		M199.4,434c-1.5-4.8,0.3-19.3,3.7-23c0,0,6.3,2.2,10.9,13.7L199.4,434z"/>
	
		<path fill-rule="evenodd" clip-rule="evenodd" fill="#9D8156" stroke="#FFFFFF" stroke-linecap="round" stroke-linejoin="round" stroke-miterlimit="10" d="
		M235.9,434c1.5-4.8-0.3-19.3-3.7-23c0,0-6.3,2.2-10.9,13.7L235.9,434z"/>
	
		<path fill-rule="evenodd" clip-rule="evenodd" fill="#724B0D" stroke="#FFFFFF" stroke-linecap="round" stroke-linejoin="round" stroke-miterlimit="10" d="
		M217.7,424.4c-14,0-21.1,13.8-21.1,13.8c8.9,8.9,21.1,7.9,21.1,7.9s12.2,1.1,21.1-7.9C238.8,438.2,231.7,424.4,217.7,424.4z"/>
	<path fill="#9D8156" stroke="#FFFFFF" stroke-linecap="round" stroke-linejoin="round" stroke-miterlimit="10" d="M217.6,446
		L217.6,446C217.6,446,217.6,446,217.6,446C217.6,446,217.6,446,217.6,446c-6.7-8.5-17.1-9.5-21-7.8
		C205.5,447.1,217.7,446.1,217.6,446L217.6,446z"/>
	<path fill="#9D8156" stroke="#FFFFFF" stroke-linecap="round" stroke-linejoin="round" stroke-miterlimit="10" d="M217.6,446
		L217.6,446C217.7,446,217.7,446,217.6,446C217.7,446,217.7,446,217.6,446c6.7-8.5,17.1-9.5,21-7.8
		C229.8,447.1,217.6,446.1,217.6,446L217.6,446z"/>
	<path fill="#9D8156" stroke="#FFFFFF" stroke-linecap="round" stroke-linejoin="round" stroke-miterlimit="10" d="M379.7,614.5
		c0,0,8-9.5,9-10c1.1-0.5,7.4,8.2,7.4,8.2s-5.2,1.5-5.4,3.5C390.5,618.3,379.7,614.5,379.7,614.5z"/>
	<path fill="#9D8156" stroke="#FFFFFF" stroke-linecap="round" stroke-linejoin="round" stroke-miterlimit="10" d="M376.8,631.5
		c0,0,2.2,9.5,6.3,10.1c4.1,0.6,2.5-6.6,2.5-6.6l-7.7-4L376.8,631.5z"/>
	<path fill="#9D8156" stroke="#FFFFFF" stroke-linecap="round" stroke-linejoin="round" stroke-miterlimit="10" d="M392.8,630.3
		c0,0,4.2,7,8.3,8c4.1,0.9,5.2-8,5.2-8l-10.8-1.8L392.8,630.3z"/>
	<path fill="#724B0D" stroke="#FFFFFF" stroke-linecap="round" stroke-linejoin="round" stroke-miterlimit="10" d="M375.2,612.8
		c-7.3,0-31.1,2.3-31.1,9.8c0,7.7,18.2,10.7,31.1,10.7c16.3,0,34.3-6.8,36.6-6.8c3.2,0,15,7.5,15,7.5l-3-11.4l4.6-10.8
		c0,0-13.1,6.7-16.5,6.7C408.3,618.7,389.9,612.8,375.2,612.8z"/>
	<path fill="#9D8156" stroke="#FFFFFF" stroke-linecap="round" stroke-linejoin="round" stroke-miterlimit="10" d="M415.1,617.8
		c5.1-2.4,13.1-5.8,13.1-5.8l-4.6,10.8l3,11.4c0,0-7.9-4.5-12-6.6c0,0,2.8-2.3,2.8-4.7C417.6,620.3,415.1,617.8,415.1,617.8"/>
	<path fill="#724B0D" stroke="#FFFFFF" stroke-linecap="round" stroke-linejoin="round" stroke-miterlimit="10" d="M941.4,1058.8
		c16,2.3,25,18.2,25,18.2s-18.3,6.7-31.8,3.7c-7.7-1.7-25.7-15.8-25.7-15.8S921.6,1055.9,941.4,1058.8z"/>
	<path fill="#9D8156" stroke="#FFFFFF" stroke-linecap="round" stroke-linejoin="round" stroke-miterlimit="10" d="M905.5,1096.6
		c0,0-2.3,3.7-2.3,10.7c0,7,1.8,11.3,9.1,11.3c7.4,0,7.7-5.4,7.7-8.6c0-3.2-2.4-13.4-2.4-13.4H905.5z"/>
	<path fill="#724B0D" stroke="#FFFFFF" stroke-linecap="round" stroke-linejoin="round" stroke-miterlimit="10" d="M913.7,1082.3
		c-11.3-0.5-17.1,11.8-17.1,11.8s8.1,7.7,15.9,7.9c7.8,0.2,15.7-5.7,15.7-5.7S926.4,1082.8,913.7,1082.3z"/>
	<path fill="#CEC0AB" stroke="#FFFFFF" stroke-linecap="round" stroke-linejoin="round" stroke-miterlimit="10" d="M966.4,1077
		c0,0-19.9-0.7-29.9-2.3c-5.3-0.9-27.7-9.8-27.7-9.8s18.1,14.1,25.7,15.8C948.1,1083.6,966.4,1077,966.4,1077z"/>
	<path fill="#9D8156" stroke="#FFFFFF" stroke-linecap="round" stroke-linejoin="round" stroke-miterlimit="10" d="M937.6,1077.3
		c4,0.7,3.3,3.2,3.3,7.6c0,4.4-1.3,7.3-1.3,11s1.9,15.8,1.9,19.1c0,3.3-3.5,6.2-7.4,6.2c-3.9,0-6.8-4-6.6-9.2
		c0.2-5.1,2.2-12.7,2.6-16.7c0.4-4,1.5-12.2,1.5-13.5C931.6,1080.5,931.3,1076.2,937.6,1077.3z"/>
	<path fill="#9D8156" stroke="#FFFFFF" stroke-linecap="round" stroke-linejoin="round" stroke-miterlimit="10" d="M918.9,1111.6
		c0,0-1.2,2.2-1.2,4.1c0,2,1.2,6.5,6.7,6.5c5.4,0,6-3.9,6-5.3c0-1.4-0.6-6.5-5.5-6.5C919.8,1110.3,918.9,1111.6,918.9,1111.6z"/>
	<path fill="#724B0D" stroke="#FFFFFF" stroke-linecap="round" stroke-linejoin="round" stroke-miterlimit="10" d="M936.5,1107.6
		c0,0-5.5,5.9-12.2,5.9c-6.8,0-12.2-5.9-12.2-5.9s2.9-9.9,12.2-9.9C933.8,1097.7,936.5,1107.6,936.5,1107.6z"/>
	
		<line fill="none" stroke="#00FF00" stroke-linecap="round" stroke-linejoin="round" stroke-miterlimit="10" x1="659.6" y1="1072.4" x2="659.6" y2="1072.4"/>
	<path fill="#9D8156" stroke="#FFFFFF" stroke-linecap="round" stroke-linejoin="round" stroke-miterlimit="10" d="M653,1094.6
		c-1.9,1.1-4.5,4.6-6.3,4.4c-1.8-0.2-2.9-1.5-3.7-0.4c-0.7,1.2,1.8,3.2,3.8,2.7c2.1-0.5,7.3-4.9,7.3-4.9l1.3-2.2L653,1094.6z"/>
	<path fill="#9D8156" stroke="#FFFFFF" stroke-linecap="round" stroke-linejoin="round" stroke-miterlimit="10" d="M657.4,1099.9
		c0,0-2.7,3.3-4.1,4.3c-1.4,0.9-3.3,1.6-4.2,1.5c-1-0.1-3,1.4-0.5,2.2c2.4,0.8,5.3-0.6,6.7-1.8s4-4.4,4-4.4l1.1-1.6L657.4,1099.9z"
		/>
	<path fill="#9D8156" stroke="#FFFFFF" stroke-linecap="round" stroke-linejoin="round" stroke-miterlimit="10" d="M664.4,1103.9
		c-1.5,2-2.9,5.5-4.7,6.5c-1.8,1-3,1.1-3.3,1.9c-0.4,0.8,0.6,2.4,3.1,1.2c2.5-1.3,2.9-1.5,4.5-4.2c1.6-2.8,2.8-4.7,2.8-4.7
		s-0.5-1.5-0.5-2C666.3,1101.9,664.4,1103.9,664.4,1103.9z"/>
	<path fill="#724B0D" stroke="#FFFFFF" stroke-linecap="round" stroke-linejoin="round" stroke-miterlimit="10" d="M651,1087
		l43.9,10.9c0,0-13.1,10.7-28.6,6.5C650.7,1100.1,651,1087,651,1087z"/>
	<path fill="#9D8156" stroke="#FFFFFF" stroke-linecap="round" stroke-linejoin="round" stroke-miterlimit="10" d="M656.3,1081.6
		c-1.1-1.8-1.9-6.2-3.5-6.8c-1.7-0.6-3.3,0-3.4-1.4c-0.1-1.4,3.1-2,4.6-0.6c1.6,1.4,4.1,7.7,4.1,7.7l0.1,2.5L656.3,1081.6z"/>
	<path fill="#9D8156" stroke="#FFFFFF" stroke-linecap="round" stroke-linejoin="round" stroke-miterlimit="10" d="M662.6,1078.9
		c0,0-0.8-4.2-1.6-5.7c-0.8-1.5-2.1-3-3-3.3c-0.9-0.4-2-2.6,0.5-2.2c2.5,0.4,4.4,3.1,5,4.7c0.6,1.7,1.5,5.7,1.5,5.7l0.2,1.9
		L662.6,1078.9z"/>
	<path fill="#9D8156" stroke="#FFFFFF" stroke-linecap="round" stroke-linejoin="round" stroke-miterlimit="10" d="M670.6,1078.7
		c-0.4-2.4,0-6.2-1.1-7.9c-1.1-1.7-2.1-2.3-2.1-3.2c0.1-0.9,1.7-1.8,3.3,0.4c1.6,2.3,1.9,2.7,2,5.9c0.1,3.2,0.2,5.4,0.2,5.4
		s-1.2,1.1-1.4,1.6C671.4,1081.3,670.6,1078.7,670.6,1078.7z"/>
	<path fill="#724B0D" stroke="#FFFFFF" stroke-linecap="round" stroke-linejoin="round" stroke-miterlimit="10" d="M651,1087
		l43.9,10.9c0,0-6.5-15.6-22.3-19.1C656.9,1075.2,651,1087,651,1087z"/>
	<path fill="#9D8156" stroke="#FFFFFF" stroke-linecap="round" stroke-linejoin="round" stroke-miterlimit="10" d="M651,1087
		c0,0-0.2,4.3,2.7,8.9c3.1-1,5.9-1.6,7.1-6.4c1.2-4.9-1-6.7-3.2-9C652.8,1083,651,1087,651,1087z"/>
	
		<ellipse transform="matrix(0.9197 0.3926 -0.3926 0.9197 454.0889 -75.305)" fill="#724B0D" stroke="#FFFFFF" stroke-linecap="round" stroke-linejoin="round" stroke-miterlimit="10" cx="411.2" cy="1072.6" rx="10.2" ry="8"/>
	<path fill="#9D8156" stroke="#FFFFFF" stroke-linecap="round" stroke-linejoin="round" stroke-miterlimit="10" d="M395.4,1072.5
		c-1.9-2.1-5.4-6.9-6.8-6.8c-1.4,0.1-2.2,1.9,0,3.9c2.2,1.9,4.6,4.7,4.6,4.7l3,1.3L395.4,1072.5z"/>
	<path fill="#9D8156" stroke="#FFFFFF" stroke-linecap="round" stroke-linejoin="round" stroke-miterlimit="10" d="M400.6,1069.5
		c-1.2-2.6-2.9-8.3-4.3-8.6c-1.4-0.3-2.7,1.1-1.2,3.7c1.5,2.5,2.9,5.9,2.9,5.9l2.5,2.2L400.6,1069.5z"/>
	<path fill="#9D8156" stroke="#FFFFFF" stroke-linecap="round" stroke-linejoin="round" stroke-miterlimit="10" d="M390.3,1076.6
		c-2.5-1.4-7.3-4.9-8.6-4.3c-1.3,0.6-1.5,2.5,1.2,3.7c2.7,1.1,5.9,3,5.9,3l3.3,0.3L390.3,1076.6z"/>
	<path fill="#9D8156" stroke="#FFFFFF" stroke-linecap="round" stroke-linejoin="round" stroke-miterlimit="10" d="M422,1083.8
		c2.8-0.1,8.7-0.9,9.6,0.2c0.9,1.1,0.1,2.9-2.8,2.7c-2.9-0.2-6.6-0.1-6.6-0.1l-3-1.3L422,1083.8z"/>
	<path fill="#9D8156" stroke="#FFFFFF" stroke-linecap="round" stroke-linejoin="round" stroke-miterlimit="10" d="M420.5,1078
		c2.6-0.9,8-3.6,9.2-2.8c1.2,0.8,1,2.7-1.8,3.4c-2.8,0.7-6.3,2-6.3,2l-3.3-0.3L420.5,1078z"/>
	<path fill="#9D8156" stroke="#FFFFFF" stroke-linecap="round" stroke-linejoin="round" stroke-miterlimit="10" d="M422.5,1090.4
		c2.7,0.8,8.6,1.9,9.1,3.2c0.5,1.3-0.8,2.8-3.5,1.7c-2.7-1.1-6.2-2.2-6.2-2.2l-2.5-2.2L422.5,1090.4z"/>
	
		<circle fill="#724B0D" stroke="#FFFFFF" stroke-linecap="round" stroke-linejoin="round" stroke-miterlimit="10" cx="405.3" cy="1086.5" r="17.1"/>
	<path fill="#724B0D" stroke="#FFFFFF" stroke-linecap="round" stroke-linejoin="round" stroke-miterlimit="10" d="M389.5,1079.8
		l-8.9,20.8c0,0,2.5,14.6,10.8,18.1l11.8-27.6C403.3,1091.1,391.6,1085.9,389.5,1079.8z"/>
	<path fill="#724B0D" stroke="#FFFFFF" stroke-linecap="round" stroke-linejoin="round" stroke-miterlimit="10" d="M421,1093.2
		l-8.9,20.8c0,0-12.3,8.2-20.6,4.7l11.8-27.6C403.3,1091.1,415.4,1096.1,421,1093.2z"/>
	<path fill="#9D8156" stroke="#FFFFFF" stroke-linecap="round" stroke-linejoin="round" stroke-miterlimit="10" d="M1048,626.8
		c-0.3,0-1.4-0.3-1.4-0.3c-0.8-0.4-5.5-9.2-5.5-9.2l-4.9,1.7c0,0,7.3,7.4,7.9,8.7c0,0-0.1,0.9-0.4,1.6c-0.9,1.9-1.9,3.1-1.9,3.1
		s1.5-0.2,3.4,0c1.9,0.2,3.1,0.7,3.1,0.7s0.3-1.3,1.2-3.2c0.9-1.9,1.9-3.1,1.9-3.1S1049.9,627,1048,626.8z"/>
	<path fill="#9D8156" stroke="#FFFFFF" stroke-linecap="round" stroke-linejoin="round" stroke-miterlimit="10" d="M1040,626.8
		c-0.3,0-1.4-0.3-1.4-0.3c-0.8-0.4-5.5-9.2-5.5-9.2l-4.9,1.7c0,0,7.3,7.4,7.9,8.7c0,0-0.1,0.9-0.4,1.6c-0.9,1.9-1.9,3.1-1.9,3.1
		s1.5-0.2,3.4,0c1.9,0.2,3.1,0.7,3.1,0.7s0.3-1.3,1.2-3.2c0.9-1.9,1.9-3.1,1.9-3.1S1041.9,627,1040,626.8z"/>
	<path fill="#724B0D" stroke="#FFFFFF" stroke-linecap="round" stroke-linejoin="round" stroke-miterlimit="10" d="M987.8,610.1
		c0,0,38.6-12.2,44.7-18c6.1-5.8,9.4-26.2,22.4-25.2c13.1,1,11.4,10,10.7,14.1c-0.7,4.1,1.7,15.5,0.5,21.1
		c-1.3,6-10.4,17.7-28.2,17.7C1020.1,619.8,987.8,610.1,987.8,610.1z"/>
	<path fill="#9D8156" stroke="#FFFFFF" stroke-linecap="round" stroke-linejoin="round" stroke-miterlimit="10" d="M1064.2,577
		l6.4,6.6h-7.6c0,0-1.7-2-1.3-3.7C1062,578.2,1064.2,577,1064.2,577z"/>
	<path fill="#724B0D" stroke="#FFFFFF" stroke-linecap="round" stroke-linejoin="round" stroke-miterlimit="10" d="M1046.3,584.8
		c6.5,3.1,13.6,19.7-8.5,28.4c-22.1,8.7-29.6,8.3-29.6,8.3s10.2-23.7,13.9-29.4C1025.5,587,1033.9,578.9,1046.3,584.8z"/>
	
		<circle fill="#724B0D" stroke="#FFFFFF" stroke-linecap="round" stroke-linejoin="round" stroke-miterlimit="10" cx="596.2" cy="441.6" r="2.8"/>
	<path fill="#724B0D" stroke="#FFFFFF" stroke-linecap="round" stroke-linejoin="round" stroke-miterlimit="10" d="M599.8,468.3
		c0,0-9,5.5-8.4,8.2c0,0,8.3-3.5,12.5-1.9C608,476.1,599.8,468.3,599.8,468.3z"/>
	<path fill="#724B0D" stroke="#FFFFFF" stroke-linecap="round" stroke-linejoin="round" stroke-miterlimit="10" d="M637.6,456.9
		c0,0-4.7-5.1-2.8-4.5c2.3,0.7,26.2,7.9,26.2,16.9c0,7.8-8.1,3.9-8.8,3.9C651.3,473.3,637.6,456.9,637.6,456.9z"/>
	<path fill="#9D8156" stroke="#FFFFFF" stroke-linecap="round" stroke-linejoin="round" stroke-miterlimit="10" d="M587.1,444.7
		c-5.9,6.1,5.2,38.4,45.9,38.4c0,0,23.6-2.4,23.8-8.2c0.7-16.5-28.1-24.6-31.5-26C623.5,448.1,594.3,437.2,587.1,444.7z"/>
	<path fill="#724B0D" stroke="#FFFFFF" stroke-linecap="round" stroke-linejoin="round" stroke-miterlimit="10" d="M589.8,484.3
		c0,0,8.4,3.8,13.3-1.9c4.9-5.7,0-18.3,0-18.3s10,1.1,10.7,10.1c0.5,6.1-3,17-16.6,17C589.8,491.2,589.8,484.3,589.8,484.3z"/>
	
		<circle fill="#724B0D" stroke="#FFFFFF" stroke-linecap="round" stroke-linejoin="round" stroke-miterlimit="10" cx="596.2" cy="447.6" r="2.8"/>
	<path fill="#724B0D" stroke="#FFFFFF" stroke-linecap="round" stroke-linejoin="round" stroke-miterlimit="10" d="M638.1,494.6
		c11.3,0,20.8-5.5,20.8-12.3c0-6.8-9.1-12.2-20.5-12.2c-11.3,0-20.5,5.5-20.5,12.5h0c0,3,0.7,4.1,1.2,4.8c0.2,0.3,0.1,0.5-0.2,0.6
		c-2.9,1-11.7,4.6-11.7,6.6H638.1z"/>
	<path fill="#9D8156" stroke="#FFFFFF" stroke-linecap="round" stroke-linejoin="round" stroke-miterlimit="10" d="M85.1,592
		c0,0-0.7-7.1-1.8-8.3c0,0,6.5,2.4,7.2,9.3C91.2,600,85.1,592,85.1,592z"/>
	<path fill="#9D8156" stroke="#FFFFFF" stroke-linecap="round" stroke-linejoin="round" stroke-miterlimit="10" d="M83.1,604.7
		c0,0,5.8,4.7-0.4,11.9c0,0,11.8-1.8,9.5-12.4L83.1,604.7z"/>
	<path fill="#9D8156" stroke="#FFFFFF" stroke-linecap="round" stroke-linejoin="round" stroke-miterlimit="10" d="M113,585.6
		c0,0-8.4-0.4-9.2-2.7c-0.7-2.2,8.1-5.8,8-7.8c-0.1-2-4.1-4.5-4.1-4.5s8.9-0.4,8.8,4.3c-0.1,3.5-4.5,3.9-4.3,5.7
		c0.2,1.7,11.9,1.3,11.9,1.3L113,585.6z"/>
	<path fill="#9D8156" stroke="#FFFFFF" stroke-linecap="round" stroke-linejoin="round" stroke-miterlimit="10" d="M119.7,597.6
		c0,0-6.7,5.2-6,7.5c0.7,2.3,10,0.1,11,1.9c1,1.7-0.8,6-0.8,6s7.6-4.7,4.7-8.6c-2.1-2.8-6-0.6-6.8-2.2c-0.8-1.5,9.1-7.9,9.1-7.9
		L119.7,597.6z"/>
	<path fill="none" stroke="#FF00FF" stroke-linecap="round" stroke-linejoin="round" stroke-miterlimit="10" d="M135.4,579.7"/>
	<path fill="#724B0D" stroke="#FFFFFF" stroke-linecap="round" stroke-linejoin="round" stroke-miterlimit="10" d="M135.4,579.7
		c13.3,0,24.4,3.7,24.4,21c0,16.5-6.8,25.2-20.6,28.1c-11.9,2.5-24.2-5.6-24.2-5.6s13.6,1.4,18.2,1.4c11,0,20.6-9,20.6-21.6
		c0-3.5-0.9-10.3-14.1-10.3c-0.1,0-0.2,0-0.4,0c-10.1,0-32.5,14.4-50.6,14.4c-18.1,0-23-8.4-23-14.1s8.2-5.4,11.1-4.8
		c3.1,0.7,5.4,2.3,10.4,2.3C93.3,590.6,123,579.7,135.4,579.7"/>
	<path fill="#9D8156" stroke="#FFFFFF" stroke-linecap="round" stroke-linejoin="round" stroke-miterlimit="10" d="M695,741.7
		c0,0,3.2-0.6,5.1-1.1c1.9-0.5,4.7-2.8,7.8-2.2c3.1,0.6,6.2,3.2,8.7,3.2c2.5,0,6.2-2.6,8.3-2.6c2,0,4,4.4,6.2,4.4c2.2,0,4-2,5.9-1.5
		c1.9,0.5,14.2,6.3,14.2,6.3s-6.4,5-9.5,5c-3.1,0-5.6-1.7-7.5-1.1c-1.9,0.6-5.8,3.4-8.3,3.6c-2.5,0.2-6.7-3-10.7-2.4
		c-4.1,0.6-6.1,5.2-8,5.4c-1.9,0.2-9.5-5.5-9.5-5.5L695,741.7z"/>
	<path fill="#724B0D" stroke="#FFFFFF" stroke-linecap="round" stroke-linejoin="round" stroke-miterlimit="10" d="M686.9,761
		c7.6-2.4,10.4-10,15.4-10c5,0,27.8-2,34.5-3.3c-6.7-1.3-29.5-3.2-34.5-3.2c-5,0-7.9-7.6-15.5-9.9c-0.1,0-0.3-0.1-0.4-0.1
		c-0.2-0.1-0.4-0.1-0.7-0.2c-1.1-0.3-2.2-0.4-3.3-0.4c-0.1,0-0.5,0-0.5,0c0,0-0.5,0-0.5,0v0c-7,0.1-13.8,6.3-13.8,13.9
		c0,7.6,6.8,13.8,13.8,13.9v0c0,0,0.4,0,0.5,0c0,0,0.3,0,0.3,0c1.1,0,2.3-0.2,3.4-0.4c0.2,0,0.5-0.1,0.7-0.2
		C686.5,761.1,686.8,761,686.9,761z"/>
	<path fill="#9D8156" stroke="#FFFFFF" stroke-linecap="round" stroke-linejoin="round" stroke-miterlimit="10" d="M123.8,1065.7
		c0,0-0.7,11.7,13.7,11.7c11.2,0,14.4-0.4,17.9-0.4c2.4,0,4.8,0.9,4.8,3.5c0,2.4-2.9,4.2-6.6,4.2c-3.5,0-13.6-2.7-18-2.7
		c-4.1,0-18-0.4-18,13.8c0,14.1,10.9,19,18.2,19c11.5,0,33.9-12.6,33.9-12.6s-2.8-4.1-12.4-2.6c-5,0.8-14.9,6.2-20,6.2
		c-5.2,0-8.6-4.1-8.6-8.1c0-4,3.4-6.3,6.5-6.3c3,0,15.9,3.9,21.4,3.9c8.8,0,13.1-6.5,13.1-14c0-7.7-4.4-12.6-9.9-12.6
		c-6.4,0-17.9,1-22.4,1C133.2,1069.7,123.8,1065.7,123.8,1065.7z"/>
	
		<circle fill="#724B0D" stroke="#FFFFFF" stroke-linecap="round" stroke-linejoin="round" stroke-miterlimit="10" cx="131.1" cy="1067.7" r="1.9"/>
	<path fill="#724B0D" stroke="#FFFFFF" stroke-linecap="round" stroke-linejoin="round" stroke-miterlimit="10" d="M267.3,732.3
		c1.2,0,4.6,4.6,6.3,16.5c1.1,7.8,1.6,16.5,1.6,16.5c1.9-0.5,7.7,1.5,7.7,3.7c0,0-9.6,0-11.4,0c0,0-0.1-8.3-1.6-16.9
		c-0.9-5.1-2.4-10.4-3.4-12.5c-0.2-0.4-0.7-0.5-1-0.1c0,0-2,2.8-2.9,5.8c-1.1,3.4-1.4,8.5-1.4,8.5l-5.4-1.5
		C257.8,736.9,265.9,732.3,267.3,732.3z"/>
	<path fill="#724B0D" stroke="#FFFFFF" stroke-linecap="round" stroke-linejoin="round" stroke-miterlimit="10" d="M222.5,739.6
		c0,0-6.7-8.8-8.8-11.4c-2-2.5,0.5-3.3,1.8-2c1,1,4.8,5.8,9,13C226.6,742.9,222.5,739.6,222.5,739.6z"/>
	<path fill="#724B0D" stroke="#FFFFFF" stroke-linecap="round" stroke-linejoin="round" stroke-miterlimit="10" d="M227.3,739.6
		c0,0,6.7-8.8,8.8-11.4c2-2.5-0.5-3.3-1.8-2c-1,1-4.8,5.8-9,13C223.2,742.9,227.3,739.6,227.3,739.6z"/>
	<path fill="#724B0D" stroke="#FFFFFF" stroke-linecap="round" stroke-linejoin="round" stroke-miterlimit="10" d="M233.7,756.4
		c0,0-5.1,9.9-5.6,10c-0.4,0.1-10.7,0.2-10.7,0.2s-0.4-4,9.1-3l4.2-7.5C230.7,756.2,233.5,756,233.7,756.4z"/>
	<path fill="#9D8156" stroke="#FFFFFF" stroke-linecap="round" stroke-linejoin="round" stroke-miterlimit="10" d="M221.1,747
		c0,13.8,47.7,16.5,56,15c8.3-1.5,15.7-5.1,15.7-12.7c0,0-9.8,0.4-15.4,0C272.2,749,221.1,736,221.1,747z"/>
	<path fill="#724B0D" stroke="#FFFFFF" stroke-linecap="round" stroke-linejoin="round" stroke-miterlimit="10" d="M234.9,758
		c1.3,2.5,5.1,10.2,5.6,10.3c0.4,0.1,10.9,0.2,10.9,0.2s-0.6-4.3-9.5-3.4c0,0-3.3-6.2-4.3-8C236.7,755.3,234.3,756.9,234.9,758z"/>
	<path fill="#724B0D" stroke="#FFFFFF" stroke-linecap="round" stroke-linejoin="round" stroke-miterlimit="10" d="M275.4,732.3
		c1.2,0,4.6,4.6,6.3,16.5c1.1,7.8,1.6,16.5,1.6,16.5c1.9-0.5,7.7,1.5,7.7,3.7c0,0-9.6,0-11.4,0c0,0-0.1-8.3-1.6-16.9
		c-0.9-5.1-2.4-10.4-3.4-12.5c-0.2-0.4-0.7-0.5-1-0.1c0,0-2,2.8-2.9,5.8c-1.1,3.4-1.4,8.5-1.4,8.5l-5.4-1.5
		C265.9,736.9,274.1,732.3,275.4,732.3z"/>
	<path fill="#9D8156" stroke="#FFFFFF" stroke-linecap="round" stroke-linejoin="round" stroke-miterlimit="10" d="M231.9,744.9
		c0-3.8-3.2-7-7-7c-3.8,0-6.7,3.2-6.7,7c0,0.3,0,0.6,0.1,0.8c0.5,5.4,5.8,12,6.9,12c1.1,0,6.3-6.6,6.7-12.1
		C231.9,745.4,231.9,745.2,231.9,744.9z"/>
</g>
</svg>
