<?xml version="1.0" encoding="UTF-8" standalone="no"?>
<!DOCTYPE svg PUBLIC "-//W3C//DTD SVG 1.1//EN" "http://www.w3.org/Graphics/SVG/1.1/DTD/svg11.dtd">
<svg width="100%" height="100%" viewBox="0 0 1654 1300" version="1.1" xmlns="http://www.w3.org/2000/svg" xmlns:xlink="http://www.w3.org/1999/xlink" xml:space="preserve" xmlns:serif="http://www.serif.com/" style="fill-rule:evenodd;clip-rule:evenodd;stroke-linecap:round;stroke-linejoin:round;stroke-miterlimit:1.5;">
    <g id="Hintergrund" transform="matrix(1,0,0,1,-186.943,-280.942)">
        <g id="Kästen">
            <g transform="matrix(1,0,0,1,168.927,226.332)">
                <rect x="131.649" y="182.835" width="371.618" height="371.618" style="fill:none;stroke:black;stroke-width:2.71px;"/>
            </g>
            <g transform="matrix(2,0,0,1,37.2774,597.949)">
                <rect x="131.649" y="182.835" width="371.618" height="371.618" style="fill:none;stroke:black;stroke-width:1.71px;"/>
            </g>
            <g transform="matrix(1,0,0,1,540.544,226.332)">
                <rect x="131.649" y="182.835" width="371.618" height="371.618" style="fill:none;stroke:black;stroke-width:2.71px;"/>
            </g>
            <g transform="matrix(2,0,0,1,37.2774,969.567)">
                <rect x="131.649" y="182.835" width="371.618" height="371.618" style="fill:none;stroke:black;stroke-width:1.71px;"/>
            </g>
            <g transform="matrix(1,0,0,1.5,0,-204.583)">
                <rect x="300.576" y="409.167" width="743.235" height="743.235" style="fill:none;stroke:black;stroke-width:8.17px;"/>
            </g>
            <g transform="matrix(1,0,0,1,196.018,73.8237)">
                <text x="361.733px" y="302.054px" style="font-family:'ArialMT', 'Arial', sans-serif;font-size:54.167px;">Phänotyp</text>
            </g>
        </g>
        <g id="Kästen1" serif:id="Kästen" transform="matrix(1,0,0,1,743.235,0)">
            <g transform="matrix(1,0,0,1,168.927,226.332)">
                <rect x="131.649" y="182.835" width="371.618" height="371.618" style="fill:none;stroke:black;stroke-width:2.71px;"/>
            </g>
            <g transform="matrix(1,0,0,1,540.544,226.332)">
                <rect x="131.649" y="182.835" width="371.618" height="371.618" style="fill:none;stroke:black;stroke-width:2.71px;"/>
            </g>
            <g transform="matrix(2,0,0,1,37.2774,969.567)">
                <rect x="131.649" y="182.835" width="371.618" height="371.618" style="fill:none;stroke:black;stroke-width:1.71px;"/>
            </g>
            <g transform="matrix(1,0,0,1.5,0,-204.583)">
                <rect x="300.576" y="409.167" width="743.235" height="743.235" style="fill:none;stroke:black;stroke-width:8.17px;"/>
            </g>
            <g transform="matrix(1,0,0,1,196.018,73.8237)">
                <text x="374.004px" y="302.054px" style="font-family:'ArialMT', 'Arial', sans-serif;font-size:54.167px;">Genotyp</text>
            </g>
        </g>
        <g transform="matrix(6.12323e-17,-1,1,6.12323e-17,-977.915,1081.36)">
            <text x="325.3px" y="1256.67px" style="font-family:'ArialMT', 'Arial', sans-serif;font-size:54.167px;">P-Generation</text>
        </g>
        <g transform="matrix(6.12323e-17,-1,1,6.12323e-17,-977.915,1452.98)">
            <text x="318.039px" y="1256.67px" style="font-family:'ArialMT', 'Arial', sans-serif;font-size:54.167px;">F</text>
            <text x="351.126px" y="1274.71px" style="font-family:'ArialMT', 'Arial', sans-serif;font-size:31.579px;">1</text>
            <text x="368.689px" y="1256.67px" style="font-family:'ArialMT', 'Arial', sans-serif;font-size:54.167px;">-Generation</text>
        </g>
        <g transform="matrix(6.12323e-17,-1,1,6.12323e-17,-977.915,1824.6)">
            <text x="318.039px" y="1256.67px" style="font-family:'ArialMT', 'Arial', sans-serif;font-size:54.167px;">F</text>
            <text x="351.126px" y="1274.71px" style="font-family:'ArialMT', 'Arial', sans-serif;font-size:31.579px;">2</text>
            <text x="368.689px" y="1256.67px" style="font-family:'ArialMT', 'Arial', sans-serif;font-size:54.167px;">-Generation</text>
        </g>
    </g>
    <g id="Phänotyp" transform="matrix(1,0,0,1,-186.943,-280.942)">
        <g id="F2" transform="matrix(1,0,0,1,-0.830909,763.69)">
            <g transform="matrix(0.470239,0,0,0.46481,160.342,298.057)">
                <g transform="matrix(0.861717,0,0,1.05122,48.2505,-441.554)">
                    <ellipse cx="522.972" cy="985.844" rx="185.004" ry="153.109" style="fill:none;stroke:black;stroke-width:6.96px;"/>
                </g>
                <g id="Blume" transform="matrix(6.41115,0,0,6.41115,-835.546,-485.958)">
                    <path id="path117" d="M221.188,175.864C220.27,173.911 212.915,173.337 211.436,174.48C207.946,177.178 209.748,178.804 210.341,181.908C209.525,177.63 211.716,176.624 214.292,178.966C216.637,181.097 216.655,185.676 216.573,188.682C217.315,188.942 218.323,189.226 219.006,189.381C218.695,184.881 218.568,180.28 216.539,176.217C218.375,177.47 219.132,177.354 220.505,179.25C219.822,177.844 219.556,176.403 218.688,174.883C219.983,175.215 220.007,175.056 221.188,175.864Z" style="fill:rgb(40,144,58);fill-rule:nonzero;stroke:black;stroke-width:0.5px;stroke-linecap:butt;stroke-linejoin:miter;stroke-miterlimit:4;"/>
                    <path id="path119" d="M222.239,160.09C222.453,158.527 223.958,156.481 223.937,155.083C223.93,154.608 222.851,153.253 222.591,152.886C221.699,151.628 220.703,150.736 219.138,150.404C218.468,150.261 217.944,150.656 217.329,150.347C216.485,149.924 216.306,148.712 215.472,148.208C214.142,147.406 214.264,148.055 213.124,148.39C208.112,149.866 202.595,149.402 197.41,149.383C195.979,149.378 194.864,149.045 194.946,150.757C194.986,151.571 195.36,152.122 196.082,152.512C194.299,153.079 195.334,154.001 194.979,155.182C194.521,156.706 192.526,157.523 191.433,158.725C189.028,161.371 187.079,163.912 189.694,166.053C190.19,166.193 190.641,166.536 191.078,166.845C188.937,169.104 188.029,172.682 190.235,175.356C191.657,177.08 193.17,176.766 195.156,176.422C198.158,175.902 200.938,175.373 204.01,175.666C205.741,175.831 207.914,176.797 209.636,176.555C210.175,176.479 210.467,175.956 210.959,175.872C212.783,175.564 214.39,175.751 215.895,174.478C217.717,177.078 219.455,171.61 219.838,170.507C220.338,169.068 221.204,167.806 221.608,166.326C222.16,164.306 221.957,162.151 222.239,160.09Z" style="fill:rgb(255,49,66);fill-rule:nonzero;stroke:black;stroke-width:1px;stroke-linecap:butt;stroke-linejoin:miter;stroke-miterlimit:4;"/>
                    <path id="path121" d="M216.249,174.516C212.493,177.808 210.412,172.144 206.638,173.252C207.096,173.414 207.659,173.819 207.904,174.36C205.047,173.435 200.6,174.074 197.621,174.511C195.826,174.774 191.394,175.949 191.66,172.599C192.506,174.339 194.046,173.626 195.427,173.349C198.658,172.701 201.801,173.439 204.946,173.851C204.004,172.947 202.448,172.825 201.453,172.076C202.052,171.972 202.661,171.829 203.248,171.727C202.139,170.654 192.287,169.805 193.729,166.498C192.576,165.952 190.984,166.205 190.305,164.681C189.236,162.28 195.04,157.171 197.084,156.689C195.51,158.404 192.643,160.806 192.743,163.393C192.866,166.545 196.184,164.269 198.271,164.576C197.634,165.727 196.039,167.168 196.956,168.51C198.021,170.07 201.349,170.266 203.004,170.548C206.152,171.083 210.192,171.814 212.433,174.206C211.47,171.311 209.624,168.691 209.497,165.395C209.446,164.067 209.601,162.259 210.117,161.073C211.012,159.013 212.976,157.479 214.59,156.005C215.205,155.443 215.917,155.331 216.083,154.339C216.143,153.982 215.853,152.155 215.137,152.427C217.122,151.674 215.147,149.84 214.172,149.191C215.17,149.725 216.353,150.819 216.776,151.857C216.616,151.893 216.477,151.868 216.317,151.906C216.036,153.474 217.171,154.974 216.334,156.56C215.689,157.783 214.05,158.474 213.126,159.581C211.499,161.531 210.523,164.018 210.493,166.58C210.476,167.966 210.749,171.078 212.251,171.695C212.316,171.597 212.391,171.416 212.468,171.339C212.258,172.981 213.108,174.144 214.664,173.233C217.373,171.646 216.401,166.843 217.136,164.339C217.197,166.188 216.888,169.026 216.785,171.217C216.738,172.198 217.111,173.759 216.249,174.516Z" style="fill:rgb(145,45,55);fill-rule:nonzero;"/>
                </g>
            </g>
            <g transform="matrix(0.470239,0,0,0.46481,345.346,298.057)">
                <g transform="matrix(0.861717,0,0,1.05122,48.2505,-441.554)">
                    <ellipse cx="522.972" cy="985.844" rx="185.004" ry="153.109" style="fill:none;stroke:black;stroke-width:6.96px;"/>
                </g>
                <g id="Blume1" serif:id="Blume" transform="matrix(6.41115,0,0,6.41115,-835.546,-485.958)">
                    <path id="path1171" serif:id="path117" d="M221.188,175.864C220.27,173.911 212.915,173.337 211.436,174.48C207.946,177.178 209.748,178.804 210.341,181.908C209.525,177.63 211.716,176.624 214.292,178.966C216.637,181.097 216.655,185.676 216.573,188.682C217.315,188.942 218.323,189.226 219.006,189.381C218.695,184.881 218.568,180.28 216.539,176.217C218.375,177.47 219.132,177.354 220.505,179.25C219.822,177.844 219.556,176.403 218.688,174.883C219.983,175.215 220.007,175.056 221.188,175.864Z" style="fill:rgb(40,144,58);fill-rule:nonzero;stroke:black;stroke-width:0.5px;stroke-linecap:butt;stroke-linejoin:miter;stroke-miterlimit:4;"/>
                    <path id="path1191" serif:id="path119" d="M222.239,160.09C222.453,158.527 223.958,156.481 223.937,155.083C223.93,154.608 222.851,153.253 222.591,152.886C221.699,151.628 220.703,150.736 219.138,150.404C218.468,150.261 217.944,150.656 217.329,150.347C216.485,149.924 216.306,148.712 215.472,148.208C214.142,147.406 214.264,148.055 213.124,148.39C208.112,149.866 202.595,149.402 197.41,149.383C195.979,149.378 194.864,149.045 194.946,150.757C194.986,151.571 195.36,152.122 196.082,152.512C194.299,153.079 195.334,154.001 194.979,155.182C194.521,156.706 192.526,157.523 191.433,158.725C189.028,161.371 187.079,163.912 189.694,166.053C190.19,166.193 190.641,166.536 191.078,166.845C188.937,169.104 188.029,172.682 190.235,175.356C191.657,177.08 193.17,176.766 195.156,176.422C198.158,175.902 200.938,175.373 204.01,175.666C205.741,175.831 207.914,176.797 209.636,176.555C210.175,176.479 210.467,175.956 210.959,175.872C212.783,175.564 214.39,175.751 215.895,174.478C217.717,177.078 219.455,171.61 219.838,170.507C220.338,169.068 221.204,167.806 221.608,166.326C222.16,164.306 221.957,162.151 222.239,160.09Z" style="fill:rgb(255,49,66);fill-rule:nonzero;stroke:black;stroke-width:1px;stroke-linecap:butt;stroke-linejoin:miter;stroke-miterlimit:4;"/>
                    <path id="path1211" serif:id="path121" d="M216.249,174.516C212.493,177.808 210.412,172.144 206.638,173.252C207.096,173.414 207.659,173.819 207.904,174.36C205.047,173.435 200.6,174.074 197.621,174.511C195.826,174.774 191.394,175.949 191.66,172.599C192.506,174.339 194.046,173.626 195.427,173.349C198.658,172.701 201.801,173.439 204.946,173.851C204.004,172.947 202.448,172.825 201.453,172.076C202.052,171.972 202.661,171.829 203.248,171.727C202.139,170.654 192.287,169.805 193.729,166.498C192.576,165.952 190.984,166.205 190.305,164.681C189.236,162.28 195.04,157.171 197.084,156.689C195.51,158.404 192.643,160.806 192.743,163.393C192.866,166.545 196.184,164.269 198.271,164.576C197.634,165.727 196.039,167.168 196.956,168.51C198.021,170.07 201.349,170.266 203.004,170.548C206.152,171.083 210.192,171.814 212.433,174.206C211.47,171.311 209.624,168.691 209.497,165.395C209.446,164.067 209.601,162.259 210.117,161.073C211.012,159.013 212.976,157.479 214.59,156.005C215.205,155.443 215.917,155.331 216.083,154.339C216.143,153.982 215.853,152.155 215.137,152.427C217.122,151.674 215.147,149.84 214.172,149.191C215.17,149.725 216.353,150.819 216.776,151.857C216.616,151.893 216.477,151.868 216.317,151.906C216.036,153.474 217.171,154.974 216.334,156.56C215.689,157.783 214.05,158.474 213.126,159.581C211.499,161.531 210.523,164.018 210.493,166.58C210.476,167.966 210.749,171.078 212.251,171.695C212.316,171.597 212.391,171.416 212.468,171.339C212.258,172.981 213.108,174.144 214.664,173.233C217.373,171.646 216.401,166.843 217.136,164.339C217.197,166.188 216.888,169.026 216.785,171.217C216.738,172.198 217.111,173.759 216.249,174.516Z" style="fill:rgb(145,45,55);fill-rule:nonzero;"/>
                </g>
            </g>
            <g transform="matrix(0.470239,0,0,0.46481,530.246,298.057)">
                <g transform="matrix(0.861717,0,0,1.05122,48.2505,-441.554)">
                    <ellipse cx="522.972" cy="985.844" rx="185.004" ry="153.109" style="fill:none;stroke:black;stroke-width:6.96px;"/>
                </g>
                <g id="Blume2" serif:id="Blume" transform="matrix(6.41115,0,0,6.41115,-835.546,-485.958)">
                    <path id="path1172" serif:id="path117" d="M221.188,175.864C220.27,173.911 212.915,173.337 211.436,174.48C207.946,177.178 209.748,178.804 210.341,181.908C209.525,177.63 211.716,176.624 214.292,178.966C216.637,181.097 216.655,185.676 216.573,188.682C217.315,188.942 218.323,189.226 219.006,189.381C218.695,184.881 218.568,180.28 216.539,176.217C218.375,177.47 219.132,177.354 220.505,179.25C219.822,177.844 219.556,176.403 218.688,174.883C219.983,175.215 220.007,175.056 221.188,175.864Z" style="fill:rgb(40,144,58);fill-rule:nonzero;stroke:black;stroke-width:0.5px;stroke-linecap:butt;stroke-linejoin:miter;stroke-miterlimit:4;"/>
                    <path id="path1192" serif:id="path119" d="M222.239,160.09C222.453,158.527 223.958,156.481 223.937,155.083C223.93,154.608 222.851,153.253 222.591,152.886C221.699,151.628 220.703,150.736 219.138,150.404C218.468,150.261 217.944,150.656 217.329,150.347C216.485,149.924 216.306,148.712 215.472,148.208C214.142,147.406 214.264,148.055 213.124,148.39C208.112,149.866 202.595,149.402 197.41,149.383C195.979,149.378 194.864,149.045 194.946,150.757C194.986,151.571 195.36,152.122 196.082,152.512C194.299,153.079 195.334,154.001 194.979,155.182C194.521,156.706 192.526,157.523 191.433,158.725C189.028,161.371 187.079,163.912 189.694,166.053C190.19,166.193 190.641,166.536 191.078,166.845C188.937,169.104 188.029,172.682 190.235,175.356C191.657,177.08 193.17,176.766 195.156,176.422C198.158,175.902 200.938,175.373 204.01,175.666C205.741,175.831 207.914,176.797 209.636,176.555C210.175,176.479 210.467,175.956 210.959,175.872C212.783,175.564 214.39,175.751 215.895,174.478C217.717,177.078 219.455,171.61 219.838,170.507C220.338,169.068 221.204,167.806 221.608,166.326C222.16,164.306 221.957,162.151 222.239,160.09Z" style="fill:rgb(255,49,66);fill-rule:nonzero;stroke:black;stroke-width:1px;stroke-linecap:butt;stroke-linejoin:miter;stroke-miterlimit:4;"/>
                    <path id="path1212" serif:id="path121" d="M216.249,174.516C212.493,177.808 210.412,172.144 206.638,173.252C207.096,173.414 207.659,173.819 207.904,174.36C205.047,173.435 200.6,174.074 197.621,174.511C195.826,174.774 191.394,175.949 191.66,172.599C192.506,174.339 194.046,173.626 195.427,173.349C198.658,172.701 201.801,173.439 204.946,173.851C204.004,172.947 202.448,172.825 201.453,172.076C202.052,171.972 202.661,171.829 203.248,171.727C202.139,170.654 192.287,169.805 193.729,166.498C192.576,165.952 190.984,166.205 190.305,164.681C189.236,162.28 195.04,157.171 197.084,156.689C195.51,158.404 192.643,160.806 192.743,163.393C192.866,166.545 196.184,164.269 198.271,164.576C197.634,165.727 196.039,167.168 196.956,168.51C198.021,170.07 201.349,170.266 203.004,170.548C206.152,171.083 210.192,171.814 212.433,174.206C211.47,171.311 209.624,168.691 209.497,165.395C209.446,164.067 209.601,162.259 210.117,161.073C211.012,159.013 212.976,157.479 214.59,156.005C215.205,155.443 215.917,155.331 216.083,154.339C216.143,153.982 215.853,152.155 215.137,152.427C217.122,151.674 215.147,149.84 214.172,149.191C215.17,149.725 216.353,150.819 216.776,151.857C216.616,151.893 216.477,151.868 216.317,151.906C216.036,153.474 217.171,154.974 216.334,156.56C215.689,157.783 214.05,158.474 213.126,159.581C211.499,161.531 210.523,164.018 210.493,166.58C210.476,167.966 210.749,171.078 212.251,171.695C212.316,171.597 212.391,171.416 212.468,171.339C212.258,172.981 213.108,174.144 214.664,173.233C217.373,171.646 216.401,166.843 217.136,164.339C217.197,166.188 216.888,169.026 216.785,171.217C216.738,172.198 217.111,173.759 216.249,174.516Z" style="fill:rgb(145,45,55);fill-rule:nonzero;"/>
                </g>
            </g>
            <g transform="matrix(0.470239,0,0,0.46481,715.25,298.057)">
                <g transform="matrix(0.868895,0,0,1.05122,45.8244,-441.554)">
                    <ellipse cx="522.972" cy="985.844" rx="185.004" ry="153.109" style="fill:none;stroke:black;stroke-width:6.94px;"/>
                </g>
                <g id="Blume3" serif:id="Blume" transform="matrix(6.41115,0,0,6.41115,-835.546,-485.958)">
                    <path id="path1173" serif:id="path117" d="M221.188,175.864C220.27,173.911 212.915,173.337 211.436,174.48C207.946,177.178 209.748,178.804 210.341,181.908C209.525,177.63 211.716,176.624 214.292,178.966C216.637,181.097 216.655,185.676 216.573,188.682C217.315,188.942 218.323,189.226 219.006,189.381C218.695,184.881 218.568,180.28 216.539,176.217C218.375,177.47 219.132,177.354 220.505,179.25C219.822,177.844 219.556,176.403 218.688,174.883C219.983,175.215 220.007,175.056 221.188,175.864Z" style="fill:rgb(40,144,58);fill-rule:nonzero;stroke:black;stroke-width:0.5px;stroke-linecap:butt;stroke-linejoin:miter;stroke-miterlimit:4;"/>
                    <path id="path1193" serif:id="path119" d="M222.239,160.09C222.453,158.527 223.958,156.481 223.937,155.083C223.93,154.608 222.851,153.253 222.591,152.886C221.699,151.628 220.703,150.736 219.138,150.404C218.468,150.261 217.944,150.656 217.329,150.347C216.485,149.924 216.306,148.712 215.472,148.208C214.142,147.406 214.264,148.055 213.124,148.39C208.112,149.866 202.595,149.402 197.41,149.383C195.979,149.378 194.864,149.045 194.946,150.757C194.986,151.571 195.36,152.122 196.082,152.512C194.299,153.079 195.334,154.001 194.979,155.182C194.521,156.706 192.526,157.523 191.433,158.725C189.028,161.371 187.079,163.912 189.694,166.053C190.19,166.193 190.641,166.536 191.078,166.845C188.937,169.104 188.029,172.682 190.235,175.356C191.657,177.08 193.17,176.766 195.156,176.422C198.158,175.902 200.938,175.373 204.01,175.666C205.741,175.831 207.914,176.797 209.636,176.555C210.175,176.479 210.467,175.956 210.959,175.872C212.783,175.564 214.39,175.751 215.895,174.478C217.717,177.078 219.455,171.61 219.838,170.507C220.338,169.068 221.204,167.806 221.608,166.326C222.16,164.306 221.957,162.151 222.239,160.09Z" style="fill:rgb(237,228,229);fill-rule:nonzero;stroke:black;stroke-width:1px;stroke-linecap:butt;stroke-linejoin:miter;stroke-miterlimit:4;"/>
                    <path id="path1213" serif:id="path121" d="M216.249,174.516C212.493,177.808 210.412,172.144 206.638,173.252C207.096,173.414 207.659,173.819 207.904,174.36C205.047,173.435 200.6,174.074 197.621,174.511C195.826,174.774 191.394,175.949 191.66,172.599C192.506,174.339 194.046,173.626 195.427,173.349C198.658,172.701 201.801,173.439 204.946,173.851C204.004,172.947 202.448,172.825 201.453,172.076C202.052,171.972 202.661,171.829 203.248,171.727C202.139,170.654 192.287,169.805 193.729,166.498C192.576,165.952 190.984,166.205 190.305,164.681C189.236,162.28 195.04,157.171 197.084,156.689C195.51,158.404 192.643,160.806 192.743,163.393C192.866,166.545 196.184,164.269 198.271,164.576C197.634,165.727 196.039,167.168 196.956,168.51C198.021,170.07 201.349,170.266 203.004,170.548C206.152,171.083 210.192,171.814 212.433,174.206C211.47,171.311 209.624,168.691 209.497,165.395C209.446,164.067 209.601,162.259 210.117,161.073C211.012,159.013 212.976,157.479 214.59,156.005C215.205,155.443 215.917,155.331 216.083,154.339C216.143,153.982 215.853,152.155 215.137,152.427C217.122,151.674 215.147,149.84 214.172,149.191C215.17,149.725 216.353,150.819 216.776,151.857C216.616,151.893 216.477,151.868 216.317,151.906C216.036,153.474 217.171,154.974 216.334,156.56C215.689,157.783 214.05,158.474 213.126,159.581C211.499,161.531 210.523,164.018 210.493,166.58C210.476,167.966 210.749,171.078 212.251,171.695C212.316,171.597 212.391,171.416 212.468,171.339C212.258,172.981 213.108,174.144 214.664,173.233C217.373,171.646 216.401,166.843 217.136,164.339C217.197,166.188 216.888,169.026 216.785,171.217C216.738,172.198 217.111,173.759 216.249,174.516Z" style="fill:rgb(205,203,204);fill-rule:nonzero;"/>
                </g>
            </g>
        </g>
        <g id="Pfeile-F2" serif:id="Pfeile F2" transform="matrix(1,0,0,1,-752.726,361.035)">
            <g transform="matrix(1,0,0,1,-9.80211,1.33895)">
                <g transform="matrix(0.567974,0.78777,0.0949362,-0.0684481,1139.72,423.681)">
                    <path d="M330.697,215.066L330.697,189.849L608.677,189.849L608.677,166.434L613.019,202.458L608.677,238.481L608.677,215.066L330.697,215.066Z" style="fill:rgb(102,102,102);"/>
                </g>
                <g transform="matrix(1.21026,0.791247,0.0640449,-0.0979606,933.18,428.879)">
                    <path d="M330.697,215.066L330.697,189.849L610.103,189.849L610.103,166.434L613.019,202.458L610.103,238.481L610.103,215.066L330.697,215.066Z" style="fill:rgb(102,102,102);"/>
                </g>
                <g transform="matrix(-0.587402,0.790664,0.093949,0.0697969,1523.83,393.918)">
                    <path d="M330.697,215.066L330.697,189.849L608.738,189.849L608.738,166.434L613.019,202.458L608.738,238.481L608.738,215.066L330.697,215.066Z" style="fill:rgb(102,102,102);"/>
                </g>
                <g transform="matrix(-3.59444e-05,0.790827,0.117039,5.3196e-06,1321.9,407.949)">
                    <path d="M330.697,215.066L330.697,189.849L607.687,189.849L607.687,166.434L613.019,202.458L607.687,238.481L607.687,215.066L330.697,215.066Z" style="fill:rgb(102,102,102);"/>
                </g>
            </g>
            <g transform="matrix(-1,0,-0,1,2872.06,1.33895)">
                <g transform="matrix(0.567974,0.78777,0.0949362,-0.0684481,1139.72,423.681)">
                    <path d="M330.697,215.066L330.697,189.849L608.677,189.849L608.677,166.434L613.019,202.458L608.677,238.481L608.677,215.066L330.697,215.066Z" style="fill:rgb(102,102,102);"/>
                </g>
                <g transform="matrix(1.21026,0.791247,0.0640449,-0.0979606,933.18,428.879)">
                    <path d="M330.697,215.066L330.697,189.849L610.103,189.849L610.103,166.434L613.019,202.458L610.103,238.481L610.103,215.066L330.697,215.066Z" style="fill:rgb(102,102,102);"/>
                </g>
                <g transform="matrix(-0.579739,0.7963,0.0946187,0.0688863,1517.22,391.855)">
                    <path d="M330.697,215.066L330.697,189.849L608.738,189.849L608.738,166.434L613.019,202.458L608.738,238.481L608.738,215.066L330.697,215.066Z" style="fill:rgb(102,102,102);"/>
                </g>
                <g transform="matrix(-3.59444e-05,0.790827,0.117039,5.3196e-06,1321.9,407.949)">
                    <path d="M330.697,215.066L330.697,189.849L607.687,189.849L607.687,166.434L613.019,202.458L607.687,238.481L607.687,215.066L330.697,215.066Z" style="fill:rgb(102,102,102);"/>
                </g>
            </g>
        </g>
        <g id="F1" transform="matrix(1,0,0,1,-0.120333,381.991)">
            <g transform="matrix(0.470239,0,0,0.46481,160.342,298.057)">
                <g transform="matrix(0.861717,0,0,1.05122,48.2505,-441.554)">
                    <ellipse cx="522.972" cy="985.844" rx="185.004" ry="153.109" style="fill:none;stroke:black;stroke-width:6.96px;"/>
                </g>
                <g id="Blume4" serif:id="Blume" transform="matrix(6.41115,0,0,6.41115,-835.546,-485.958)">
                    <path id="path1174" serif:id="path117" d="M221.188,175.864C220.27,173.911 212.915,173.337 211.436,174.48C207.946,177.178 209.748,178.804 210.341,181.908C209.525,177.63 211.716,176.624 214.292,178.966C216.637,181.097 216.655,185.676 216.573,188.682C217.315,188.942 218.323,189.226 219.006,189.381C218.695,184.881 218.568,180.28 216.539,176.217C218.375,177.47 219.132,177.354 220.505,179.25C219.822,177.844 219.556,176.403 218.688,174.883C219.983,175.215 220.007,175.056 221.188,175.864Z" style="fill:rgb(40,144,58);fill-rule:nonzero;stroke:black;stroke-width:0.5px;stroke-linecap:butt;stroke-linejoin:miter;stroke-miterlimit:4;"/>
                    <path id="path1194" serif:id="path119" d="M222.239,160.09C222.453,158.527 223.958,156.481 223.937,155.083C223.93,154.608 222.851,153.253 222.591,152.886C221.699,151.628 220.703,150.736 219.138,150.404C218.468,150.261 217.944,150.656 217.329,150.347C216.485,149.924 216.306,148.712 215.472,148.208C214.142,147.406 214.264,148.055 213.124,148.39C208.112,149.866 202.595,149.402 197.41,149.383C195.979,149.378 194.864,149.045 194.946,150.757C194.986,151.571 195.36,152.122 196.082,152.512C194.299,153.079 195.334,154.001 194.979,155.182C194.521,156.706 192.526,157.523 191.433,158.725C189.028,161.371 187.079,163.912 189.694,166.053C190.19,166.193 190.641,166.536 191.078,166.845C188.937,169.104 188.029,172.682 190.235,175.356C191.657,177.08 193.17,176.766 195.156,176.422C198.158,175.902 200.938,175.373 204.01,175.666C205.741,175.831 207.914,176.797 209.636,176.555C210.175,176.479 210.467,175.956 210.959,175.872C212.783,175.564 214.39,175.751 215.895,174.478C217.717,177.078 219.455,171.61 219.838,170.507C220.338,169.068 221.204,167.806 221.608,166.326C222.16,164.306 221.957,162.151 222.239,160.09Z" style="fill:rgb(255,49,66);fill-rule:nonzero;stroke:black;stroke-width:1px;stroke-linecap:butt;stroke-linejoin:miter;stroke-miterlimit:4;"/>
                    <path id="path1214" serif:id="path121" d="M216.249,174.516C212.493,177.808 210.412,172.144 206.638,173.252C207.096,173.414 207.659,173.819 207.904,174.36C205.047,173.435 200.6,174.074 197.621,174.511C195.826,174.774 191.394,175.949 191.66,172.599C192.506,174.339 194.046,173.626 195.427,173.349C198.658,172.701 201.801,173.439 204.946,173.851C204.004,172.947 202.448,172.825 201.453,172.076C202.052,171.972 202.661,171.829 203.248,171.727C202.139,170.654 192.287,169.805 193.729,166.498C192.576,165.952 190.984,166.205 190.305,164.681C189.236,162.28 195.04,157.171 197.084,156.689C195.51,158.404 192.643,160.806 192.743,163.393C192.866,166.545 196.184,164.269 198.271,164.576C197.634,165.727 196.039,167.168 196.956,168.51C198.021,170.07 201.349,170.266 203.004,170.548C206.152,171.083 210.192,171.814 212.433,174.206C211.47,171.311 209.624,168.691 209.497,165.395C209.446,164.067 209.601,162.259 210.117,161.073C211.012,159.013 212.976,157.479 214.59,156.005C215.205,155.443 215.917,155.331 216.083,154.339C216.143,153.982 215.853,152.155 215.137,152.427C217.122,151.674 215.147,149.84 214.172,149.191C215.17,149.725 216.353,150.819 216.776,151.857C216.616,151.893 216.477,151.868 216.317,151.906C216.036,153.474 217.171,154.974 216.334,156.56C215.689,157.783 214.05,158.474 213.126,159.581C211.499,161.531 210.523,164.018 210.493,166.58C210.476,167.966 210.749,171.078 212.251,171.695C212.316,171.597 212.391,171.416 212.468,171.339C212.258,172.981 213.108,174.144 214.664,173.233C217.373,171.646 216.401,166.843 217.136,164.339C217.197,166.188 216.888,169.026 216.785,171.217C216.738,172.198 217.111,173.759 216.249,174.516Z" style="fill:rgb(145,45,55);fill-rule:nonzero;"/>
                </g>
            </g>
            <g transform="matrix(0.470239,0,0,0.46481,345.346,298.057)">
                <g transform="matrix(0.861717,0,0,1.05122,48.2505,-441.554)">
                    <ellipse cx="522.972" cy="985.844" rx="185.004" ry="153.109" style="fill:none;stroke:black;stroke-width:6.96px;"/>
                </g>
                <g id="Blume5" serif:id="Blume" transform="matrix(6.41115,0,0,6.41115,-835.546,-485.958)">
                    <path id="path1175" serif:id="path117" d="M221.188,175.864C220.27,173.911 212.915,173.337 211.436,174.48C207.946,177.178 209.748,178.804 210.341,181.908C209.525,177.63 211.716,176.624 214.292,178.966C216.637,181.097 216.655,185.676 216.573,188.682C217.315,188.942 218.323,189.226 219.006,189.381C218.695,184.881 218.568,180.28 216.539,176.217C218.375,177.47 219.132,177.354 220.505,179.25C219.822,177.844 219.556,176.403 218.688,174.883C219.983,175.215 220.007,175.056 221.188,175.864Z" style="fill:rgb(40,144,58);fill-rule:nonzero;stroke:black;stroke-width:0.5px;stroke-linecap:butt;stroke-linejoin:miter;stroke-miterlimit:4;"/>
                    <path id="path1195" serif:id="path119" d="M222.239,160.09C222.453,158.527 223.958,156.481 223.937,155.083C223.93,154.608 222.851,153.253 222.591,152.886C221.699,151.628 220.703,150.736 219.138,150.404C218.468,150.261 217.944,150.656 217.329,150.347C216.485,149.924 216.306,148.712 215.472,148.208C214.142,147.406 214.264,148.055 213.124,148.39C208.112,149.866 202.595,149.402 197.41,149.383C195.979,149.378 194.864,149.045 194.946,150.757C194.986,151.571 195.36,152.122 196.082,152.512C194.299,153.079 195.334,154.001 194.979,155.182C194.521,156.706 192.526,157.523 191.433,158.725C189.028,161.371 187.079,163.912 189.694,166.053C190.19,166.193 190.641,166.536 191.078,166.845C188.937,169.104 188.029,172.682 190.235,175.356C191.657,177.08 193.17,176.766 195.156,176.422C198.158,175.902 200.938,175.373 204.01,175.666C205.741,175.831 207.914,176.797 209.636,176.555C210.175,176.479 210.467,175.956 210.959,175.872C212.783,175.564 214.39,175.751 215.895,174.478C217.717,177.078 219.455,171.61 219.838,170.507C220.338,169.068 221.204,167.806 221.608,166.326C222.16,164.306 221.957,162.151 222.239,160.09Z" style="fill:rgb(255,49,66);fill-rule:nonzero;stroke:black;stroke-width:1px;stroke-linecap:butt;stroke-linejoin:miter;stroke-miterlimit:4;"/>
                    <path id="path1215" serif:id="path121" d="M216.249,174.516C212.493,177.808 210.412,172.144 206.638,173.252C207.096,173.414 207.659,173.819 207.904,174.36C205.047,173.435 200.6,174.074 197.621,174.511C195.826,174.774 191.394,175.949 191.66,172.599C192.506,174.339 194.046,173.626 195.427,173.349C198.658,172.701 201.801,173.439 204.946,173.851C204.004,172.947 202.448,172.825 201.453,172.076C202.052,171.972 202.661,171.829 203.248,171.727C202.139,170.654 192.287,169.805 193.729,166.498C192.576,165.952 190.984,166.205 190.305,164.681C189.236,162.28 195.04,157.171 197.084,156.689C195.51,158.404 192.643,160.806 192.743,163.393C192.866,166.545 196.184,164.269 198.271,164.576C197.634,165.727 196.039,167.168 196.956,168.51C198.021,170.07 201.349,170.266 203.004,170.548C206.152,171.083 210.192,171.814 212.433,174.206C211.47,171.311 209.624,168.691 209.497,165.395C209.446,164.067 209.601,162.259 210.117,161.073C211.012,159.013 212.976,157.479 214.59,156.005C215.205,155.443 215.917,155.331 216.083,154.339C216.143,153.982 215.853,152.155 215.137,152.427C217.122,151.674 215.147,149.84 214.172,149.191C215.17,149.725 216.353,150.819 216.776,151.857C216.616,151.893 216.477,151.868 216.317,151.906C216.036,153.474 217.171,154.974 216.334,156.56C215.689,157.783 214.05,158.474 213.126,159.581C211.499,161.531 210.523,164.018 210.493,166.58C210.476,167.966 210.749,171.078 212.251,171.695C212.316,171.597 212.391,171.416 212.468,171.339C212.258,172.981 213.108,174.144 214.664,173.233C217.373,171.646 216.401,166.843 217.136,164.339C217.197,166.188 216.888,169.026 216.785,171.217C216.738,172.198 217.111,173.759 216.249,174.516Z" style="fill:rgb(145,45,55);fill-rule:nonzero;"/>
                </g>
            </g>
            <g transform="matrix(0.470239,0,0,0.46481,530.246,298.057)">
                <g transform="matrix(0.861717,0,0,1.05122,48.2505,-441.554)">
                    <ellipse cx="522.972" cy="985.844" rx="185.004" ry="153.109" style="fill:none;stroke:black;stroke-width:6.96px;"/>
                </g>
                <g id="Blume6" serif:id="Blume" transform="matrix(6.41115,0,0,6.41115,-835.546,-485.958)">
                    <path id="path1176" serif:id="path117" d="M221.188,175.864C220.27,173.911 212.915,173.337 211.436,174.48C207.946,177.178 209.748,178.804 210.341,181.908C209.525,177.63 211.716,176.624 214.292,178.966C216.637,181.097 216.655,185.676 216.573,188.682C217.315,188.942 218.323,189.226 219.006,189.381C218.695,184.881 218.568,180.28 216.539,176.217C218.375,177.47 219.132,177.354 220.505,179.25C219.822,177.844 219.556,176.403 218.688,174.883C219.983,175.215 220.007,175.056 221.188,175.864Z" style="fill:rgb(40,144,58);fill-rule:nonzero;stroke:black;stroke-width:0.5px;stroke-linecap:butt;stroke-linejoin:miter;stroke-miterlimit:4;"/>
                    <path id="path1196" serif:id="path119" d="M222.239,160.09C222.453,158.527 223.958,156.481 223.937,155.083C223.93,154.608 222.851,153.253 222.591,152.886C221.699,151.628 220.703,150.736 219.138,150.404C218.468,150.261 217.944,150.656 217.329,150.347C216.485,149.924 216.306,148.712 215.472,148.208C214.142,147.406 214.264,148.055 213.124,148.39C208.112,149.866 202.595,149.402 197.41,149.383C195.979,149.378 194.864,149.045 194.946,150.757C194.986,151.571 195.36,152.122 196.082,152.512C194.299,153.079 195.334,154.001 194.979,155.182C194.521,156.706 192.526,157.523 191.433,158.725C189.028,161.371 187.079,163.912 189.694,166.053C190.19,166.193 190.641,166.536 191.078,166.845C188.937,169.104 188.029,172.682 190.235,175.356C191.657,177.08 193.17,176.766 195.156,176.422C198.158,175.902 200.938,175.373 204.01,175.666C205.741,175.831 207.914,176.797 209.636,176.555C210.175,176.479 210.467,175.956 210.959,175.872C212.783,175.564 214.39,175.751 215.895,174.478C217.717,177.078 219.455,171.61 219.838,170.507C220.338,169.068 221.204,167.806 221.608,166.326C222.16,164.306 221.957,162.151 222.239,160.09Z" style="fill:rgb(255,49,66);fill-rule:nonzero;stroke:black;stroke-width:1px;stroke-linecap:butt;stroke-linejoin:miter;stroke-miterlimit:4;"/>
                    <path id="path1216" serif:id="path121" d="M216.249,174.516C212.493,177.808 210.412,172.144 206.638,173.252C207.096,173.414 207.659,173.819 207.904,174.36C205.047,173.435 200.6,174.074 197.621,174.511C195.826,174.774 191.394,175.949 191.66,172.599C192.506,174.339 194.046,173.626 195.427,173.349C198.658,172.701 201.801,173.439 204.946,173.851C204.004,172.947 202.448,172.825 201.453,172.076C202.052,171.972 202.661,171.829 203.248,171.727C202.139,170.654 192.287,169.805 193.729,166.498C192.576,165.952 190.984,166.205 190.305,164.681C189.236,162.28 195.04,157.171 197.084,156.689C195.51,158.404 192.643,160.806 192.743,163.393C192.866,166.545 196.184,164.269 198.271,164.576C197.634,165.727 196.039,167.168 196.956,168.51C198.021,170.07 201.349,170.266 203.004,170.548C206.152,171.083 210.192,171.814 212.433,174.206C211.47,171.311 209.624,168.691 209.497,165.395C209.446,164.067 209.601,162.259 210.117,161.073C211.012,159.013 212.976,157.479 214.59,156.005C215.205,155.443 215.917,155.331 216.083,154.339C216.143,153.982 215.853,152.155 215.137,152.427C217.122,151.674 215.147,149.84 214.172,149.191C215.17,149.725 216.353,150.819 216.776,151.857C216.616,151.893 216.477,151.868 216.317,151.906C216.036,153.474 217.171,154.974 216.334,156.56C215.689,157.783 214.05,158.474 213.126,159.581C211.499,161.531 210.523,164.018 210.493,166.58C210.476,167.966 210.749,171.078 212.251,171.695C212.316,171.597 212.391,171.416 212.468,171.339C212.258,172.981 213.108,174.144 214.664,173.233C217.373,171.646 216.401,166.843 217.136,164.339C217.197,166.188 216.888,169.026 216.785,171.217C216.738,172.198 217.111,173.759 216.249,174.516Z" style="fill:rgb(145,45,55);fill-rule:nonzero;"/>
                </g>
            </g>
            <g transform="matrix(0.470239,0,0,0.46481,715.25,298.057)">
                <g transform="matrix(0.868895,0,0,1.05122,45.8244,-441.554)">
                    <ellipse cx="522.972" cy="985.844" rx="185.004" ry="153.109" style="fill:none;stroke:black;stroke-width:6.94px;"/>
                </g>
                <g id="Blume7" serif:id="Blume" transform="matrix(6.41115,0,0,6.41115,-835.546,-485.958)">
                    <path id="path1177" serif:id="path117" d="M221.188,175.864C220.27,173.911 212.915,173.337 211.436,174.48C207.946,177.178 209.748,178.804 210.341,181.908C209.525,177.63 211.716,176.624 214.292,178.966C216.637,181.097 216.655,185.676 216.573,188.682C217.315,188.942 218.323,189.226 219.006,189.381C218.695,184.881 218.568,180.28 216.539,176.217C218.375,177.47 219.132,177.354 220.505,179.25C219.822,177.844 219.556,176.403 218.688,174.883C219.983,175.215 220.007,175.056 221.188,175.864Z" style="fill:rgb(40,144,58);fill-rule:nonzero;stroke:black;stroke-width:0.5px;stroke-linecap:butt;stroke-linejoin:miter;stroke-miterlimit:4;"/>
                    <path id="path1197" serif:id="path119" d="M222.239,160.09C222.453,158.527 223.958,156.481 223.937,155.083C223.93,154.608 222.851,153.253 222.591,152.886C221.699,151.628 220.703,150.736 219.138,150.404C218.468,150.261 217.944,150.656 217.329,150.347C216.485,149.924 216.306,148.712 215.472,148.208C214.142,147.406 214.264,148.055 213.124,148.39C208.112,149.866 202.595,149.402 197.41,149.383C195.979,149.378 194.864,149.045 194.946,150.757C194.986,151.571 195.36,152.122 196.082,152.512C194.299,153.079 195.334,154.001 194.979,155.182C194.521,156.706 192.526,157.523 191.433,158.725C189.028,161.371 187.079,163.912 189.694,166.053C190.19,166.193 190.641,166.536 191.078,166.845C188.937,169.104 188.029,172.682 190.235,175.356C191.657,177.08 193.17,176.766 195.156,176.422C198.158,175.902 200.938,175.373 204.01,175.666C205.741,175.831 207.914,176.797 209.636,176.555C210.175,176.479 210.467,175.956 210.959,175.872C212.783,175.564 214.39,175.751 215.895,174.478C217.717,177.078 219.455,171.61 219.838,170.507C220.338,169.068 221.204,167.806 221.608,166.326C222.16,164.306 221.957,162.151 222.239,160.09Z" style="fill:rgb(255,49,66);fill-rule:nonzero;stroke:black;stroke-width:1px;stroke-linecap:butt;stroke-linejoin:miter;stroke-miterlimit:4;"/>
                    <path id="path1217" serif:id="path121" d="M216.249,174.516C212.493,177.808 210.412,172.144 206.638,173.252C207.096,173.414 207.659,173.819 207.904,174.36C205.047,173.435 200.6,174.074 197.621,174.511C195.826,174.774 191.394,175.949 191.66,172.599C192.506,174.339 194.046,173.626 195.427,173.349C198.658,172.701 201.801,173.439 204.946,173.851C204.004,172.947 202.448,172.825 201.453,172.076C202.052,171.972 202.661,171.829 203.248,171.727C202.139,170.654 192.287,169.805 193.729,166.498C192.576,165.952 190.984,166.205 190.305,164.681C189.236,162.28 195.04,157.171 197.084,156.689C195.51,158.404 192.643,160.806 192.743,163.393C192.866,166.545 196.184,164.269 198.271,164.576C197.634,165.727 196.039,167.168 196.956,168.51C198.021,170.07 201.349,170.266 203.004,170.548C206.152,171.083 210.192,171.814 212.433,174.206C211.47,171.311 209.624,168.691 209.497,165.395C209.446,164.067 209.601,162.259 210.117,161.073C211.012,159.013 212.976,157.479 214.59,156.005C215.205,155.443 215.917,155.331 216.083,154.339C216.143,153.982 215.853,152.155 215.137,152.427C217.122,151.674 215.147,149.84 214.172,149.191C215.17,149.725 216.353,150.819 216.776,151.857C216.616,151.893 216.477,151.868 216.317,151.906C216.036,153.474 217.171,154.974 216.334,156.56C215.689,157.783 214.05,158.474 213.126,159.581C211.499,161.531 210.523,164.018 210.493,166.58C210.476,167.966 210.749,171.078 212.251,171.695C212.316,171.597 212.391,171.416 212.468,171.339C212.258,172.981 213.108,174.144 214.664,173.233C217.373,171.646 216.401,166.843 217.136,164.339C217.197,166.188 216.888,169.026 216.785,171.217C216.738,172.198 217.111,173.759 216.249,174.516Z" style="fill:rgb(145,45,55);fill-rule:nonzero;"/>
                </g>
            </g>
        </g>
        <g id="Pfeile-F1" serif:id="Pfeile F1" transform="matrix(1,0,0,0.901112,-752.032,76.894)">
            <g transform="matrix(-1,0,0,1,2859.64,1.33895)">
                <g transform="matrix(1.50877,0.491355,0.036242,-0.111286,742.502,617.057)">
                    <path d="M330.697,215.066L330.697,189.849L610.58,189.849L610.58,166.434L613.019,202.458L610.58,238.481L610.58,215.066L330.697,215.066Z" style="fill:rgb(102,102,102);"/>
                </g>
                <g transform="matrix(0.941726,0.461086,0.0514664,-0.105115,921.597,625.74)">
                    <path d="M330.697,215.066L330.697,189.849L609.259,189.849L609.259,166.434L613.019,202.458L609.259,238.481L609.259,215.066L330.697,215.066Z" style="fill:rgb(102,102,102);"/>
                </g>
                <g transform="matrix(-0.245277,0.468436,0.103685,0.0542903,1301.61,590.395)">
                    <path d="M330.697,215.066L330.697,189.849L604.59,189.849L604.59,166.434L613.019,202.458L604.59,238.481L604.59,215.066L330.697,215.066Z" style="fill:rgb(102,102,102);"/>
                </g>
                <g transform="matrix(0.267847,0.475222,0.101959,-0.0574666,1134.86,610.817)">
                    <path d="M330.697,215.066L330.697,189.849L604.895,189.849L604.895,166.434L613.019,202.458L604.895,238.481L604.895,215.066L330.697,215.066Z" style="fill:rgb(102,102,102);"/>
                </g>
            </g>
            <g transform="matrix(1,0,0,1,-9.80211,1.33895)">
                <g transform="matrix(1.50877,0.491355,0.036242,-0.111286,742.502,617.057)">
                    <path d="M330.697,215.066L330.697,189.849L610.58,189.849L610.58,166.434L613.019,202.458L610.58,238.481L610.58,215.066L330.697,215.066Z" style="fill:rgb(102,102,102);"/>
                </g>
                <g transform="matrix(0.941726,0.461086,0.0514664,-0.105115,921.597,625.74)">
                    <path d="M330.697,215.066L330.697,189.849L609.259,189.849L609.259,166.434L613.019,202.458L609.259,238.481L609.259,215.066L330.697,215.066Z" style="fill:rgb(102,102,102);"/>
                </g>
                <g transform="matrix(-0.245277,0.468436,0.103685,0.0542903,1301.61,590.395)">
                    <path d="M330.697,215.066L330.697,189.849L604.59,189.849L604.59,166.434L613.019,202.458L604.59,238.481L604.59,215.066L330.697,215.066Z" style="fill:rgb(102,102,102);"/>
                </g>
                <g transform="matrix(0.267847,0.475222,0.101959,-0.0574666,1134.86,610.817)">
                    <path d="M330.697,215.066L330.697,189.849L604.895,189.849L604.895,166.434L613.019,202.458L604.895,238.481L604.895,215.066L330.697,215.066Z" style="fill:rgb(102,102,102);"/>
                </g>
            </g>
        </g>
        <g id="P">
            <g>
                <g id="Blume8" serif:id="Blume" transform="matrix(6.41115,0,0,6.41115,-835.546,-485.958)">
                    <path id="path1178" serif:id="path117" d="M221.188,175.864C220.27,173.911 212.915,173.337 211.436,174.48C207.946,177.178 209.748,178.804 210.341,181.908C209.525,177.63 211.716,176.624 214.292,178.966C216.637,181.097 216.655,185.676 216.573,188.682C217.315,188.942 218.323,189.226 219.006,189.381C218.695,184.881 218.568,180.28 216.539,176.217C218.375,177.47 219.132,177.354 220.505,179.25C219.822,177.844 219.556,176.403 218.688,174.883C219.983,175.215 220.007,175.056 221.188,175.864Z" style="fill:rgb(40,144,58);fill-rule:nonzero;stroke:black;stroke-width:0.5px;stroke-linecap:butt;stroke-linejoin:miter;stroke-miterlimit:4;"/>
                    <path id="path1198" serif:id="path119" d="M222.239,160.09C222.453,158.527 223.958,156.481 223.937,155.083C223.93,154.608 222.851,153.253 222.591,152.886C221.699,151.628 220.703,150.736 219.138,150.404C218.468,150.261 217.944,150.656 217.329,150.347C216.485,149.924 216.306,148.712 215.472,148.208C214.142,147.406 214.264,148.055 213.124,148.39C208.112,149.866 202.595,149.402 197.41,149.383C195.979,149.378 194.864,149.045 194.946,150.757C194.986,151.571 195.36,152.122 196.082,152.512C194.299,153.079 195.334,154.001 194.979,155.182C194.521,156.706 192.526,157.523 191.433,158.725C189.028,161.371 187.079,163.912 189.694,166.053C190.19,166.193 190.641,166.536 191.078,166.845C188.937,169.104 188.029,172.682 190.235,175.356C191.657,177.08 193.17,176.766 195.156,176.422C198.158,175.902 200.938,175.373 204.01,175.666C205.741,175.831 207.914,176.797 209.636,176.555C210.175,176.479 210.467,175.956 210.959,175.872C212.783,175.564 214.39,175.751 215.895,174.478C217.717,177.078 219.455,171.61 219.838,170.507C220.338,169.068 221.204,167.806 221.608,166.326C222.16,164.306 221.957,162.151 222.239,160.09Z" style="fill:rgb(255,49,66);fill-rule:nonzero;stroke:black;stroke-width:1px;stroke-linecap:butt;stroke-linejoin:miter;stroke-miterlimit:4;"/>
                    <path id="path1218" serif:id="path121" d="M216.249,174.516C212.493,177.808 210.412,172.144 206.638,173.252C207.096,173.414 207.659,173.819 207.904,174.36C205.047,173.435 200.6,174.074 197.621,174.511C195.826,174.774 191.394,175.949 191.66,172.599C192.506,174.339 194.046,173.626 195.427,173.349C198.658,172.701 201.801,173.439 204.946,173.851C204.004,172.947 202.448,172.825 201.453,172.076C202.052,171.972 202.661,171.829 203.248,171.727C202.139,170.654 192.287,169.805 193.729,166.498C192.576,165.952 190.984,166.205 190.305,164.681C189.236,162.28 195.04,157.171 197.084,156.689C195.51,158.404 192.643,160.806 192.743,163.393C192.866,166.545 196.184,164.269 198.271,164.576C197.634,165.727 196.039,167.168 196.956,168.51C198.021,170.07 201.349,170.266 203.004,170.548C206.152,171.083 210.192,171.814 212.433,174.206C211.47,171.311 209.624,168.691 209.497,165.395C209.446,164.067 209.601,162.259 210.117,161.073C211.012,159.013 212.976,157.479 214.59,156.005C215.205,155.443 215.917,155.331 216.083,154.339C216.143,153.982 215.853,152.155 215.137,152.427C217.122,151.674 215.147,149.84 214.172,149.191C215.17,149.725 216.353,150.819 216.776,151.857C216.616,151.893 216.477,151.868 216.317,151.906C216.036,153.474 217.171,154.974 216.334,156.56C215.689,157.783 214.05,158.474 213.126,159.581C211.499,161.531 210.523,164.018 210.493,166.58C210.476,167.966 210.749,171.078 212.251,171.695C212.316,171.597 212.391,171.416 212.468,171.339C212.258,172.981 213.108,174.144 214.664,173.233C217.373,171.646 216.401,166.843 217.136,164.339C217.197,166.188 216.888,169.026 216.785,171.217C216.738,172.198 217.111,173.759 216.249,174.516Z" style="fill:rgb(145,45,55);fill-rule:nonzero;"/>
                </g>
                <g transform="matrix(1,0,0,1,-174.646,281.942)">
                    <circle cx="662.419" cy="310.35" r="164.353" style="fill:none;stroke:black;stroke-width:3.13px;"/>
                </g>
            </g>
            <g>
                <g id="Blume9" serif:id="Blume" transform="matrix(6.41115,0,0,6.41115,-475.765,-478.085)">
                    <path id="path1179" serif:id="path117" d="M221.188,175.864C220.27,173.911 212.915,173.337 211.436,174.48C207.946,177.178 209.748,178.804 210.341,181.908C209.525,177.63 211.716,176.624 214.292,178.966C216.637,181.097 216.655,185.676 216.573,188.682C217.315,188.942 218.323,189.226 219.006,189.381C218.695,184.881 218.568,180.28 216.539,176.217C218.375,177.47 219.132,177.354 220.505,179.25C219.822,177.844 219.556,176.403 218.688,174.883C219.983,175.215 220.007,175.056 221.188,175.864Z" style="fill:rgb(40,144,58);fill-rule:nonzero;stroke:black;stroke-width:0.5px;stroke-linecap:butt;stroke-linejoin:miter;stroke-miterlimit:4;"/>
                    <path id="path1199" serif:id="path119" d="M222.239,160.09C222.453,158.527 223.958,156.481 223.937,155.083C223.93,154.608 222.851,153.253 222.591,152.886C221.699,151.628 220.703,150.736 219.138,150.404C218.468,150.261 217.944,150.656 217.329,150.347C216.485,149.924 216.306,148.712 215.472,148.208C214.142,147.406 214.264,148.055 213.124,148.39C208.112,149.866 202.595,149.402 197.41,149.383C195.979,149.378 194.864,149.045 194.946,150.757C194.986,151.571 195.36,152.122 196.082,152.512C194.299,153.079 195.334,154.001 194.979,155.182C194.521,156.706 192.526,157.523 191.433,158.725C189.028,161.371 187.079,163.912 189.694,166.053C190.19,166.193 190.641,166.536 191.078,166.845C188.937,169.104 188.029,172.682 190.235,175.356C191.657,177.08 193.17,176.766 195.156,176.422C198.158,175.902 200.938,175.373 204.01,175.666C205.741,175.831 207.914,176.797 209.636,176.555C210.175,176.479 210.467,175.956 210.959,175.872C212.783,175.564 214.39,175.751 215.895,174.478C217.717,177.078 219.455,171.61 219.838,170.507C220.338,169.068 221.204,167.806 221.608,166.326C222.16,164.306 221.957,162.151 222.239,160.09Z" style="fill:rgb(237,228,229);fill-rule:nonzero;stroke:black;stroke-width:1px;stroke-linecap:butt;stroke-linejoin:miter;stroke-miterlimit:4;"/>
                    <path id="path1219" serif:id="path121" d="M216.249,174.516C212.493,177.808 210.412,172.144 206.638,173.252C207.096,173.414 207.659,173.819 207.904,174.36C205.047,173.435 200.6,174.074 197.621,174.511C195.826,174.774 191.394,175.949 191.66,172.599C192.506,174.339 194.046,173.626 195.427,173.349C198.658,172.701 201.801,173.439 204.946,173.851C204.004,172.947 202.448,172.825 201.453,172.076C202.052,171.972 202.661,171.829 203.248,171.727C202.139,170.654 192.287,169.805 193.729,166.498C192.576,165.952 190.984,166.205 190.305,164.681C189.236,162.28 195.04,157.171 197.084,156.689C195.51,158.404 192.643,160.806 192.743,163.393C192.866,166.545 196.184,164.269 198.271,164.576C197.634,165.727 196.039,167.168 196.956,168.51C198.021,170.07 201.349,170.266 203.004,170.548C206.152,171.083 210.192,171.814 212.433,174.206C211.47,171.311 209.624,168.691 209.497,165.395C209.446,164.067 209.601,162.259 210.117,161.073C211.012,159.013 212.976,157.479 214.59,156.005C215.205,155.443 215.917,155.331 216.083,154.339C216.143,153.982 215.853,152.155 215.137,152.427C217.122,151.674 215.147,149.84 214.172,149.191C215.17,149.725 216.353,150.819 216.776,151.857C216.616,151.893 216.477,151.868 216.317,151.906C216.036,153.474 217.171,154.974 216.334,156.56C215.689,157.783 214.05,158.474 213.126,159.581C211.499,161.531 210.523,164.018 210.493,166.58C210.476,167.966 210.749,171.078 212.251,171.695C212.316,171.597 212.391,171.416 212.468,171.339C212.258,172.981 213.108,174.144 214.664,173.233C217.373,171.646 216.401,166.843 217.136,164.339C217.197,166.188 216.888,169.026 216.785,171.217C216.738,172.198 217.111,173.759 216.249,174.516Z" style="fill:rgb(205,203,204);fill-rule:nonzero;"/>
                </g>
                <g transform="matrix(1,0,0,1,194.943,281.942)">
                    <circle cx="662.419" cy="310.35" r="164.353" style="fill:none;stroke:black;stroke-width:3.13px;"/>
                </g>
            </g>
        </g>
    </g>
    <g id="Genotyp" transform="matrix(1,0,0,1,-186.943,-280.942)">
        <g id="Kreuzung-F2" serif:id="Kreuzung F2" transform="matrix(1,0,0,1,0,427.571)">
            <g transform="matrix(1.16863,0,0,1.17142,254.686,80.3092)">
                <circle cx="764.839" cy="708.674" r="64.014" style="fill:none;"/>
                <clipPath id="_clip1">
                    <circle cx="764.839" cy="708.674" r="64.014"/>
                </clipPath>
                <g clip-path="url(#_clip1)">
                    <g transform="matrix(0.855701,0,0,0.853665,-204.111,-119.292)">
                        <text x="1095.93px" y="985.457px" style="font-family:'Arial-BoldMT', 'Arial', sans-serif;font-weight:700;font-size:58.3px;fill:rgb(255,49,66);">RR</text>
                    </g>
                </g>
                <circle cx="764.839" cy="708.674" r="64.014" style="fill:none;stroke:black;stroke-width:2.67px;"/>
            </g>
            <g transform="matrix(1.16863,0,0,1.17142,432.27,80.3092)">
                <circle cx="764.839" cy="708.674" r="64.014" style="fill:none;"/>
                <clipPath id="_clip2">
                    <circle cx="764.839" cy="708.674" r="64.014"/>
                </clipPath>
                <g clip-path="url(#_clip2)">
                    <g transform="matrix(0.855701,0,0,0.853665,-204.449,-119.292)">
                        <text x="1105.64px" y="985.457px" style="font-family:'Arial-BoldMT', 'Arial', sans-serif;font-weight:700;font-size:58.3px;fill:rgb(255,49,66);">R</text>
                        <text x="1147.74px" y="985.457px" style="font-family:'Arial-BoldMT', 'Arial', sans-serif;font-weight:700;font-size:58.3px;fill:rgb(237,228,229);stroke:black;stroke-width:1px;stroke-linecap:butt;stroke-miterlimit:1.41421;">r</text>
                    </g>
                </g>
                <circle cx="764.839" cy="708.674" r="64.014" style="fill:none;stroke:black;stroke-width:2.67px;"/>
            </g>
            <g transform="matrix(1.16863,0,0,1.17142,616.983,80.3092)">
                <circle cx="764.839" cy="708.674" r="64.014" style="fill:none;"/>
                <clipPath id="_clip3">
                    <circle cx="764.839" cy="708.674" r="64.014"/>
                </clipPath>
                <g clip-path="url(#_clip3)">
                    <g transform="matrix(0.855701,0,0,0.853665,-203.358,-119.292)">
                        <text x="1105.64px" y="985.457px" style="font-family:'Arial-BoldMT', 'Arial', sans-serif;font-weight:700;font-size:58.3px;fill:rgb(255,49,66);">R</text>
                        <text x="1147.74px" y="985.457px" style="font-family:'Arial-BoldMT', 'Arial', sans-serif;font-weight:700;font-size:58.3px;fill:rgb(237,228,229);stroke:black;stroke-width:1px;stroke-linecap:butt;stroke-miterlimit:1.41421;">r</text>
                    </g>
                </g>
                <circle cx="764.839" cy="708.674" r="64.014" style="fill:none;stroke:black;stroke-width:2.67px;"/>
            </g>
            <g transform="matrix(1.16863,0,0,1.17142,794.567,80.3092)">
                <circle cx="764.839" cy="708.674" r="64.014" style="fill:none;"/>
                <clipPath id="_clip4">
                    <circle cx="764.839" cy="708.674" r="64.014"/>
                </clipPath>
                <g clip-path="url(#_clip4)">
                    <g transform="matrix(0.855701,0,0,0.853665,-203.696,-119.292)">
                        <text x="1115.34px" y="985.457px" style="font-family:'Arial-BoldMT', 'Arial', sans-serif;font-weight:700;font-size:58.3px;fill:rgb(237,228,229);stroke:black;stroke-width:1px;stroke-linecap:butt;stroke-miterlimit:1.41421;">rr</text>
                    </g>
                </g>
                <circle cx="764.839" cy="708.674" r="64.014" style="fill:none;stroke:black;stroke-width:2.67px;"/>
            </g>
        </g>
        <g id="Pfeile-F21" serif:id="Pfeile F2" transform="matrix(1,0,0,1.01092,-1.13687e-13,363.929)">
            <g>
                <g transform="matrix(1.24506,0.420194,0.0374254,-0.110893,913.315,643.222)">
                    <path d="M330.697,215.066L330.697,189.849L609.782,189.849L609.782,166.434L613.019,202.458L609.782,238.481L609.782,215.066L330.697,215.066Z" style="fill:rgb(102,102,102);"/>
                </g>
                <g transform="matrix(0.00191861,0.428352,0.117875,-0.00171388,1305.39,618.52)">
                    <path d="M330.697,215.066L330.697,189.849L603.212,189.849L603.212,166.434L613.019,202.458L603.212,238.481L603.212,215.066L330.697,215.066Z" style="fill:rgb(102,102,102);"/>
                </g>
            </g>
            <g transform="matrix(-1,0,0,1,2856.27,0.695886)">
                <g transform="matrix(1.20735,0.407468,0.0374254,-0.110893,936.43,651.023)">
                    <path d="M330.697,215.066L330.697,189.849L609.681,189.849L609.681,166.434L613.019,202.458L609.681,238.481L609.681,215.066L330.697,215.066Z" style="fill:rgb(102,102,102);"/>
                </g>
                <g transform="matrix(0.618435,0.411388,0.0648921,-0.0974634,1124.13,648.225)">
                    <path d="M330.697,215.066L330.697,189.849L607.316,189.849L607.316,166.434L613.019,202.458L607.316,238.481L607.316,215.066L330.697,215.066Z" style="fill:rgb(102,102,102);"/>
                </g>
            </g>
            <g>
                <g transform="matrix(0.0058912,0.416862,0.117047,-0.00133629,1127.28,623.165)">
                    <path d="M330.697,215.066L330.697,189.849L603.014,189.849L603.014,166.434L613.019,202.458L603.014,238.481L603.014,215.066L330.697,215.066Z" style="fill:rgb(102,102,102);"/>
                </g>
                <g transform="matrix(1.2212,0.430728,0.038396,-0.11019,745.661,640.958)">
                    <path d="M330.697,215.066L330.697,189.849L609.745,189.849L609.745,166.434L613.019,202.458L609.745,238.481L609.745,215.066L330.697,215.066Z" style="fill:rgb(102,102,102);"/>
                </g>
            </g>
            <g transform="matrix(-1,0,0,1,2842.41,-2.57467)">
                <g transform="matrix(0.00014763,0.424138,0.117054,-0.000315026,1124.83,623.406)">
                    <path d="M330.697,215.066L330.697,189.849L603.184,189.849L603.184,166.434L613.019,202.458L603.184,238.481L603.184,215.066L330.697,215.066Z" style="fill:rgb(102,102,102);"/>
                </g>
                <g transform="matrix(0.574196,0.435325,0.0708451,-0.0933021,947.772,638.735)">
                    <path d="M330.697,215.066L330.697,189.849L607.145,189.849L607.145,166.434L613.019,202.458L607.145,238.481L607.145,215.066L330.697,215.066Z" style="fill:rgb(102,102,102);"/>
                </g>
            </g>
        </g>
        <g id="Kreuzung-F1" serif:id="Kreuzung F1">
            <g id="Gameten">
                <g transform="matrix(0.999567,0,0,1,646.432,535.703)">
                    <path d="M922.056,507.553C922.056,491.479 909,478.429 892.919,478.429L834.646,478.429C818.565,478.429 805.509,491.479 805.509,507.553L805.509,565.852C805.509,581.926 818.565,594.976 834.646,594.976L892.919,594.976C909,594.976 922.056,581.926 922.056,565.852L922.056,507.553Z" style="fill:none;"/>
                    <clipPath id="_clip5">
                        <path d="M922.056,507.553C922.056,491.479 909,478.429 892.919,478.429L834.646,478.429C818.565,478.429 805.509,491.479 805.509,507.553L805.509,565.852C805.509,581.926 818.565,594.976 834.646,594.976L892.919,594.976C909,594.976 922.056,581.926 922.056,565.852L922.056,507.553Z"/>
                    </clipPath>
                    <g clip-path="url(#_clip5)">
                        <g transform="matrix(1.00043,0,0,1,-781.003,-24.0299)">
                            <text x="1623.21px" y="578.752px" style="font-family:'Arial-BoldMT', 'Arial', sans-serif;font-weight:700;font-size:58.3px;fill:rgb(255,49,66);stroke:black;stroke-width:1px;stroke-linecap:butt;stroke-miterlimit:1.41421;">R</text>
                        </g>
                    </g>
                    <path d="M922.056,507.553C922.056,491.479 909,478.429 892.919,478.429L834.646,478.429C818.565,478.429 805.509,491.479 805.509,507.553L805.509,565.852C805.509,581.926 818.565,594.976 834.646,594.976L892.919,594.976C909,594.976 922.056,581.926 922.056,565.852L922.056,507.553Z" style="fill:none;stroke:black;stroke-width:3.13px;"/>
                </g>
                <g transform="matrix(0.999567,0,0,1,822.151,535.703)">
                    <path d="M922.056,507.553C922.056,491.479 909,478.429 892.919,478.429L834.646,478.429C818.565,478.429 805.509,491.479 805.509,507.553L805.509,565.852C805.509,581.926 818.565,594.976 834.646,594.976L892.919,594.976C909,594.976 922.056,581.926 922.056,565.852L922.056,507.553Z" style="fill:none;"/>
                    <clipPath id="_clip6">
                        <path d="M922.056,507.553C922.056,491.479 909,478.429 892.919,478.429L834.646,478.429C818.565,478.429 805.509,491.479 805.509,507.553L805.509,565.852C805.509,581.926 818.565,594.976 834.646,594.976L892.919,594.976C909,594.976 922.056,581.926 922.056,565.852L922.056,507.553Z"/>
                    </clipPath>
                    <g clip-path="url(#_clip6)">
                        <g transform="matrix(1.00043,0,0,1,-781.003,-24.0299)">
                            <text x="1632.91px" y="578.752px" style="font-family:'Arial-BoldMT', 'Arial', sans-serif;font-weight:700;font-size:58.3px;fill:rgb(237,228,229);stroke:black;stroke-width:1px;stroke-linecap:butt;stroke-miterlimit:1.41421;">r</text>
                        </g>
                    </g>
                    <path d="M922.056,507.553C922.056,491.479 909,478.429 892.919,478.429L834.646,478.429C818.565,478.429 805.509,491.479 805.509,507.553L805.509,565.852C805.509,581.926 818.565,594.976 834.646,594.976L892.919,594.976C909,594.976 922.056,581.926 922.056,565.852L922.056,507.553Z" style="fill:none;stroke:black;stroke-width:3.13px;"/>
                </g>
                <g transform="matrix(0.999567,0,0,1,291.482,535.703)">
                    <path d="M922.056,507.553C922.056,491.479 909,478.429 892.919,478.429L834.646,478.429C818.565,478.429 805.509,491.479 805.509,507.553L805.509,565.852C805.509,581.926 818.565,594.976 834.646,594.976L892.919,594.976C909,594.976 922.056,581.926 922.056,565.852L922.056,507.553Z" style="fill:none;"/>
                    <clipPath id="_clip7">
                        <path d="M922.056,507.553C922.056,491.479 909,478.429 892.919,478.429L834.646,478.429C818.565,478.429 805.509,491.479 805.509,507.553L805.509,565.852C805.509,581.926 818.565,594.976 834.646,594.976L892.919,594.976C909,594.976 922.056,581.926 922.056,565.852L922.056,507.553Z"/>
                    </clipPath>
                    <g clip-path="url(#_clip7)">
                        <g transform="matrix(1.00043,0,0,1,-781.003,-24.0299)">
                            <text x="1623.21px" y="578.752px" style="font-family:'Arial-BoldMT', 'Arial', sans-serif;font-weight:700;font-size:58.3px;fill:rgb(255,49,66);stroke:black;stroke-width:1px;stroke-linecap:butt;stroke-miterlimit:1.41421;">R</text>
                        </g>
                    </g>
                    <path d="M922.056,507.553C922.056,491.479 909,478.429 892.919,478.429L834.646,478.429C818.565,478.429 805.509,491.479 805.509,507.553L805.509,565.852C805.509,581.926 818.565,594.976 834.646,594.976L892.919,594.976C909,594.976 922.056,581.926 922.056,565.852L922.056,507.553Z" style="fill:none;stroke:black;stroke-width:3.13px;"/>
                </g>
                <g transform="matrix(0.999567,0,0,1,467.201,535.703)">
                    <path d="M922.056,507.553C922.056,491.479 909,478.429 892.919,478.429L834.646,478.429C818.565,478.429 805.509,491.479 805.509,507.553L805.509,565.852C805.509,581.926 818.565,594.976 834.646,594.976L892.919,594.976C909,594.976 922.056,581.926 922.056,565.852L922.056,507.553Z" style="fill:none;"/>
                    <clipPath id="_clip8">
                        <path d="M922.056,507.553C922.056,491.479 909,478.429 892.919,478.429L834.646,478.429C818.565,478.429 805.509,491.479 805.509,507.553L805.509,565.852C805.509,581.926 818.565,594.976 834.646,594.976L892.919,594.976C909,594.976 922.056,581.926 922.056,565.852L922.056,507.553Z"/>
                    </clipPath>
                    <g clip-path="url(#_clip8)">
                        <g transform="matrix(1.00043,0,0,1,-781.003,-24.0299)">
                            <text x="1632.91px" y="578.752px" style="font-family:'Arial-BoldMT', 'Arial', sans-serif;font-weight:700;font-size:58.3px;fill:rgb(205,203,204);stroke:black;stroke-width:1px;stroke-linecap:butt;stroke-miterlimit:1.41421;">r</text>
                        </g>
                    </g>
                    <path d="M922.056,507.553C922.056,491.479 909,478.429 892.919,478.429L834.646,478.429C818.565,478.429 805.509,491.479 805.509,507.553L805.509,565.852C805.509,581.926 818.565,594.976 834.646,594.976L892.919,594.976C909,594.976 922.056,581.926 922.056,565.852L922.056,507.553Z" style="fill:none;stroke:black;stroke-width:3.13px;"/>
                </g>
                <g transform="matrix(6.12323e-17,-1,1,6.12323e-17,482.252,1811.66)">
                    <text x="672.194px" y="603.185px" style="font-family:'ArialMT', 'Arial', sans-serif;font-size:37.5px;">Gameten</text>
                </g>
            </g>
            <g transform="matrix(1,0,0,1,480.753,418.709)">
                <g transform="matrix(-0.422437,0.1303,-0.0507899,-0.164662,996.334,558.291)">
                    <path d="M330.697,215.066L330.697,189.849L598.977,189.849L598.977,166.434L613.019,202.458L598.977,238.481L598.977,215.066L330.697,215.066Z" style="fill:rgb(102,102,102);"/>
                </g>
                <g transform="matrix(0.000182552,0.0969445,0.172317,-0.000324482,814.892,536.048)">
                    <path d="M330.697,215.066L330.697,189.849L548.988,189.849L548.988,166.434L613.019,202.458L548.988,238.481L548.988,215.066L330.697,215.066Z" style="fill:rgb(102,102,102);"/>
                </g>
            </g>
            <g transform="matrix(-1,0,0,1,2360.34,417.779)">
                <g transform="matrix(-0.422437,0.1303,-0.0507899,-0.164662,996.334,558.291)">
                    <path d="M330.697,215.066L330.697,189.849L598.977,189.849L598.977,166.434L613.019,202.458L598.977,238.481L598.977,215.066L330.697,215.066Z" style="fill:rgb(102,102,102);"/>
                </g>
                <g transform="matrix(0.000182552,0.0969445,0.172317,-0.000324482,814.892,536.048)">
                    <path d="M330.697,215.066L330.697,189.849L548.988,189.849L548.988,166.434L613.019,202.458L548.988,238.481L548.988,215.066L330.697,215.066Z" style="fill:rgb(102,102,102);"/>
                </g>
            </g>
            <g id="Körperzellen">
                <g transform="matrix(1.16863,0,0,1.17142,256.686,80.3092)">
                    <circle cx="764.839" cy="708.674" r="64.014" style="fill:none;"/>
                    <clipPath id="_clip9">
                        <circle cx="764.839" cy="708.674" r="64.014"/>
                    </clipPath>
                    <g clip-path="url(#_clip9)">
                        <g transform="matrix(0.855701,0,0,0.853665,-204.111,-119.292)">
                            <text x="1105.64px" y="985.457px" style="font-family:'Arial-BoldMT', 'Arial', sans-serif;font-weight:700;font-size:58.3px;fill:rgb(255,49,66);">R</text>
                            <text x="1147.74px" y="985.457px" style="font-family:'Arial-BoldMT', 'Arial', sans-serif;font-weight:700;font-size:58.3px;fill:rgb(237,228,229);stroke:black;stroke-width:1px;stroke-linecap:butt;stroke-miterlimit:1.41421;">r</text>
                        </g>
                    </g>
                    <circle cx="764.839" cy="708.674" r="64.014" style="fill:none;stroke:black;stroke-width:2.67px;"/>
                </g>
                <g transform="matrix(1.16863,0,0,1.17142,432.27,80.3092)">
                    <circle cx="764.839" cy="708.674" r="64.014" style="fill:none;"/>
                    <clipPath id="_clip10">
                        <circle cx="764.839" cy="708.674" r="64.014"/>
                    </clipPath>
                    <g clip-path="url(#_clip10)">
                        <g transform="matrix(0.855701,0,0,0.853665,-204.449,-119.292)">
                            <text x="1105.64px" y="985.457px" style="font-family:'Arial-BoldMT', 'Arial', sans-serif;font-weight:700;font-size:58.3px;fill:rgb(255,49,66);">R</text>
                            <text x="1147.74px" y="985.457px" style="font-family:'Arial-BoldMT', 'Arial', sans-serif;font-weight:700;font-size:58.3px;fill:rgb(237,228,229);stroke:black;stroke-width:1px;stroke-linecap:butt;stroke-miterlimit:1.41421;">r</text>
                        </g>
                    </g>
                    <circle cx="764.839" cy="708.674" r="64.014" style="fill:none;stroke:black;stroke-width:2.67px;"/>
                </g>
                <g transform="matrix(1.16863,0,0,1.17142,616.983,80.3092)">
                    <circle cx="764.839" cy="708.674" r="64.014" style="fill:none;"/>
                    <clipPath id="_clip11">
                        <circle cx="764.839" cy="708.674" r="64.014"/>
                    </clipPath>
                    <g clip-path="url(#_clip11)">
                        <g transform="matrix(0.855701,0,0,0.853665,-203.358,-119.292)">
                            <text x="1105.64px" y="985.457px" style="font-family:'Arial-BoldMT', 'Arial', sans-serif;font-weight:700;font-size:58.3px;fill:rgb(255,49,66);">R</text>
                            <text x="1147.74px" y="985.457px" style="font-family:'Arial-BoldMT', 'Arial', sans-serif;font-weight:700;font-size:58.3px;fill:rgb(237,228,229);stroke:black;stroke-width:1px;stroke-linecap:butt;stroke-miterlimit:1.41421;">r</text>
                        </g>
                    </g>
                    <circle cx="764.839" cy="708.674" r="64.014" style="fill:none;stroke:black;stroke-width:2.67px;"/>
                </g>
                <g transform="matrix(1.16863,0,0,1.17142,792.567,80.3092)">
                    <circle cx="764.839" cy="708.674" r="64.014" style="fill:none;"/>
                    <clipPath id="_clip12">
                        <circle cx="764.839" cy="708.674" r="64.014"/>
                    </clipPath>
                    <g clip-path="url(#_clip12)">
                        <g transform="matrix(0.855701,0,0,0.853665,-203.696,-119.292)">
                            <text x="1105.64px" y="985.457px" style="font-family:'Arial-BoldMT', 'Arial', sans-serif;font-weight:700;font-size:58.3px;fill:rgb(255,49,66);">R</text>
                            <text x="1147.74px" y="985.457px" style="font-family:'Arial-BoldMT', 'Arial', sans-serif;font-weight:700;font-size:58.3px;fill:rgb(237,228,229);stroke:black;stroke-width:1px;stroke-linecap:butt;stroke-miterlimit:1.41421;">r</text>
                        </g>
                    </g>
                    <circle cx="764.839" cy="708.674" r="64.014" style="fill:none;stroke:black;stroke-width:2.67px;"/>
                </g>
            </g>
        </g>
        <g id="Pfeile-F11" serif:id="Pfeile F1" transform="matrix(1,0,0,1.01092,5.20996,-5.05479)">
            <g>
                <g transform="matrix(1.19459,0.234359,0.0222282,-0.114824,933.081,705.472)">
                    <path d="M330.697,215.066L330.697,189.849L609.523,189.849L609.523,166.434L613.019,202.458L609.523,238.481L609.523,215.066L330.697,215.066Z" style="fill:rgb(102,102,102);"/>
                </g>
                <g transform="matrix(0.00109871,0.245301,0.117875,-0.00171388,1305.66,679.054)">
                    <path d="M330.697,215.066L330.697,189.849L595.894,189.849L595.894,166.434L613.019,202.458L595.894,238.481L595.894,215.066L330.697,215.066Z" style="fill:rgb(102,102,102);"/>
                </g>
            </g>
            <g transform="matrix(-1,0,0,1,2856.27,0.695886)">
                <g transform="matrix(1.25537,0.224313,0.0202426,-0.115182,924.044,712.307)">
                    <path d="M330.697,215.066L330.697,189.849L609.681,189.849L609.681,166.434L613.019,202.458L609.681,238.481L609.681,215.066L330.697,215.066Z" style="fill:rgb(102,102,102);"/>
                </g>
                <g transform="matrix(0.631598,0.215718,0.0374313,-0.110673,1125.33,715.607)">
                    <path d="M330.697,215.066L330.697,189.849L606.658,189.849L606.658,166.434L613.019,202.458L606.658,238.481L606.658,215.066L330.697,215.066Z" style="fill:rgb(102,102,102);"/>
                </g>
            </g>
            <g>
                <g transform="matrix(0.00341742,0.241817,0.117047,-0.00133629,1128.1,681.052)">
                    <path d="M330.697,215.066L330.697,189.849L595.771,189.849L595.771,166.434L613.019,202.458L595.771,238.481L595.771,215.066L330.697,215.066Z" style="fill:rgb(102,102,102);"/>
                </g>
                <g transform="matrix(1.16523,0.240915,0.0228849,-0.114333,767.308,704.567)">
                    <path d="M330.697,215.066L330.697,189.849L609.453,189.849L609.453,166.434L613.019,202.458L609.453,238.481L609.453,215.066L330.697,215.066Z" style="fill:rgb(102,102,102);"/>
                </g>
            </g>
            <g transform="matrix(-1,0,0,1,2842.41,-2.57467)">
                <g transform="matrix(8.03743e-05,0.230914,0.117054,-0.000315026,1124.85,687.305)">
                    <path d="M330.697,215.066L330.697,189.849L594.955,189.849L594.955,166.434L613.019,202.458L594.955,238.481L594.955,215.066L330.697,215.066Z" style="fill:rgb(102,102,102);"/>
                </g>
                <g transform="matrix(0.555825,0.243319,0.0466871,-0.107162,958.831,705.193)">
                    <path d="M330.697,215.066L330.697,189.849L606.028,189.849L606.028,166.434L613.019,202.458L606.028,238.481L606.028,215.066L330.697,215.066Z" style="fill:rgb(102,102,102);"/>
                </g>
            </g>
        </g>
        <g transform="matrix(1,0,0,1,397.416,-2.03098)">
            <g>
                <g transform="matrix(-0.189442,0.253959,-0.138122,-0.103032,936.968,504.918)">
                    <path d="M330.697,215.066L330.697,189.849L593.427,189.849L593.427,166.434L613.019,202.458L593.427,238.481L593.427,215.066L330.697,215.066Z" style="fill:rgb(102,102,102);"/>
                </g>
                <g transform="matrix(0.189442,0.253959,0.138122,-0.103032,759.227,504.918)">
                    <path d="M330.697,215.066L330.697,189.849L593.427,189.849L593.427,166.434L613.019,202.458L593.427,238.481L593.427,215.066L330.697,215.066Z" style="fill:rgb(102,102,102);"/>
                </g>
            </g>
            <g transform="matrix(0.999567,0,0,1,74.8969,164.73)">
                <path d="M922.056,507.553C922.056,491.479 909,478.429 892.919,478.429L834.646,478.429C818.565,478.429 805.509,491.479 805.509,507.553L805.509,565.852C805.509,581.926 818.565,594.976 834.646,594.976L892.919,594.976C909,594.976 922.056,581.926 922.056,565.852L922.056,507.553Z" style="fill:none;"/>
                <clipPath id="_clip13">
                    <path d="M922.056,507.553C922.056,491.479 909,478.429 892.919,478.429L834.646,478.429C818.565,478.429 805.509,491.479 805.509,507.553L805.509,565.852C805.509,581.926 818.565,594.976 834.646,594.976L892.919,594.976C909,594.976 922.056,581.926 922.056,565.852L922.056,507.553Z"/>
                </clipPath>
                <g clip-path="url(#_clip13)">
                    <g transform="matrix(1.00043,0,0,1,-781.24,-25.8901)">
                        <text x="1623.33px" y="578.752px" style="font-family:'Arial-BoldMT', 'Arial', sans-serif;font-weight:700;font-size:58.3px;fill:rgb(255,49,66);stroke:black;stroke-width:1px;stroke-linecap:butt;stroke-miterlimit:1.41421;">R</text>
                    </g>
                </g>
                <path d="M922.056,507.553C922.056,491.479 909,478.429 892.919,478.429L834.646,478.429C818.565,478.429 805.509,491.479 805.509,507.553L805.509,565.852C805.509,581.926 818.565,594.976 834.646,594.976L892.919,594.976C909,594.976 922.056,581.926 922.056,565.852L922.056,507.553Z" style="fill:none;stroke:black;stroke-width:3.13px;"/>
            </g>
            <g transform="matrix(0.999567,0,0,1,-105.301,162.87)">
                <path d="M922.056,507.553C922.056,491.479 909,478.429 892.919,478.429L834.646,478.429C818.565,478.429 805.509,491.479 805.509,507.553L805.509,565.852C805.509,581.926 818.565,594.976 834.646,594.976L892.919,594.976C909,594.976 922.056,581.926 922.056,565.852L922.056,507.553Z" style="fill:none;"/>
                <clipPath id="_clip14">
                    <path d="M922.056,507.553C922.056,491.479 909,478.429 892.919,478.429L834.646,478.429C818.565,478.429 805.509,491.479 805.509,507.553L805.509,565.852C805.509,581.926 818.565,594.976 834.646,594.976L892.919,594.976C909,594.976 922.056,581.926 922.056,565.852L922.056,507.553Z"/>
                </clipPath>
                <g clip-path="url(#_clip14)">
                    <g transform="matrix(1.00043,0,0,1,-781.003,-24.0299)">
                        <text x="1623.21px" y="578.752px" style="font-family:'Arial-BoldMT', 'Arial', sans-serif;font-weight:700;font-size:58.3px;fill:rgb(255,49,66);stroke:black;stroke-width:1px;stroke-linecap:butt;stroke-miterlimit:1.41421;">R</text>
                    </g>
                </g>
                <path d="M922.056,507.553C922.056,491.479 909,478.429 892.919,478.429L834.646,478.429C818.565,478.429 805.509,491.479 805.509,507.553L805.509,565.852C805.509,581.926 818.565,594.976 834.646,594.976L892.919,594.976C909,594.976 922.056,581.926 922.056,565.852L922.056,507.553Z" style="fill:none;stroke:black;stroke-width:3.13px;"/>
            </g>
            <g transform="matrix(1,0,0,1,83.8746,-210.345)">
                <circle cx="764.839" cy="708.674" r="64.014" style="fill:none;"/>
                <clipPath id="_clip15">
                    <circle cx="764.839" cy="708.674" r="64.014"/>
                </clipPath>
                <g clip-path="url(#_clip15)">
                    <g transform="matrix(1,0,0,1,-862.04,150.693)">
                        <text x="1587.78px" y="578.752px" style="font-family:'Arial-BoldMT', 'Arial', sans-serif;font-weight:700;font-size:58.3px;fill:rgb(255,49,66);stroke:black;stroke-width:1px;stroke-linecap:butt;stroke-miterlimit:1.41421;">RR</text>
                    </g>
                </g>
                <circle cx="764.839" cy="708.674" r="64.014" style="fill:none;stroke:black;stroke-width:3.13px;"/>
            </g>
            <g transform="matrix(6.12323e-17,-1,1,6.12323e-17,207.838,1271.72)">
                <g>
                    <text x="706.351px" y="478.218px" style="font-family:'ArialMT', 'Arial', sans-serif;font-size:37.5px;">Körper-</text>
                    <text x="719.882px" y="516.944px" style="font-family:'ArialMT', 'Arial', sans-serif;font-size:37.5px;">zellen</text>
                </g>
            </g>
            <g transform="matrix(6.12323e-17,-1,1,6.12323e-17,83.8698,1444.88)">
                <text x="672.194px" y="603.185px" style="font-family:'ArialMT', 'Arial', sans-serif;font-size:37.5px;">Gameten</text>
            </g>
        </g>
        <g transform="matrix(1,0,0,1,766.34,-2.03098)">
            <g transform="matrix(0.999567,0,0,1,73.4821,166.59)">
                <path d="M922.056,507.553C922.056,491.479 909,478.429 892.919,478.429L834.646,478.429C818.565,478.429 805.509,491.479 805.509,507.553L805.509,565.852C805.509,581.926 818.565,594.976 834.646,594.976L892.919,594.976C909,594.976 922.056,581.926 922.056,565.852L922.056,507.553Z" style="fill:none;"/>
                <clipPath id="_clip16">
                    <path d="M922.056,507.553C922.056,491.479 909,478.429 892.919,478.429L834.646,478.429C818.565,478.429 805.509,491.479 805.509,507.553L805.509,565.852C805.509,581.926 818.565,594.976 834.646,594.976L892.919,594.976C909,594.976 922.056,581.926 922.056,565.852L922.056,507.553Z"/>
                </clipPath>
                <g clip-path="url(#_clip16)">
                    <g transform="matrix(1.00043,0,0,1,-781.24,-30.8901)">
                        <text x="1633.03px" y="578.752px" style="font-family:'Arial-BoldMT', 'Arial', sans-serif;font-weight:700;font-size:58.3px;fill:rgb(237,228,229);stroke:black;stroke-width:1px;stroke-linecap:butt;stroke-miterlimit:1.41421;">r</text>
                    </g>
                </g>
                <path d="M922.056,507.553C922.056,491.479 909,478.429 892.919,478.429L834.646,478.429C818.565,478.429 805.509,491.479 805.509,507.553L805.509,565.852C805.509,581.926 818.565,594.976 834.646,594.976L892.919,594.976C909,594.976 922.056,581.926 922.056,565.852L922.056,507.553Z" style="fill:none;stroke:black;stroke-width:3.13px;"/>
            </g>
            <g transform="matrix(0.999567,0,0,1,-106.716,164.73)">
                <path d="M922.056,507.553C922.056,491.479 909,478.429 892.919,478.429L834.646,478.429C818.565,478.429 805.509,491.479 805.509,507.553L805.509,565.852C805.509,581.926 818.565,594.976 834.646,594.976L892.919,594.976C909,594.976 922.056,581.926 922.056,565.852L922.056,507.553Z" style="fill:none;"/>
                <clipPath id="_clip17">
                    <path d="M922.056,507.553C922.056,491.479 909,478.429 892.919,478.429L834.646,478.429C818.565,478.429 805.509,491.479 805.509,507.553L805.509,565.852C805.509,581.926 818.565,594.976 834.646,594.976L892.919,594.976C909,594.976 922.056,581.926 922.056,565.852L922.056,507.553Z"/>
                </clipPath>
                <g clip-path="url(#_clip17)">
                    <g transform="matrix(1.00043,0,0,1,-781.003,-29.0299)">
                        <text x="1632.91px" y="578.752px" style="font-family:'Arial-BoldMT', 'Arial', sans-serif;font-weight:700;font-size:58.3px;fill:rgb(237,228,229);stroke:black;stroke-width:1px;stroke-linecap:butt;stroke-miterlimit:1.41421;">r</text>
                    </g>
                </g>
                <path d="M922.056,507.553C922.056,491.479 909,478.429 892.919,478.429L834.646,478.429C818.565,478.429 805.509,491.479 805.509,507.553L805.509,565.852C805.509,581.926 818.565,594.976 834.646,594.976L892.919,594.976C909,594.976 922.056,581.926 922.056,565.852L922.056,507.553Z" style="fill:none;stroke:black;stroke-width:3.13px;"/>
            </g>
            <g transform="matrix(1,0,0,1,82.4597,-208.485)">
                <circle cx="764.839" cy="708.674" r="64.014" style="fill:none;"/>
                <clipPath id="_clip18">
                    <circle cx="764.839" cy="708.674" r="64.014"/>
                </clipPath>
                <g clip-path="url(#_clip18)">
                    <g transform="matrix(1,0,0,1,-862.04,150.693)">
                        <text x="1607.19px" y="578.752px" style="font-family:'Arial-BoldMT', 'Arial', sans-serif;font-weight:700;font-size:58.3px;fill:rgb(237,228,229);stroke:black;stroke-width:1px;stroke-linecap:butt;stroke-miterlimit:1.41421;">rr</text>
                    </g>
                </g>
                <circle cx="764.839" cy="708.674" r="64.014" style="fill:none;stroke:black;stroke-width:3.13px;"/>
            </g>
            <g transform="matrix(-0.189442,0.253959,-0.138122,-0.103032,936.968,504.918)">
                <path d="M330.697,215.066L330.697,189.849L593.427,189.849L593.427,166.434L613.019,202.458L593.427,238.481L593.427,215.066L330.697,215.066Z" style="fill:rgb(102,102,102);"/>
            </g>
            <g transform="matrix(0.189442,0.253959,0.138122,-0.103032,759.227,504.918)">
                <path d="M330.697,215.066L330.697,189.849L593.427,189.849L593.427,166.434L613.019,202.458L593.427,238.481L593.427,215.066L330.697,215.066Z" style="fill:rgb(102,102,102);"/>
            </g>
            <g transform="matrix(6.12323e-17,-1,1,6.12323e-17,207.838,1271.72)">
                <g>
                    <text x="706.351px" y="478.218px" style="font-family:'ArialMT', 'Arial', sans-serif;font-size:37.5px;">Körper-</text>
                    <text x="719.882px" y="516.944px" style="font-family:'ArialMT', 'Arial', sans-serif;font-size:37.5px;">zellen</text>
                </g>
            </g>
            <g transform="matrix(6.12323e-17,-1,1,6.12323e-17,83.8698,1444.88)">
                <text x="672.194px" y="603.185px" style="font-family:'ArialMT', 'Arial', sans-serif;font-size:37.5px;">Gameten</text>
            </g>
        </g>
    </g>
</svg>
