<?xml version="1.0" encoding="UTF-8" standalone="no"?>
<!-- Created with Inkscape (http://www.inkscape.org/) -->
<svg
   xmlns:dc="http://purl.org/dc/elements/1.1/"
   xmlns:cc="http://web.resource.org/cc/"
   xmlns:rdf="http://www.w3.org/1999/02/22-rdf-syntax-ns#"
   xmlns:svg="http://www.w3.org/2000/svg"
   xmlns="http://www.w3.org/2000/svg"
   xmlns:xlink="http://www.w3.org/1999/xlink"
   xmlns:sodipodi="http://sodipodi.sourceforge.net/DTD/sodipodi-0.dtd"
   xmlns:inkscape="http://www.inkscape.org/namespaces/inkscape"
   width="580"
   height="648.75"
   id="svg4566"
   sodipodi:version="0.32"
   inkscape:version="0.45pre1"
   sodipodi:docbase="C:\Documents and Settings\Mithril\Рабочий стол"
   sodipodi:docname="neural1.svg"
   inkscape:output_extension="org.inkscape.output.svg.inkscape"
   version="1.0"
   sodipodi:modified="true">
  <sodipodi:namedview
     id="base"
     pagecolor="#e3f4fe"
     bordercolor="#666666"
     borderopacity="1.0"
     gridtolerance="10000"
     guidetolerance="10"
     objecttolerance="10"
     inkscape:pageopacity="0.29803922"
     inkscape:pageshadow="2"
     inkscape:zoom="1.979899"
     inkscape:cx="401.6523"
     inkscape:cy="509.22455"
     inkscape:document-units="px"
     inkscape:current-layer="layer1"
     inkscape:window-width="1680"
     inkscape:window-height="1003"
     inkscape:window-x="-4"
     inkscape:window-y="-4"
     width="580px"
     height="648.75px"
     showguides="true"
     inkscape:guide-bbox="true" />
  <defs
     id="defs4568">
    <linearGradient
       id="linearGradient14678">
      <stop
         style="stop-color:#ffe622;stop-opacity:0.29803923;"
         offset="0"
         id="stop14680" />
      <stop
         style="stop-color:#000000;stop-opacity:0;"
         offset="1"
         id="stop14682" />
    </linearGradient>
    <linearGradient
       id="linearGradient11705">
      <stop
         style="stop-color:#0516ff;stop-opacity:1;"
         offset="0"
         id="stop11707" />
      <stop
         style="stop-color:#ffffff;stop-opacity:0;"
         offset="1"
         id="stop11709" />
    </linearGradient>
    <marker
       style="overflow:visible"
       orient="auto"
       id="Arrow2Mend"
       refY="0"
       inkscape:stockid="Arrow2Mend"
       refX="0">
      <path
         style="font-size:12px;fill-rule:evenodd;stroke-width:0.625;stroke-linejoin:round"
         transform="scale(-0.6,-0.6)"
         d="M 8.7185878,4.0337352 L -2.2072895,0.016013256 L 8.7185884,-4.0017078 C 6.97309,-1.6296469 6.9831476,1.6157441 8.7185878,4.0337352 z "
         id="path3482" />
    </marker>
    <marker
       style="overflow:visible"
       orient="auto"
       id="Arrow2Lend"
       refY="0"
       inkscape:stockid="Arrow2Lend"
       refX="0">
      <path
         style="font-size:12px;fill-rule:evenodd;stroke-width:0.625;stroke-linejoin:round"
         transform="matrix(-1.1,0,0,-1.1,-1.1,0)"
         d="M 8.7185878,4.0337352 L -2.2072895,0.016013256 L 8.7185884,-4.0017078 C 6.97309,-1.6296469 6.9831476,1.6157441 8.7185878,4.0337352 z "
         id="path3488" />
    </marker>
    <marker
       style="overflow:visible"
       orient="auto"
       id="Arrow1Lend"
       refY="0"
       inkscape:stockid="Arrow1Lend"
       refX="0">
      <path
         style="fill-rule:evenodd;stroke:#000000;stroke-width:1pt;marker-start:none"
         transform="matrix(-0.8,0,0,-0.8,-10,0)"
         d="M 0,0 L 5,-5 L -12.5,0 L 5,5 L 0,0 z "
         id="path3506" />
    </marker>
    <marker
       orient="auto"
       id="RazorWire"
       refY="0"
       inkscape:stockid="RazorWire"
       refX="0">
       style=&quot;overflow:visible&quot;&gt;
      <path
   style="fill:#808080;fill-opacity:1;fill-rule:evenodd;stroke:#000000;stroke-width:0.1pt"
   d="M 0.022727273,-0.74009011 L 0.022727273,0.69740989 L -7.7585227,3.0099099 L 10.678977,3.0099099 L 3.4914773,0.69740989 L 3.4914773,-0.74009011 L 10.741477,-2.8963401 L -7.7272727,-2.8963401 L 0.022727273,-0.74009011 z "
   transform="scale(0.8,0.8)"
   id="path3339" />
</marker>
    <linearGradient
       id="linearGradient16475">
      <stop
         offset="0"
         style="stop-color:#ff8bfe;stop-opacity:1;"
         id="stop16477" />
      <stop
         offset="1"
         style="stop-color:#ffffff;stop-opacity:0;"
         id="stop16479" />
    </linearGradient>
    <linearGradient
       id="linearGradient12555">
      <stop
         offset="0"
         style="stop-color:#ff1d38;stop-opacity:1;"
         id="stop12557" />
      <stop
         offset="1"
         style="stop-color:#ff1d38;stop-opacity:0;"
         id="stop12559" />
    </linearGradient>
    <linearGradient
       id="linearGradient11578">
      <stop
         offset="0"
         style="stop-color:#000000;stop-opacity:0.89999998;"
         id="stop11580" />
      <stop
         offset="0.5"
         style="stop-color:#000000;stop-opacity:0.49803922;"
         id="stop12566" />
      <stop
         offset="0.75"
         style="stop-color:#000000;stop-opacity:0.24705882;"
         id="stop12568" />
      <stop
         offset="0.875"
         style="stop-color:#000000;stop-opacity:0.12156863;"
         id="stop12570" />
      <stop
         offset="0.9375"
         style="stop-color:#000000;stop-opacity:0.05882353;"
         id="stop12572" />
      <stop
         offset="0.96875"
         style="stop-color:#000000;stop-opacity:0.02745098;"
         id="stop12574" />
      <stop
         offset="1"
         style="stop-color:#000000;stop-opacity:0;"
         id="stop11582" />
    </linearGradient>
    <marker
       style="overflow:visible"
       orient="auto"
       id="Arrow2Mendm"
       refY="0"
       inkscape:stockid="Arrow2Mendm"
       refX="0">
      <path
         style="font-size:12px;fill:#c10000;fill-rule:evenodd;stroke:#c10000;stroke-width:0.625;stroke-linejoin:round"
         transform="scale(-0.6,-0.6)"
         d="M 8.7185878,4.0337352 L -2.2072895,0.016013256 L 8.7185884,-4.0017078 C 6.97309,-1.6296469 6.9831476,1.6157441 8.7185878,4.0337352 z "
         id="path3224" />
    </marker>
    <marker
       style="overflow:visible"
       orient="auto"
       id="Arrow2Mendmt"
       refY="0"
       inkscape:stockid="Arrow2Mendmt"
       refX="0">
      <path
         style="font-size:12px;fill:#4045eb;fill-rule:evenodd;stroke:#4045eb;stroke-width:0.625;stroke-linejoin:round"
         transform="scale(-0.6,-0.6)"
         d="M 8.7185878,4.0337352 L -2.2072895,0.016013256 L 8.7185884,-4.0017078 C 6.97309,-1.6296469 6.9831476,1.6157441 8.7185878,4.0337352 z "
         id="path4355" />
    </marker>
    <marker
       style="overflow:visible"
       orient="auto"
       id="Arrow2MendmE"
       refY="0"
       inkscape:stockid="Arrow2MendmE"
       refX="0">
      <path
         style="font-size:12px;fill:#c1004a;fill-rule:evenodd;stroke:#c1004a;stroke-width:0.625;stroke-linejoin:round"
         transform="scale(-0.6,-0.6)"
         d="M 8.7185878,4.0337352 L -2.2072895,0.016013256 L 8.7185884,-4.0017078 C 6.97309,-1.6296469 6.9831476,1.6157441 8.7185878,4.0337352 z "
         id="path6476" />
    </marker>
    <linearGradient
       inkscape:collect="always"
       xlink:href="#linearGradient12555"
       id="linearGradient7703"
       x1="413.83871"
       y1="381.8912"
       x2="109.43525"
       y2="381.8912"
       gradientUnits="userSpaceOnUse" />
    <linearGradient
       inkscape:collect="always"
       xlink:href="#linearGradient12555"
       id="linearGradient8714"
       x1="480.0824"
       y1="608.65186"
       x2="359.98346"
       y2="760.9281"
       gradientUnits="userSpaceOnUse" />
    <linearGradient
       inkscape:collect="always"
       xlink:href="#linearGradient11705"
       id="linearGradient11715"
       x1="364.69901"
       y1="346.51791"
       x2="771.18707"
       y2="346.51791"
       gradientUnits="userSpaceOnUse" />
    <linearGradient
       inkscape:collect="always"
       xlink:href="#linearGradient14678"
       id="linearGradient14684"
       x1="522.71429"
       y1="584.35461"
       x2="647.96326"
       y2="584.35461"
       gradientUnits="userSpaceOnUse" />
    <linearGradient
       inkscape:collect="always"
       xlink:href="#linearGradient11705"
       id="linearGradient6364"
       gradientUnits="userSpaceOnUse"
       gradientTransform="translate(-12.626906,-8.315572)"
       spreadMethod="pad"
       x1="405.58136"
       y1="179.06712"
       x2="712.1524"
       y2="188.66356" />
    <linearGradient
       inkscape:collect="always"
       xlink:href="#linearGradient12555"
       id="linearGradient2383"
       gradientUnits="userSpaceOnUse"
       x1="413.83871"
       y1="381.8912"
       x2="109.43525"
       y2="381.8912" />
    <linearGradient
       inkscape:collect="always"
       xlink:href="#linearGradient12555"
       id="linearGradient2390"
       gradientUnits="userSpaceOnUse"
       x1="480.0824"
       y1="608.65186"
       x2="359.98346"
       y2="760.9281" />
  </defs>
  <metadata
     id="metadata4571">
    <rdf:RDF>
      <cc:Work
         rdf:about="">
        <dc:format>image/svg+xml</dc:format>
        <dc:type
           rdf:resource="http://purl.org/dc/dcmitype/StillImage" />
      </cc:Work>
    </rdf:RDF>
  </metadata>
  <g
     inkscape:label="Layer 1"
     id="layer1"
     inkscape:groupmode="layer"
     transform="translate(-94.071792,-109.37283)">
    <g
       id="g3245">
      <path
         style="fill:url(#linearGradient14684);fill-opacity:1;fill-rule:evenodd;stroke:#000000;stroke-width:1px;stroke-linecap:butt;stroke-linejoin:miter;stroke-opacity:1"
         id="path5566"
         sodipodi:nodetypes="cccccccccc"
         d="M 572.85714,528.79075 C 596.92,528.91369 602.71126,537.34191 612.85714,543.79075 C 623.3563,552.329 632.85057,562.31876 631.42857,588.07647 C 631.65945,610.40451 622.59581,615.35588 615.29586,623.87741 C 604.27249,634.7211 597.34273,636.54051 588.95395,638.16313 C 572.70223,641.77538 566.13844,638.92902 557.52538,637.44884 C 541.64539,629.46473 531.8666,619.75447 526.42857,605.21933 C 521.86997,590.96731 522.89801,578.94996 525,567.36218 C 526.62922,556.35023 532.43718,547.10688 542.14286,538.79075 C 558.33545,526.52567 564.18917,529.7689 572.85714,528.79075 z " />
      <path
         style="fill:none;fill-rule:evenodd;stroke:#000000;stroke-width:1px;stroke-linecap:butt;stroke-linejoin:miter;stroke-opacity:1"
         id="path2181"
         sodipodi:nodetypes="cccc"
         d="M 581.34279,529.60824 C 573.57395,549.37045 573.99521,566.40262 578.31233,582.13617 C 575.02812,611.52327 587.76944,621.53445 584.87832,636.68441 L 585.63594,639.20979" />
      <path
         style="fill:none;fill-rule:evenodd;stroke:#000000;stroke-width:1px;stroke-linecap:butt;stroke-linejoin:miter;stroke-opacity:1"
         id="path2183"
         sodipodi:nodetypes="cccc"
         d="M 523.00648,582.13617 C 548.03007,588.30186 570.58453,592.18836 578.31233,582.38871 C 596.97244,574.05182 613.37935,585.99374 630.84026,588.44963 L 631.0928,588.44963" />
      <path
         style="fill:none;fill-opacity:1;fill-rule:evenodd;stroke:#000000;stroke-width:1.18696427;stroke-linecap:butt;stroke-linejoin:miter;stroke-miterlimit:4;stroke-dasharray:1.18696427, 7.12178564;stroke-dashoffset:0;stroke-opacity:1"
         id="path6068"
         sodipodi:nodetypes="cccccccccc"
         d="M 571.42415,518.0592 C 599.93201,518.20541 606.79307,528.2283 618.81316,535.89733 C 631.25177,546.05107 642.49988,557.93097 640.81519,588.56225 C 641.08872,615.11494 630.3508,621.00314 621.70237,631.13702 C 608.6427,644.03242 600.43285,646.19608 590.49445,648.12569 C 571.24063,652.42142 563.46434,649.03652 553.26023,647.27628 C 534.44682,637.78149 522.86163,626.23399 516.41906,608.94867 C 511.01837,592.00006 512.23631,577.70891 514.72659,563.92866 C 516.65677,550.83316 523.5376,539.84088 535.03617,529.95126 C 554.21996,515.36557 561.155,519.22244 571.42415,518.0592 z " />
    </g>
    <path
       d="M 344.46202,624.56258 C 348.74265,617.10471 354.55193,615.76148 360.11938,613.4509 C 367.52717,611.76299 374.93495,612.48859 382.34274,613.4509 C 391.76487,615.84156 400.79072,618.70777 409.52412,621.92492 C 438.81272,632.71404 464.81222,647.4501 491.43921,661.43315 C 508.27855,674.90185 514.4997,688.37055 511.13719,701.83925 C 509.28809,710.70709 505.36539,718.88374 495.47982,725.07276 C 487.89683,729.30226 481.53601,729.86528 475.27677,730.12352 C 455.0625,728.91134 433.10116,722.45798 411.63716,717.49661 C 395.81144,713.21323 379.98571,710.48891 364.15999,699.81894 C 351.267,688.75612 348.22951,672.76556 342.94679,657.89761 C 338.21812,624.80418 343.10126,632.08039 344.46202,624.56258 z "
       sodipodi:nodetypes="cccscccccccc"
       id="path5097"
       style="fill:url(#linearGradient2390);fill-opacity:1;fill-rule:evenodd;stroke:#000000;stroke-width:1px;stroke-linecap:butt;stroke-linejoin:miter;stroke-opacity:1" />
    <path
       d="M 329.7775,612.63443 C 334.71039,603.39647 341.40485,601.73263 347.82064,598.87056 C 356.35717,596.77977 364.8937,597.67856 373.43024,598.87056 C 384.28804,601.83183 394.29747,606.56683 404.75334,609.3672 C 449.03535,621.22716 480.7744,636.77327 503.19072,655.275 C 533.61638,671.95848 530.6945,688.64195 525.89015,705.32543 C 523.75929,716.30989 515.19827,729.46864 503.8064,737.13489 C 495.06797,742.37392 487.73793,743.07131 480.52494,743.39119 C 457.23056,741.88969 434.95335,740.96708 410.21881,734.8215 C 391.98168,729.51574 367.6836,718.05995 349.44646,704.84321 C 334.58893,691.13986 334.11906,672.34275 328.03139,653.92604 C 322.5822,612.9337 328.2094,621.94663 329.7775,612.63443 z "
       sodipodi:nodetypes="cccscccccccc"
       id="path8008"
       style="fill:none;fill-rule:evenodd;stroke:#000000;stroke-width:1.19475007;stroke-linecap:butt;stroke-linejoin:miter;stroke-miterlimit:4;stroke-dasharray:1.19475007, 7.16850042;stroke-dashoffset:0;stroke-opacity:1" />
    <path
       style="fill:#ffffff;fill-rule:evenodd;stroke:none;stroke-width:1px;stroke-linecap:butt;stroke-linejoin:miter;stroke-opacity:1;fill-opacity:1"
       d="M 0.66832869,0.59436528 L 0.54790572,142.67857 C 76.869715,101.91163 306.22696,29.307369 579.82143,62.857146 L 580,0.17857541 L 0.66832869,0.59436528 z "
       id="path3289"
       transform="translate(94.071792,109.37283)"
       sodipodi:nodetypes="ccccc" />
    <g
       id="g3261">
      <path
         style="fill:none;fill-rule:evenodd;stroke:#000000;stroke-width:1.00699031;stroke-linecap:butt;stroke-linejoin:miter;stroke-miterlimit:4;stroke-dasharray:1.00699031, 6.04194188;stroke-dashoffset:0;stroke-opacity:1"
         id="path9953"
         sodipodi:nodetypes="ccc"
         d="M 98.800184,262.81467 C 321.17252,168.44959 480.68368,166.71109 677.56854,184.24965 L 679.01727,184.96388" />
      <path
         style="fill:none;fill-rule:evenodd;stroke:#000000;stroke-width:1;stroke-linecap:butt;stroke-linejoin:miter;stroke-miterlimit:4;stroke-dasharray:none;stroke-opacity:1"
         id="path4590"
         sodipodi:nodetypes="ccc"
         d="M 95.582947,250.71832 C 284.87809,166.04077 475.75807,153.93007 670.81313,171.65297 L 674.27963,172.36715" />
      <path
         style="fill:none;fill-rule:evenodd;stroke:#000000;stroke-width:2.0121572;stroke-linecap:butt;stroke-linejoin:miter;stroke-miterlimit:4;stroke-dasharray:none;stroke-opacity:1"
         id="path2300"
         sodipodi:nodetypes="ccc"
         d="M 94.637229,245.08204 C 283.93237,160.40449 474.81235,148.29379 669.86741,166.01669 L 673.33391,166.73087" />
    </g>
    <path
       d="M 135,487.36218 C 126.03404,478.0905 130.14921,463.66592 132.40618,452.45171 C 137.70586,440.41691 146.24877,433.55357 152.96842,424.00608 C 163.28555,409.7119 174.43756,395.95422 184.21937,381.31603 C 198.05101,356.18856 204.0255,332.48966 225.71428,306.64791 C 249.20027,282.4429 289.99105,260.62068 328.61721,257.01223 C 340.74556,256.8986 357.86747,255.10399 363.44672,268.87098 C 373.0097,292.0283 369.11257,317.80763 370.52985,342.38705 C 370.67868,380.55821 377.66433,418.65583 376.49343,456.82702 C 375.44037,472.00572 373.76561,491.88652 357.49943,498.47142 C 336.14659,505.35382 313.3375,500.84158 291.35395,501.15384 C 256.13987,499.76163 221.12653,504.40924 186.0969,506.9058 C 172.09908,506.20414 157.36122,503.98585 145.19557,496.68461 C 141.56191,493.83349 138.89166,489.92319 135,487.36218 z "
       sodipodi:nodetypes="cccccccccccccc"
       id="path4584"
       style="fill:url(#linearGradient2383);fill-opacity:1;fill-rule:evenodd;stroke:#000000;stroke-width:1;stroke-linecap:butt;stroke-linejoin:miter;stroke-miterlimit:4;stroke-dasharray:none;stroke-opacity:1" />
    <path
       d="M 121.17292,495.93976 C 110.96557,485.62389 114.64035,469.57478 117.20982,457.09761 C 123.24327,443.70742 127.91825,436.07112 135.56829,425.44837 C 147.3139,409.54435 160.00998,394.23725 171.14615,377.95047 C 186.89289,349.9931 196.72505,323.62518 221.4168,294.87308 C 248.1546,267.94205 291.5627,243.66217 335.53693,239.64732 C 349.34454,239.5209 368.83711,237.52417 375.18885,252.84163 C 386.07588,278.60698 381.63918,307.28962 383.25269,334.63724 C 383.42212,377.10731 391.37498,419.49556 390.04197,461.96567 C 388.84311,478.85383 386.93646,500.97365 368.4181,508.30015 C 344.10882,515.95766 318.14164,510.93724 293.11431,511.28467 C 253.02457,509.73567 213.16338,514.9067 173.28364,517.68442 C 157.34772,516.90375 145.62006,514.43562 131.76999,506.3121 C 127.63321,503.13988 125.60341,498.7892 121.17292,495.93976 z "
       sodipodi:nodetypes="cccccccccccccc"
       id="path8011"
       style="fill:none;fill-opacity:1;fill-rule:evenodd;stroke:#000000;stroke-width:1.12546563;stroke-linecap:butt;stroke-linejoin:miter;stroke-miterlimit:4;stroke-dasharray:1.12546563, 4.50186253;stroke-dashoffset:0;stroke-opacity:1" />
    <g
       id="g3192">
      <path
         id="path5572"
         sodipodi:nodetypes="ccccccccc"
         d="M 289.28571,353.79075 C 284.82106,355.21786 280.6581,357.8517 277.14286,363.07647 C 275.08528,371.07398 270.1207,383.16617 264.28571,390.21932 C 254.81647,403.12227 245.78483,401.43632 243.92858,417.71933 C 243.17295,421.51241 240.65046,426.38757 250.71429,429.50504 C 274.80605,424.69899 285.82666,425.10695 300,428.07646 C 308.3887,428.9186 314.4014,425.79711 314.64286,420.21932 C 316.12865,401.01055 310.16169,386.05512 308.92857,375.21932 C 305.45372,361.16085 298.45731,355.50626 289.28571,353.79075 z "
         style="fill:#ffffff;fill-opacity:1;fill-rule:evenodd;stroke:#000000;stroke-width:1px;stroke-linecap:butt;stroke-linejoin:miter;stroke-opacity:1" />
      <path
         id="path2299"
         sodipodi:nodetypes="cc"
         d="M 239.40615,424.55237 C 212.71122,438.20112 191.47982,452.62594 173.797,463.89756"
         style="fill:none;fill-rule:evenodd;stroke:#000000;stroke-width:1px;stroke-linecap:butt;stroke-linejoin:miter;stroke-opacity:1" />
      <path
         id="path2301"
         sodipodi:nodetypes="cc"
         d="M 211.66757,472.99909 C 221.00146,458.7085 232.42808,448.29394 244.45692,431.62344"
         style="fill:none;fill-rule:evenodd;stroke:#000000;stroke-width:1px;stroke-linecap:butt;stroke-linejoin:miter;stroke-opacity:1" />
      <path
         id="path2303"
         sodipodi:nodetypes="cc"
         d="M 263.64982,431.11837 C 255.87208,445.30482 244.42712,464.38089 240.41631,473.54477"
         style="fill:none;fill-rule:evenodd;stroke:#000000;stroke-width:1px;stroke-linecap:butt;stroke-linejoin:miter;stroke-opacity:1" />
      <path
         id="path2305"
         sodipodi:nodetypes="cc"
         d="M 273.75134,434.14882 C 267.32693,447.78588 265.7505,461.42294 263.14474,475.06"
         style="fill:none;fill-rule:evenodd;stroke:#000000;stroke-width:1px;stroke-linecap:butt;stroke-linejoin:miter;stroke-opacity:1" />
      <path
         id="path2309"
         sodipodi:nodetypes="cc"
         d="M 299.00515,434.14883 C 300.33851,447.22919 308.52891,459.70747 313.65236,471.52447"
         style="fill:none;fill-rule:evenodd;stroke:#000000;stroke-width:1px;stroke-linecap:butt;stroke-linejoin:miter;stroke-opacity:1" />
      <path
         id="path2311"
         sodipodi:nodetypes="cc"
         d="M 313.65236,429.09806 C 313.62608,441.96008 334.13002,465.73614 335.37065,462.93817"
         style="fill:none;fill-rule:evenodd;stroke:#000000;stroke-width:1px;stroke-linecap:butt;stroke-linejoin:miter;stroke-opacity:1" />
      <path
         id="path2313"
         d="M 316.17775,420.00669 L 350.52293,444.25035 L 350.52293,444.25035 L 347.49248,442.23004"
         style="fill:none;fill-rule:evenodd;stroke:#000000;stroke-width:1px;stroke-linecap:butt;stroke-linejoin:miter;stroke-opacity:1" />
      <path
         id="path2315"
         sodipodi:nodetypes="cc"
         d="M 318.17775,406.8544 C 330.59613,411.43558 354.25429,418.51464 357.5737,426.0473"
         style="fill:none;fill-rule:evenodd;stroke:#000000;stroke-width:1px;stroke-linecap:butt;stroke-linejoin:miter;stroke-opacity:1" />
      <path
         id="path2317"
         sodipodi:nodetypes="cc"
         d="M 318.70313,395.76303 C 333.44617,395.31528 344.27231,399.38147 355.06862,402.8341"
         style="fill:none;fill-rule:evenodd;stroke:#000000;stroke-width:1px;stroke-linecap:butt;stroke-linejoin:miter;stroke-opacity:1" />
      <path
         id="path2319"
         sodipodi:nodetypes="ccccc"
         d="M 315.1676,382.63104 C 335.75343,385.48883 342.43182,382.38629 354.56354,381.62089 L 354.56354,381.62089 L 351.53309,381.62089 L 351.53309,381.62089"
         style="fill:none;fill-rule:evenodd;stroke:#000000;stroke-width:1px;stroke-linecap:butt;stroke-linejoin:miter;stroke-opacity:1" />
      <path
         id="path2321"
         sodipodi:nodetypes="cc"
         d="M 313.65237,374.04475 C 328.81904,371.54095 340.21797,363.38553 350.01786,352.83155"
         style="fill:none;fill-rule:evenodd;stroke:#000000;stroke-width:1px;stroke-linecap:butt;stroke-linejoin:miter;stroke-opacity:1" />
      <path
         id="path2323"
         sodipodi:nodetypes="cccc"
         d="M 311.12698,360.40769 C 324.33521,348.56117 339.92256,338.30073 349.51278,324.0422 L 349.51278,324.0422 L 350.01786,322.02189"
         style="fill:none;fill-rule:evenodd;stroke:#000000;stroke-width:1px;stroke-linecap:butt;stroke-linejoin:miter;stroke-opacity:1" />
      <path
         id="path2325"
         sodipodi:nodetypes="ccc"
         d="M 302.03561,352.32647 C 315.61489,334.86139 319.8458,313.65696 327.28943,293.73762 L 326.27927,291.71731"
         style="fill:none;fill-rule:evenodd;stroke:#000000;stroke-width:1px;stroke-linecap:butt;stroke-linejoin:miter;stroke-opacity:1" />
      <path
         id="path2327"
         sodipodi:nodetypes="cc"
         d="M 294.45946,348.79093 C 291.13469,332.98578 291.84108,311.13389 290.92393,291.71731"
         style="fill:none;fill-rule:evenodd;stroke:#000000;stroke-width:1px;stroke-linecap:butt;stroke-linejoin:miter;stroke-opacity:1" />
      <path
         id="path2329"
         sodipodi:nodetypes="cc"
         d="M 285.36809,351.31632 C 277.25647,343.84659 273.86841,319.8444 268.1955,303.83915"
         style="fill:none;fill-rule:evenodd;stroke:#000000;stroke-width:1px;stroke-linecap:butt;stroke-linejoin:miter;stroke-opacity:1" />
      <path
         id="path2331"
         sodipodi:nodetypes="cc"
         d="M 273.75134,359.90261 C 263.40368,349.58744 256.49801,337.55126 251.52798,324.54727"
         style="fill:none;fill-rule:evenodd;stroke:#000000;stroke-width:1px;stroke-linecap:butt;stroke-linejoin:miter;stroke-opacity:1" />
      <path
         id="path2333"
         d="M 267.69043,376.57013 L 235.36554,341.21479"
         style="fill:none;fill-rule:evenodd;stroke:#000000;stroke-width:1px;stroke-linecap:butt;stroke-linejoin:miter;stroke-opacity:1" />
      <path
         id="path2335"
         sodipodi:nodetypes="cc"
         d="M 260.61936,385.6615 C 248.12603,378.62522 229.39323,367.11411 220.55988,356.41784"
         style="fill:none;fill-rule:evenodd;stroke:#000000;stroke-width:1px;stroke-linecap:butt;stroke-linejoin:miter;stroke-opacity:1" />
      <path
         id="path2337"
         d="M 249.50768,393.74272 L 209.10158,372.52952"
         style="fill:none;fill-rule:evenodd;stroke:#000000;stroke-width:1px;stroke-linecap:butt;stroke-linejoin:miter;stroke-opacity:1" />
      <path
         id="path2339"
         sodipodi:nodetypes="cc"
         d="M 246.47722,402.83409 C 232.78432,400.2337 215.21895,396.40543 197.83145,396.26811"
         style="fill:none;fill-rule:evenodd;stroke:#000000;stroke-width:1px;stroke-linecap:butt;stroke-linejoin:miter;stroke-opacity:1" />
      <path
         id="path2341"
         sodipodi:nodetypes="cc"
         d="M 238.90108,413.94577 C 222.65662,418.04395 193.95563,430.26633 173.76111,431.73113"
         style="fill:none;fill-rule:evenodd;stroke:#000000;stroke-width:1px;stroke-linecap:butt;stroke-linejoin:miter;stroke-opacity:1" />
      <path
         id="path2343"
         sodipodi:nodetypes="cc"
         d="M 288.90363,432.63359 C 286.70067,448.07415 286.40379,458.74953 286.88332,467.48386"
         style="fill:none;fill-rule:evenodd;stroke:#000000;stroke-width:1px;stroke-linecap:butt;stroke-linejoin:miter;stroke-opacity:1" />
    </g>
    <path
       style="fill:none;fill-rule:evenodd;stroke:#c1004a;stroke-width:5.91514015;stroke-linecap:butt;stroke-linejoin:miter;marker-start:none;marker-mid:none;marker-end:url(#Arrow2MendmE);stroke-miterlimit:19;stroke-dasharray:47.32112038, 5.91514005;stroke-dashoffset:0;stroke-opacity:1"
       d="M 489.6307,188.46524 C 463.62631,189.45218 372.3315,193.57811 294.43763,215.01777 C 208.12242,238.77534 196.74109,247.18397 170.63154,258.7306"
       sodipodi:nodetypes="csc"
       id="path2347" />
    <path
       style="fill:none;fill-rule:evenodd;stroke:#4045eb;stroke-width:5.93555975;stroke-linecap:butt;stroke-linejoin:miter;marker-start:none;marker-mid:none;marker-end:url(#Arrow2Mendmt);stroke-miterlimit:19;stroke-dasharray:47.48447568, 5.93555946;stroke-dashoffset:0;stroke-opacity:1"
       d="M 492.2226,196.6363 C 472.15715,202.81291 454.01483,211.49631 435.21809,250.62927 C 418.15786,288.7321 432.15401,384.12498 434.8381,423.79615 C 440.92529,513.7652 440.05057,540.98653 441.54656,589.77195"
       sodipodi:nodetypes="ccsc"
       id="path4325" />
    <path
       style="fill:none;fill-rule:evenodd;stroke:#4045eb;stroke-width:5.91514015;stroke-linecap:butt;stroke-linejoin:miter;marker-start:none;marker-mid:none;marker-end:url(#Arrow2Mendmt);stroke-miterlimit:19;stroke-dasharray:47.32112038, 5.91514005;stroke-dashoffset:0;stroke-opacity:1"
       d="M 439.65015,504.73943 C 455.46713,520.35887 476.32423,529.02673 543.60246,514.33927"
       sodipodi:nodetypes="cc"
       id="path6607" />
    <path
       style="fill:none;fill-rule:evenodd;stroke:#4045eb;stroke-width:5.91514015;stroke-linecap:butt;stroke-linejoin:miter;marker-start:none;marker-mid:none;marker-end:url(#Arrow2Mendmt);stroke-miterlimit:19;stroke-dasharray:47.32112038, 5.91514005;stroke-dashoffset:0;stroke-opacity:1"
       d="M 438.37094,503.71862 C 427.21722,521.47119 407.41122,531.30673 385.23605,538.62245 C 369.59954,543.78103 356.35647,544.47839 336.99544,547.53282"
       sodipodi:nodetypes="csc"
       id="path6609" />
    <g
       id="g6366">
      <path
         style="fill:url(#linearGradient11715);fill-opacity:1;fill-rule:evenodd;stroke:#000000;stroke-width:1px;stroke-linecap:butt;stroke-linejoin:miter;stroke-opacity:1"
         id="path5562"
         sodipodi:nodetypes="ccsccscccc"
         d="M 539.28571,198.07647 C 561.09131,200.43025 599.43608,186.54912 625,260.93361 C 628.47915,264.73695 636.32166,302.10649 639.80285,349.51843 C 642.29322,383.43582 647.86675,421.77826 632.85714,458.07647 C 619.50601,475.09138 609.53043,490.91154 570.71429,494.95935 C 550.40517,493.77294 538.67554,494.916 525.39759,492.55182 C 515.37721,490.76765 503.82275,488.72546 490.71429,472.36218 C 474.46051,450.48356 460.71956,412.56288 455.8876,371.6479 C 453.88136,316.28523 462.85862,272.94978 476.42857,241.6479 C 490.90403,219.99948 506.14706,199.19538 539.28571,198.07647 z " />
      <path
         style="fill:#ffffff;fill-opacity:1;fill-rule:evenodd;stroke:#000000;stroke-width:1px;stroke-linecap:butt;stroke-linejoin:miter;stroke-opacity:1"
         id="path5575"
         sodipodi:nodetypes="ccsccccccccc"
         d="M 537.85715,245.93361 C 533.28818,249.7286 534.3503,294.44936 533.92857,313.43361 C 535.15886,326.96683 534.00597,390.68716 533.31146,395.21933 C 532.10309,403.10472 528.91041,418.47696 530,428.43361 C 530.33067,444.32162 536.61956,451.1666 541.42857,455.21932 C 554.59143,458.92635 562.27785,456.47239 567.85714,451.6479 C 571.78644,442.36218 571.99114,434.50504 572.14285,425.21932 C 565.95237,404.79502 559.7619,403.95166 553.57142,394.50504 L 551.07142,381.6479 C 548.69716,352.35772 546.10466,323.21304 549.28571,290.21932 L 550,259.50504 C 549.19196,240.44471 543.11959,246.24158 537.85715,245.93361 z " />
      <path
         style="fill:none;fill-rule:evenodd;stroke:#000000;stroke-width:1.10129118;stroke-linecap:butt;stroke-linejoin:miter;stroke-miterlimit:4;stroke-dasharray:1.10129118, 6.60774708;stroke-dashoffset:0;stroke-opacity:1"
         id="path8982"
         sodipodi:nodetypes="ccsccscccc"
         d="M 539.38609,185.77323 C 563.76723,188.32644 606.64103,173.26926 635.22439,253.95576 C 639.11448,258.08132 647.8833,298.61689 651.77566,350.04567 C 654.56018,386.83661 660.79202,428.4275 644.00957,467.80096 C 629.08149,486.25742 617.92766,503.41789 574.52682,507.80864 C 551.81891,506.52171 538.70386,507.76162 523.8576,505.19714 C 512.65368,503.26181 499.73448,501.0466 485.07773,483.29699 C 466.90417,459.56477 451.54023,418.43137 446.13755,374.04999 C 443.89435,313.99688 453.93194,266.98996 469.10468,233.03613 C 485.28989,209.55361 502.33333,186.98694 539.38609,185.77323 z " />
      <path
         sodipodi:nodetypes="ccc"
         id="path6616"
         d="M 513.66257,219.99649 C 519.25664,229.28686 523.49171,239.48321 532.85547,246.26045 L 532.85547,246.26045"
         style="fill:none;fill-rule:evenodd;stroke:#000000;stroke-width:1px;stroke-linecap:butt;stroke-linejoin:miter;stroke-opacity:1" />
      <path
         sodipodi:nodetypes="cc"
         id="path6618"
         d="M 533.36054,210.40004 C 532.92762,222.61807 535.8071,231.5237 537.90623,241.20969"
         style="fill:none;fill-rule:evenodd;stroke:#000000;stroke-width:1px;stroke-linecap:butt;stroke-linejoin:miter;stroke-opacity:1" />
      <path
         sodipodi:nodetypes="cc"
         id="path6624"
         d="M 545.98745,240.70461 C 548.82135,230.9398 549.97037,221.175 551.54329,211.41019"
         style="fill:none;fill-rule:evenodd;stroke:#000000;stroke-width:1px;stroke-linecap:butt;stroke-linejoin:miter;stroke-opacity:1" />
      <path
         sodipodi:nodetypes="cc"
         id="path6626"
         d="M 555.07882,247.77568 C 565.11462,236.32728 570.01207,224.87889 574.7768,213.43049"
         style="fill:none;fill-rule:evenodd;stroke:#000000;stroke-width:1px;stroke-linecap:butt;stroke-linejoin:miter;stroke-opacity:1" />
      <path
         sodipodi:nodetypes="cc"
         id="path6628"
         d="M 557.60421,260.40259 C 572.67152,255.65915 583.86364,244.45708 594.97985,233.12847"
         style="fill:none;fill-rule:evenodd;stroke:#000000;stroke-width:1px;stroke-linecap:butt;stroke-linejoin:miter;stroke-opacity:1" />
      <path
         sodipodi:nodetypes="cc"
         id="path6630"
         d="M 558.10928,274.03965 C 574.63386,272.83812 589.86936,270.66977 601.04076,265.45335"
         style="fill:none;fill-rule:evenodd;stroke:#000000;stroke-width:1px;stroke-linecap:butt;stroke-linejoin:miter;stroke-opacity:1" />
      <path
         sodipodi:nodetypes="cc"
         id="path6632"
         d="M 555.5839,292.72747 L 603.56615,289.19193"
         style="fill:none;fill-rule:evenodd;stroke:#000000;stroke-width:1px;stroke-linecap:butt;stroke-linejoin:miter;stroke-opacity:1" />
      <path
         sodipodi:nodetypes="cc"
         id="path6634"
         d="M 556.59405,307.37468 C 574.77234,305.36775 591.76557,306.91599 608.61691,308.88991"
         style="fill:none;fill-rule:evenodd;stroke:#000000;stroke-width:1px;stroke-linecap:butt;stroke-linejoin:miter;stroke-opacity:1" />
      <path
         sodipodi:nodetypes="cc"
         id="path6638"
         d="M 559.11944,322.52696 C 576.29203,327.49191 593.46462,326.22709 610.63721,326.0625"
         style="fill:none;fill-rule:evenodd;stroke:#000000;stroke-width:1px;stroke-linecap:butt;stroke-linejoin:miter;stroke-opacity:1" />
      <path
         sodipodi:nodetypes="cc"
         id="path6640"
         d="M 557.09914,339.19448 C 576.95467,340.66079 597.32327,344.14208 613.1626,348.28586"
         style="fill:none;fill-rule:evenodd;stroke:#000000;stroke-width:1px;stroke-linecap:butt;stroke-linejoin:miter;stroke-opacity:1" />
      <path
         sodipodi:nodetypes="cc"
         id="path6642"
         d="M 560.12958,353.84171 C 584.88036,363.88216 600.95252,364.44005 615.1829,369.49906"
         style="fill:none;fill-rule:evenodd;stroke:#000000;stroke-width:1px;stroke-linecap:butt;stroke-linejoin:miter;stroke-opacity:1" />
      <path
         sodipodi:nodetypes="cc"
         id="path6644"
         d="M 563.66512,368.99399 C 586.48765,383.39794 601.86072,387.25698 618.21336,389.70211"
         style="fill:none;fill-rule:evenodd;stroke:#000000;stroke-width:1px;stroke-linecap:butt;stroke-linejoin:miter;stroke-opacity:1" />
      <path
         sodipodi:nodetypes="cc"
         id="path6646"
         d="M 564.1702,387.17673 C 585.60466,400.61689 601.59959,411.28163 619.22351,412.43055"
         style="fill:none;fill-rule:evenodd;stroke:#000000;stroke-width:1px;stroke-linecap:butt;stroke-linejoin:miter;stroke-opacity:1" />
      <path
         sodipodi:nodetypes="ccc"
         id="path6648"
         d="M 568.71588,406.87471 C 589.44562,420.8917 605.85232,426.26262 621.24382,429.60314 L 622.25397,429.60314"
         style="fill:none;fill-rule:evenodd;stroke:#000000;stroke-width:1px;stroke-linecap:butt;stroke-linejoin:miter;stroke-opacity:1" />
      <path
         sodipodi:nodetypes="ccc"
         id="path6650"
         d="M 577.80726,431.62344 C 595.37345,439.50413 603.79468,448.69123 612.15244,457.88741 L 611.64737,457.88741"
         style="fill:none;fill-rule:evenodd;stroke:#000000;stroke-width:1px;stroke-linecap:butt;stroke-linejoin:miter;stroke-opacity:1" />
      <path
         sodipodi:nodetypes="cc"
         id="path6652"
         d="M 574.7768,448.79604 C 588.70747,457.67653 589.04692,460.73221 594.47477,465.96863"
         style="fill:none;fill-rule:evenodd;stroke:#000000;stroke-width:1px;stroke-linecap:butt;stroke-linejoin:miter;stroke-opacity:1" />
      <path
         sodipodi:nodetypes="cc"
         id="path6654"
         d="M 566.69558,460.91786 C 566.19261,472.70087 576.9374,475.25642 582.85801,480.61584"
         style="fill:none;fill-rule:evenodd;stroke:#000000;stroke-width:1px;stroke-linecap:butt;stroke-linejoin:miter;stroke-opacity:1" />
      <path
         sodipodi:nodetypes="cc"
         id="path6656"
         d="M 546.49253,484.15138 C 550.02843,482.13107 554.57339,462.93817 552.55344,462.93817"
         style="fill:none;fill-rule:evenodd;stroke:#000000;stroke-width:1px;stroke-linecap:butt;stroke-linejoin:miter;stroke-opacity:1" />
      <path
         sodipodi:nodetypes="cc"
         id="path6658"
         d="M 526.28948,478.59554 C 533.63034,472.65593 535.73295,465.66867 536.391,458.39249"
         style="fill:none;fill-rule:evenodd;stroke:#000000;stroke-width:1px;stroke-linecap:butt;stroke-linejoin:miter;stroke-opacity:1" />
      <path
         sodipodi:nodetypes="cc"
         id="path6660"
         d="M 510.12704,468.99909 C 516.43263,459.571 523.35351,450.14291 525.7844,440.71482"
         style="fill:none;fill-rule:evenodd;stroke:#000000;stroke-width:1px;stroke-linecap:butt;stroke-linejoin:miter;stroke-opacity:1" />
      <path
         sodipodi:nodetypes="cc"
         id="path6662"
         d="M 495.47982,453.8468 C 507.26494,444.41871 516.3563,434.99062 522.75394,425.56253"
         style="fill:none;fill-rule:evenodd;stroke:#000000;stroke-width:1px;stroke-linecap:butt;stroke-linejoin:miter;stroke-opacity:1" />
      <path
         sodipodi:nodetypes="cc"
         id="path6664"
         d="M 482.85292,425.56253 C 497.83685,415.09244 512.82077,407.92314 527.8047,402.8341"
         style="fill:none;fill-rule:evenodd;stroke:#000000;stroke-width:1px;stroke-linecap:butt;stroke-linejoin:miter;stroke-opacity:1" />
      <path
         sodipodi:nodetypes="cc"
         id="path6666"
         d="M 482.85292,400.81379 C 496.84882,394.46041 511.97234,390.36227 527.29963,386.67166"
         style="fill:none;fill-rule:evenodd;stroke:#000000;stroke-width:1px;stroke-linecap:butt;stroke-linejoin:miter;stroke-opacity:1" />
      <path
         sodipodi:nodetypes="cc"
         id="path6668"
         d="M 479.82246,374.54982 C 482.85292,377.86358 523.76409,375.44468 523.76409,372.02444"
         style="fill:none;fill-rule:evenodd;stroke:#000000;stroke-width:1px;stroke-linecap:butt;stroke-linejoin:miter;stroke-opacity:1" />
      <path
         sodipodi:nodetypes="cc"
         id="path6670"
         d="M 474.26662,353.8417 C 488.57712,355.15412 502.88761,356.28921 517.1981,352.32647"
         style="fill:none;fill-rule:evenodd;stroke:#000000;stroke-width:1px;stroke-linecap:butt;stroke-linejoin:miter;stroke-opacity:1" />
      <path
         sodipodi:nodetypes="cc"
         id="path6672"
         d="M 472.75139,326.56758 C 486.09173,334.11211 501.07406,333.44667 515.68287,334.6488"
         style="fill:none;fill-rule:evenodd;stroke:#000000;stroke-width:1px;stroke-linecap:butt;stroke-linejoin:miter;stroke-opacity:1" />
      <path
         sodipodi:nodetypes="cc"
         id="path6674"
         d="M 474.7717,307.37468 C 488.81833,315.52385 503.83109,317.87623 519.21841,317.98128"
         style="fill:none;fill-rule:evenodd;stroke:#000000;stroke-width:1px;stroke-linecap:butt;stroke-linejoin:miter;stroke-opacity:1" />
      <path
         sodipodi:nodetypes="cc"
         id="path6676"
         d="M 477.80215,289.19193 C 493.45952,296.43145 509.11688,300.46737 524.77425,302.32392"
         style="fill:none;fill-rule:evenodd;stroke:#000000;stroke-width:1px;stroke-linecap:butt;stroke-linejoin:miter;stroke-opacity:1" />
      <path
         sodipodi:nodetypes="cc"
         id="path6678"
         d="M 481.33769,267.97873 C 497.36035,272.90773 511.77812,278.37169 523.76409,284.64625"
         style="fill:none;fill-rule:evenodd;stroke:#000000;stroke-width:1px;stroke-linecap:butt;stroke-linejoin:miter;stroke-opacity:1" />
      <path
         id="path6680"
         d="M 488.40876,245.75538 L 525.27932,270.50411"
         style="fill:none;fill-rule:evenodd;stroke:#000000;stroke-width:1px;stroke-linecap:butt;stroke-linejoin:miter;stroke-opacity:1" />
      <path
         sodipodi:nodetypes="cc"
         id="path6682"
         d="M 501.54073,233.12847 C 509.79032,245.08807 518.0399,252.98866 526.28948,256.86706"
         style="fill:none;fill-rule:evenodd;stroke:#000000;stroke-width:1px;stroke-linecap:butt;stroke-linejoin:miter;stroke-opacity:1" />
    </g>
    <path
       d="M 376.28182,645.27071 C 399.92167,641.85331 420.81472,644.84513 440.42651,650.82655 C 468.92985,663.8687 487.13142,678.87309 487.3986,697.29356 C 488.35106,705.8657 470.27157,706.87766 464.16509,707.39509 C 447.18312,708.83406 400.58792,693.97193 404.56609,692.74788 C 392.12177,685.88108 386.76274,681.22424 381.79594,675.19238 C 379.67373,672.61509 377.53092,670.0634 375.27168,665.97883 C 373.79862,657.66616 367.57036,648.49112 376.28182,645.27071 z "
       sodipodi:nodetypes="cccscscc"
       id="path5095"
       style="fill:#ffffff;fill-opacity:0.94117647;fill-rule:evenodd;stroke:#000000;stroke-width:1px;stroke-linecap:butt;stroke-linejoin:miter;stroke-opacity:1" />
    <g
       id="g6360"
       transform="translate(14.142135,8.3540636)">
      <path
         id="path5366"
         sodipodi:nodetypes="ccssccc"
         d="M 472.49886,157.38522 C 481.3342,173.38629 484.80868,191.60945 497.2476,196.86783 C 503.87082,193.97247 510.01922,192.63195 516.12449,191.33436 C 523.90228,189.6813 528.19624,190.0388 535.52704,190.36429 C 544.80233,190.77611 557.49884,190.7851 566.53496,193.89865 C 577.36276,184.76272 575.91335,170.3805 586.14102,158.39537 C 550.73385,156.82188 515.7502,155.03663 472.49886,157.38522 z "
         style="opacity:1;fill:#ffffff;fill-opacity:1;fill-rule:evenodd;stroke:#000000;stroke-width:1px;stroke-linecap:butt;stroke-linejoin:miter;stroke-opacity:1" />
      <path
         id="path5570"
         sodipodi:nodetypes="ccssccc"
         d="M 472.75139,157.13268 C 481.58673,173.13375 485.06121,191.35691 497.50013,196.61529 C 504.12335,193.71993 510.27175,192.37941 516.37702,191.08182 C 524.15481,189.42876 528.44877,189.78626 535.77957,190.11175 C 545.05486,190.52357 557.75137,190.53256 566.78749,193.64611 C 577.61529,184.51018 576.16588,170.12796 586.39355,158.14283 C 550.98638,156.56934 516.00273,154.78409 472.75139,157.13268 z "
         style="opacity:1;fill:url(#linearGradient6364);fill-opacity:1;fill-rule:evenodd;stroke:#000000;stroke-width:1px;stroke-linecap:butt;stroke-linejoin:miter;stroke-opacity:1" />
    </g>
    <path
       style="fill:#ffffff;fill-opacity:1;fill-rule:evenodd;stroke:#000000;stroke-width:2;stroke-linecap:round;stroke-linejoin:miter;stroke-miterlimit:4;stroke-dasharray:none;stroke-opacity:1"
       d="M 113.3424,756.68326 C 116.2152,714.26614 104.91318,651.9647 130.7281,627.82328 C 148.69443,634.32912 146.65758,645.78578 161.03268,655.0974 C 195.37285,643.68409 223.79206,673.71747 252.95655,698.53396 C 295.10826,713.65524 320.36987,737.22157 352.96166,757.12281 L 352.96166,757.12281"
       sodipodi:nodetypes="cccccc"
       id="path11895" />
    <path
       style="fill:#ffffff;fill-opacity:1;fill-rule:evenodd;stroke:none;stroke-width:2;stroke-linecap:butt;stroke-linejoin:miter;stroke-miterlimit:4;stroke-dasharray:none;stroke-opacity:1"
       d="M 345.20062,756.51196 C 345.38126,754.58807 113.70337,758.26068 113.8362,756.27905 C 116.63623,714.50544 105.62048,653.14917 130.78153,629.374 C 148.29279,635.78114 146.30753,647.06399 160.31852,656.23434 C 193.78888,644.99419 221.48825,674.57193 249.91403,699.01193 C 290.99807,713.9038 315.61983,737.11261 347.38609,756.71193 L 347.38609,756.71193 L 345.41695,755.71709"
       sodipodi:nodetypes="cscccccc"
       id="path6402" />
    <path
       transform="translate(527.9849,-32.263965)"
       style="font-size:37px;font-family:Gentium Book Basic"
       d="M 36.324707,224.06598 L 36.324707,222.92779 C 37.264156,222.8194 38.047033,222.69594 38.67334,222.55743 C 39.299636,222.41893 39.799473,222.27741 40.172852,222.13287 C 40.546217,221.98834 40.81119,221.84682 40.967773,221.70831 C 41.124341,221.56981 41.202629,221.43431 41.202637,221.30182 L 41.202637,207.26422 C 41.202629,206.78247 41.184562,206.40909 41.148438,206.1441 C 41.112297,205.87915 41.021965,205.66235 40.877441,205.49371 C 40.805168,205.42147 40.66967,205.36124 40.470947,205.31305 C 40.27221,205.26489 39.98917,205.24682 39.621826,205.25885 C 39.25447,205.27091 38.790766,205.31307 38.230713,205.38531 C 37.67065,205.4576 36.99316,205.57804 36.198242,205.74664 L 35.764648,204.64459 C 36.270505,204.51212 36.893795,204.31942 37.634521,204.06647 C 38.375239,203.81356 39.131016,203.53654 39.901855,203.23541 C 40.672681,202.93433 41.40437,202.63623 42.096924,202.34112 C 42.78946,202.04606 43.340485,201.79012 43.75,201.5733 L 44.45459,202.24176 L 44.45459,221.30182 C 44.454579,221.42226 44.520822,221.55174 44.65332,221.69025 C 44.785796,221.82876 45.020659,221.97028 45.35791,222.11481 C 45.695137,222.25934 46.15583,222.40387 46.73999,222.5484 C 47.324123,222.69293 48.067856,222.8194 48.971191,222.92779 L 48.971191,224.06598 L 36.324707,224.06598 z "
       id="flowRoot10360" />
    <path
       transform="translate(560.08906,34.265117)"
       style="font-size:40px;fill:#333333"
       d="M 49.964844,226.89903 L 35.726563,226.89903 L 35.160156,225.45372 C 36.696611,223.66987 38.041011,222.08458 39.193359,220.69786 C 40.345696,219.31115 41.335278,218.08394 42.162109,217.01622 C 42.988923,215.94852 43.672516,215.01428 44.212891,214.21348 C 44.753244,213.41272 45.182931,212.69657 45.501953,212.06505 C 45.820951,211.43355 46.042305,210.86063 46.166016,210.3463 C 46.289701,209.83199 46.351549,209.33394 46.351563,208.85216 C 46.351549,208.26624 46.28319,207.71936 46.146484,207.21153 C 46.009753,206.70374 45.794909,206.26103 45.501953,205.88341 C 45.208973,205.50582 44.834624,205.2096 44.378906,204.99473 C 43.923167,204.77991 43.369782,204.67249 42.71875,204.67247 C 42.184887,204.67249 41.703117,204.79619 41.273438,205.04356 C 40.843742,205.29098 40.482415,205.61324 40.189453,206.01036 C 39.896478,206.40751 39.678379,206.84697 39.535156,207.32872 C 39.391921,207.81051 39.333327,208.28577 39.359375,208.7545 C 38.916661,209.00191 38.441401,209.22327 37.933594,209.41856 C 37.425777,209.61389 36.872392,209.7441 36.273438,209.80919 L 35.6875,208.96934 C 35.687498,208.29228 35.921872,207.58915 36.390625,206.85997 C 36.859371,206.13082 37.481116,205.4635 38.255859,204.85801 C 39.030593,204.25257 39.919264,203.75452 40.921875,203.36387 C 41.924471,202.97327 42.966136,202.77796 44.046875,202.77794 C 44.906238,202.77796 45.700508,202.88538 46.429688,203.1002 C 47.15884,203.31507 47.787095,203.64385 48.314453,204.08653 C 48.841781,204.52926 49.255192,205.08265 49.554688,205.74669 C 49.85415,206.41077 50.00389,207.19853 50.003906,208.10997 C 50.00389,208.69592 49.922509,209.28186 49.759766,209.86778 C 49.596989,210.45373 49.333317,211.08199 48.96875,211.75255 C 48.604151,212.42313 48.138657,213.15555 47.572266,213.94981 C 47.005846,214.74409 46.315742,215.63928 45.501953,216.63536 C 44.68814,217.63146 43.747385,218.75125 42.679688,219.99473 C 41.611971,221.23823 40.401035,222.63471 39.046875,224.18419 L 47.09375,224.18419 C 47.31509,224.18419 47.513658,224.13211 47.689453,224.02794 C 47.86522,223.92377 48.02147,223.78705 48.158203,223.61778 C 48.294907,223.44851 48.412094,223.25646 48.509766,223.04161 C 48.607407,222.82677 48.688787,222.60867 48.753906,222.38731 C 48.910141,221.86648 49.020818,221.26102 49.085938,220.57091 L 50.257813,220.84434 L 49.964844,226.89903 z "
       id="flowRoot10368" />
    <path
       transform="translate(302.91109,68.573567)"
       style="font-size:40px;fill:#333333"
       d="M 50.042969,219.45762 C 50.042952,220.55138 49.85415,221.58654 49.476563,222.56309 C 49.098943,223.53966 48.552068,224.39252 47.835938,225.12169 C 47.119778,225.85085 46.240873,226.42703 45.199219,226.8502 C 44.157541,227.27338 42.966136,227.48497 41.625,227.48497 C 41.11718,227.48497 40.580071,227.43288 40.013672,227.32872 C 39.44726,227.22455 38.871088,227.05528 38.285156,226.82091 C 37.699214,226.58653 37.106767,226.27729 36.507813,225.89317 C 35.908852,225.50906 35.316404,225.03705 34.730469,224.47716 L 35.433594,222.97325 C 36.019529,223.41596 36.563148,223.7838 37.064453,224.07676 C 37.565751,224.36974 38.047521,224.60411 38.509766,224.77989 C 38.972,224.95567 39.424473,225.08263 39.867188,225.16075 C 40.309889,225.23888 40.778638,225.27794 41.273438,225.27794 C 42.002596,225.27794 42.676423,225.16075 43.294922,224.92637 C 43.913401,224.692 44.443999,224.3502 44.886719,223.90098 C 45.329415,223.45177 45.674467,222.90489 45.921875,222.26036 C 46.169258,221.61583 46.292956,220.8769 46.292969,220.04356 C 46.292956,219.09305 46.143216,218.28901 45.84375,217.63145 C 45.544259,216.97391 45.166655,216.44006 44.710938,216.02989 C 44.255197,215.61974 43.74413,215.32352 43.177734,215.14122 C 42.611319,214.95894 42.0677,214.86779 41.546875,214.86778 L 41.117188,214.86778 C 41.026034,214.86779 40.941399,214.8743 40.863281,214.88731 C 40.785149,214.90034 40.690748,214.91337 40.580078,214.92637 C 40.469394,214.93941 40.316399,214.96545 40.121094,215.0045 L 39.828125,213.63731 C 40.999992,213.32483 41.937491,212.95699 42.640625,212.5338 C 43.34374,212.11063 43.884104,211.67118 44.261719,211.21544 C 44.639312,210.75972 44.886707,210.30074 45.003906,209.83848 C 45.121082,209.37626 45.179676,208.94332 45.179688,208.53966 C 45.179676,208.09697 45.117827,207.64449 44.994141,207.18223 C 44.870431,206.72001 44.675119,206.30335 44.408203,205.93223 C 44.141265,205.56116 43.802724,205.25843 43.392578,205.02403 C 42.982412,204.78968 42.490876,204.67249 41.917969,204.67247 C 41.449211,204.67249 41.029289,204.76364 40.658203,204.94591 C 40.287102,205.12822 39.977858,205.3691 39.730469,205.66856 C 39.483067,205.96806 39.310541,206.31962 39.212891,206.72325 C 39.115229,207.12691 39.111973,207.55009 39.203125,207.99278 C 38.73437,208.25322 38.229813,208.4648 37.689453,208.62755 C 37.149085,208.79032 36.572913,208.89775 35.960938,208.94981 L 35.375,208.14903 C 35.374998,207.60217 35.573565,207.01624 35.970703,206.39122 C 36.367836,205.76624 36.91471,205.18356 37.611328,204.64317 C 38.307938,204.10283 39.121739,203.65687 40.052734,203.30528 C 40.983716,202.95374 41.976554,202.77796 43.03125,202.77794 C 44.072906,202.77796 44.968087,202.93421 45.716797,203.24669 C 46.465482,203.55921 47.07746,203.97262 47.552734,204.48692 C 48.02798,205.00127 48.376287,205.58069 48.597656,206.2252 C 48.818995,206.86975 48.929672,207.52405 48.929688,208.18809 C 48.929672,208.6829 48.832016,209.17444 48.636719,209.6627 C 48.441391,210.151 48.161444,210.61975 47.796875,211.06895 C 47.432278,211.51819 46.99608,211.9316 46.488281,212.30919 C 45.980456,212.6868 45.40754,213.00582 44.769531,213.26622 C 45.524727,213.35738 46.224596,213.58199 46.869141,213.94005 C 47.513658,214.29813 48.070298,214.75386 48.539063,215.30723 C 49.007797,215.86063 49.375635,216.49214 49.642578,217.20176 C 49.909489,217.91141 50.042952,218.66336 50.042969,219.45762 L 50.042969,219.45762 z "
       id="flowRoot10376" />
    <path
       transform="translate(555.75119,345.02178)"
       style="font-size:40px;fill:#333333"
       d="M 44.671875,206.97716 L 37.757813,217.817 L 44.671875,217.817 L 44.671875,206.97716 z M 50.960938,218.40294 C 50.687483,218.81961 50.41079,219.16141 50.130859,219.42833 C 49.850895,219.69526 49.561182,219.9394 49.261719,220.16075 L 47.992188,220.16075 L 47.992188,224.67247 C 47.992173,224.77664 48.031235,224.87104 48.109375,224.95567 C 48.187485,225.04031 48.330714,225.13145 48.539063,225.22911 C 48.74738,225.32677 49.027328,225.42768 49.378906,225.53184 C 49.730452,225.63601 50.17316,225.74669 50.707031,225.86387 L 50.707031,226.89903 L 40.570313,226.89903 L 40.570313,225.86387 C 41.416659,225.72065 42.106762,225.58718 42.640625,225.46348 C 43.174469,225.33979 43.591136,225.2226 43.890625,225.11192 C 44.190093,225.00125 44.395171,224.89382 44.505859,224.78966 C 44.616525,224.68549 44.671864,224.57481 44.671875,224.45762 L 44.671875,220.16075 L 35.121094,220.16075 L 34.417969,219.45762 L 44.007813,204.00841 C 44.580718,203.78707 45.147124,203.54619 45.707031,203.28575 C 46.266914,203.02536 46.774726,202.79098 47.230469,202.58262 L 47.992188,203.30528 L 47.992188,217.817 L 50.453125,217.817 L 50.960938,218.40294 z "
       id="flowRoot10384" />
  </g>
</svg>
