<?xml version="1.0" encoding="UTF-8" standalone="no"?>
<svg xmlns:svg="http://www.w3.org/2000/svg" xmlns="http://www.w3.org/2000/svg"
   xmlns:xlink="http://www.w3.org/1999/xlink" version="1.0" width="800" height="600">
<!-- Hintergrund -->
 <rect width="802" fill="#e0e8f0" height="212"/>
 <path d="m726,205-1,1-8,2-5-1-1-1-1,1-2,1-11,0-8-1-1-1-1,1-4,1-20,0-2,0-1-1-1,1-2,0-2,0-1-1,0,1-6,0-6,0-3,0c-1-1-2-1-3,0,0,0-1,1-1,2h-373c0-1-1-2-2-2l-2-1-1-1-1,1h-4-1v-1h-1l-82,2h-25-7l-5-1-1-1h-7v1l-7,1h-21.4l-2.7-1-0.6-1-0.5,1-8,1h-25.4-0.2-0.2-6-4.6l-0.7-2h-1.7s-3.9,1-8,1h-5.6-2c-0.4,0-1,0-0.7,1h-1.6-2.1-2.5-9.7-0.1-0.1-8.16c-0.88-1-2.11,0-2.92,0-0.805,1-1.12,2-0.743,3v389h802v-388-4h-2-1l-2,1-8-1-1-1v1h-10s-4-1-7,0h-11-2-2-3l-10-2-1-1v1l-10,1-5-1-1-1z" fill="#926d6b"/>
<!-- Busch -->
 <use xlink:href="#path8449" transform="matrix(-0.82,-0.188,-0.219,0.957,883,78.6)" height="600" width="800" y="0" x="0"/>
 <use xlink:href="#path8449" transform="matrix(-1,0,0,1,817,-4.37)" height="600" width="800" y="0" x="0"/>
 <path id="path8449" d="m356,199c7,12,14,25,21,38,1,1-2,3-3,1,3,1,7,2,10,4,0,2-4,0-5,2-3,2-4,4-5,7-1,1-1,3-2,4,2,3,3,5,5,7m-18-55c-1,3-1,7-5,9-3,2-8,2-11-1-2-1-5-3-8-2h-7m5,2c2,1,4,3,7,2,1-1,1-2,2-2m12,1c-1,2-1,5-4,6-3,2-8,2-12,0-5-1-10-4-15-3s-9,4-15,4h-3m2,5c1-2,2-3,3-5m2,5c2,0,5,0,6-2s1-4,2-6m20,3c-2,0-5,1-8,0-2-1-5-3-7-1s-2,6-4,7-3,1-4,1m34-8c-2,3-3,7-7,8-3,1-7,1-10,0-2-1-5-4-6-1-2,1-2,4-5,4-4,0-9-1-14-1-3,0-6-1-8-2-1,0-2-1-2-1m3,5c1,0,2-1,4-2m56-22c-1,4-2,7-1,10s2,5,2,7c-2,2-3,4-2,7,1,6,4,11,6,17,1,2-1,4-1,6s2,4,2,5m5-24c0,2-4,2-6,2v1m1-19c0,2,2,4,1,7-2,0-5,1-5,4v1m4-4c2,1,3,4,2,6m2,4c-1,2-1,4,1,6m-22-25c2,2,4,4,5,7v1m5,2c-6,1-12,3-18,2-3,0-7-1-9,1-1,2-2,4-5,4-2,0-3-2-5-3-3,0-2,3-2,5s-3,4-6,3c-2,0-4,1-4,3m10-11c-3,0-6,0-10,1-3,1-6,1-9,1m8-1c-1,2-2,4-4,5m15-2c-3-1-6-1-8,0h-1m-1,5c-1,0-3,0-4-1m13-1c0,3-2,5-4,6m13-10c-2,1-5,2-4,5s-3,4-5,6m5-4c1,2,0,5-2,6m36-20c-1,3-4,5-4,8,1,2,4,3,3,5s-4,4-2,6c0,1,1,2,1,3m6-8c-1,2-4,3-3,6,1,2-1,4-2,5,0,2,3,3,4,5l1,1m3-4c1,0,2,1,3,1m2-4c-1,1-2,1-4,1m17-14c1,2,4,4,1,5m2-2c1,1,3,1,4,2m-13-3c2,2,3,5,1,6-1,1-2,3,0,4m-21,2c-2,1-3,4,0,5,1,2,3,4,1,5m-5-29c-2,0-5-2-7-1-3,3-5,6-10,7-2,1-6,1-9,1m5,0c0,2-3,4-1,6,1,2,4,4,4,7,0,2-2,4-4,5h-2m0-12c-3,0-5,1-6,3m7-3c-1,2-2,3-4,5m3-2c1,1,1,3-1,4m5-1c-1,1-3,2-4,3m25-22c-1,2-2,5-5,5-3,1-7,1-8,4-1,2-3,4-5,3h-3m21-1c-2,1-4,2-3,4m0-10c0,3-1,5-4,6-2,1-4,3-3,5,2,2,3,4,6,5s3,3,2,5v3m-5-9c2,1,3,4,1,5,0,1,1,3,2,3m-6-14c-2,2-2,5,0,7,1,2-2,4,0,6,0,1,1,2,2,3m-3-4c-1,0-3,1-5,2m1-17c1,2,1,5-1,6h-1m5,0c-2,1-4,1-5,3,1,1,4,3,1,3-1,1-1,1-2,2m10-26c-3,0-6-2-9,0-2,1-4,3-7,3h-1m11-3c0,1,0,2-1,3m-5-1c1,2-1,4-3,3m6,3c-1,1-1,1-1,2m16-20c0,1-1,2-1,3m-8,0c0,1,0,2,1,2m-11,0c-3-1-7,0-5,3h1m-1-3c-1,1-2,1-3,2m10-20c-1-1-2-2-3-2m40,48c-1,1-1,2-2,2m-18-61c2,3,5,7,7,11m-4-13c2,2,4,4,3,7,0,4-3,8-5,12-1,1-2,2-3,3m9-14c3,6,7,11,9,17v6m-7-16c-1,2-1,5,0,7,1,3,2,6,0,9-1,2-2,4-3,6-1,3-3,5-6,7h-1m7-31c-1,3,0,7,1,11,1,3,0,6-2,9-1,2-3,5-3,8-2,3-6,5-7,9-1,1-1,2-1,3m9-47c-1,2,1,4,3,6,0,3-2,4-4,6-1,2-2,5-4,6-4,1-7,0-11,0-3,1-6,1-9-1-2,0-4-1-6-2m21-2h7m6-6c1,5,2,10,3,15m0-11c3,3,6,6,8,9,0,3,0,5,2,7,0,1,1,2,2,3m-15,2c1,3,2,7,4,10,0,2-3,3-3,6v1m-4-20c-5-1-10-1-15,0-4,1-7,2-10,3s-6,1-8,0c0-1-1-1-1-1m40-21c1,3,2,7,0,10v2m-11-4c-3,3-5,6-9,7-3,1-6,1-8,1m17-7h-9m-4,20c3-2,4-6,7-7,4,0,7,1,9,3l2,2" stroke="#a78d22" stroke-linecap="round" stroke-width="1.425px" fill="none"/>
 <use xlink:href="#path8449" transform="matrix(-1,0,0,1,744,20.6)" height="600" width="800" y="0" x="0"/>
 <path d="m489,222c9,9,19,19,28,29,1,2-1,4-2,2,3,1,7,1,10,2,0,2-4,0-4,2-2,3-2,5-2,8-1,2-1,3,0,5s3,3,5,5m-30-47c0,3,1,7-1,9-2,3-6,4-10,3-2-1-5-2-8-1-1,1-3,2-5,2m5,1c2,0,4,1,6,0,1-1,1-2,1-2m10-2c0,2,1,5-1,6-2,3-6,4-10,4-4-1-9-2-13,0s-7,6-12,8h-3m4,4c0-2,0-3,1-5m3,5c2-1,4-2,5-4,0-2-1-4-1-6m18-3c-2,1-4,3-7,3-2,0-5-2-6,0-1,3,0,6-2,8,0,1-1,1-2,2m26-16c-1,3-1,7-4,9-2,2-5,2-8,3-2-1-5-2-6,0s0,4-2,5c-4,2-9,2-12,3s-5,0-8,0h-2m4,4c1-1,2-3,3-4m40-33c1,3,1,6,3,9,1,2,2,4,3,6-1,2-1,5,0,7,3,5,6,9,10,14,2,2,0,4,1,6,0,2,2,3,3,4m-3-24c1,3-2,3-4,4v1m-4-18c1,2,3,4,3,6-2,1-5,2-3,5v1m2-5c2,1,3,3,3,5m3,4c0,2,0,4,2,5m-25-18c3,1,5,3,6,5,0,1,1,1,1,1m4,1c-4,2-8,6-14,7-2,0-6,0-7,3-1,1-1,4-3,4-2,1-3-1-5-1s-1,3-1,5c1,2-1,4-4,4-1,1-2,2-2,4m5-13c-2,1-5,2-8,3-2,2-5,3-8,4m8-3c-1,2-2,4-3,6m12-6c-3,0-5,0-7,2m1,5c-2,0-3,0-5,1m11-5c1,3,0,5-2,7m8-13c-1,2-3,4-1,5,1,3-2,5-3,8m3-6c2,2,1,5,0,7m25-28c-1,3-2,6-1,8s3,3,4,5c-1,2-3,4-1,6,1,1,1,2,2,3m2-10c0,2-1,4-1,7,2,1,1,3,0,4,1,2,4,3,5,4l1,1m1-4h4m0-4c-1,0-2,1-2,2m10-17c1,1,4,2,2,3m1-1h3m-11,1c2,1,3,3,2,5,0,2,0,3,2,4m-18,7c-1,1-1,4,2,5,2,1,3,2,2,4m-12-26c-2,0-4-1-6,1-2,3-3,7-6,9-2,2-5,2-7,3m4-2c0,3-2,5,0,7,2,1,4,3,5,5,2,2,0,4-2,6h-1m-3-11c-3,1-4,2-4,5m5-6c-1,2-1,4-3,6m2-2c2,1,2,3,1,3m4-1c-1,1-2,2-3,3m15-26c-1,2-1,5-3,6s-5,2-6,5c0,2-1,4-3,4-1,0-1,1-2,1m17-6c-1,1-3,3-1,5m-3-10c0,3,0,5-2,7-1,1-3,3-1,5,2,1,4,3,6,3,3,0,3,3,4,4v3m-6-7c2,1,3,3,2,5,0,1,1,2,2,2m-9-11c-1,2,0,4,2,5,2,2,0,5,2,7,1,0,2,1,2,2m-3-4c-1,1-2,2-3,3m-4-15c1,2,2,4,0,5m3-1c-1,2-3,3-2,4,0,1,3,2,1,3-1,1-1,2-1,2m1-26c-3,0-6,0-8,2-1,2-2,4-5,5m8-6v3m-5,1c2,1,1,4-1,3m5,2,1,1,7-22v3m-6,2c0,1,0,1,1,2m-10,2c-2,0-5,2-2,4m-1-2c-1,1-1,1-2,2m3-21c-1-1-3-1-4-1m47,35c-1,1-1,1-1,2m-32-53,9,9-7-10c2,1,5,2,5,5,0,4-1,8-1,13-1,1-1,2-2,3m3-15,13,13c0,2,1,4,1,6m-10-13c0,2,1,4,2,7,2,2,4,5,3,7s-1,5-1,7c-1,3-2,5-4,8m-3-31c1,4,2,8,4,11,2,2,2,5,1,8s-2,6-1,8c0,4-3,7-3,11v3m-5-46c0,2,2,4,4,5,1,2-1,4-1,6-1,3-1,5-3,7-2,1-6,1-8,3-3,1-5,2-8,1-2,0-4,0-6-1m17-6c2-1,4-1,6-2m3-8c3,5,5,9,7,14m-3-10c3,2,7,4,9,6,1,2,1,5,3,6,1,1,2,1,3,2m-12,6c2,2,4,6,6,8,1,2-2,4-1,6v2m-9-18c-4,1-8,2-12,4-3,1-5,3-7,5s-5,2-7,1h-1m28-29c1,3,3,6,2,9v2m-10-1c-1,3-2,7-5,9-2,1-5,2-7,3m13-11c-3,0-5,1-8,2m2,20c2-3,2-7,5-8,2-2,6-1,8,0l1,1" stroke="#b59b3a" stroke-linecap="round" stroke-width="1.305px" fill="none"/>
 <path d="m434,219c11,10,23,20,34,30,9,9-1,5,0,6,2,0,13-1,13,0s-4,2-5,4c-2,4-1,15,0,16,0,1,5,5,7,6m-42-55c0,3,2,9,0,13-2,2-4,4-6,4-3,1-8-1-11,0s-6,3-9,5m5,0c2,0,6,1,7-1,1-1,1-3,2-4m11-4c0,3,1,5,0,7-1,3-4,6-7,7-5,2-12,0-17,2s-8,8-12,12c-2,1-4,2-6,3m4,4c0-1,1-5,1-7m4,6c2-2,4-3,5-5s-1-5-1-8m20-7c-2,1-4,3-6,4s-7-1-8,1c-2,2,0,8-1,11,0,1-2,2-3,3m28-25c-1,4,0,8-2,11s-6,5-9,6c-2,1-6-1-7,0-2,1-1,6-2,8-3,2-8,3-11,5-5,2-7,3-8,3h-6m5,4c1-1,1-3,2-4m42-51c1,3,1,5,2,7,1,4,5,8,6,11,1,2,0,4,0,6,2,4,5,7,7,10,3,4,8,8,10,12,1,2,0,4,1,5,0,2,3,3,4,5m-7-30c0,1,1,2,0,2-1,2-3,2-4,4-1,0,0,1,0,1m-8-23c1,3,4,5,4,7s-2,2-3,4c0,1,1,3,1,5m2-7c1,1,2,1,3,2s1,3,1,4m4,4c0,1,0,3,1,4l3,3m-32-19c1,1,3,1,4,2l5,5m4,0c-3,3-6,6-10,9-3,2-8,2-11,5-2,2-2,7-4,9-1,1-6-2-7-1-1,2,2,7,1,9-1,3-5,4-6,6-1,1,0,2,0,3m4-18c-2,1-4,2-5,3-2,1-3,3-5,4-2,2-5,3-7,5m8-5c-1,1-1,3-1,4s-1,2-1,4m12-10c-1,0-3,1-5,2-1,0-1,1-2,2m1,6c-1,1-3,1-5,2m12-8c0,2,1,3,1,4s-2,3-2,5m7-17c0,1-2,3-2,4s2,3,2,4c0,3-2,6-2,8m2-7c1,1,2,2,2,3,0,2-1,4-1,5m24-40c0,4-1,7,0,10s5,3,6,5c0,2-2,5-1,7,0,2,2,3,4,5m1-13c-1,3-1,5-1,8,0,1,2,2,2,4,1,1-1,3-1,3,2,2,6,3,8,5m0-6h5m-1-5c-1,0-2,1-2,2m8-23c2,0,3,1,4,2,0,1,0,2-1,2m1-2h5m-13,2c1,1,3,2,3,4,1,2,0,4,0,6,0,1,2,1,2,2m-19,11c0,2-1,3,0,5,1,1,4,2,6,3,1,1,0,3,1,4m-19-32c-2,1-5,1-6,2s-1,4-2,6c-1,3-2,6-4,7-2,3-5,4-8,5m4-2c0,2,0,5,1,7s4,2,6,4c1,2,2,4,3,6,0,1-2,2-2,3-1,1-1,2-2,2m-6-14c-1,1-3,3-3,3,0,1-1,3-1,4m5-7v4c-1,1-1,2-2,3m2-3,2,2c1,1,0,2-1,3m5-3c-1,0-1,1-1,2-1,0-2,2-2,3m13-37c-1,2,0,5-1,7s-4,4-6,6c-3,3,0,7-2,8-2,0-3,2-4,2m18-10c0,1-2,2-2,3s1,2,2,3m-6-12c1,2,2,3,1,5,0,3-3,6-3,8,1,2,4,4,6,6,2,0,4-1,5,0,2,2,3,5,4,8m-9-8,3,3c1,1,0,2,0,3,1,1,2,2,3,2m-12-13c0,1-1,3,0,4,1,2,4,3,5,5,0,1-1,3,0,4,1,2,3,3,5,4m-5-4c-1,2-2,3-3,5m-7-19c0,1,1,3,2,4,0,1-1,2-1,3m3-2c0,1-2,3-2,5s4,2,3,3-2,3-2,4m-3-35c-1,1-5,1-8,4-1,2-2,4-3,6-1,1-2,1-3,2m9-9v4m-5,2c0,1,2,2,2,3-1,1-2,1-3,2m6,1c1,0,1,1,1,1m5-30v4m-7,4c1,1,1,2,2,3m-11,4c-1,1-3,1-4,2,0,1,2,2,2,4m-2-3c0,1-1,2-1,3m0-28c-2,0-3-1-5-1m60,37v3m-46-62c4,3,8,7,12,10m-10-12c2,1,5,1,6,6s1,10,1,15c0,2-1,4-1,6m1-20c5,4,11,8,15,12,2,3,3,6,4,9m-14-15c0,2,0,3,1,5,2,3,5,7,7,10v7c-1,3,0,6-1,10,0,2-1,4-2,6m-9-39c1,2,2,4,3,6,2,4,5,7,6,11s0,9,0,13c0,2,1,4,1,6-1,3-2,6-2,9-1,2,0,4,0,7m-14-58c1,1,1,2,3,4,1,1,3,1,3,2,1,2,0,5,0,8-1,3,0,6-2,8-1,2-5,4-8,5-2,2-4,3-6,4-4,1-7,0-11,0m19-11c2-1,4-2,6-3m3-11c3,5,6,11,10,16m-6-12c4,2,9,4,12,6,1,1,1,4,2,5,2,2,4,3,6,5m-13,9c2,2,4,5,7,8,0,1,2,1,2,2,0,2-1,4-1,5,0,2,1,3,1,4m-13-21c-3,1-6,2-8,4-4,2-7,4-10,7-2,2-3,5-6,6-2,1-4,1-6,1m27-43c1,3,3,5,4,7,0,2,0,5,1,7m-12,1c-1,3-1,8-3,10-2,3-6,5-9,7m13-16c-1,1-3,1-4,1-1,1-3,2-4,3m5,25c1-4,1-8,4-11,1-2,5-3,7-2,8,3,3,1,4,2" stroke="#e4ca61" stroke-linecap="round" stroke-width="1.6px" fill="none"/>
 <use xlink:href="#path8647" transform="matrix(0.912,0,0,0.729,163,53.6)" height="600" width="800" y="0" x="0" fill="#3d7928"/>
 <use xlink:href="#path8647" transform="matrix(-0.853,0,0,0.791,844,44)" height="600" width="800" y="0" x="0" fill="#5fa337"/>
 <path id="path8647" d="m462,6h-11c-9,1.6-17,4.8-25,8-2,1.6-5,3.2-8,3.2-2,1.6-7,1.6-10,1.6s-6,0-8,1.6h-8c2,0,3,0,3-1.6-1,0-5,0-6-1.6-2,0-3-1.6-3-3.2l-2-1.6-2-3.2,4,1.6v-1.6c0-1.6-2-3.2-5-1.6-2,0-3,1.6-3,1.6,0,1.6-2,1.6-4,1.6-3,0-3-3.2-4-4.8,0,1.6,1,3.2-2,3.2l6,3.2-22-3.2c2,3.2,10,3.2,14,3.2,2,1.6,7,1.6,7,1.6s-3,1.6-5,1.6c-3,1.6-8,1.6-11,3.2,6,0,11-1.6,16-3.2,1,0,3-1.6,5-1.6,3,0,6,1.6,6,3.2,0,0,2,0,0,1.6h-6c-5,1.6-12,1.6-15,3.2,7,0,11,0,18-1.6h6c0,1.6-1,1.6-1,1.6-2,0-4,1.6-5,1.6-5,3.2-8,4.8-10,8-1,1.6-1,1.6-3,3.2,0,0,0,1.6-2,1.6l-3-1.6h-38c-3,0-5,1.6-7,1.6h-3,21c-3,1.6-6,1.6-8,1.6-10,1.6-18,3.2-22,6.4-4,1.6-5,1.6-7,3.2l29-6.4c0,1.6-2,1.6-3,3.2-5,1.6-11,3.2-15,4.8l26-4.8c-3,3.2-10,6.4-10,9.6l7-1.6,8-4.8,6-4.8,3,6.4,2,1.6-8,3.2,11-1.6h18l-2,1.6h-9,6c-10,1.6-16,4.8-22,8-5,1.6-8,3.2-8,6.4l11-4.8,22-8c-3,4.8-1,9.6-1,12.8,3-1.6,3-3.2,4-4.8,2-1.6,2-1.6,4-3.2h9c2,0,3-1.6,3,0h-1c-3,1.6-5,3.2-7,3.2-6,3.2-11,4.8-14,9.6l14-6.4,13-3.2-6,8-2,8c5-3.2,5-8,11-11.2l2,6.4-2-1.6h-4l4,3.2,4,8,1,3.2v11.2l-1,4.2,1,2-1,6-2,2-8-2h-2,4l4-1c-6,0-12,0-19,1-1,0-3,0-3,2-3,0-3-2-5-3,0,0,0-2-1-3l-2-2c-2-2-2-3,2-5h-7l2,2,1,5-3-4-8-3,2-2.8,3-3.2,3-6.4,3-4.8-8,3.2-4,8v4.8l-20-9.6,4,3.2c4,3.2,11,6.4,16,7.6-10-1.2-20-2.8-31-2.8-3-1.6-8,0-13,0l16,1.6,18,3.2h13l1,3,5,2,2,1,6,5-17-2-32,2h28l-9,2-7,1-6-1-13-2,10,3,3,2-5,1c7,0,11-1,16,2-3-2-6-2-9-2h-8c-4,0-5-1-8-1-7-2-16-3-24-3l12,4,16,4h-35l10,1,25,2-8,1-9,4-8,1,30-3,10-2c-3,2-7,4-11,4-4,1-7,0-10,0-6,1-13,3-19,3-2,1-5,1-7,3l28-3-15,8,11-3,15-4-18,7-6,5-7,6,12-5,19-9,8-5,1,11,2-5v-6l3,3,8,3,3,2-1-3-5-5,3-3,5-2h5l-2,5,7,13,1-5,2-7-2-1,2-2,3,2,5,3s0-2,1-2c4,0,4,2,5,4h3c4,1,5,3,7,4,1,0,1,2,0,2,0,0-3-2-3-2l1,2c-5,0-8,0-9,2,4-2,8-2,12,0,2,0,5,0,4,1-2,0-5,2-7,2-6,1-13,1-17,3s-5,2-7,2h8c7-2,13-2,19-4,4,0,10-1,10,2,0,0-3,2-5,2-1,1-6,3-8,4l7-1c-4,3-5,5-7,6-1,2-1,3-3,5,0,2,0,2-2,3-1,2-3,0-3,0-3,0-5-1-8-1-6-2-13-4-21-4-1-1-3-1-6-1l26,8c-8-2-18-2-26,0h-8c10,0,18,1,27,1,3,0,8,0,11,2l-16-2-6,2c5,0,10,0,16,2h3c0,1-3,0-3,0-3,0-6-2-10-2l13,5,8,3h-11c-3,0-5,2-6,2-12,1-23,3-34,4-2,0-5,2-6,2h14c8-2,16-2,24-3,3,0,6,0,10-2h6c3-1,6,0,8,0h8c3,0,8,2,11,3,2,2,2,4,2,4v6s1,2,0,3c-2,0-3-1-3-1,0,1,3,3,3,3,1,1,1,1,1,3h5c2-2,2-2,2-2v-1c1-2-2-3-2-3-1-2-1-5-1-7,3,2,3,3,4,5l5,5s0,1,2,3h11c0-2-2-3-2-5,0-1-1-5,0-6,0-2,2-2,0-3v-2h2l2,2c3,0,6,0,8,1h6l2,2h3c1,0,3,0,3,1h2c0,2-4,5-5,7,0,1-3,3-2,3,3,0,5,0,7-2,1-1,1-3,3-4,1-2,3-2,5-2h-4c4-6,4-11,10-16,2-2,2-2,2-2s-2-1,0-1c3-2,6,0,9,0h10l-10-2h-1l3-1-7,1,7-3h13l25,2c-1,0-5,0-6-2-7-2-16-2-24-2,3-1,6,0,8,0h21c-5-1-15-1-23-1h15l24-2,16-1c-5-2-10,0-15,0h-32l13-7-13,3-9,4c0-2,1-4,1-7,2-1,2-5-1-8l20,5c-3-2-8-3-12-5-2,0-7-1-7-1-1-4,5-4,8-4,10,0,19,2,29,2l-10-2-20-1c3-2,8-2,12-2h-4l3-1-5,1c2-1,8-3,5-5-2,2-5,4-10,5,0,0-3,2-3,0-2-1,3-5,8-5,2-1,3-1,5-1,1,0,1,1,1,1l5,5v-3l2-5,6-3h3v3l2,8c3-1,3-5,5-8,0-1,1-3,1-3,2,0,4,2,5,3h2c1,0,0-1,1-1,7,1,12,3,18,4-2-3-8-4-13-6-3-2-8-2-9-3l12,1-12-3-4-1v-2h5l7,2,22,1c-3-1-8-3-13-3-3,0-6,0-9-2l22-1h14c-3-2-6-2-9-2h-29c-3,2-6,2-8,2-2,1-3,1-5,1-1,0-3-1-1-1,1-2,4-2,6-2,8,0,16-1,24-1h-8c-5-2-11-2-16,0h-6c0-2,4-2,6-4l-6,2,1-3-5,1-1-1-5-3,19,3,7,1-5-3-18-5,21-1c-8,0-18-2-26-2l8-1c-4,0-8,1-12,1-2,0-4,2-7,2s-3-3-5-3c-1-2-4-2-6-4-5,0-10-1-14-1-5,0-10-2-15-2-3-1.2-5-1.2-8-2.8s-8-1.6-11-3.2h6l-3-1.6-5,1.6c2-3.2,2-4.8,2-8l-3-3.2-2,11.2-6-3.2-8-1.6v-1.6l5-6.4v-4.8l1-3.2h3l8,1.6-6-3.2-3-1.6,3-1.6,14-3.2c-3,0-6,0-9,1.6-2,0-3,0-3-1.6l-5,3.2v-3.2l1-4.8,2-1.6h3l8,3.2-6-4.8-5-1.6,2-3.2h1l8,3.2-5-6.4,8,1.6,7,3.2,14,3.2,8,3.2c-3-3.2-11-6.4-17-9.6l12,1.6,2,1.6,3,3.2,13,6.4,10,6.4c0-4.8-7-9.6-13-14.4-2,0-3-1.6-5-1.6h6l-4-1.6,16,4.8,19,3.2,11,1.6c-3-1.6-8-3.2-13-4.8-8-1.6-14-3.2-22-4.8h-7c-4-1.6-8,0-11-1.6h16l29-1.6c-5,0-10-1.6-14-1.6h-29l13-3.2c-5,0-10,0-13,1.6-2,0-5,1.6-8,1.6-2,0-3-1.6-5-1.6l-2-1.6h10-13l-13-3.2-6-1.6-2-1.6h4l9-1.6h8-16l24-4.8h-25c-2-1.6,1-3.2,1-3.2,2-1.6,2-1.6,3-1.6,2-1.6,4-1.6,5-3.2h-3l5-4.8,3-1.6,6,1.6,13,6.4c-1-3.2-5-6.4-9-8s-7-4.8-10-6.4l18,1.6,16,1.6c-2-1.6-8-3.2-12-3.2-6-1.6-11-1.6-17-1.6h-10c-5,0,0-3.2-3-3.2h-2zm-11,4.8-3,3.2-3,3.2,9-3.2,0,3.2-1,3.2,1,1.6-1,4.8-2,3.2-5,0-9-1.6-15,1.6-3-1.6-5,0-3-1.6-1-1.6-4-3.2,23,4.8-13-6.4,26,0-5,0-16-3.2c3-1.6,9-3.2,16-3.2,5-1.6,9-3.2,14-3.2zm11,1.6,4,1.6-2,1.6-5,9.6-3,3.2,3-6.4,2-1.6-2-1.6,2-3.2,1-1.6,0-1.6zm5,1.6c3,0,3,1.6,3,1.6-1,1.6-3,4.8-4,4.8,0-1.6,0-3.2,3-3.2-3,0-3-3.2-2-3.2zm-72,8c3,1.6,3,3.2,5,4.8,0,1.6,0,3.2-2,3.2,0,0,0-1.6-1-3.2-2-1.6-5-3.2-2-4.8zm-5,3.2,2,0,0,3.2,2,1.6-7,1.6-11,4.8,14-1.6,5-1.6,0,3.2,0,1.6-5-1.6c2,1.6,5,1.6,7,3.2v1.6c1,1.6,1,3.2,1,4.8,0,0,0,1.6-1,1.6,0,0-2,1.6-3,1.6-2,0-4,1.6-5,1.6-2,0-3,1.6-5,0-3,0,0-3.2,0-4.8l-3,1.6c0-1.6-2-3.2-5-3.2l3,3.2-11-4.8-16-4.8h11l19,3.2-8-3.2-4-1.6,3-3.2,11-6.4,6-1.6zm28,6.4h1s-1,1.6-1,1.6c-2,1.6-2,3.2-5,3.2-2,0-2-3.2-2-4.8h7zm17,0c3,0,7,1.6,11,1.6h4c1,1.6-5,3.2-7,3.2h-5c-1-1.6-3-3.2-3-4.8zm-33,1.6c3,0,3,1.6,4,3.2,4,1.6,8,4.8,0,6.4l-1-3.2-2-1.6c-5,0-3-1.6-3-3.2s0-1.6,2-1.6zm27,0c1,1.6,1,1.6,3,1.6,2,1.6,5,1.6,5,3.2l-5,1.6c-3,0-6,1.6-6,3.2s0,3.2,1,4.8v1.6c-1,0-6-1.6-8-1.6-1,0-5,0-6-1.6,0,0,1-1.6,3-1.6,2-1.6,5-3.2,6-4.8,2-1.6,5-3.2,7-6.4zm-80,1.6c6,0,13,1.6,17,3.2h7l-15-1.6-9-1.6zm3,3.2c5,1.6,11,3.2,14,4.8l-9-1.6-3-1.6-2-1.6zm91,1.6c7,0,15,1.6,19,3.2l-9-1.6-10-1.6zm-101,0h2l2,1.6c-2,0-4,1.6-7,1.6h-8c2-1.6,5-1.6,8-3.2h3zm60,0c1,0,1,1.6,1,1.6,2,1.6,2,3.2-1,4.8,0-1.6-2-3.2-2-4.8,0,0,0-1.6,2-1.6zm41,1.6,5,0-2,1.6-1-1.6-2,0zm-93,0c2,1.6,2,4.8,2,4.8l-2-4.8zm-6,1.6c0,1.6-5,3.2-6,4.8l6-4.8zm112,0,8,1.6-10,1.6-3,0-1,0,3-3.2,3,0zm-99,0h3c8,0,13,1.6,16,4.8l-18-1.6,16,3.2c-4,0-8,1.6-11,1.6h-6c-2,0-2-1.6-2-1.6,0-1.6,2-3.2,0-3.2v-3.2h2zm78,0c3,1.6,5,3.2,7,4.8,1,0,1,0,1,1.6l-3,1.6c-2,0-2,1.6-3,1.6-3,0-5-1.6-5-3.2,0,0,0-1.6,2-1.6,0-1.6,0-3.2,1-4.8zm-27,1.6c2,0,2,1.6,0,1.6-5,1.6-3-1.6,0-1.6zm62,1.6c5,0,10,1.6,12,3.2l-20-1.6c4-1.6,5-1.6,8-1.6zm-65,3.2c3,0,1,1.6,1,1.6,0,1.6-1,3.2-1,4.8v1.6c-3,0-2-1.6-2-1.6-1-1.6-3-6.4,2-6.4zm-7,1.6v1.6c0,1.6,0,1.6-3,1.6-1-1.6-3,3.2-5,1.6h-1c0-1.6-2-1.6-2-1.6,2-1.6,5-1.6,7-1.6,0,0,3-1.6,4-1.6zm16,0c4,1.6,5,3.2,7,4.8,0,1.6-5,1.6-5,1.6-2-1.6-2-3.2-2-3.2v-3.2zm28,1.6c1,0,1,0,1,1.6h-3c0-1.6,0-1.6,2-1.6zm-15,1.6h2c1,0,1,1.6,0,1.6-3,1.6-5-1.6-3-1.6h1zm-43,0c3,0,5,3.2,3,3.2,0,0-5,1.6-6,1.6-2,0,0-1.6,0-1.6,0-1.6,1-1.6,3-3.2zm14,1.6,0,1.6-4,0,4-1.6zm36,0,8,1.6,0,1.6-2,6.4-2,1.6,0-3.2,0-1.6,2,0c-3-1.6-5-1.6-5-3.2s2-1.6,2-1.6c-2-1.6-3-1.6-3-1.6zm-4,1.6c4,0,5,3.2,4,3.2-4,0-8-1.6-4-3.2zm-14,3.2c3,0,8,1.6,5,1.6h-7c-1,0-1-1.6,0-1.6h2zm13,1.6h5c3,0,3,1.6,3,3.2l-5-1.6c-2,0-6,0-8-1.6h5zm-16,1.6,3,1.6-2,3.2-3,3.2-3,4.8-2,3.2,0-9.6,0-4.8,2,1.6,0,1.6,2,0,3-4.8zm-11,3.2,1,4.8,0,8-1-3.2,0-6.4,0-3.2zm19,0c1,0,0,1.6-2,1.6,0,1.6-1,3.2-5,4.8,0-1.6,2-3.2,4-4.8,0,0,1-1.6,3-1.6zm6,1.6c3,0,8,1.6,8,3.2s-1,3.2-3,6.4c0,1.6,2,3.2,2,4.8s-2,4.8-4,6.4c0,1.6,0,3.2-1,3.2,0,1.6-8,1.6-10,0v-1.6l-3,3.2-8-3.2v-1.6l2-4.8v-4.8l3-4.8,16-3.2-13,1.6c2-1.6,6-3.2,11-4.8zm10,22.4c1,0,3,0,3,1.6,3,0,5,1.6,8,1.6l-6,1.6h-2l2,1.6c0,1.6-2,2.8-5,2.8-2,0,0-1.2-2-2.8h-1c0-1.6,1-1.6,1-3.2,0,0-1-3.2,2-3.2zm-29,1.6c2,1.6,5,1.6,5,1.6,1,1.6-2,3.2-3,3.2l-2-1.6v-3.2zm11,3.2h2c1,0,5,0,6,1.6,0,0-1,1.6-1,2.8,0,2-2,3-2,5-2,0-2,3-5,2v6h-13v-3l2-7,2-3,4-1.2c-3,0-1-1.6-1-1.6,1-1.6,3-1.6,6-1.6zm31,0h1c3,0,5,1.6,7,1.6,3,0,6,1.6,9,2.8h-3,8l5,2,14,3,8,3h-32l-1,2h9l32,1c-3,2-8,4-11,5-3,2-5,3-10,3-4,2-12,0-17,4h19l8,1c-11,2-22,3-32,7-2,1-5,1-6,3,14-3,28-5,43-7l-5,2-11,5,22-5c-1,2-5,3-8,5-5,3-6,5-8,8,3,0,5-2,8-3,2,0,3-2,5-2s2,2,2,3c0,2-2,2-5,3-2,2-3,2-5,4l6-2v2l-3,1h-35l-6-1h35s1,1,1,0h-1c-2,0-5-2-7-2-11-2-20-3-32-3,4-2,7-2,10-3h5l3-2c2,0,5,0,5-2h-7c-4,2-9,2-14,2,0,2-5,2-6,2-2,0,0-2-2-4,0-1-2-3-5-4v4l-1,2h-2l-3-3-7-3-4-2v-3l9,1c-1-1-3-1-6-3-2,0-3-1-3-3,0,0,0-2,3-2,9,2,17,4,27,5-6-3-14-5-24-6-2,0-6-2-5-2,0-1,2-1,3-1h15c-3,0-8-2-13-2h-5c-1-2,0-3,2-3,1-3,1-5,6-7l3-1h2c0-2,3-3.2,3-4.8l2-1.6h5zm-16,3.2c1,0,0,0,1,1.2,0,2-1,3-6,5,0-2,1-3,3-5,0-1.2,0-2.8,2-1.2zm76,16.2-1,3-5,1-13,0,13-3,6-1zm-140,1-5,2-7,3-3,2-3-2-8-3,26-2zm153,0c2,0,5,2,5,3v2s0,2-2,2c-1,0,0-2,0-2-4,0-4-3-3-5zm-133,0,5,2c-3,0-3,1-5,1v-3zm128,0,2,2s2,1,2,3c-2,0-2-2-4-2-4,0-1,2,2,2l2,2h-4c-1,0-8-2-8-2,0-2,5-3,5-3,2,0,2-2,3-2zm-142,2-2,5-1,1-5-1,5-2,3-3zm-51,3c8,0,14,2,22,2,2,0,7,0,7,1h-15c-6,0-11-1-14-3zm83,0c2,0,3,2,3,2,2,3,3,4,7,6v-6c3,1,3,1,3,3,0,1-2,5-2,6-1,0-3-1-5-3-3-2-6-3-8-5,0,0-1-3,2-3zm-14,2c1,1,3,1,4,3l2,1c2,2,0,2,0,2,0,3,0,5,2,8v3c0,2,0,2-2,2-2,1-3,1-5,0,0,0-1-2-1-3-2-2-2-4-4-5l7,1c-3-1-7-3-8-4-3-2-2-5-2-7l3,3h4v-4zm-26,4c3,0,5,2,3,4l-3-4zm155,2,3,3,4,2,0-2,0-3c1,2,6,3,6,5h-2c-3,0-8,1-9,1-2,0-2-1-3-1,0-2-2-3,1-5zm-177,0c0,2-2,2-2,2s-2,1-3,1h-3c0-1,6-3,8-3zm60,2,10,3,3,1-1,4,0,3-2,0-8,0-2-3,0-8zm-28,0h1c2,0,5,1,7,1l3,3c1,4,5,5,5,8-5-1-7-4-8-6-2,0-4,0-5-2l-2-1-1-2-2-1h2zm-4,0,2,1,3,3c-3,0-6-1-6-3-2,0,0-1,1-1zm52,1c3,2,4,3,8,5,0,0,1,2,0,2h-5c-5-2-3-5-3-7zm86,2-2,3-3,3c0-3-1-5,5-6zm-83,5c1,0,1,1,1,1,4,0,7,2,10,2,0,0,2,1,0,1h-3c-5,2-10,0-10-3v-1h2zm-31,4c4,0,5,4,2,4-3,1-5-2-2-2v-2zm12,2h6c2,0,3,0,2,2h-10c-2,0-2-2,0-2h2zm19,3v3s0,2-2,2c-1,0-1-2-1-2,0-1,0-3,3-3zm22,2c2,0,5,1,5,1v4l-14-2c1,0,4-2,8-3h1zm-33,1c1,0,1,2,0,2h-8,1c2-2,3-2,7-2zm54,0,2,0,6,2,11,3,0,2-5,3,2-5-3,2-2,0s2,1,0,1v5l-1,2h-4l-9-5,9,2-6-4v-1l-2,1-3-1-3-5,11,3,3,2v-2l-6-3v-2zm18,0,3,0,3,0-2,2-4-2zm-76,5h5c0,2-6,3-8,3-1,2-1,0-3,0,0-1-2-3,0-3s3-1,6,0zm-16,0,2,2,2,3-2,5-3,3-5,3,0-5,3-8,2-1,1-2zm96,2c2,1,0,3-1,5,0,1-3,4-3,6v5s-2,1-4,1l-1-3-2-3,7-6,1-2,3-3zm-46,0,10,1,6,2,6,3-1-1,5,3,3,5,0,3-7,5,4-4-4,0-1-1,0,3-5-2,5,5-3,3-2,5-6,10c-5-2-8-3-12-5-3,0-6-2-9-2-3-1-8-1-5-3h5c5,0,11,0,16,2-3-2-10-3-15-5-1,0-4,0-6-2-2,0,0-3,0-3,0-1,0-3,2-5,0-1,0-3,1-4l-1-2v-2c1-1,3-3,4-4h4c3,0,3,1,4,1,2,3,7,5,10,7l-3-8-5-5zm-21,0,2,1,0,5,0,3-2,4,2,1,0,7-2,6,0-13-1-3,0-5,0-5,1-1zm55,0,1,1-1-1zm-63,3-3,11-2-3,2-2-3,0-2-3,8-3zm-11,5h2c0,1-2,3,0,3,1,2,1,3,3,5,0,1,1,5,3,6,0,2,2,3,0,5h-6c-2-2,0-3,0-3-2-5-4-8-4-11v-5h2zm-8,1,2,0,0,12-2,3,2,1,0,4-2-2-3-3-2-2-1,0c-2-1,1-1,3-5,1-1,3-4,3-8zm80,7c2,0,3,1,3,1,0,2-1,4-5,4,0,1-1,1-3,1-1,0,0-1,0-1,2-2,3-4,3-4,0-1,2-1,2-1zm-91,6c1,0,3,0,3,2,3,1,6,3,8,5h-3c3,1,5,1,6,3-3,0-3-2-6-2,0-1-3-1-3-1l-4-4-3-3h2zm-11,0h1c3,2,7,3,10,5-5,0-7-2-11-3l-2-2h2zm32,10,3,0,6,1,0,5,2,2,1,8-3-7-3-1-5-5-1-3z"/>
 <use xlink:href="#path8647" transform="matrix(-0.886,0,0,0.751,752,51.4)" height="600" width="800" y="0" x="0" fill="#3d7928"/>
 <path d="m439,44.7c14-1.1,24,9.4,37,10.3,6,1.1,10,2.7,11,0,6-1.1,6-6.6,4-8.3,4-3.6,8,7,11-1.3,5,2.5-8,5,1,3.8,6-0.8,17-1.6,4,1.2-16-0.1,6,4.7,1,4.7-5-0.6-14-6.5-16-0.2,6,0.1,22,4.4,8,2.8-7-1.3-13-0.9-3,3.3,5,8.2,10,8.7,19,6.8,6,0.9,21-0.5,21,2.1-4,0.2-18-0.5-6,0.9,5-0.6,26,9.9,12,5.9-4-1.2-9-2.3-13-3.5,6,4.2,17,8.7,4,5.2-4-0.7-14-4.4-5,1.4,7,7.2-4,0.7-7-1.6-4-4.8-6-2.6-8,2.6,5,2.7,7,2.5-1,1.7-4-0.3-9-0.1-14-0.5,2,2,12,0.1,5,1.5,9,3.6,18,1.2,26,3.4,6-0.3,26,3.6,11,2.3-5-0.2-9-0.5-14-0.7,7,3.3,17,10.9,5,4.9-4-2.8-8-0.3-10,2.3,4-0.8-11,6.3,1,5.3,7-1,15-1.4,4,0-7,2-10,2,0,2,4,2-8,1-11,1,4,3,9,3,14,4,7,1,8-1,1,1,5,2,24-3,11,1-3,1,7,0,10,0,4,0,19,1,10,1-8,1-15,1-23,1,11,0,22,3,33,7-10-1-20-5-30-6,10,2-7,0,3,2,7,4,10,11,1,5-3-3-8-3-12-2-8,2-16,2-24,5,5,2,7,4,0,2-5,3,1,5,5,4,7,0,13,1,20,1-7,0-13,0-20,1,6,1,11,3,16,1,6-1,10-1,2,1-4,2,5,3-5,2-11,1,10,1,14-1,7-2,19-5,7,0-4,2-8,3-12,4h23c-8,1-15,2-23,3,6,1,11,4,17,4-9-1-1,3,4,2,5-2,11-1,3,0,7-1,22,0,8,1-9,0-1,1,3,2,8,3,2,3-3,1s-10,0-3,2c5,1,7,0,2,2h15c-7,0-23,4-9,2,6,0,26-2,24,0-7,0-13,1-20,1,7,1,20,4,7,2-5,1-9-1-14-1,1,3,10,3,9,4-8-2-8,0,1,2,13,3-5,0-8,0-4-6-7,11-7,1-1-4-9-1-7,4-2-8-20,3-8-1,7-4,0,1,1,1,5,0,3,1-4,1,6,1,13,1,19,2-8,0-16-1-23,1,7,2,15,5,4,3-7-4-3,5-5,7,4-2,9-3,14-4-5,2-12,6-1,4,6-2,30,0,14,1-9,1-18-1-26,1,8,0,19,1,6,1h-2c8,1,12,3,2,2-4-1-9,0-13-2-6,3-4,3-3,3-14,0,1,5-1,4-11-6-12,16-18,12,7-8-9-6-14-9-2,3,4,13-6,10-6-7-7-9-6,0-5,1-6-4-4-5,2-8-10-9-7,0,6,0-6,9-6,1,5-6,2-8-2,0-5,8-13,3-9-6,0-5-15,0-12,5,0-1-3,7-7,5,2-4-6-7-4-8-6-1-12-4-8,5,2,5-8,4-9,0-8-10,1,2-4,3-3-1-6-4-3-4,2-7-5-10-11-9-7-3-16,7-11,10,1,4-10,4-4-3-1-3-8,11-13,5,5-12-3-8-11-6-10-3,4,12-6,5-5-3-3-9-9-14-3-2-17-1-8-1,3-1,1,0,3-1-4-3-7-1-11-1-5,0-10,1-15,1,6-3,26-2,10-2-6,0-15,0-3-1,12,1,3-2-3-1-8,0-15,0-23-1,7-3,27,2,27-1-6-3-7-3,0-1,6,1,10,4,6-4,2-4-8,0-11,0,6-2,18-5,5-5h-16c6-1,13-1,19-2-7,0-7-1-6-1,5,2-5-6,3-1,11,3-6-6-9,0,2-4-5-7-6-3-2,10-4-8-9,0-4-2-18,4-7-1,13-3,3-2,2-2,3-1,13-4,5-4-6,2-12,1-18,2,7-2,21-3,7-4h-15c9-3,19,0,29,0,13,1-19-3-13-2,5-1,22,1,14-2,2,1,7,0,7-3-4,1-9,2-14,3,4-3,9-3,14-5-5,0-9-1-14-1,4-1,24,1,12-1,10,4,18-3,28-4,8,1,14-3,21-4-8-2,3,0-1-1,1-5,2-7,4,0,2-1,11,0,7-4-2-3-1-10-6-8-10,2,5-1,2-2-4-2-16-4-6-2,4,1,10,1,5-4-4,0-11,2-4-1,7-1,1-5-3-1,5-5,0-4-5-2-5,1-10,3-16,4,6-3,15-6,4-4-4,5-11,7-17,10,7-8,9-9,9-10,1,0-8,2-11,3-6,1-12,3-18,3,11-4,22-7,34-7-9,0-19-1-28-1,9-2,18-1,27-1-5-1-12-3-2-2,11,4,8-1,5,0,7,1,14-1,20-3-1-3-13,3-4-1-7,0-11-1-1-1,5,0-7-2-10-2-9-2.7,22,3,11-3.7-8-2.6,2,0-3-2.7-3-4.1-7-1.8-10-0.2-14,5.6,7-6.2,6-5.8-7,0.4-14,0.7-21,1,11-2.4,22-3.3,32-4.2,13,0.6,24,8.8,36,8.3,6-2.5,11-5.5,1-3.8-7,1-10,0.2-1-1.1,9,0,5-3.8-1-1.3-4,0.9-8,1.6-12,2.4,4-1.8,6-2.9,12-4.6-9-0.5-16-3.8-4-1.9,10,2.8-3-4.7,4-0.6,2-0.5,11-2.6,7,0-2,0.1,25-2.1,14-2-9-0.6-17-0.8-26-1.1,7-2.9,27-0.1,27-1.7-14-5.3,2,0,9,0,6-3.3-9-1.6,1-2.5,6,0,11-3.3,17-4-3-2.3-8-1.1-12-1.6-3-1.1,18-0.1,4-2.1-2-0.8-14-2.6-10-2.7,6,1.1,24,2.3,12-5,0,1.2-3-8-8-5.3-3,0.2-11,6.8-10,3.6,7-5.6,18-10.8,4-8.3-5,0.4-10,0.5-15,0.8,8-4.8,22-1.2,28-5.4l1-0.7,1-0.1zm8,4c4,4.1,5,7.5-1,3.3-4-1.5,0,6.4,0,9.1,0,5.5,7,1.8,11,2.3,4,0.2,9,1.3,13-0.7,4,1.6,10-6.9,4-4.2-4,1-9,2.1-13,3.1,2-1.5,13-5,8-4.9-5,0-11,0.1-16,0.1,5-1.3,10-1.4,15-2.1-7-3-14-4.4-21-6zm-8,1.4c-4,1.5,2,7.5,2,10.7,5,5-1-5,0-5.8,0-1.8,0-3.9-2-4.9zm-4,2c-4,2.3,6,7,0,1.4,2,0.6,2-1.8,0-1.4zm49,5.7zm4,2.4c-4,4.5,1,5.5,5,7,9,2.9,1,1.2-4,0.5-9-1.8-1,3.9-3,2.8-7,3.1-1,12.4,6,10.7,0-3.8,7-7,5-3.5,5-3.5,11-5.3,17-7.3-7,0.7-14,1.8-21,2.7,2-2,12-2.1,7-5.8-4-2.5-8-5.4-12-7.1zm-18,4.9c-5,1.2,6,8.5,4,0.7l-2-0.5-2-0.2zm-12,0.5c-6-0.2-15,1.7-4,4.1,1-1.2,3-2.8,4-4.1zm22,0.8c-8,3.6-5,10.7,0,4.5,3,1.4,3-5,0-4.5zm-18,1c-13,3.7,8,3.8,1,11.7,8-0.5,12-2,4-6.9-2-1.4-4-2.8-5-4.8zm54,1.2c-5-0.4-23,4.1-10,1.4,4-0.7,7-1,10-1.4zm-2,2.6c-9,2.4-12,4.1-2,1.3,1-0.4,1-0.9,2-1.3zm-62,0.2c-7,0.1-18,3.9-6,1.1,2-0.4,4-0.7,6-1.1zm68,0.2c-4,3.9,15,3.6,4,1l-2-0.5-2-0.5zm-39,0.5zm-29,0.8zm63,0.8zm4,0.7zm-75,0.1c-7,1.1-5,1.9,1,2.5,4,2.2,2-3.6-1-2.5zm67,0.1c-7-0.5-18,5.2-6,3.1,8-1-3,1.4-5,2.3,4-0.1,15,3.6,11-5.4zm-53,0.3c-10,0.9-4,10.3,2,5.3-1-1.7-1-3.5-2-5.3zm18,0.7zm-42,1.4c-8,0.7-9,3.2-1,1.6,4-0.2,9-1.1,1-1.6zm44,2.5c-4,3.1,5,11.1,2,0.8l-2-0.8zm-33,0.7zm-14,0.8c-4,0.7-9,0.8-11,4.8-9,7,11-4.2,11-4.8zm52,0.1zm-12,0.2zm-18,0.6,0,0.1,0-0.1zm-37,0.4c-4,1.1-9,2.8-13,3.5,3,1.1,9,2.4,14-2.6-4,0.3-8,1.4-1-0.9zm26,0.8c-6,0.8-26,5.1-11,5.6,8,1,1,0.8-3,0.7-7-0.6-8,0.1-1,2.8,5,2.2-7-1.1-9-1.2-9-1.8,9,3.9-1,1.7,3,1.7,8,2.6,12,2.2,4-1.1,9,1,12-0.2,5-3.1-8-2.7,2-1.9-2-5.5,1-3.6,0-7.5-6,3.3-6,2.8-1-2.2zm50,0.8zm-9,0.2zm-22,0zm-12,0.1zm19,0.3zm-9,0zm42,0.6zm-41,1.3zm-37,0.5zm26,0.3c-2-1.1-6,8.8-2,4.9,1-1.6,1-3.3,2-4.9zm5,0zm-49,0.4,0,0.1,0-0.1zm84,0.3c-3,4.4,17,3.4,4,0.3-1-0.1-3-0.4-4-0.3zm-36,0c2,8.9,2,2.5,3,0.9l-2-0.4-1-0.5zm-91,0.1c6,3.1,5,5.4-1,2.1-1,0.8,0,7.3,2,9,8-2,17,0.4,26-1.4,4-5.5-6-0.7-9-0.8-8,2,2-1.5,5-2.8-5-0.2-12,0-17,0,5-1.1,9-1,14-1.6-6-2.4-13-3.6-20-4.5zm148,0.6c-8-0.8-11,5.9-2,5.5-4,0.7-11-1.3-7,1.8,4,5.1-6-2.8-9-1.9,3,1.6,12,5,4,2.8-4-1.3-11-2.2-5,1.5,4,0.8,8,1.5,12,0.7s10,2,12-0.7c0-2.5,3-8.4-1-7.4-10,3.2,2,0.5-4-2.3zm-38,0.2,0,0.7,0-0.7zm-22,0.1,0,0.6,0-0.6zm71,0.1zm-166,0c-3,1.8,4,9.9,4,9-2-3-1-6.9-4-9zm105,0.4zm4,0.5,0,0.2,0-0.2zm-14,0.3zm74,0.3c0,1.3-1,4.4,2,0.4l-2-0.4zm-172,0c-3,2.6,4,4.6,1,1,0-0.4,0-1.1-1-1zm133,0.3zm14,0.3zm-48,0.5c-6-0.4,1,4.5,0,1.1v-1.1zm21,0.2zm5,0.1zm-67,0.1zm-4,0.1zm113,0.2c1,1.5-4,9.7,1,3,1-2,2-2.2-1-3zm-39,0.9,0,0.5,0-0.5zm-35,0.4zm78,0.2zm-76,0.3zm25,0.1zm-68,0zm65,0.2zm-62,0zm3,0.2zm53,0.6c-9,1.1,1,0.4-6,1.7-2,10.1,11,4.1,7,0.9-5-0.5,12,0.8,0-2.3l-1-0.3zm17,0.1zm-82,0.5zm23,0.2zm11,0.3c2,6.7,16-1.2,3,0.4l-1-0.2-2-0.2zm44,0.3zm-76,0zm12,0.4c-2,1.7,5,8,5,4-1-1.4-3-3.8-5-4zm16,0.8c-10,6.2,0,4.2,5,2.2-1-1.2-3-1.6-5-2.2zm-24,0.2c-8,0-3,3,2,4,8,2-1,0-5,0-9,0,3,3-3,2,5,1,2,6,9,3,8-4-8,1,3-3-1-5.2-4-3-6-5.7v-0.3zm48,0.3zm-71,0.4zm101,0,0,0.4,0-0.4zm-12,0.8c-4,2.5-10,3.5-3,5.5,9-2,4-1,3,1h2c7,1,2-6.8-3-3-7,0,12-2,1-3.5zm-17,0.2c-3,0.1-13,0.1-6,2.3,2,0,7,2,6-2.3zm40,0.3c-5,0-2,3-3,2-2,5,6-3.2,3-2zm-109,0zm120,0c2,7,16-1.1,3,1h-1l-2-1zm-121,0zm54,1c4,2,17,1,5,0h-5zm46,0c-5,4,12,7,2,1l-1-1h-1zm-90,0zm-29,0zm48,1zm65,0zm23,0c-4,4-16,9-4,8,6,3-1-8,8-6,4-1-4-1-4-2zm-63,0zm-60,0zm102,0zm-110,0zm57,1zm-36,0zm-12,0zm8,0zm73,1zm-69,0c-5,4,9-1,1,0h-1zm-11,0c-5,3,3,9,3,2-1,0-1-2-3-2zm45,0zm39,0zm-49,0zm-17,0zm27,1zm35,0zm-42,0zm92,0c3,0,15,3,9,1-3,0-6-1-9-1zm-56,0zm-22,0zm52,0zm-89,0zm-32,0zm34,0zm-8,1zm121,0zm-142,0zm69,1zm-44,0zm67,0zm58,0c-7,0-2,4,3,1,6,0-2,0-3-1zm-157,0c-7,0-5,2,1,2,4,1,1-3-1-2zm125,0zm19,0c-6,6,6,8,2,1-1,0-2,0-2-1zm-23,0zm-108,1c-8,1-5,7,2,4,1-2-2-2-2-4zm103,0c-6,0-11,0-2,1,1,0,3,1,2-1zm-30,0zm-16,0zm-15,0zm72,0zm-20,0zm-19,0c-4,2,4,3-2,4,4,3,0,2,6,0-2-1-1-5-4-4zm7,0zm-45,0zm10,0zm40,1zm-53,0zm119,0c-11,1,3,2,7,2-2-1-5-2-7-2zm-132,0zm-43,0c-9,1-6,3,0,1,4,0,6-1,0-1zm41,0zm-6,0c-6,0-13,3-2,1h1l1-1zm24,0zm27,0zm-15,0zm48,0zm-30,1zm-13,0zm-22,0zm67,0c-3,0,2,4,3,1-1,0-2-1-3-1zm-12,0zm-5,0zm-53,0zm12,1zm30,0zm-13,0c3,0,2,9,4,5,3-5-1-4-4-5zm54,0zm-56,0zm87,0c6,7-1,1-4,3,3,5,7,1,11-1-2-1-5-1-7-2zm-123,1zm135,0c5,2,18,9,9,2-2-2-6-1-9-2zm-47,0zm10,0zm-61,0zm53,1zm-115,0zm98,0zm42,0zm-45,0zm-23,0c0,1-5,6,2,2,3,0-7-2,1,0,3,0-2-3-3-2zm17,0c-10,0-7,7,1,2v-1l-1-1zm67,0c-4,5-6,5-12,8,5-2,23-3,24-4-4-2-8-3-12-4zm-26,0c-2,3,6,2,1,0h-1zm-120,0zm24,1zm89,0zm-15,0zm-55,0zm-17,0zm77,0zm-96,0zm118,1c3,3,3,3,3,7,2-5,3-7-3-7zm-74,0c-9,0,11,3,1,0h-1zm-56,0c-6-2-5,8-2,6-1-3,1-4,2-6zm24,0zm73,1zm-23,0c-9,2-4,2,2,1-2,1-12,1-10,4,7,3,3,1-2,1-2,5,1,5-4,8-1,2,9,5,9,4,0-9,3-4,3,1,7-1-6,0,3,1,5,2,16-6,5-4-5-1,19,0,7-7-4-3-6-8-11-5-12,4,2-1,1-4h-3zm54,0zm-126,0zm32,0zm8,1c-1,5,3,7,5,2,1-6-4,3-5-2zm44,0c-7,0-3,5,0,1v-1zm54,0zm-38,0zm-2,0c-7-1-12,8-2,3,2-3,1,2,2-3zm-69,0zm107,1zm-19,0zm-108,0c-9,1,6,2,1,0h-1zm75,0zm41,0c-8,1,5,2,4,1-1,0-2-2-4-1zm-124,0c-4,1-5,3,1,1,4,0,1-1-1-1zm46,0zm4,1zm-28,0c2,3,5,12,9,5,6-7-8,7-3-2,0-2-5-2-6-3zm12,1zm80,0c-3,6-4-3-4,4-1,7,8-3,5-4h-1zm-103,0c-6-1,2,8,3,6-1-6,2-5-2-4,0-1-1-1-1-2zm88,0c-2,2-12,3-7,6-2,6,7,4,9,3,1-6-5,4-2-5,2-1,0-2,0-4zm-42,1zm-2,0c-5,1-10,2-14,5,5,0,9,1,14,1-1-2,2-5,0-6zm52,0zm-90,0zm102,0zm-113,0zm30,1zm1,0zm86,1c-12,2-2,2,0,1-3,1-15,4-5,4,4,6,14-7,6-5h-1zm-121,0c-9-3-5,11,0,12,3-2,8-3,10-5,1-5-9,0-10-3,3,0,13,1,5-1-5-1-9-3-1-1,6,1-3-3-4-2zm103,0zm-86,0c-1,5,3,0,5,4,4,1-4-5-5-4zm-3,3zm88,0zm-85,1zm89,1zm-53,0c-5,1-10,0-14,2-1,4,7,3,9,4,4,1,4-4,5-6zm55,0zm-74,1zm91,0zm-109,3zm22,0zm-9,0c1,5,10,4,5,1-2,0-3-1-5-1zm54,0zm-63,1zm108,0c-2,2,6,5,8,3,3-4-6-2-8-3zm-117,0zm99,0zm-87,0c-5,5,7,0-1,4,1,4,12-3,1-4zm32,0c-5,6,5,1,1,4,0-2-4,4,2,1-2-4,9-2-1-4,0-1-1-1-2-1zm84,1zm-133,0c-7-1-4,4-2,2,1,2,2-1,2-2zm114,0zm-82,0zm-41,0c-1,4,9,4,2,1l-2-1zm12,1zm35,1zm19,0c-9,1-3,6,4,3,8,0-7,1,1-1-2,0-3-2-5-2zm21,0c-9-1-4,7,1,2,2,0,1-3-1-2zm-91,0zm15,0zm146,0c-7,1-19,3-6,3,2-1,5-1,6-3zm-87,1zm32,0zm-24,0zm-91,0zm65,1zm4,0zm-65,0c-3,1,11,1,6,1-2-1-4-1-6-1zm83,0c-1,2,9,3,1,1,2,1,0-2-1-1zm-29,0zm50,0zm43,1zm-150,0zm121,0c-6,4,0,9,0,1v-1zm6,0zm-112,1c9,2,9,0,1,0h-1zm77,0c-2,1,10,7,4,1-4,2,4-1-3-1h-1zm-7,0zm-19,0zm-73,0c-2,1-7,2-12,4-2,1-13,2-9,2,6,0,12,1,18,1-8,2-17,1-25,2,3,1,23,7,14,4h21c-6-1-12-3-17-5,9,0,17,4,26,3-6,0-7,1-5-2-7-2-5-2,1-1,2,2,12-1,8-1-2,1,3-1-4,0h-2c7,1,6-4,0-3s-11,1-1-1c5,0-6-4-9-3h-4zm134,1zm-29,0c-4,0,4,1,1,3,4-1,2-2-1-3zm-23,0c-14,0,3,3,2,5-5-3-19,0-8,1,12,1-2,1-2,1,5,0,10,2,15,0,4,0,10-5,10-5-6,0-11-2-17-2zm-69,0zm4,0zm131,1zm23,0c4,4,18,4,6,2-2-1-4-1-6-2zm-110,0zm-19,1zm114,0c1,2-4,9-2,10-4,1,5,1,8,1,15,1-6,0-2,1,3,0-9,1-9,1-13,0,18,3,5,3-5-1-10-1-14-2-2,3,12,4,5,3-5-2,6,7,6,2,0-7,4,8,8,2,7-1,18-2,6,1-8,0-8,3,1,2,2,1,22,2,13,3-4,1-23-3-16,1,5,1,9-2,14,0,3-1,9,2,11-2-10,4,9-7-2-4-14,5,5-6,4-6-4,1-11,3-12,3,5-3,14-5,2-3-5,0-28,5-14,0,8-2,25-4,9-4-4,0-10,1-8-5,1-7-6,3-9,3-4-2,8-6,1-8-2-1-3-2-5-2zm-128,0zm84,0zm-46,0c-6,2,2,6,2,0h-2zm96,0zm-109,0zm81,1zm-114,0zm121,0zm-45,1c-2,5,6,3,7,0h-7zm-62,0zm106,0zm-32,0zm-47,1zm88,0c-9,2,1,7,1,1,0-1,0-1-1-1zm-34,0zm-78,0zm68,1zm66,0c-5,9,6,8,9,6-3-1-6-5-9-6zm6,1c3,1,9,5,9,2-2-1-6-1-9-2zm8,0c6,4,10,0,1,0h-1zm-42,0zm-10,0zm-12,0zm-39,1c6,1,10,1,9,1-3-1-6-1-9-1zm44,0zm-50,0c-7,1,2,1-2,1,3-1,10,1,2-1zm119,2zm-45,0c-9-1-7,1,0,2v-2zm-180,0c3,4,8,1,12,2-4-1-8-2-12-2zm232,0zm-240,0zm144,0zm94,1c-11,0,2,6,1,2-8-2,4,2,0-2h-1zm-11,0zm-224,0c-5,3,5,0-2,3,6,1,9-2,2-3zm46,0zm60,0zm-54,1zm84,0c-8,2,4,1,1,0h-1zm-19,0zm-17,0zm-45,1zm125,0zm-151,0c5,2-7,0-9,1-13,1,5,2,9,3,4,0,10-3,11-3-3,0-7-1-11-1zm22,2c-8,1-15,2-23,3,8-1,16,0,23-3zm117,1zm-105,0c-6,4,4,4,0,1v-1zm-6,0zm84,1zm-64,0zm-66,0c2,1,13,5,8,4-3-1-17-5-8-1,9,7,4,4-3,3,3,5,8,6,2,6,3,3,9,0,13,0h1c-3,0-14,0-6-1,4-1,21-3,14-4-3-1-9-3-1-2,8,0,5-4-2-2-4,1-9,1-1-1-6-1-11-2-17-2zm64,0zm163,1c-5,8,15,1,4,1,0,3-3,0-4-1zm-241,0c-3,5-9-2-7,3,3,1,10,2,7-3zm72,1zm-19,0c-6,1-3,6,1,2,0-1-1-1-1-2zm76,0zm22,0zm-96,0zm-13,0zm6,1c-2,1-12,3-10,3,4,0,7-2,10-3zm19,0c-5,1-1,8,3,6-1-2-2-4-3-6zm32,0zm-8,0zm-1,0zm-3,0zm147,1zm-227,0zm73,0c-6-3-5,9,0,4,6-7-5-1,0-4zm93,0c-6-2-5,5,0,5v-5zm-101,0zm72,0zm-86,0zm97,0zm-21,1zm-42,0zm91,0c-7,0,5,4,1,0h-1zm-100,1zm21,0zm51,0zm-4,0zm-62,1zm93,0c-4,4,16,3,2,1,0-1-1-1-2-1zm-66,0zm-57,0c-5,1-12,4-1,3,1,0,2-3,1-3zm104,0zm-76,1zm58,0zm24,0zm-127,0zm43,0zm8,0zm6,1zm58,0zm-54,0zm-19,0zm3,1zm41,0zm35,0zm-86,0zm-6,0zm99,0zm-26,0zm-33,1zm39,0zm-64,0c-12,0,2,3,2,0h-2zm65,0zm-111,0zm142,1zm-124,0zm66,0c-10,2-3,3,3,3,0-2-2-3-3-3zm-33,1zm12,0zm33,0c3,3,6,4-1,2-6-2,1,4,3,4,5,2-10-2,0,2,5,4,3-7,0-8h-2zm19,0zm41,1c-10,2-3,2,3,1l-1-1h-2zm-152,0c-7,3,4,3,7,2-2-2-5-2-7-2zm131,0zm-110,0c-1,3,13,2,1,0h-1zm143,0c5,3,7,4,0,3-8-2,0,2,1,2,9,4-3,0-1,2,4,3,10,3,8-3,3,0,4,3,4-1-4,0-8-3-12-3zm-128,0c-9,3,11,5,8,3,2,0-4-2-8-3zm-48,0c-4,0-8,3-12,3,1,6,3-3,5,3-1,7,10-1,7,0-7,2,1-2,3-3,4-3-10,2-7,0,1-1,3-2,4-3zm190,1zm-63,0zm-138,0zm123,0zm55,0zm-97,1zm44,0c-4,0,1,1,0,2v-2zm-53,0zm59,0zm-84,1c-9,0,6,3,3,0h-3zm54,0c5,4,6,12-1,4-6-3-8,1-4,1,6-3-3,3,2,6,0,5,7,11,3,9,4,6,18-8,6-4,11-2,2-7-4-5,4,0,14,0,14-2-5-2-14-4-3-2,8,1-2-5-2-4-4-3-7-1-10-3h-1zm52,0zm-11,0c-1,6,3,3,0,6,3,2,2-5,0-6zm-86,0zm79,1c-7,10,3,3,2,1-5,0,3-1-2-1zm67,0c-2,3-9,6-6,10,3,3,5-8,6-10zm-205,0c0,3,5,16,6,7-3-2-4-5-6-7zm176,0c2,3,16,3,7,1-2,0-5-1-7-1zm-147,0c-5,1-10,1-14,4-2-1-8,5-2,8,0-1,3,0,5-2-4,4,0,7,2,11,0,7,18-2,8,0,7,0,16-5,5-2-7,1-10-1-1-2,10,2,7-12,1-14-6,3-13,7-6-1,1-1,1-1,2-2zm12,0c-2,2-1,10,1,8,2-4,1-4-1-8zm156,0zm-190,0zm66,0zm-24,1zm38,0zm-29,0c-2,3,4,8,5,6,0,1-1-6-5-6zm6,1zm10,0zm-28,0zm45,0zm97,1c-4,0-12-2-7,4-1,0-12-4-14,0,12-1,2-2,0,3-1,4,20,7,20,3-3-4,4-2,4-1-3,3,7-6,0-8-3-3-1,1-3-1zm-14,1c-8,0-5,1,1,0h-1zm-47,0zm-51,0zm20,0zm68,1zm-110,0zm32,0zm6,0zm-11,1zm-34,0zm29,0zm-3,0zm74,0zm-89,0zm33,1zm-39,0zm33,0zm68,1zm-71,0zm65,0zm-55,1zm31,0zm-28,0zm-55,0c1,6,3,9,2,1,1-2-1-1-2-1zm87,0zm69,1zm-188,0zm156,0zm-113,0zm94,0zm-87,0zm38,0c-9,4,10,11,1,2-1,0-1-1-1-2zm-4,0c-3,2,0,9,0,1v-1zm23,0zm3,1zm-34,0zm37,0zm-71,0zm26,0zm79,0zm-37,1zm-34,0c-3-1-6,1-2,0h2zm60,0zm3,0zm-63,0c-8,1,3,8,1,1l-1-1zm-22,1zm85,0zm-74,0zm83,1zm-34,0c-4-1-9,8-1,2,3,0,5-3,1-2zm-58,0zm99,0zm-92,0zm-13,0zm108,1c2,3,21,4,5,4-14-3,9,7,12,4,8-9-5-5-11-7-2,0-4-1-6-1zm-90,0zm71,0zm-85,0zm74,0zm-63,1zm-5,0zm76,0c-2,4,6,3,1,2,2,0-1-2-1-2zm-83,2zm35,0c-7,2,14,2,2,0h-2zm37,0c0,2-5,12-2,8,0-3,10-8,5-8h-3zm-57,1zm76,0c1,4,7,5,8,9-1,0-1-9-4-9h-4zm-100,0c-5,0-5,3-7,8-3,4,4-4,6-5,0-2,3-2,1-3zm29,1c2,4,7,4,8,9-2-4-1-10-5-9h-3zm28,1zm2,0zm-5,1zm1,2z" stroke="#325a24" stroke-linecap="round" stroke-miterlimit="4" stroke-width="1.466" fill="#2c4f1f"/>
 <use xlink:href="#path8647" height="600" width="800" y="0" x="0" fill="#a7d370"/>
<!-- Pfeile -->
 <g fill="#decbd3">
  <path d="m319,444,0,32-10,0,29,32c-1,0,26-32,26-32h-10v-32h-35z"/>
  <path d="m198,221,0,105,0,35,35,0,9,0,0,11,34-29-34-27,0,10-9,0,0-105-35,0z"/>
  <path d="M22.8,37.3v503h157v9l26-19-26-17v8h-141v-207h28.8v8l23.1-19c-0.2,0-22.9-18-22.9-18v10h-29v-239h255v-18.9h-271z"/>
  <path d="m286,182-32,27,32,29v-8h37v-37h-37v-11z"/>
  <path d="m350,222v61h-9s27,32,27,32l29-34-12,1v-60h-35z"/>
  <path d="m491,500,0,10-102,0,0,35,102,0,0,11,32-28-32-28z"/>
  <path d="m604,403-29,33,11,0,0,80,35,0,0-81,11,0-28-32z"/>
  <path d="m579,29s-24,17.1-25,17.1l25,18.3v-8.3h167v313h-109v20h109,19v-333-17.5h-19-167v-9.6z"/>
  <path d="m470,182s-32,27-33,27l33,29v-10h130v140h40v-140-36h-40-130v-10z"/>
  <path d="m 167.4,235 -16.5,14.5 16.5,13.5 0,-5 7.5,0 0,39.6 -30.1,0 0,13.1 43.7,-0.2 0.3,0 0,-52.5 0,-17.5 -17,0 -4.4,0 0,-5.5 z"/>
 </g>
<!-- Boxen -->
 <g stroke="#efbd79" stroke-linecap="round" stroke-width="2.4" fill="#fbeedc">
  <rect y="315" width="184" x="276" height="138"/>
  <rect y="22" width="306" x="241" height="52"/>
  <rect y="192" width="118" x="318" height="42"/>
  <rect y="510" width="148" x="526" height="45"/>
  <rect y="357" width="148" x="497" height="45"/>
  <rect y="507" width="189" x="205" height="45"/>
 </g>
<!-- Bakterien -->
 <g stroke-width="5" stroke="#8490b2" fill="#fbeedc">
  <path d="m150,305a27.2,27.2,0,0,1,-54.4,0,27.2,27.2,0,1,1,54.4,0z"/>
  <path d="m782,260c-1,7-4,13-9,17s-12,7-18,7c-7,0-13-3-18-7s-9-10-9-17c-1-8,1-16,6-21,5-6,13-9,21-9,7,0,15,3,20,9,5,5,8,13,7,21z"/>
  <path d="m630,475a27.2,27.2,0,0,1,-54,0,27.2,27.2,0,1,1,54,0z"/>
  <path d="m478,529a27.2,27.2,0,0,1,-54,0,27.2,27.2,0,1,1,54,0z"/>
  <path d="m124,529a27.2,27.2,0,0,1,-54.4,0,27.2,27.2,0,1,1,54.4,0z"/>
  <path d="mm338,356a27.2,27.2,0,0,1,-54.4,0,27.2,27.2,0,1,1,54.4,0z"/>
 </g>
 <g stroke-width="1.5px" stroke="#92243d" fill="#c93c5c">
  <path d="m125,284c0,2-4,7-5,7-2,3,3,6,6,5,2-2,5-7,5-8,2-5-5-7-6-4z"/>
  <path d="m109,300c1-1,6-3,6-3,3-1,2-6-3-6-2,1-7,3-7,5-3,3,2,6,4,4z"/>
  <path d="m107,308c2,2,2,5,2,7-2,5,4,5,6,0,2-3,0-8-3-10-2-3-7,0-5,3z"/>
  <path d="m133,297c3,2,3,3,3,7-2,4,5,6,6-2,2-5-1-8-3-10-6-3-10,2-6,5z"/>
  <path d="m120,318c1,2,5,3,6,5,2,1,7-3,3-7,0,0-6-4-8-4-3,0-6,6-1,6z"/>
  <path d="m761,243c0,1-4,6-4,6-3,3,2,7,5,5,2-2,5-6,5-8,2-5-5-6-6-3z"/>
  <path d="m730,262c2,0,3,5,5,5,2,3,6,0,5-3,0-2-5-7-5-8-3-2-6,3-5,6z"/>
  <path d="m743,260c2,2,2,7,0,8,0,4,6,4,8-1,2-3-2-8-3-10-2-1-7,0-5,3z"/>
  <path d="m762,267c0,5,0,5-5,6-3,2,0,8,7,5,5-2,5-8,5-10-2-6-8-6-7-1z"/>
  <path d="m599,484c-1,2-3,7-4,7-2,3,2,6,5,5,2-2,5-7,6-8,0-5-6-7-7-4z"/>
  <path d="m610,480c1,1,3,4,4,6,2,3,7,0,5-3,0-2-5-7-5-8-3-2-7,3-4,5z"/>
  <path d="m591,465c4-3,5-1,8,2,2,1,7-3,1-8-3-3-8-2-9-2-7,3-4,10,0,8z"/>
  <path d="m460,512c0,1-3,4-4,6-2,3,3,6,6,5,1-2,5-7,5-10s-5-5-7-1z"/>
  <path d="m449,508c0,2-1,7-2,8-1,4,4,5,6,2,1-2,3-8,2-10-1-3-6-3-6,0z"/>
  <path d="m458,536c2,1,1,4,1,6-2,5,5,5,7,0,1-3-1-8-3-11-2-2-7,1-5,5z"/>
  <path d="m447,528c-1-2-2-5-2-7-1-3-6-1-6,2,0,1,2,8,3,8,2,3,7,0,5-3z"/>
  <path d="m440,540c-2-1-1-4,0-6,1-5-5-5-7,0-2,3,0,8,3,11,2,2,6-1,4-5z"/>
  <path d="m97.4,515s3.6,3,3.6,5c1,3,6,0,4-4,0-1-3-6-4-8-3.6-1-6.8,4-3.6,7z"/>
  <path d="m92.6,537c0,2-3.2,5-4.8,7-3.2,1,1.6,6,6.4,3,3.2-3,4.8-8,3.2-11,0-2-4.8-4-4.8,1z"/>
  <path d="m107,537c0,3,0,5-5,7-3,1,0,8,7,3,4-2,4-7,4-8,0-8-8-7-6-2z"/>
  <path d="m78.2,532c3.2-1,4.8-1,8,2,3.2,2,8-3,1.6-8-4.8-3-9.6-2-9.6,0-6.4,5-3.2,10,0,6z"/>
 <path d="m 315,336 c 0,2 -4,7 -5,7 -2,3 3,6 6,5 2,-2 5,-7 5,-8 2,-5 -5,-7 -6,-4 z" />
 <path d="m 299,352 c 1,-1 6,-3 6,-3 3,-1 2,-6 -3,-6 -2,1 -7,3 -7,5 -3,3 2,6 4,4 z" />
 <path d="m 297,360 c 2,2 2,5 2,7 -2,5 4,5 6,0 2,-3 0,-8 -3,-10 -2,-3 -7,0 -5,3 z"/>
 <path d="m 323,349 c 3,2 3,3 3,7 -2,4 5,6 6,-2 2,-5 -1,-8 -3,-10 -6,-3 -10,2 -6,5 z" />
 <path d="m 310,370 c 1,2 5,3 6,5 2,1 7,-3 3,-7 0,0 -6,-4 -8,-4 -3,0 -6,6 -1,6 z"/>
 </g>
<!-- Hase -->
 <path d="m239,215h4c2,0,3-1,5-1s7,0,3-3c-2-2-5-1-7-2s-4-7-4-8c0-3,1-1,2-1,0-1,0-3,1-3,2-2,2-4,3-7,2-2,4-5,7-7,2-2,4-3,5-5v-2c1-1,0-1,2-1,5-2,14-2,9-11-2-3-6-6-8-9-2-4-4-5-9-6-4-1-6-3-6-7-1-5-3-8-7-11-2-2-6-6-7-1,0,2,1,6,0,7,0,1-4,0-6-1-4,0-6,1-4,5,0,2,1,2,2,3,1,2,2,3,3,5s3,4,6,4c0,1,3,1,3,2,0,2-7,2-8,3-1,0-3,1-4,2-1,0-3-1-4-1-5-1-11,0-15,1-2,1-4,2-6,3s-4,1-6,2c-6,3-7,7-10,12s-4,12-5,17c-1,3,0,5,0,7,0,3-2,2-4,3-1,0-4,2-5,3,0,2,1,1,1,2l2,2c0,1,1,1,2,1,1,1,1,2,3,2h3c1-1,3-1,5-1,3-1,4-1,7-1,5,1,9,2,14,2,2,0,3-1,5,0,5,2,10,2,15,1,5-2-2-4-2-6,0,0,1-2,1-3,1-1,2,0,3,1,1,2,1,5,3,6,1,2,6,2,8,2" fill="#ededed"/>
 <path d="m234,128c-1,0-2,0-2,2s1,6,0,7c0,1-4,0-6-1-4,0-6,1-4,5,0,2,1,2,2,3,1,2,2,3,3,5s3,4,6,4c0,1,3,1,3,2,0,2-7,2-8,3-1,0-3,1-4,2h-1c1,0,1,1,2,0,1,0,3-1,5-2,1,0,4-1,5-1,1,1-1,4,1,5,0-2-1-5,1-6,1,0,0,2,0,3,0,2,0,0,1,0v-2c1,0,2,1,2,1,1,0,3,0,2-1h-2c-1,0-3-6-3-3l-6-3c-2-1-3-3-4-4-1-2-4-4-4-5-3-6,3-4,7-4,3,0,4,1,6,4,2,1,4,3,5,5s3,2,5,4c4,0-1-1,0-3h-2c-1,0,0,1-1,0-1-2-2-3-4-4-2-3-5-5-5-7-1-2-2-5-1-7s3,0,5,1c2,2,4,4,5,6s1,3,2,5c0,3,1,4,3,6s4,2,7,3,4,2,6,4c-2-4-4-5-9-6-4-1-6-3-6-7-1-5-3-8-7-11-1-1-3-3-5-3zm27,27c2,4,8,9,8,14-2,0-3,3-5,3-3,1-6-2-8-1,1,1,4,2,6,2v1c-2,0-3-1-4,0-1,0-1,1-2,1-2,2-3,0-5,0,2,3,8-1,5,4,0,1-2,2-3,3-1,0,0-1-1-1s-1-1-2,1c0,1,2,0,0,2,0,1-2,3-3,4s-1,1-1,2c2-2,4-5,7-7,2-2,4-3,5-5v-2c1-1,0-1,2-1,5-2,14-2,9-11-2-3-6-6-8-9zm-15,35c-1,0-3,1-1,1-1,1-4,3-1,3,0,1-1,2-2,3s-3,0-3,0c0,1-2,8-3,6-2-3,3-7,3-8,1-4-4,1-1,0-1,2-3,1-3,2-1,1-1,2,0,2,0,2,0,4,1,6,1,0,0,3,1,4,2,1,6,0,7,3h-1c-4-2,0,1,1,2-2,0-4,0-5,1h4c2,0,3-1,5-1s7,0,3-3c-2-2-5-1-7-2s-4-7-4-8c0-3,1-1,2-1,0-1,0-3,1-3,2-2,2-4,3-7zm-7,25c-2-1-7-1-8-3s-3-5-4-7c-1-1-3-3-3-5,0-1-1-7-1-2-1,1,0,3,1,5l2,1c0,1-1,1-2,1,0,2,0,3-3,3v-1c-1,0,0,1-1,1h-4s0-4,1-4c0-1-1-4-1-4l-1,3,1,1c0,1-4,3-1,3,0,2-1,2-3,2h1c1,1,5,0,6,0s4,0,5,1l3,3c-1,2-3-2-3-2-1,0-4-1-3,0,0,1,3,0,3,2s-1,1-2,0c-2-1-3-2-5-2,1,1,4,1,4,3-4,0-8-1-12-2-2,0-4,1-7,0-2,0-6,0-9-1-1,0-4-1-6,0-2,0-4,1-6,2h-4c-1-1,1-1,1-2-1,0-3,2-3,1-1-1,2-2,1-2-1-1-2,1-2,1-1,0-1-1-1-1v-1h-1c-1-1-2-1-1-2,0-1,3-2,5-3,3-1,3,1,4,4,1,0,1,2,2,2,1-1-1-3-1-4-2-2-3-5-3-9,1-6,3-13,5-19,2-4,5-9,10-12,4-2,8-3,12-5s11-2,15-2c-5-1-11,0-15,1l-6,3c-2,1-4,1-6,2-6,3-7,7-10,12s-4,12-5,17c-1,3,0,5,0,7,0,3-2,2-4,3-1,0-4,2-5,3,0,2,1,1,1,2l2,2c0,1,1,1,2,1,1,1,1,2,3,2h3c1-1,3-1,5-1,3-1,4-1,7-1,5,1,9,2,14,2,2,0,3-1,5,0,5,2,10,2,15,1,5-2-2-4-2-6,0,0,1-2,1-3,1-1,2,0,3,1,1,2,1,5,3,6,1,2,6,2,8,2zm-16-55c-1,0-1-1-2-1,1,1,1,1,2,1zm2-22c-1,0-2,1-1,2,0,1,1,0,2,0,2-1,5,2,6,4,0,1,1,2,2,4,0-2-1-4-1-5,4,1,4,7,6,10,0,0,1,1,2,1,0,0-2-3-2-4-1-2-1-4-3-5-1-2-3-3-5-4-1,0-4-3-6-3zm10,9c0,1-1,2,0,3,1-1,1-3,0-3zm-6,1s0,1,1,2,3,2,5,2c0,0-3-2-4-3-1,0-1-1-2-1zm23,4,4,2c0-1-1-2-3-2h-1zm-8,2c-1,0,0,3,0,3s1-3,0-3zm12,3s3,3,3,4c0-1-1-4-2-4h-1zm-4,1c-5,0-3,5,2,4h2c2-1,1,0,0-1-1-2-2-3-4-3zm-5,4c-1,1,4,3,4,3,2-1-4-3-4-3zm-20,1c-1,0,0,0,0,1v-1zm12,0c-1,1,0,1,0,1s1-1,0-1zm14,1c-1,0-2,2,0,2,0,0,1-2,0-2zm13,2c-1,0,2,1,2,2,1-1,0-2-1-2h-1zm-16,8c-1,0-2,1-1,1s2-1,1-1zm-43,6c0,1,1,1,2,1,0-1-1-1-2-1zm40,0c0,1,0,1,1,1,0-1,0-1-1-1zm-36,2c1,3,3,6,4,8s1,4,2,5c1-4-4-10-6-13zm-5,1c-1,0,1,2,1,2,0-1,0-2-1-2zm-22,1s-1,1,0,2v-2zm34,0c0,2,0,5,1,6,1-1,1-5-1-6zm-10,1c0,1,1,2,1,3,1-1,0-3-1-3zm12,0,0,6c0,1,1,3,1,3,2-1,0-7-1-9zm3,2c-1,0,0,2,0,3,0-1,1-3,0-3zm-12,1c-1,0,0,2,1,2l-1-2zm2,6c0,1,0,2,1,2,0,0,0-1-1-2zm2,3c0,1-1,3,0,3s1-2,0-3zm16,0s0,1,1,2v-1c0-1-1-1-1-1zm1,1zm-51,6h1c-1,0,0-1-1,0zm1,1c0,1,0,1,1,1l-1-1zm38,0c-1,0-1,1-1,1,1,0,2-1,1-1zm-35,2s-2,2-1,2,3-2,1-2zm3,0c-1,0-5,3-3,4,0-1,4-4,3-4z"/>
 <path d="m268,169c0,1-1,2-2,3h1c1,0,2-1,2-3h-1zm-30,33c-1,0,0,2,0,4,0,3,2,3,4,3,0-2-2-5-3-6l-1-1zm7,8c0,1,3,4,4,3,3,0-3-2-3-3h-1z" fill="#b3bcb3"/>
 <path d="m253,161c0,1-3-2-3-2-1,1,2,3,3,2" fill="#00a33d"/>
 <path d="m254,160c0-1-1-1-2-1,0,1,1,1,2,1" fill="#FFF"/>
<!-- Pflanze1 -->
 <path d="m102,207c0,5,0,11,4,13,3,3,9,3,14,3s8,0,13-2m-29-11c2,3,0,6,3,8,2,3,8,3,11,6,0,2-3,5-1,8,1,2,5,2,8,4m3-7c-2-1-5-3-6-5-5-1-13,0-16-3-2-1-2-11-2-9-2,1-2,11-2,16,2,3,7,6,10,8,3,1,6,3,10,4,4,2,9,2,14,4,5,1,8,4,11,8m-41-40c0,4-4,9,0,14,1,5,8,8,12,13,2,3,4,8,7,9,1,2,6,0,9,2,2,0,2,3,4,5m-31-42c0,5-3,10-3,15,2,4,6,9,8,16,2,1,2,3,3,4,2,0,3,0,7,2,1,0,1,0,3,2m-21-37v19c0,2-2,5,0,8s6,5,10,8c3,3,8,5,11,8,0,2-2,5,0,6,1,2,5,4,8,5m-27-61c-2,7-2,16-4,21-1,2-4.4-1-7.6,0-1.6,0-3.2,3-6.4,5h-8m27-22c-1,6-5,14-5,20,0,7,0,15,4,21,0,2,4,2,6,5,2,2,2,5,2,5,1,3,4,3,8,5m-16-61c-2,13-4,25-4,38,0,2,0,7,2,8,2,2,5,2,5,3,1,2-2,7,0,10,1,2,5,2,6,3,0,2-1,3-1,5m-10-67c0,8,2,17,2,24,0,1-4,0-5,0-1.8,0-5-2-6.6,0,0,1,1.6,5,0,6,0,3-3.2,5-4.8,7-1.6,0-4.8,0-8-2m25.4-34c-5,8-3,13-6,20-1.8,1-3.4,3-5,4,0,4-1.6,5-1.6,8v5c-1.6,3-4.8,3-8,5m17.6-45c-2,10-3,21-3,31,0,3,3,8,1,11,0,1-2.8,3-4.4,5-1.6,3,1.6,8,0,9-3.2,3-8,7-12.8,7-3.2,1-4.8,0-8,0m30.2-64c-1,11-3,20-5,32,0,3-1,8-1,11,0,1,1,3,1,3-1,2-2.8,3-2.8,5-1.6,1-1.6,5-1.6,8,0,1-1.6,5-3.2,8,0,1-3.2,3-4.8,5m14.4-74v30c-2,7-3,13-4.8,20,0,4-3.2,9-3.2,12,0,4,3.2,7,5,10" stroke="#e4ca61" stroke-linecap="round" stroke-width="1.6px" fill="none"/>
 <use y="45.2" x="3.07" xlink:href="#knolle1"/>
 <use y="25.2" x="45.5" xlink:href="#knolle1"/>
 <g id="knolle1" transform="matrix(1.6,0,0,1.6,688,-86.1)" fill-rule="nonzero">
  <path d="m-267,190a2,1.54,0,1,1,-4,0,2,1.54,0,1,1,4,0z" transform="matrix(1.54,0,0,1.68,40.6,-128)" stroke-dashoffset="0" stroke="#5b4c0f" stroke-linecap="round" stroke-miterlimit="3.8" stroke-width="0.192" fill="#7f7030"/>
  <path transform="matrix(0.842,-0.216,0.173,0.673,-182,6.09)" d="m-267,190a2,1.54,0,1,1,-4,0,2,1.54,0,1,1,4,0z" fill="#b29c43"/>
  <path transform="matrix(0.495,-0.132,0.101,0.412,-262,78.1)" d="m-267,190a2,1.54,0,1,1,-4,0,2,1.54,0,1,1,4,0z" fill="#d1c284"/>
 </g>
 <g id="knolle2" transform="matrix(1.6,0,0,1.6,485,-79.4)">
  <path d="m-267,190a2,1.54,0,1,1,-4,0,2,1.54,0,1,1,4,0z" transform="matrix(1.54,0,0,1.68,170,-128)" stroke-dashoffset="0" stroke="#5b4c0f" stroke-linecap="round" stroke-miterlimit="3.8" stroke-width="0.192" fill="#968439"/>
  <path transform="matrix(0.842,-0.216,0.173,0.673,-53.1,5.36)" d="m-267,190a2,1.54,0,1,1,-4,0,2,1.54,0,1,1,4,0z" fill="#b29c43"/>
  <path transform="matrix(0.495,-0.132,0.101,0.412,-133,77.4)" d="m-267,190a2,1.54,0,1,1,-4,0,2,1.54,0,1,1,4,0z" fill="#d1c284"/>
 </g>
 <use xlink:href="#knolle1" transform="translate(38.1,42.4)" height="600" width="800" y="0" x="0"/>
 <path d="m145,123c5,3,10,9,10,14,2,21-5,37-3,58-7-5-10-16-10-24,0-7,5-24,3-48z" fill-rule="evenodd" stroke="#1e7b44" stroke-linecap="butt" stroke-width="1.6px" fill="#279c56"/>
 <path d="m54.2,131c3.2,3,6.4,8,6.4,12,1.6,18-4.8,32-4.8,50-4.8-5-8-14-8-21,0-6,6.4-21,6.4-41z" fill-rule="evenodd" stroke="#1e7b44" stroke-linecap="butt" stroke-width="1.37px" fill="#259954"/>
 <path d="m158,123c5,1,10,4,11,9,5,15,2,27,7,43-7-3-11-11-13-16-2-4,0-19-5-36z" fill-rule="evenodd" stroke="#1e7b44" stroke-linecap="butt" stroke-width="1.298px" fill="#208246"/>
 <path d="m121,88.9c5,3.2,10,8,10,13.1,3,16-3,30-2,48-8-5-11-15-11-21,0-5,5-21,3-40.1z" fill-rule="evenodd" stroke="#1e7b44" stroke-linecap="butt" stroke-width="1.483px" fill="#22894b"/>
 <path d="m68.6,137c4.8,3,9.6,8,9.6,13,4.8,17,0,32,3.2,49-6.4-3-9.6-12-11.2-19,0-6,3.2-22-1.6-43z" fill-rule="evenodd" stroke="#1e7b44" stroke-linecap="butt" stroke-width="1.37px" fill="#218449"/>
 <path d="m115,85.7c5,3.2,8,6.4,8,11.2,2,16.1-5,27.1-5,45.1-6-5-8-15-8-19,0-5,5-20,5-37.3z" fill-rule="evenodd" stroke="#1e7b44" stroke-linecap="butt" stroke-width="1.298px" fill="#259652"/>
 <path d="m161,118c-4,5-8,9-8,16-1,21,5,35,5,57,7-4,8-17,10-24,0-8-7-25-7-49z" fill-rule="evenodd" stroke="#1e7b44" stroke-linecap="butt" stroke-width="1.6px" fill="#238c4d"/>
 <path d="m63.8,137c4.8,3,8,10,9.6,14,1.6,21-4.8,37-3.2,58-6.4-5-9.6-16-9.6-24-1.6-6,4.8-24,3.2-48z" fill-rule="evenodd" stroke="#1e7b44" stroke-linecap="butt" stroke-width="1.6px" fill="#279c56"/>
 <path d="m105,209c0-10,0-26,4-32,4-10,19-14,24-22,6-12,8-24,12-36m-79.6,4c9.6,8,20.8,14,28.8,24,4.8,6,9.8,16,10.8,25,0,8-3,37-1,37,0-2,5-34,5-45,0-6-7-16-7-22,0-8,2-16,3-24,2-10,5-18,7-27.5" stroke="#2a8448" stroke-linecap="round" stroke-miterlimit="4" stroke-width="4" fill="none"/>
 <path d="m142,108c7-8,16-15.9,27-11.1,5,1.6,10,10.1,13,13.1,3,1,7,1,7,1-2,2-5,0-8,0-5,2-13,8-18,10-6,2-13,2-16,0-3-3-10-6-5-13z" fill-rule="evenodd" stroke="#49751f" stroke-linecap="butt" stroke-width="1.6px" fill="#7cbe3d"/>
 <path d="m144,108c9-5,22-3,38,3" stroke="#c9e9ab" stroke-linecap="round" stroke-width="1.6px" fill="none"/>
 <path d="m144,110c-8-3-10-5-16-3-5,0-10,1-13,4-3,4-5,15-6,18-2,5-5,5-4,5,0,0,4-3,7-3,5,0,14,1,21,0,4-2,11-4,12-8,2-4,7-8-1-13z" fill-rule="evenodd" stroke="#49751f" stroke-linecap="butt" stroke-width="1.6px" fill="#6dad2f"/>
 <path d="m147,113c-11,0-26,6-38,18" stroke="#b2e087" stroke-linecap="round" stroke-width="1.6px" fill="none"/>
 <path d="m76.6,126c-4.8-8-6.4-8-12.8-10-4.8-1-9.6-3-14.4,0-6.4,5-9.6,16-17.6,16,14.4,0,25.6,11,41.6,7,3.2-4,9.6-7,3.2-13z" fill-rule="evenodd" stroke="#49751f" stroke-linecap="butt" stroke-width="1.6px" fill="#6dad2f"/>
 <path d="m76.6,126c-11.2-3-20.8-3-36.8,3" stroke="#c9e9ab" stroke-linecap="round" stroke-width="1.6px" fill="none"/>
 <path d="m61.4,116c-7.1-8-17.4-12-27.2-9-4.2,2-9.8,12-12.5,14-3.3,4-6.2,3-4.8,3,0,0,4.2-2,7.1,0,4.5,1,12.8,6,19.3,7,5,1,11.5,2,14.8-2,2.7-3,8.9-5,3.3-13z" fill-rule="evenodd" stroke="#49751f" stroke-linecap="butt" stroke-width="1.596px" fill="#93d157"/>
 <path d="m60.8,118c-10.3-4-21-4-37,2" stroke="#c9e9ab" stroke-linecap="round" stroke-width="1.596px" fill="none"/>
 <path d="m63.8,127c8-4,9.6-6,16-6,14.4-2,16,11,22.2,21,2,3,5,3,3,3,0,2-3-2-7.6-2-9.6,2-24,5-32-3-3.2-3-8-8-1.6-13z" fill-rule="evenodd" stroke="#49751f" stroke-linecap="butt" stroke-width="1.6px" fill="#7ac235"/>
 <path d="m65.4,129c11.2-2,24,5,36.6,14" stroke="#c9e9ab" stroke-linecap="round" stroke-width="1.6px" fill="none"/>
 <path d="M118,76.1c-6-8.2-16-14.7-27-11.2-4.8,2.1-11.2,11.2-12.8,12.8-3.2,3.2-6.4,3.2-6.4,3.2,1.6,0,4.8-1.6,9.6,0,3.2,1.6,11.2,6.4,17.6,8,5,1.6,11,1.6,14,0,4-3.2,10-6.4,5-12.8z" fill-rule="evenodd" stroke="#49751f" stroke-linecap="butt" stroke-width="1.6px" fill="#84be4d"/>
 <path d="M117,76.1c-10-4.3-21.2-3.8-37.2,1.6" stroke="#c9e9ab" stroke-linecap="round" stroke-width="1.6px" fill="none"/>
 <path d="m112,79.3c3-9.9,13-17.6,24-16.2,5,1.2,11,8.5,16,9.8,3,3.2,5,1.6,5,1.6,0,1.6-4,0-8,1.6-4,3.2-12,9.6-16,12.8-5,1.6-12,3.2-15,1.6s-11-3.2-6-11.2z" fill-rule="evenodd" stroke="#49751f" stroke-linecap="butt" stroke-width="1.6px" fill="#6eae2f"/>
 <path d="m113,79.3c8-6.4,20-8,36-6.4" stroke="#a1d96c" stroke-linecap="round" stroke-width="1.6px" fill="none"/>
 <g stroke-width="1px" transform="matrix(1.6,0,0,1.6,450,-89.6)">
  <path d="m-210,105c5-3,12-5,17-1,3,2,5,8,6,11,1,2,3,2,2,2,0,0-2-1-4-1-3,0-9,1-13,1-3,0-7-1-8-3-2-2-5-5,0-9z" fill-rule="evenodd" stroke="#49751f" stroke-linecap="butt" fill="#7dc736"/>
  <path stroke="#c9e9ab" stroke-linecap="round" d="m-210,106c7-1,13,2,22,9" fill="none"/>
 </g>
 <path d="m113,79.9c-9-6.1-20.3-7.6-29.1-2.3-3.6,2.8-6.6,13.7-8.6,16.7-2.3,4.6-5.4,4.1-3.9,4.3,0,0,3.6-2.7,6.8-2.3,4.8,0.6,14.1,3.5,20.7,2.8,5.1-1,11.1-1.8,14.1-6.3,2-3,7-7.1,0-12.9z" fill-rule="evenodd" stroke="#49751f" stroke-linecap="butt" stroke-width="1.6px" fill="#93d157"/>
 <path d="M113,81.4c-12-1.4-23.8,5-38,14.5" stroke="#c9e9ab" stroke-linecap="round" stroke-width="1.6px" fill="none"/>
 <path d="m144,115c9-6,20-8,29-2,4,3,7,13,9,16,2,5,5,5,4,5,0,0-4-3-7-3-5,1-14,4-21,3-5-1-11-2-14-6-2-3-7-7,0-13z" fill-rule="evenodd" stroke="#49751f" stroke-linecap="butt" stroke-width="1.6px" fill="#93d157"/>
 <path d="m144,117c12-2,24,5,38,14" stroke="#c9e9ab" stroke-linecap="round" stroke-width="1.6px" fill="none"/>
 <g transform="matrix(1.6,0,0,1.6,451,-87.1)">
  <path stroke="#49751f" d="m-242,131c-4-1-7-3-11-2-5,0-13,14-10,17,1-1,2-1,3-1,7,0,15,0,20-6,1-1,2-4,1-6,0-1-1-2-3-2z" fill="#87cc44"/>
  <path stroke="#c9e9ab" stroke-linecap="round" d="m-242,132c-6,0-12,3-16,8-2,2-3,3-5,5" fill="none"/>
 </g>
 <use y="8.9" x="39.7" xlink:href="#knolle1"/>
 <use y="7.6" x="-11.1" xlink:href="#knolle2"/>
 <use y="14.7" x="-10.1" xlink:href="#knolle2"/>
 <use y="21.6" x="-2.16" xlink:href="#knolle2"/>
 <use y="41.8" x="-16" xlink:href="#knolle2"/>
 <use y="46.4" x="-1.53" xlink:href="#knolle2"/>
 <use y="44.8" x="6.14" xlink:href="#knolle2"/>
 <use y="23.6" x="32.5" xlink:href="#knolle2"/>
 <use y="24.6" x="50.4" xlink:href="#knolle2"/>
 <use y="40.5" x="37.2" xlink:href="#knolle2"/>
 <use y="27.7" x="41.8" xlink:href="#knolle2"/>
 <use y="40.6" x="28.9" xlink:href="#knolle2"/>
 <use y="44.9" x="21.5" xlink:href="#knolle2"/>
 <use y="-6.76" x="40.2" xlink:href="#knolle2"/>
 <use y="7.64" x="30.7" xlink:href="#knolle2"/>
<!-- Pilze -->
 <path d="m393,392c-1,1-2,2-3,2-4,1-8,0-12,0-3,0-6,2-10,3-2,0-5-1-7-1-1,1-2,2-3,2m48-16c-1,0-7,1-13,1h-10c-3,0-6,1-8,1-3,1-5,2-7,3-3,0-5,1-8,2-2,0-5-1-7,0s-4,2-5,3m74-7c3,0,5,1,8,2s6,2,9,4c1,1,3,2,5,3h5c2,1,3,2,5,3h2m-48-13c-3,2-6,3-9,4-4,0-8-1-12,0-1,0,0,2-1,2-5,1-11,0-16,1-2,0-3,1-5,2m-4-4c-2,1-4,1-5,2s-1,2-2,3h-4m64-8c4,1,8,3,11,5,1,0,1,2,2,3,3,2,6,4,9,5,2,1,5,1,7,1m-31-13,2,2c1,2,1,4,2,6,2,2,6,2,8,4,1,1,2,1,3,2m-17-16v3c-1,1-2,2-3,3s0,4-2,4c-3,2-7,2-11,3-1,0-2,1-3,2m15-5c1,1,1,2,2,3,0,0,1,1,2,1v2c1,1,2,1,3,1m-17-7c-1,1-1,2-4,2-2,1-5,0-7,1-2,0-3,2-4,3m17-4v3l1,1m3-5v3l2,2h3m-3-5c1,0,2,2,3,2,1,1,3,0,5,1,1,0,2,2,3,3m5-2c2,1,3,1,4,1,2,1,3,2,4,2,3,0,5-1,7-1m-25-6c-1,0-2,0-3,1-1,0-2,2-3,2-1,1-3,0-5,1-1,0-2,1-4,2m18-3c-1,1-3,2-4,3s-3,1-4,2m11-3c0,1-1,2-2,3m5-3c1,1,2,2,3,2m-38-5h-8c-1,0-2,1-4,2m15-13h-8c-4,1-8,1-12,2m19,1c1,0,3,0,5,1,1,0,2,1,4,1m11,2c2,0,4,0,6,1m16-1c3,0,6,0,8,1,2,0,3,2,5,2,1,0,2-2,3-2m-21,2c2,1,5,2,8,2h4m0-4c0-2,0-3-1-4-2-2-4-3-6-4m-47-1c2,0,5,0,7-1,1,0,3-1,5-2m-33,7c2,1,4,2,5,3m-1-5c1,0,2,1,3,1s2,1,3,2l2,2h6c2,1,3,4,5,4,2,2,5,2,8,3" stroke="#9e9d63" stroke-linecap="round" stroke-miterlimit="4" stroke-width="0.5" fill="none"/>
 <path d="m381,332c1,1,13,3,23,0,6-2,12-5,17-8s13-7,14-11c1-2-4-6-7-6-9-1-20,0-30,3-5,2-11,6-14,10-3,3-5,10-3,12z" stroke="#000" stroke-linecap="butt" stroke-width="1.6px" fill="#000"/>
 <path d="m406,378c-2,7,11,12,16,2,8-12-3-42-7-53-2-5-15-1-13,4,5,13,7,35,4,47z" fill="#dee2ae"/>
 <path d="m381,332c1,0,3-7,6-10,5-4,11-7,17-9,7-2,16-3,24-3,2,0,6,3,6,3,1-1-2-7-4-8-8-2-21,0-24-2-3-1-10,1-11,4s-14,10-16,16c-1,3,1,9,2,9z" stroke="#000" stroke-linecap="butt" stroke-width="1.6px" fill="#d50051"/>
 <path d="m423,352c-1-5-2-10-4-15-1-5-3-8-4-11-2-5-14-2-13,3,2,3,3,8,3,11,1,5,2,10,2,13,0,5,17,5,16-1z" fill="#ccd09a"/>
 <path d="m403,315,3,8" stroke="#997a7a" stroke-linecap="round" stroke-width="1.6px" fill="none"/>
 <path d="m409,314,1,8" stroke="#997a7a" stroke-linecap="round" stroke-width="1.6px" fill="none"/>
 <path d="m416,313-3,9" stroke="#806262" stroke-linecap="round" stroke-width="1.6px" fill="none"/>
 <path d="m422,313-6,10" stroke="#654e4e" stroke-linecap="round" stroke-width="1.6px" fill="none"/>
 <path d="m398,318,5,7" stroke="#997a7a" stroke-linecap="round" stroke-width="1.6px" fill="none"/>
 <path d="m419,337c-1-5-3-8-4-11-2-5-14-2-13,3,2,3,3,8,3,11,1,5,16,2,14-3z" fill="#c0c489"/>
 <path d="m392,322,7,5" stroke="#836464" stroke-linecap="round" stroke-width="1.6px" fill="none"/>
 <path d="m389,325,8,4" stroke="#5e4848" stroke-linecap="round" stroke-width="1.6px" fill="none"/>
 <path d="m387,329,10,2" stroke="#4f3c3c" stroke-linecap="round" stroke-width="1.6px" fill="none"/>
 <path d="m386,332,11,0" stroke="#423434" stroke-linecap="round" stroke-width="1.6px" fill="none"/>
 <path d="m425,314-7,10" stroke="#544141" stroke-linecap="round" stroke-width="1.6px" fill="none"/>
 <path d="m406,376c-2,8,11,12,17,3,7-13-4-42-8-53-2-5-14-2-13,3,5,15,7,35,4,47z" stroke="#2d2f10" stroke-linecap="butt" stroke-miterlimit="4" stroke-width="1.12" fill="none"/>
 <path d="m429,316-10,8" stroke="#463636" stroke-linecap="round" stroke-width="1.6px" fill="none"/>
 <path d="m384,320c5-3,11-8,17-10,7-2,6-3,3-5s-7,0-8,3-14,9-16,15c-1,2,1,0,4-3z" fill="#ff4e92"/>
 <path d="m394,390c-3,7,11,9,12,1,1-9-1-22-6-29-2-2-11,2-9,4,5,7,6,17,3,24z" stroke="#2d2f10" stroke-linecap="butt" stroke-miterlimit="4" stroke-width="1.123" fill="#dee2ae"/>
 <path d="m405,376c-1-5-2-10-5-14-2-2-11,2-9,4,2,3,4,8,5,12,0,4,11,3,9-2z" fill="#cacf8a"/>
 <path d="m394,390c-3,7,11,9,12,1,1-9-1-22-6-29-2-2-11,2-9,4,5,7,6,17,3,24z" stroke="#2d2f10" stroke-linecap="butt" stroke-miterlimit="4" stroke-width="1.123" fill="none"/>
 <path d="m381,350c-6,10-20,16-15,18,7,4,19,4,27,1,9-2,23-16,22-19-2-3-16,0-25-2-3-1-7,0-9,2z" stroke="#000" stroke-linecap="butt" stroke-miterlimit="4" stroke-width="1.123" fill="#ee005c"/>
 <path d="m382,351c-6,9-18,14-14,16,12,0,26-12,24-15s7-2-2-4c-3-1-6,0-8,3z" fill="#ff408a"/>
 <path d="m383,351c-6,8-11,7-6,9,4,0,13-6,11-9s-4-3-5,0z" fill="#ff92bc"/>
 <path d="m399,362c-13,14-36,3-32,6,8,4,19,3,27,0,8-2,21-15,20-18-2-3-7,5-15,12z" fill="#c3004b"/>
 <path d="m412,394c-5,4,6,9,10,4s7-15,4-21c0-2-10-2-9,0,3,6,0,13-5,17z" stroke="#2d2f10" stroke-linecap="butt" stroke-miterlimit="4" stroke-width="1.123" fill="#dee2ae"/>
 <path d="m427,388c1-4,1-8-1-11,0-2-10-2-9,0,1,3,1,6,0,9s9,6,10,2z" fill="#cacf88"/>
 <path d="m412,394c-5,4,6,9,10,4s7-15,4-21c0-2-10-2-9,0,3,6,0,13-5,17z" stroke="#000" stroke-linecap="butt" stroke-miterlimit="4" stroke-width="1.123" fill="none"/>
 <path d="m426,363c-4,0-20,5-19,9,1,8,8,10,16,10,9,1,18,0,20-7,0-4-13-12-17-12z" stroke="#000" stroke-linecap="butt" stroke-width="1.6px" fill="#dc0055"/>
 <path d="m426,364c-4,0-19,4-18,8s6,1,13,0c8-2,9-7,5-8z" fill="#ff3684"/>
 <path d="m421,366c-3,0-9,2-7,4,1,1,2,0,5-1s4-3,2-3z" fill="#ff619f"/>
 <path d="m433,378c-4,1-17,3-9,4,9,0,16,0,17-7,1-3-4,2-8,3z" fill="#b70046"/>
<!-- text -->
 <g font-family="DejaVu Sans Condensed">
  <g style="writing-mode:lr-tb;text-anchor:start;text-align:start;" font-size="19px" fill="#000">
   <text>
    <tspan y="542" x="610" dy="0 0 0 6.7330298 -13.466059 6.9763908">(NO₂⁻)</tspan>
   </text>
   <text>
    <tspan y="390" x="577" dy="0 0 0 6.7330298 -13.466059 6.9763908">(NO₃⁻)</tspan>
   </text>
   <text>
    <tspan y="542" x="320" dy="0 0 0 5.3864241 -9.4262409 4.2831793">(NH₄⁺)</tspan>
   </text>
   <text y="-28.75" x="484.625">
    <tspan y="61.25" x="505.625" dy="0 0 7.4225574 -7.4225574">(N₂)</tspan>
   </text>
  </g>
  <text style="writing-mode:lr-tb;text-anchor:middle;text-align:center;" font-size="14" y="430.00757" x="367.96161" font-weight="normal" fill="black">
   <tspan y="430" x="370">(Pilze, aerobe</tspan>
   <tspan y="448" x="368">und anaerobe Bakterien)</tspan>
  </text>
  <g font-size="17px" font-weight="bold" fill="#FFF">
   <text>
    <tspan y="383" x="44">Stickstofffixierende</tspan>
   </text>
   <text>
    <tspan y="406" x="44">Symbionten</tspan>
   </text>
   <text>
    <tspan y="430" x="44">(Knöllchenbakterien,</tspan>
   </text>
   <text>
    <tspan y="454" x="44">Frankia)</tspan>
   </text>
   <text>
    <tspan y="498" x="160">Reduktion</tspan>
   </text>
   <text>
    <tspan y="494" x="393">Nitrifizierung</tspan>
   </text>
   <text>
    <tspan y="583" x="370">Nitrifizierende Bakterien</tspan>
   </text>
   <text>
    <tspan y="472" x="638">Nitrifizierende</tspan>
   </text>
   <text>
    <tspan y="496" x="638">Bakterien</tspan>
   </text>
   <text x="14">
    <tspan y="574" x="21">Stickstofffixierende</tspan>
         </text>
   <text x="14">
    <tspan y="598" x="21">Bodenbakterien</tspan>
   </text>
   <text y="-38" x="-24">
    <tspan y="305" x="644">Denitrifizierende</tspan>
   </text>
   <text y="-38" x="-24">
    <tspan y="327" x="644">Bakterien</tspan>
   </text>
   <text x="-10">
    <tspan y="249" x="472">Assimilation</tspan>
   </text>
  </g>
  <g style="text-align:center;" font-weight="bold" font-size="19" fill="#000">
   <text x="10">
    <tspan y="417" x="285">Destruenten</tspan>
   </text>
   <text x="-8">
    <tspan y="219" x="329">Pflanzen</tspan>
   </text>
   <text>
    <tspan y="530" x="530">Nitrit</tspan>
   </text>
   <text>
    <tspan y="377" x="500">Nitrat</tspan>
   </text>
   <text>
    <tspan y="524" x="215">Ammonium</tspan>
   </text>
   <text x="-48">
    <tspan y="39" x="247">Atmosphärischer Stickstoff</tspan>
   </text>
  </g>
 </g>
</svg>
