<?xml version="1.0" encoding="UTF-8"?>
<svg width="700" height="800" version="1.1" xmlns="http://www.w3.org/2000/svg">
 <path d="m336.03 607.85a0.5 0.5 0 0 0-0.5 0.5v49.709c-1.3185-0.10379-2.614-0.62147-3.7012-1.5547l4.2012 11.549 4.1992-11.549c-1.0896 0.93124-2.383 1.4494-3.6992 1.5547v-49.709a0.5 0.5 0 0 0-0.5-0.5z"/>
 <path d="m370.25 489.97a0.5 0.5 0 0 0-0.49023 0.36328l-6.6934 23.432h-2e-3c-1.2394-0.46201-2.3418-1.3156-3.1309-2.5117l0.86719 12.26 7.2109-9.9512c-1.3035 0.59611-2.6899 0.73886-3.9844 0.47852l6.6934-23.434a0.5 0.5 0 0 0-0.34179-0.61719 0.5 0.5 0 0 0-0.12891-0.0195z"/>
 <path d="m244.41 443.14-11.551 4.1992 11.551 4.2012c-0.93145-1.0898-1.4495-2.3847-1.5547-3.7012h74.758a0.5 0.5 0 0 0 0.5-0.5 0.5 0.5 0 0 0-0.5-0.5h-74.76c0.10395-1.3182 0.62362-2.6122 1.5566-3.6992z"/>
 <path d="m208.48 480.24a0.5 0.5 0 0 0-0.30274 0.10938 0.5 0.5 0 0 0-0.0762 0.70312l35.502 44.246c-1.0932 0.74389-2.4258 1.1509-3.8574 1.1035l10.504 6.3789-3.9531-11.637c-0.26704 1.4085-0.95117 2.6234-1.9121 3.5293l-35.504-44.246a0.5 0.5 0 0 0-0.33594-0.18359 0.5 0.5 0 0 0-0.0645-4e-3z"/>
 <path d="m369.92 362.16a0.5 0.5 0 0 0-0.5 0.5v22.691c-1.3186-0.10379-2.614-0.62342-3.7012-1.5566l4.2012 11.551 4.1992-11.551c-1.0896 0.93124-2.383 1.4494-3.6992 1.5547v-22.689a0.5 0.5 0 0 0-0.5-0.5z"/>
 <path d="m361.07 207.72a0.5 0.5 0 0 0-0.48242 0.44922l-6.8242 67.289c-1.3009-0.23645-2.5362-0.88209-3.5234-1.9199l3.0137 11.914 5.3438-11.068c-1.1779 0.81657-2.5178 1.2018-3.8379 1.1738l6.8223-67.287a0.5 0.5 0 0 0-0.44726-0.54883 0.5 0.5 0 0 0-0.0645-2e-3z"/>
 <path d="m413.66 182.59a0.5 0.5 0 0 0-0.46875 0.38672 0.5 0.5 0 0 0 0.37695 0.59961l24.178 5.5547c-0.39642 1.2616-1.1929 2.4072-2.3457 3.2578l12.197-1.5078-10.316-6.6797c0.66373 1.2705 0.87962 2.6486 0.6875 3.9551l-24.178-5.5547a0.5 0.5 0 0 0-0.13086-0.0117z"/>
 <path d="m608.05 148.48a0.5 0.5 0 0 0-0.29883 0.11719l-41.867 35.131c-0.76823-1.0769-1.2036-2.403-1.1875-3.8359l-6.1484 10.643 11.547-4.207c-1.4137-0.23608-2.6417-0.89347-3.5684-1.834l41.867-35.131a0.5 0.5 0 0 0 0.0625-0.70312 0.5 0.5 0 0 0-0.33984-0.17773 0.5 0.5 0 0 0-0.0664-2e-3z"/>
 <path d="m369.92 113.8a0.5 0.5 0 0 0-0.5 0.5v23.473c-1.3186-0.10379-2.614-0.62146-3.7012-1.5547l4.2012 11.549 4.1992-11.549c-1.0896 0.93124-2.383 1.4494-3.6992 1.5547v-23.473a0.5 0.5 0 0 0-0.5-0.5z"/>
 <path d="m437.63 45.08a0.5 0.5 0 0 0-0.0644 6e-3 0.5 0.5 0 0 0-0.32812 0.19726l-18.781 25.615c-1.002-0.8634-1.7395-2.0459-2.0645-3.4414l-3.4434 11.797 10.217-6.8301c-1.4291 0.10669-2.7788-0.24044-3.9023-0.9336l18.781-25.615a0.5 0.5 0 0 0-0.10743-0.69922 0.5 0.5 0 0 0-0.30664-0.0957z"/>
 <path d="m318.37 54.44a0.5 0.5 0 0 0-0.34765 0.16016 0.5 0.5 0 0 0 0.0273 0.70703l19.725 18.297c-0.9728 0.89605-2.2327 1.4919-3.6562 1.6543l11.324 4.7754-5.6113-10.934c-0.0583 1.4324-0.55877 2.7329-1.377 3.7695l-19.725-18.297a0.5 0.5 0 0 0-0.35938-0.13281z"/>
 <path d="m237.78 41.98c0.93141 1.0898 1.4495 2.3847 1.5547 3.7012h-39.773a0.5 0.5 0 0 0-0.5 0.5 0.5 0.5 0 0 0 0.5 0.5h39.775c-0.10393 1.3183-0.6236 2.6122-1.5566 3.6992l11.551-4.1992z"/>
 <path d="m489.45 310.43a0.5 0.5 0 0 0-0.13086 0.0137l-25.049 6.1738c-0.21468-1.305-0.0209-2.686 0.625-3.9648l-10.209 6.8418 12.219 1.3144c-1.165-0.83512-1.9773-1.9678-2.3945-3.2207l25.047-6.1738a0.5 0.5 0 0 0 0.36719-0.60352 0.5 0.5 0 0 0-0.47461-0.38086z"/>
 <path d="m514.29 233.49a0.5 0.5 0 0 0-0.19141 0.0371 0.5 0.5 0 0 0-0.27148 0.65235l6.6699 16.127c-1.258 0.40783-2.6526 0.42335-4.0137-0.0234l8.2949 9.0684-0.53321-12.279c-0.65115 1.2774-1.6496 2.2512-2.8262 2.8516l-6.668-16.127a0.5 0.5 0 0 0-0.46093-0.30665z"/>
 <g fill="#fff" stroke="#000">
  <path d="m407.54 723.46c0 26.95-30 48.798-67.006 48.798s-67.006-21.848-67.006-48.798 30-48.798 67.006-48.798 67.006 21.848 67.006 48.798z"/>
  <path d="m163.92 54.56c1.9065 3.633 6.201 6.0282 11.001 6.0282 5.4971 0 10.232-3.1247 11.62-7.5063 0.18599-0.58722 0.76855-1.0824 1.3849-1.0824h0.52914c0.61639 0 1.0688 0.49825 0.96086 1.105-1.7341 9.7442-12.806 17.12-26.023 17.12-14.501 0-26.257-8.8451-26.257-19.756s11.756-19.756 26.257-19.756c13.217 0 24.289 7.3758 26.023 17.12 0.10797 0.60672-0.34447 1.105-0.96086 1.105h-0.52915c-0.61639 0-1.199-0.4952-1.385-1.0824-1.3878-4.3816-6.1231-7.5063-11.62-7.5063-4.8 0-9.0945 2.3952-11.001 6.0282-0.28624 0.54546 8e-3 1.1981 0.58222 1.4215l0.81131 0.31552c0.57448 0.2234 1.1942-0.0754 1.4895-0.61562 1.403-2.5666 4.5254-4.2677 8.028-4.2677 4.8616 0 8.8027 3.2405 8.8027 7.2378s-3.9411 7.2378-8.8027 7.2378c-3.5026 0-6.625-1.7011-8.028-4.2677-0.29527-0.54019-0.91498-0.83902-1.4895-0.61562l-0.81131 0.31552c-0.57448 0.2234-0.86846 0.87608-0.58222 1.4215z"/>
  <path d="m313.38 52.6c0 10.236-11.573 18.534-25.85 18.534s-25.85-8.2978-25.85-18.534c1e-5 -10.236 11.573-18.534 25.85-18.534s25.85 8.2978 25.85 18.534z"/>
  <path d="m90.848 44.99c0 9.5314-12.287 17.258-27.444 17.258s-27.444-7.7268-27.444-17.258c6e-6 -9.5314 12.287-17.258 27.444-17.258s27.444 7.7267 27.444 17.258z"/>
  <path d="m414.87 89.99c0 3.1035-5.5423 5.6194-12.379 5.6194s-12.379-2.5159-12.379-5.6194 5.5423-5.6194 12.379-5.6194 12.379 2.5159 12.379 5.6194z"/>
  <path d="m461.76 38.47c0 3.1035-5.5423 5.6194-12.379 5.6194-6.8368 0-12.379-2.5159-12.379-5.6194s5.5423-5.6194 12.379-5.6194c6.8368 0 12.379 2.5159 12.379 5.6194z"/>
  <path d="m372.12 70.49c-14.75 2.7e-4 -26.707 8.7315-26.707 19.502 2.1e-4 10.77 11.957 19.502 26.707 19.502 9.216 4.3e-4 17.739-3.4654 22.606-9.1151 0.47354-0.54968 0.35943-1.3852-0.21296-1.8312l-7.4547-5.8092c-1.7888-1.394-1.7887-4.0988 2.9e-4 -5.4926l7.4544-5.8077c0.57244-0.44599 0.68665-1.2815 0.21318-1.8312-4.8664-5.6504-13.39-9.117-22.606-9.117z"/>
  <path d="m406.6 173.78c0 13.068-14.25 23.662-31.829 23.662s-31.829-10.594-31.829-23.662c-1e-5 -13.068 14.25-23.662 31.829-23.662s31.829 10.594 31.829 23.662z"/>
  <path d="m641.41 133.15c-1e-5 5.7961-7.9348 10.495-17.723 10.495-9.7881 0-17.723-4.6986-17.723-10.495 0-5.7961 7.9348-10.495 17.723-10.495s17.723 4.6986 17.723 10.495z"/>
  <path d="m450.17 325.92c0 13.02-16.713 23.575-37.329 23.575s-37.329-10.555-37.329-23.575 16.713-23.575 37.329-23.575 37.329 10.555 37.329 23.575z"/>
  <path d="m347.38 294.95c-22.798-6.3e-4 -41.28 13.862-41.279 30.963 1e-3 17.1 18.482 30.962 41.279 30.961 12.916-2.7e-4 25.065-4.5337 32.857-12.222 0.34885-0.34419 0.40749-0.96499 0.14119-1.3764l-7.7079-11.908c-2.1484-3.319-2.1484-7.5899-2.7e-4 -10.909l7.7082-11.91c0.26628-0.41142 0.20762-1.0322-0.14123-1.3764-7.7924-7.6883-19.942-12.222-32.857-12.222z"/>
  <path d="m361.72 316.98c-1e-5 5.2738-8.5158 9.549-19.021 9.549s-19.021-4.2752-19.021-9.549 8.5158-9.549 19.021-9.549 19.021 4.2753 19.021 9.549z"/>
  <path d="m359.91 338.8c0 5.5225-8.4352 9.9994-18.841 9.9994s-18.841-4.4769-18.841-9.9994 8.4352-9.9994 18.841-9.9994 18.841 4.4769 18.841 9.9994z"/>
  <path d="m226.49 451.78c0 13.046-14.196 23.623-31.707 23.623s-31.707-10.576-31.707-23.623 14.196-23.623 31.707-23.623 31.707 10.576 31.707 23.623z"/>
  <path d="m423.1 443.04c0 20.903-22.172 37.849-49.524 37.849s-49.524-16.946-49.524-37.849 22.172-37.849 49.524-37.849 49.524 16.946 49.524 37.849z"/>
  <path d="m189.58 456.85c0 4.6653-4.8717 8.4472-10.881 8.4472s-10.881-3.782-10.881-8.4472 4.8716-8.4472 10.881-8.4472 10.881 3.782 10.881 8.4472z"/>
  <path d="m222.92 450.6c0 7.289-7.2607 13.198-16.217 13.198s-16.217-5.9089-16.217-13.198 7.2607-13.198 16.217-13.198 16.217 5.9089 16.217 13.198z"/>
  <path d="m274.43 533.05c-22.552-3.1e-4 -40.834 13.882-40.834 31.006-8e-5 17.124 18.282 31.006 40.834 31.006 10.988 3.3e-4 21.487-3.3608 29.148-9.2906 0.65898-0.51003 0.95116-1.5854 0.67616-2.372l-3.4388-9.8372c-2.1515-6.1547-2.1514-12.857 2.8e-4 -19.012l3.4385-9.8354c0.27502-0.78666-0.0171-1.862-0.67604-2.3721-7.6612-5.9305-18.16-9.2924-29.148-9.2925z"/>
  <path d="m401.76 564.06c0 20.607-22.078 37.313-49.312 37.313s-49.312-16.706-49.312-37.313 22.078-37.313 49.312-37.313 49.312 16.706 49.312 37.313z"/>
  <path d="m341.72 548.62c0 4.6031-4.5636 8.3347-10.193 8.3347-5.6295 0-10.193-3.7316-10.193-8.3347s4.5636-8.3347 10.193-8.3347c5.6295 0 10.193 3.7316 10.193 8.3347z"/>
  <path d="m338.98 575.02c0 6.8013-6.3314 12.315-14.142 12.315s-14.142-5.5136-14.142-12.315 6.3314-12.315 14.142-12.315 14.142 5.5136 14.142 12.315z"/>
  <path d="m395.91 564.99c1e-5 10.601-11.75 19.195-26.244 19.195s-26.244-8.5938-26.244-19.195c0-10.601 11.75-19.195 26.244-19.195s26.244 8.5938 26.244 19.195z"/>
  <path d="m400.57 713.2c0 11.051-10.37 20.009-23.163 20.009s-23.163-8.9584-23.163-20.009 10.37-20.009 23.163-20.009 23.163 8.9584 23.163 20.009z"/>
  <path d="m388.12 750.98c0 5.1545-7.7182 9.3331-17.239 9.3331s-17.239-4.1786-17.239-9.3331 7.7182-9.3331 17.239-9.3331 17.239 4.1786 17.239 9.3331z"/>
  <path d="m352.78 723.72c0 16.837-17.036 30.486-38.051 30.486s-38.051-13.649-38.051-30.486 17.036-30.486 38.051-30.486 38.051 13.649 38.051 30.486z"/>
  <path d="m398.02 713.61c0 9.1691-9.2014 16.602-20.552 16.602s-20.552-7.433-20.552-16.602 9.2014-16.602 20.552-16.602c11.35 0 20.552 7.433 20.552 16.602z"/>
  <path d="m324.68 723.18c0 12.758-10.06 23.101-22.47 23.101s-22.47-10.342-22.47-23.101 10.06-23.101 22.47-23.101 22.47 10.343 22.47 23.101z"/>
  <path d="m348.6 724.49c0 8.3602-4.1028 15.137-9.164 15.137s-9.164-6.7773-9.164-15.137 4.1028-15.137 9.164-15.137 9.164 6.7773 9.164 15.137z"/>
  <path d="m318.76 731.99c0 5.6395-7.8385 10.211-17.508 10.211s-17.508-4.5717-17.508-10.211 7.8385-10.211 17.508-10.211 17.508 4.5717 17.508 10.211z"/>
  <path d="m317.46 712.47c0 4.1348-6.9723 7.4868-15.573 7.4868s-15.573-3.352-15.573-7.4868 6.9723-7.4868 15.573-7.4868 15.573 3.352 15.573 7.4868z"/>
  <path d="m385.91 751.27c0 3.6002-6.7001 6.5186-14.965 6.5186s-14.965-2.9185-14.965-6.5186c-1e-5 -3.6002 6.7001-6.5187 14.965-6.5187s14.965 2.9185 14.965 6.5187z"/>
  <path d="m316.06 731.81c-1e-5 4.197-6.6692 7.5994-14.896 7.5994s-14.896-3.4024-14.896-7.5994 6.6692-7.5994 14.896-7.5994 14.896 3.4024 14.896 7.5994z"/>
  <path d="m313.81 712.43c-1e-5 2.4437-5.178 4.4247-11.565 4.4247s-11.565-1.981-11.565-4.4247c-1e-5 -2.4437 5.178-4.4247 11.565-4.4247s11.565 1.981 11.565 4.4247z"/>
  <path d="m345.35 725.16c0 6.162-2.6915 11.157-6.0117 11.157s-6.0117-4.9953-6.0117-11.157c0-6.162 2.6915-11.157 6.0117-11.157s6.0117 4.9953 6.0117 11.157z"/>
  <path d="m380.39 552.06c0 2.5432-4.7097 4.6049-10.519 4.6049s-10.519-2.0617-10.519-4.6049 4.7097-4.6049 10.519-4.6049 10.519 2.0617 10.519 4.6049z"/>
  <path d="m387.26 569.13c-1e-5 6.1244-8.3224 11.089-18.589 11.089s-18.589-4.9648-18.589-11.089c0-6.1244 8.3224-11.089 18.589-11.089 10.266 0 18.589 4.9648 18.589 11.089z"/>
  <path d="m338.72 548.62c0 3.2315-3.0525 5.8511-6.818 5.8511s-6.818-2.6196-6.818-5.8511 3.0525-5.8511 6.818-5.8511 6.818 2.6196 6.818 5.8511z"/>
  <path d="m336.11 574.7c0 5.3593-5.0626 9.7039-11.308 9.7039s-11.308-4.3446-11.308-9.7039 5.0626-9.7039 11.308-9.7039 11.308 4.3446 11.308 9.7039z"/>
  <path d="m375.61 551.94c0 1.337-2.986 2.4209-6.6694 2.4209s-6.6694-1.0839-6.6694-2.4209 2.986-2.4209 6.6694-2.4209 6.6694 1.0839 6.6694 2.4209z"/>
  <path d="m384.11 569.06c0 4.8188-6.9313 8.7252-15.481 8.7252s-15.481-3.9064-15.481-8.7252 6.9313-8.7252 15.481-8.7252 15.481 3.9064 15.481 8.7252z"/>
  <path d="m288.65 555.18c0 5.2538-8.4451 9.5128-18.863 9.5128s-18.863-4.259-18.863-9.5128 8.4451-9.5128 18.863-9.5128 18.863 4.259 18.863 9.5128z"/>
  <path d="m287.5 577.18c-1e-5 5.0955-8.8158 9.2263-19.691 9.2263s-19.691-4.1307-19.691-9.2263c0-5.0955 8.8158-9.2263 19.691-9.2263s19.691 4.1307 19.691 9.2263z"/>
  <path d="m285.72 554.93c0 4.0228-7.0623 7.2839-15.774 7.2839s-15.774-3.2611-15.774-7.2839c-1e-5 -4.0228 7.0623-7.284 15.774-7.284s15.774 3.2611 15.774 7.284z"/>
  <path d="m283.87 577.31c-1e-5 3.8997-7.2762 7.061-16.252 7.061s-16.252-3.1613-16.252-7.061 7.2761-7.0611 16.252-7.0611 16.252 3.1613 16.252 7.0611z"/>
  <path d="m417.46 444.43c0 10.654-11.837 19.291-26.438 19.291s-26.438-8.6369-26.438-19.291 11.837-19.291 26.438-19.291 26.438 8.6369 26.438 19.291z"/>
  <path d="m362.9 427.84c-1e-5 4.6602-4.479 8.438-10.004 8.438s-10.004-3.7778-10.004-8.438 4.479-8.438 10.004-8.438c5.5251 0 10.004 3.7778 10.004 8.438z"/>
  <path d="m360.37 454.18c-1e-5 6.7295-6.3057 12.185-14.084 12.185s-14.084-5.4553-14.084-12.185c0-6.7295 6.3057-12.185 14.084-12.185 7.7784 0 14.084 5.4553 14.084 12.185z"/>
  <path d="m408.57 448.71c0 6.314-8.2696 11.432-18.471 11.432s-18.471-5.1185-18.471-11.432 8.2696-11.432 18.471-11.432 18.471 5.1185 18.471 11.432z"/>
  <path d="m401.6 431.35c0 2.6418-4.7293 4.7834-10.563 4.7834-5.8339 0-10.563-2.1416-10.563-4.7834s4.7293-4.7834 10.563-4.7834c5.8339 0 10.563 2.1416 10.563 4.7834z"/>
  <path d="m397.47 431.44c1e-5 1.4292-3.1223 2.5878-6.9738 2.5878s-6.9738-1.1586-6.9738-2.5878 3.1223-2.5878 6.9738-2.5878 6.9738 1.1586 6.9738 2.5878z"/>
  <path d="m405.67 448.42c0 4.8674-6.9397 8.8133-15.5 8.8133s-15.5-3.9458-15.5-8.8133 6.9397-8.8133 15.5-8.8133 15.5 3.9458 15.5 8.8133z"/>
  <path d="m360.04 427.9c0 3.2533-3.0423 5.8906-6.7952 5.8906s-6.7952-2.6373-6.7952-5.8906 3.0423-5.8906 6.7952-5.8906 6.7952 2.6373 6.7952 5.8906z"/>
  <path d="m357.58 453.87c0 5.2124-5.1968 9.4379-11.607 9.4379s-11.607-4.2255-11.607-9.4379 5.1968-9.4379 11.607-9.4379 11.607 4.2255 11.607 9.4379z"/>
  <path d="m186.3 457.21c0 3.198-3.6116 5.7904-8.0667 5.7904s-8.0668-2.5925-8.0668-5.7904 3.6116-5.7904 8.0668-5.7904 8.0667 2.5925 8.0667 5.7904z"/>
  <path d="m220.22 451.05c0 5.6228-6.0107 10.181-13.425 10.181s-13.425-4.5582-13.425-10.181 6.0107-10.181 13.425-10.181 13.425 4.5582 13.425 10.181z"/>
  <path d="m419.01 322.14c0 7.0675-8.4903 12.797-18.964 12.797s-18.964-5.7294-18.964-12.797c0-7.0675 8.4903-12.797 18.964-12.797s18.964 5.7294 18.964 12.797z"/>
  <path d="m441.77 316.7c1e-5 4.3418-5.0664 7.8615-11.316 7.8615-6.2498 0-11.316-3.5197-11.316-7.8615s5.0664-7.8614 11.316-7.8614 11.316 3.5197 11.316 7.8614z"/>
  <path d="m443.55 334.07c0 4.0164-6.1636 7.2724-13.767 7.2724s-13.767-3.256-13.767-7.2724 6.1636-7.2724 13.767-7.2724 13.767 3.256 13.767 7.2724z"/>
  <path d="m439.03 316.7c0 3.2866-3.8399 5.951-8.5767 5.951s-8.5767-2.6643-8.5767-5.951 3.8399-5.951 8.5767-5.951 8.5767 2.6643 8.5767 5.951z"/>
  <path d="m415.15 322.14c0 5.6255-6.7624 10.186-15.104 10.186s-15.104-4.5604-15.104-10.186 6.7624-10.186 15.104-10.186 15.104 4.5604 15.104 10.186z"/>
  <path d="m440.17 334.05c0 2.4777-4.4244 4.4863-9.8822 4.4863s-9.8822-2.0086-9.8822-4.4863 4.4244-4.4863 9.8822-4.4863 9.8822 2.0086 9.8822 4.4863z"/>
  <path d="m358.48 316.79c0 3.9021-7.0475 7.0654-15.741 7.0654s-15.741-3.1633-15.741-7.0654 7.0475-7.0654 15.741-7.0654 15.741 3.1633 15.741 7.0654z"/>
  <path d="m356.66 338.77c0 3.8151-7.239 6.9078-16.169 6.9078s-16.169-3.0927-16.169-6.9078 7.239-6.9078 16.169-6.9078 16.169 3.0927 16.169 6.9078z"/>
  <path d="m551.88 199.8c0 5.7961-7.9348 10.495-17.723 10.495s-17.723-4.6986-17.723-10.495c1e-5 -5.7961 7.9348-10.495 17.723-10.495 9.7881 0 17.723 4.6986 17.723 10.495z"/>
  <path d="m492.18 169.18c-22.613 3e-5 -40.944 13.837-40.943 30.906 5.3e-4 17.068 18.331 30.904 40.943 30.904 12.984 1.1e-4 25.174-4.6469 32.883-12.491 0.37787-0.38451 0.37529-1.0254 7e-3 -1.4191l-10.839-11.586c-2.8469-3.0433-2.8469-7.7726 0-10.816l10.839-11.586c0.3683-0.39371 0.37091-1.0346-7e-3 -1.4192-7.7081-7.8448-19.898-12.493-32.883-12.493z"/>
  <path d="m588.74 296.83c0 18.602-22.016 33.683-49.173 33.683s-49.173-15.08-49.173-33.683c0-18.602 22.016-33.683 49.173-33.683s49.173 15.08 49.173 33.683z"/>
  <path d="m506.45 191.16c1e-5 5.2509-8.4752 9.5076-18.93 9.5076s-18.93-4.2567-18.93-9.5076 8.4752-9.5076 18.93-9.5076 18.93 4.2567 18.93 9.5076z"/>
  <path d="m505.22 213.03c1e-5 5.1278-8.8044 9.2848-19.665 9.2848-10.861 0-19.665-4.1569-19.665-9.2848 1e-5 -5.1278 8.8045-9.2847 19.665-9.2847s19.665 4.1569 19.665 9.2847z"/>
  <path d="m568.74 278c0 4.9242-5.4233 8.916-12.113 8.916s-12.113-3.9918-12.113-8.916 5.4233-8.916 12.113-8.916 12.113 3.9918 12.113 8.916z"/>
  <path d="m539.29 284.31c0 6.1179-8.5482 11.078-19.093 11.078s-19.093-4.9596-19.093-11.078c1e-5 -6.1179 8.5482-11.077 19.093-11.077s19.093 4.9596 19.093 11.077z"/>
  <path d="m555.95 313.13c1e-5 6.0185-9.274 10.897-20.714 10.897s-20.714-4.8789-20.714-10.897c1e-5 -6.0184 9.274-10.897 20.714-10.897s20.714 4.8789 20.714 10.897z"/>
  <path d="m503.39 190.84c0 3.9496-7.0639 7.1514-15.778 7.1514s-15.778-3.2018-15.778-7.1514 7.0639-7.1514 15.778-7.1514 15.778 3.2018 15.778 7.1514z"/>
  <path d="m501.85 212.97c1e-5 3.8265-7.3076 6.9285-16.322 6.9285s-16.322-3.102-16.322-6.9285 7.3076-6.9285 16.322-6.9285 16.322 3.102 16.322 6.9285z"/>
  <path d="m565.86 278.27c1e-5 3.2331-3.9515 5.854-8.826 5.854-4.8744 0-8.826-2.6209-8.826-5.854 0-3.233 3.9515-5.854 8.826-5.854s8.826 2.6209 8.826 5.854z"/>
  <path d="m535.78 284.26c0 4.6506-6.9152 8.4207-15.445 8.4207s-15.445-3.7701-15.445-8.4207 6.9152-8.4207 15.445-8.4207 15.445 3.7701 15.445 8.4207z"/>
  <path d="m552.53 313.35c0 4.5014-8.0038 8.1505-17.877 8.1505s-17.877-3.6491-17.877-8.1505 8.0038-8.1505 17.877-8.1505 17.877 3.6491 17.877 8.1505z"/>
  <path d="m369.44 179.22c0 4.6564-4.8966 8.4311-10.937 8.4311s-10.937-3.7747-10.937-8.4311 4.8966-8.4311 10.937-8.4311 10.937 3.7747 10.937 8.4311z"/>
  <path d="m402.77 172.88c0 7.2295-7.2936 13.09-16.291 13.09s-16.291-5.8607-16.291-13.09 7.2936-13.09 16.291-13.09c8.9971 0 16.291 5.8607 16.291 13.09z"/>
  <path d="m366.24 179.29c0 3.0274-3.6365 5.4816-8.1224 5.4816s-8.1224-2.4542-8.1224-5.4816 3.6366-5.4816 8.1224-5.4816 8.1224 2.4542 8.1224 5.4816z"/>
  <path d="m400.23 173.17c0 5.6293-6.0533 10.193-13.52 10.193s-13.52-4.5634-13.52-10.193c-1e-5 -5.6293 6.0533-10.193 13.52-10.193s13.52 4.5634 13.52 10.193z"/>
  <path d="m375.63 95.74c0 4.0983-5.5986 7.4206-12.505 7.4206s-12.505-3.3223-12.505-7.4206 5.5986-7.4206 12.505-7.4206 12.505 3.3223 12.505 7.4206z"/>
  <path d="m372.26 95.38c0 2.8299-4.0302 5.1241-9.0018 5.1241s-9.0018-2.2941-9.0018-5.1241c-1e-5 -2.83 4.0302-5.1241 9.0018-5.1241s9.0018 2.2941 9.0018 5.1241z"/>
  <path d="m297.72 58.88c0 4.3521-6.0153 7.8801-13.436 7.8801s-13.436-3.5281-13.436-7.8801c1e-5 -4.3521 6.0153-7.8801 13.436-7.8801s13.436 3.528 13.436 7.8801z"/>
  <path d="m294.71 58.88c0 3.0156-4.6664 5.4602-10.423 5.4602s-10.423-2.4446-10.423-5.4602 4.6664-5.4602 10.423-5.4602 10.423 2.4446 10.423 5.4602z"/>
 </g>
 <g fill="#fff" stroke="#f00">
  <path d="m405.92 91.358a4.7001 1.7666 0 0 1-4.7001 1.7666 4.7001 1.7666 0 0 1-4.7001-1.7666 4.7001 1.7666 0 0 1 4.7001-1.7666 4.7001 1.7666 0 0 1 4.7001 1.7666z"/>
  <path d="m361.51 180.57a3.777 2.4871 0 0 1-3.777 2.4871 3.777 2.4871 0 0 1-3.777-2.4871 3.777 2.4871 0 0 1 3.777-2.4871 3.777 2.4871 0 0 1 3.777 2.4871z"/>
  <path d="m491.6 191.92a5.6233 2.7573 0 0 1-5.6232 2.7573 5.6233 2.7573 0 0 1-5.6233-2.7573 5.6233 2.7573 0 0 1 5.6233-2.7573 5.6233 2.7573 0 0 1 5.6232 2.7573z"/>
  <path d="m452.81 39.848a4.7001 1.7666 0 0 1-4.7001 1.7666 4.7001 1.7666 0 0 1-4.7001-1.7666 4.7001 1.7666 0 0 1 4.7001-1.7666 4.7001 1.7666 0 0 1 4.7001 1.7666z"/>
  <path d="m563.25 279.09a4.8183 2.3416 0 0 1-4.8183 2.3416 4.8183 2.3416 0 0 1-4.8183-2.3416 4.8183 2.3416 0 0 1 4.8183-2.3416 4.8183 2.3416 0 0 1 4.8183 2.3416z"/>
  <path d="m435.01 334.9a4.0075 1.7002 0 0 1-4.0075 1.7002 4.0075 1.7002 0 0 1-4.0075-1.7002 4.0075 1.7002 0 0 1 4.0075-1.7002 4.0075 1.7002 0 0 1 4.0075 1.7002z"/>
  <path d="m346.63 317.46a5.5199 2.9579 0 0 1-5.5199 2.9579 5.5199 2.9579 0 0 1-5.5199-2.9579 5.5199 2.9579 0 0 1 5.5199-2.9579 5.5199 2.9579 0 0 1 5.5199 2.9579z"/>
  <path d="m355.95 428.16a2.8657 3.0886 0 0 1-2.8657 3.0886 2.8657 3.0886 0 0 1-2.8657-3.0886 2.8657 3.0886 0 0 1 2.8657-3.0886 2.8657 3.0886 0 0 1 2.8657 3.0886z"/>
  <path d="m181.84 458.38a3.8339 2.7284 0 0 1-3.8339 2.7284 3.8339 2.7284 0 0 1-3.8339-2.7284 3.8339 2.7284 0 0 1 3.8339-2.7284 3.8339 2.7284 0 0 1 3.8339 2.7284z"/>
  <path d="m273.87 556.08a5.362 2.9535 0 0 1-5.362 2.9535 5.362 2.9535 0 0 1-5.362-2.9535 5.362 2.9535 0 0 1 5.362-2.9535 5.362 2.9535 0 0 1 5.362 2.9535z"/>
  <path d="m334.62 548.91a2.7828 2.8262 0 0 1-2.7828 2.8262 2.7828 2.8262 0 0 1-2.7828-2.8262 2.7828 2.8262 0 0 1 2.7828-2.8262 2.7828 2.8262 0 0 1 2.7828 2.8262z"/>
  <path d="m376.86 752.15a7.2424 3.299 0 0 1-7.2424 3.299 7.2424 3.299 0 0 1-7.2424-3.299 7.2424 3.299 0 0 1 7.2424-3.299 7.2424 3.299 0 0 1 7.2424 3.299z"/>
 </g>
 <g fill="#fff" stroke="#f0f">
  <path d="m180.83 50.468a6.315 4.4094 0 0 1-6.315 4.4094 6.315 4.4094 0 0 1-6.315-4.4094 6.315 4.4094 0 0 1 6.315-4.4094 6.315 4.4094 0 0 1 6.315 4.4094z"/>
  <path d="m290.82 59.618a6.0921 2.3079 0 0 1-6.0921 2.3079 6.0921 2.3079 0 0 1-6.0921-2.3079 6.0921 2.3079 0 0 1 6.0921-2.3079 6.0921 2.3079 0 0 1 6.0921 2.3079z"/>
  <path d="m388.64 173.46a5.0507 2.8373 0 0 1-5.0507 2.8373 5.0507 2.8373 0 0 1-5.0507-2.8373 5.0507 2.8373 0 0 1 5.0507-2.8373 5.0507 2.8373 0 0 1 5.0507 2.8373z"/>
  <path d="m76.349 49.538a12.494 4.3344 0 0 1-12.494 4.3344 12.494 4.3344 0 0 1-12.494-4.3344 12.494 4.3344 0 0 1 12.494-4.3344 12.494 4.3344 0 0 1 12.494 4.3344z"/>
  <path d="m367.05 96.338a3.8671 2.0368 0 0 1-3.8671 2.0368 3.8671 2.0368 0 0 1-3.8671-2.0368 3.8671 2.0368 0 0 1 3.8671-2.0368 3.8671 2.0368 0 0 1 3.8671 2.0368z"/>
  <path d="m494.21 214.4a8.2024 3.4578 0 0 1-8.2024 3.4578 8.2024 3.4578 0 0 1-8.2024-3.4578 8.2024 3.4578 0 0 1 8.2024-3.4578 8.2024 3.4578 0 0 1 8.2024 3.4578z"/>
  <path d="m545.87 315.61a8.7359 3.4673 0 0 1-8.7359 3.4673 8.7359 3.4673 0 0 1-8.7359-3.4673 8.7359 3.4673 0 0 1 8.7359-3.4674 8.7359 3.4673 0 0 1 8.7359 3.4674z"/>
  <path d="m434.89 316.7a4.4373 3.6584 0 0 1-4.4373 3.6584 4.4373 3.6584 0 0 1-4.4373-3.6584 4.4373 3.6584 0 0 1 4.4373-3.6584 4.4373 3.6584 0 0 1 4.4373 3.6584z"/>
  <path d="m393.68 431.62a3.4799 1.1328 0 0 1-3.4799 1.1328 3.4799 1.1328 0 0 1-3.4799-1.1328 3.4799 1.1328 0 0 1 3.4799-1.1328 3.4799 1.1328 0 0 1 3.4799 1.1328z"/>
  <path d="m344.81 340.38a6.3305 2.5301 0 0 1-6.3305 2.5301 6.3305 2.5301 0 0 1-6.3305-2.5301 6.3305 2.5301 0 0 1 6.3305-2.5301 6.3305 2.5301 0 0 1 6.3305 2.5301z"/>
  <path d="m208.47 451.48a4.757 2.9535 0 0 1-4.757 2.9535 4.757 2.9535 0 0 1-4.757-2.9535 4.757 2.9535 0 0 1 4.757-2.9535 4.757 2.9535 0 0 1 4.757 2.9535z"/>
  <path d="m371.77 552.33a3.1431 0.64218 0 0 1-3.1431 0.64218 3.1431 0.64218 0 0 1-3.1431-0.64218 3.1431 0.64218 0 0 1 3.1431-0.64218 3.1431 0.64218 0 0 1 3.1431 0.64218z"/>
  <path d="m276.35 578.58a8.2914 3.3675 0 0 1-8.2914 3.3675 8.2914 3.3675 0 0 1-8.2914-3.3675 8.2914 3.3675 0 0 1 8.2914-3.3675 8.2914 3.3675 0 0 1 8.2914 3.3675z"/>
  <path d="m353.8 453.28a8.05 6.8712 0 0 1-8.05 6.8712 8.05 6.8712 0 0 1-8.05-6.8712 8.05 6.8712 0 0 1 8.05-6.8712 8.05 6.8712 0 0 1 8.05 6.8712z"/>
  <path d="m332.54 574.1a8.1872 7.0611 0 0 1-8.1872 7.0611 8.1872 7.0611 0 0 1-8.1872-7.0611 8.1872 7.0611 0 0 1 8.1872-7.0611 8.1872 7.0611 0 0 1 8.1872 7.0611z"/>
  <path d="m306.29 712.81a3.9101 1.7004 0 0 1-3.9101 1.7004 3.9101 1.7004 0 0 1-3.9101-1.7004 3.9101 1.7004 0 0 1 3.9101-1.7004 3.9101 1.7004 0 0 1 3.9101 1.7004z"/>
  <path d="m388.72 714.12a11.7 8.1323 0 0 1-11.7 8.1324 11.7 8.1323 0 0 1-11.7-8.1324 11.7 8.1323 0 0 1 11.7-8.1323 11.7 8.1323 0 0 1 11.7 8.1323z"/>
  <path d="m342.42 727.52a2.1589 5.7442 0 0 1-2.1588 5.7442 2.1589 5.7442 0 0 1-2.1588-5.7442 2.1589 5.7442 0 0 1 2.1588-5.7442 2.1589 5.7442 0 0 1 2.1588 5.7442z"/>
 </g>
 <g fill="#fff" stroke="#0f0">
  <path d="m627.2 134.84a6.6422 3.2667 0 0 1-6.6422 3.2667 6.6422 3.2667 0 0 1-6.6422-3.2667 6.6422 3.2667 0 0 1 6.6422-3.2667 6.6422 3.2667 0 0 1 6.6422 3.2667z"/>
  <path d="m537.68 201.49a6.6422 3.2667 0 0 1-6.6422 3.2667 6.6422 3.2667 0 0 1-6.6422-3.2667 6.6422 3.2667 0 0 1 6.6422-3.2667 6.6422 3.2667 0 0 1 6.6422 3.2667z"/>
  <path d="m529.38 285.26a9.0061 4.458 0 0 1-9.0061 4.458 9.0061 4.458 0 0 1-9.0061-4.458 9.0061 4.458 0 0 1 9.0061-4.458 9.0061 4.458 0 0 1 9.0061 4.458z"/>
  <path d="m408.72 322.78a7.6533 4.3907 0 0 1-7.6533 4.3908 7.6533 4.3907 0 0 1-7.6533-4.3908 7.6533 4.3907 0 0 1 7.6533-4.3907 7.6533 4.3907 0 0 1 7.6533 4.3907z"/>
  <path d="m402 450.47a10.463 4.2603 0 0 1-10.463 4.2603 10.463 4.2603 0 0 1-10.463-4.2603 10.463 4.2603 0 0 1 10.463-4.2603 10.463 4.2603 0 0 1 10.463 4.2603z"/>
  <path d="m380.64 571.05a10.573 4.1771 0 0 1-10.573 4.1771 10.573 4.1771 0 0 1-10.573-4.1771 10.573 4.1771 0 0 1 10.573-4.1771 10.573 4.1771 0 0 1 10.573 4.1771z"/>
  <path d="m312.37 732.17a11.068 4.4473 0 0 1-11.068 4.4472 11.068 4.4473 0 0 1-11.068-4.4472 11.068 4.4473 0 0 1 11.068-4.4473 11.068 4.4473 0 0 1 11.068 4.4473z"/>
 </g>
 <g font-family="'Liberation Sans', Arial, sans-serif" font-size="20" font-weight="bold">
  <text x="54" y="94">A</text>
  <text x="276" y="94">B</text>
  <text x="473" y="51">C</text>
  <text x="310" y="179">D</text>
  <text x="651" y="137">E</text>
  <text x="600" y="324">F</text>
  <text x="440" y="452">G</text>
  <text x="131" y="461">H</text>
  <text x="422" y="734">I</text>
  <text x="158" y="104">1.</text>
  <text x="439" y="102">2.</text>
  <text x="577" y="224">3.</text>
  <text x="260" y="335">4.</text>
  <text x="420" y="573">5.</text>
 </g>
</svg>
