<svg xmlns="http://www.w3.org/2000/svg" viewBox="0 0 280 320"><defs><style>.s{fill:#e8f4f8;stroke:#0e7490}</style></defs><text x="140" y="18" text-anchor="middle" font-weight="600">SI-Praefixe (Auszug)</text><line x1="140" y1="36" x2="140" y2="300" stroke="#0e7490" stroke-width="2"/><rect x="165" y="42" width="90" height="22" class="s" rx="2"/><text x="210" y="57" text-anchor="middle" font-size="10">T Tera 10^12</text><rect x="165" y="72" width="90" height="22" class="s" rx="2"/><text x="210" y="87" text-anchor="middle" font-size="10">G Giga 10^9</text><rect x="165" y="102" width="90" height="22" class="s" rx="2"/><text x="210" y="117" text-anchor="middle" font-size="10">M Mega 10^6</text><rect x="165" y="132" width="90" height="22" class="s" rx="2"/><text x="210" y="147" text-anchor="middle" font-size="10">k kilo 10^3</text><rect x="165" y="162" width="90" height="22" class="s" rx="2"/><text x="210" y="177" text-anchor="middle" font-size="10">m milli 10^-3</text><rect x="165" y="192" width="90" height="22" class="s" rx="2"/><text x="210" y="207" text-anchor="middle" font-size="10">u mikro 10^-6</text><rect x="165" y="222" width="90" height="22" class="s" rx="2"/><text x="210" y="237" text-anchor="middle" font-size="10">n nano 10^-9</text><rect x="165" y="252" width="90" height="22" class="s" rx="2"/><text x="210" y="267" text-anchor="middle" font-size="10">p piko 10^-12</text><rect x="165" y="282" width="90" height="22" class="s" rx="2"/><text x="210" y="297" text-anchor="middle" font-size="10">f femto 10^-15</text><text x="140" y="318" text-anchor="middle" font-size="8" fill="#64748b">MedAT: typ. Groessen (um, nm, mL)</text></svg>
