<svg xmlns="http://www.w3.org/2000/svg" viewBox="0 0 520 120" width="100%">
  <defs><style>.box{fill:#e8f4f8;stroke:#0e7490;stroke-width:1;rx:3}.ar{stroke:#0e7490;stroke-width:1.5;fill:none;marker-end:url(#hz)}.l{font:11px system-ui,sans-serif;fill:#1e293b}</style>
  <marker id="hz" markerWidth="6" markerHeight="6" refX="5" refY="3" orient="auto"><path d="M0 0 L6 3 L0 6 z" fill="#0e7490"/></marker></defs>
  <text x="260" y="20" text-anchor="middle" font-weight="600" font-size="13" fill="#0f172a">Zentraldogma</text>
  <rect x="20" y="44" width="88" height="36" class="box"/><text x="64" y="62" text-anchor="middle" class="l">DNA</text><text x="64" y="74" text-anchor="middle" font-size="9" fill="#475569">Zellkern</text>
  <rect x="128" y="44" width="100" height="36" class="box"/><text x="178" y="62" text-anchor="middle" class="l">Transkription</text><text x="178" y="74" text-anchor="middle" font-size="9" fill="#475569">Kern</text>
  <rect x="248" y="44" width="64" height="36" class="box"/><text x="280" y="62" text-anchor="middle" class="l">RNA</text>
  <rect x="332" y="44" width="88" height="36" class="box"/><text x="376" y="62" text-anchor="middle" class="l">Translation</text><text x="376" y="74" text-anchor="middle" font-size="9" fill="#475569">Zytoplasma</text>
  <rect x="440" y="44" width="68" height="36" class="box"/><text x="474" y="62" text-anchor="middle" class="l">Protein</text>
  <path d="M108 62 L128 62" class="ar"/><path d="M228 62 L248 62" class="ar"/><path d="M312 62 L332 62" class="ar"/><path d="M420 62 L440 62" class="ar"/>
  <rect x="20" y="92" width="488" height="24" fill="#f8fafc" stroke="#94a3b8" stroke-width="1" rx="4"/>
  <text x="264" y="108" text-anchor="middle" font-size="9" fill="#475569">DNA -&gt; RNA (Transkription, Kern). RNA -&gt; Protein (Translation, Ribosom). MedAT: Ort und Richtung.</text>
</svg>
