<svg xmlns="http://www.w3.org/2000/svg" viewBox="0 0 440 88"><defs><style>.b{fill:#e8f4f8;stroke:#0e7490}</style></defs><text x="220" y="16" text-anchor="middle" font-weight="600">Groessenordnungen Medizin Biologie</text><rect x="12" y="28" width="58" height="44" class="b" rx="2"/><text x="41" y="48" text-anchor="middle" font-size="8">10^-9 m</text><text x="41" y="62" text-anchor="middle" font-size="8">Atom</text><rect x="78" y="28" width="58" height="44" class="b" rx="2"/><text x="107" y="48" text-anchor="middle" font-size="8">10^-7 m</text><text x="107" y="62" text-anchor="middle" font-size="8">Virus</text><rect x="144" y="28" width="58" height="44" class="b" rx="2"/><text x="173" y="48" text-anchor="middle" font-size="8">10^-6 m</text><text x="173" y="62" text-anchor="middle" font-size="8">Bakterium</text><rect x="210" y="28" width="58" height="44" class="b" rx="2"/><text x="239" y="48" text-anchor="middle" font-size="8">10^-5 m</text><text x="239" y="62" text-anchor="middle" font-size="8">Zelle</text><rect x="276" y="28" width="58" height="44" class="b" rx="2"/><text x="305" y="48" text-anchor="middle" font-size="8">10^-4 m</text><text x="305" y="62" text-anchor="middle" font-size="8">Erythrozyt</text><rect x="342" y="28" width="58" height="44" class="b" rx="2"/><text x="371" y="48" text-anchor="middle" font-size="8">10^-2 m</text><text x="371" y="62" text-anchor="middle" font-size="8">Organ</text><rect x="408" y="28" width="24" height="44" class="b" rx="2"/><text x="420" y="55" text-anchor="middle" font-size="8">1 m</text><text x="220" y="84" text-anchor="middle" font-size="8" fill="#64748b">Logarithmische Skala nm bis m. MedAT Groessen.</text></svg>
