<svg xmlns="http://www.w3.org/2000/svg" viewBox="0 0 480 140" width="100%">
  <defs><style>.box{fill:#e8f4f8;stroke:#0e7490;stroke-width:1;rx:3}.ar{stroke:#0e7490;stroke-width:1.5;fill:none;marker-end:url(#hk)}.l{font:11px system-ui,sans-serif;fill:#1e293b}</style>
  <marker id="hk" markerWidth="6" markerHeight="6" refX="5" refY="3" orient="auto"><path d="M0 0 L6 3 L0 6 z" fill="#0e7490"/></marker></defs>
  <text x="240" y="20" text-anchor="middle" font-weight="600" font-size="13" fill="#0f172a">Komplementsystem: 3 Wege</text>
  <rect x="12" y="40" width="88" height="24" class="box"/><text x="56" y="56" text-anchor="middle" class="l">Klassisch C1q</text>
  <rect x="12" y="72" width="88" height="24" class="box"/><text x="56" y="88" text-anchor="middle" class="l">Lektin MBL</text>
  <rect x="12" y="104" width="88" height="24" class="box"/><text x="56" y="120" text-anchor="middle" class="l">Alternativ</text>
  <rect x="116" y="72" width="88" height="28" class="box"/><text x="160" y="88" text-anchor="middle" class="l">C3</text>
  <rect x="220" y="72" width="88" height="28" class="box"/><text x="264" y="88" text-anchor="middle" class="l">C5</text>
  <rect x="324" y="72" width="88" height="28" class="box"/><text x="368" y="88" text-anchor="middle" class="l">MAC</text>
  <path d="M100 52 L116 72" class="ar"/><path d="M100 84 L116 86" class="ar"/><path d="M100 116 L116 86" class="ar"/><path d="M204 86 L220 86" class="ar"/><path d="M308 86 L324 86" class="ar"/>
  <text x="368" y="112" text-anchor="middle" font-size="9" fill="#475569">C3a/C5a Anaphylatoxin. C3b Opsonin. MAC Lyse.</text>
</svg>
