<svg xmlns="http://www.w3.org/2000/svg" viewBox="0 0 520 220" width="100%">
  <defs><style>.box{fill:#e8f4f8;stroke:#0e7490;stroke-width:1;rx:3}.periph{fill:#f0fdf4;stroke:#15803d;stroke-width:1;rx:3}.ar{stroke:#0e7490;stroke-width:1.5;fill:none;marker-end:url(#ha)}.fb{stroke:#b45309;stroke-dasharray:4 2;stroke-width:1.5;fill:none;marker-end:url(#hb)}.l{font:11px system-ui,sans-serif;fill:#1e293b}</style>
  <marker id="ha" markerWidth="6" markerHeight="6" refX="5" refY="3" orient="auto"><path d="M0 0 L6 3 L0 6 z" fill="#0e7490"/></marker>
  <marker id="hb" markerWidth="6" markerHeight="6" refX="5" refY="3" orient="auto"><path d="M0 0 L6 3 L0 6 z" fill="#b45309"/></marker></defs>
  <text x="260" y="20" text-anchor="middle" font-weight="600" font-size="13" fill="#0f172a">Hypothalamus-Hypophyse-Peripherie</text>
  <rect x="20" y="40" width="100" height="32" class="box"/><text x="70" y="58" text-anchor="middle" class="l">Hypothalamus</text>
  <rect x="140" y="40" width="88" height="32" class="box"/><text x="184" y="58" text-anchor="middle" class="l">Hypophyse</text>
  <rect x="248" y="36" width="80" height="24" class="periph"/><text x="288" y="52" text-anchor="middle" class="l">TRH->TSH</text>
  <rect x="248" y="68" width="80" height="24" class="periph"/><text x="288" y="84" text-anchor="middle" class="l">CRH->ACTH</text>
  <rect x="248" y="100" width="80" height="24" class="periph"/><text x="288" y="116" text-anchor="middle" class="l">GnRH->FSH/LH</text>
  <rect x="348" y="36" width="76" height="24" class="periph"/><text x="386" y="52" text-anchor="middle" class="l">Schilddruese</text>
  <rect x="348" y="68" width="76" height="24" class="periph"/><text x="386" y="84" text-anchor="middle" class="l">Nebenniere</text>
  <rect x="348" y="100" width="76" height="24" class="periph"/><text x="386" y="116" text-anchor="middle" class="l">Gonaden</text>
  <path d="M120 56 L140 56" class="ar"/><path d="M228 56 L248 56" class="ar"/><path d="M328 48 L348 48" class="ar"/><path d="M328 80 L348 80" class="ar"/><path d="M328 112 L348 112" class="ar"/>
  <path d="M386 60 L386 130 L260 130 L260 72" class="fb"/>
  <text x="260" y="158" text-anchor="middle" font-size="10" fill="#92400e">Negativer Feedback: Hormon aus Peripherie hemmt Hypothalamus und Hypophyse.</text>
  <rect x="20" y="178" width="480" height="32" fill="#f8fafc" stroke="#94a3b8" stroke-width="1" rx="4"/>
  <text x="260" y="196" text-anchor="middle" font-size="9" fill="#475569">MedAT: TRH/TSH/T3-T4. CRH/ACTH/Cortisol. GnRH/FSH/LH/Oestrogen/Progesteron/Testosteron. Releasing-Hormone aus Hypothalamus.</text>
</svg>
