<svg xmlns="http://www.w3.org/2000/svg" viewBox="0 0 420 118"><defs><style>.c{fill:#e8f4f8;stroke:#0e7490;stroke-width:1}</style></defs><text x="210" y="18" text-anchor="middle" font-weight="600">7 SI-Grundeinheiten</text><rect x="10" y="32" width="52" height="44" class="c" rx="3"/><text x="36" y="52" text-anchor="middle" font-size="10">m</text><text x="36" y="68" text-anchor="middle" font-size="8">Laenge</text><rect x="68" y="32" width="52" height="44" class="c" rx="3"/><text x="94" y="52" text-anchor="middle" font-size="10">kg</text><text x="94" y="68" text-anchor="middle" font-size="8">Masse</text><rect x="126" y="32" width="52" height="44" class="c" rx="3"/><text x="152" y="52" text-anchor="middle" font-size="10">s</text><text x="152" y="68" text-anchor="middle" font-size="8">Zeit</text><rect x="184" y="32" width="52" height="44" class="c" rx="3"/><text x="210" y="52" text-anchor="middle" font-size="10">A</text><text x="210" y="68" text-anchor="middle" font-size="8">Strom</text><rect x="242" y="32" width="52" height="44" class="c" rx="3"/><text x="268" y="52" text-anchor="middle" font-size="10">K</text><text x="268" y="68" text-anchor="middle" font-size="8">Temp.</text><rect x="300" y="32" width="52" height="44" class="c" rx="3"/><text x="326" y="52" text-anchor="middle" font-size="10">mol</text><text x="326" y="68" text-anchor="middle" font-size="8">Stoffmenge</text><rect x="358" y="32" width="52" height="44" class="c" rx="3"/><text x="384" y="52" text-anchor="middle" font-size="10">cd</text><text x="384" y="68" text-anchor="middle" font-size="8">Lichtstaerke</text><text x="210" y="94" text-anchor="middle" font-size="9" fill="#64748b">Basis: N=kg&#183;m/s&#178;, Pa=N/m&#178;, J=N&#183;m, W=J/s</text><text x="210" y="108" text-anchor="middle" font-size="8" fill="#94a3b8">MedAT: Einheitenkonsistenz Dosis Konzentration</text></svg>
