<?xml version="1.0" encoding="UTF-8" standalone="no"?>
<svg xmlns="http://www.w3.org/2000/svg" xmlns:svg="http://www.w3.org/2000/svg" xmlns:xlink="http://www.w3.org/1999/xlink" width="608.2616" height="503.95001" version="1.0">
  <defs>
    <path id="a" d="M64.792968 222.1725c-2.588868-.91988-5.231203-2.19983-5.871855-2.84436-.640653-.64452-1.773565-.93825-2.517584-.65275C53.074795 219.95275 42 209.91467 42 205.62019c0-1.27062-.894859-3.12005-1.988575-4.10985-1.093716-.9898-3.397746-3.99564-5.120068-6.67965-2.431923-3.78982-2.995399-5.56048-2.522291-7.92602.380753-1.90377.02128-4.18293-.958603-6.07781-2.260326-4.37099-4.357429-11.80149-3.76583-13.34317.279038-.72716-.314352-2.57672-1.318646-4.11013-1.370476-2.09252-1.783598-4.47404-1.656065-9.54671.093458-3.71728.474305-7.2512.846328-7.85314.372023-.60195.802727-3.20478.957121-5.78408.154393-2.5793 1.158533-6.96191 2.231422-9.73915 1.325757-3.4318 1.647578-5.53008 1.004525-6.54953-1.273872-2.01951 3.280816-10.95557 7.841477-15.38457C39.447858 106.67408 41 104.77055 41 104.28632 41 102.04269 52.503602 93 55.357828 93c.785507 0 1.680021-.656249 1.987808-1.45833.7787-2.029259 10.521357-8.286671 14.154364-9.090917 1.65-.365264 4.89247-1.546556 7.205489-2.625094 2.313019-1.078537 6.813019-2.223199 10-2.543692 3.186981-.320494 6.087786-1.032547 6.446233-1.582341 1.006253-1.543414 36.490778-.742321 43.532828.98279 6.20974 1.521213 14.31199 7.053591 14.94624 10.205583.38613 1.918889 1.86999 3.275393 5.59193 5.112001 2.78648 1.375 6.2388 4.025752 7.67181 5.890561 1.43301 1.864808 3.3743 4.208639 4.31398 5.208509 2.55675 2.72052 5.54547 9.01968 6.88758 14.51654.65591 2.68641 1.56508 5.36538 2.02036 5.95326.45529.58788 1.33105 4.41288 1.94613 8.5.61508 4.08712 1.59218 9.09599 2.17133 11.13081 1.37822 4.84237.39195 15.45127-1.64578 17.70294-.87347.96517-1.58813 2.65507-1.58813 3.75533 0 3.36839-7.22074 12.80211-10.05517 13.13683-1.62915.19238-2.93734 1.29127-3.76608 3.16352-1.4893 3.36458-11.61133 11.51042-13.1337 10.56954-.57478-.35523-1.04505-.00959-1.04505.76809 0 .77767-2.44806 3.72923-5.44014 6.55901-4.08173 3.86034-6.1954 5.14506-8.46482 5.14506-1.93994 0-3.38654.67616-4.03371 1.88541-1.73994 3.25109-11.79932 9.29281-14.9263 8.96481-1.54438-.162-3.89405.41136-5.2215 1.27412-3.71128 2.41212-12.79325 5.14038-15.101888 4.53665-1.1364-.29717-3.052461.10592-4.257912.89576-3.051369 1.99934-14.101816 3.0632-15.943287 1.53491-.97664-.81054-1.638578-.85515-2.080432-.14022-.947612 1.53327-7.327726 1.14309-12.737043-.77894zM77 222.18856c0-.44629-.890517-1.76729-1.978927-2.93557-3.158656-3.39042-18.174906-4.68601-16.115406-1.39043C60.718843 220.76398 77 224.65649 77 222.18856zm-10.991641-2.14817c-1.205325-.7734-1.248029-1.20072-.222476-2.22627 1.329503-1.32951 4.200708-.27229 4.541338 1.67218.238772 1.36303-2.508774 1.71552-4.318862.55409zm25.589194 1.83073c8.109322-2.04195 3.90561-4.59788-7.847553-4.77144-7.355854-.10863-8.844685 1.31974-4.527494 4.34362 2.633623 1.84466 6.251548 1.96973 12.375047.42782zm-8.032792-1.76634c-.304301-.49236.155946-1.16736 1.02277-1.5C87.261943 217.57852 89 217.93114 89 219.5c0 1.63658-4.48886 2.13606-5.435239.60478zM111 216.69331c2.475-1.20632 4.5-2.64331 4.5-3.19331 0-1.73156-6.37371-1.70105-11.79182.05644-6.480186 2.10201-7.398538 2.9068-5.679929 4.9776 1.666286 2.00775 6.476229 1.32521 12.971749-1.84073zm-8-.58632c0-.99719 2.41332-2.10699 4.58179-2.10699.78001 0 1.41821.675 1.41821 1.5 0 1-1 1.5-3 1.5-1.65 0-3-.40186-3-.89301zm-46-.08525C57 213.73333 46.678801 203 44.478261 203c-1.925422 0-1.922845 3.92026.004387 6.67176C45.98959 211.82322 54.658781 218 56.171445 218 56.62715 218 57 217.10978 57 216.02174zm-9.045837-5.10739c-.613912-1.1471-.833161-2.36869-.48722-2.71463.937545-.93754 3.985173 1.27135 4.356381 3.15746.469394 2.385-2.54009 2.04056-3.869161-.44283zm48.402073 4.26165C98.506948 213.49766 107.35172 211 111.1444 211c2.7103 0 5.51871-1.11854 9.87049-3.93123 3.3453-2.16217 7.52298-4.23996 9.28374-4.61731 1.87695-.40224 5.54946-2.91292 8.87713-6.06877 3.12167-2.96048 6.05618-5.38269 6.52113-5.38269.46494 0 3.80583-2.87442 7.42419-6.38759 3.8812-3.76837 7.8177-6.65969 9.60008-7.05117 2.2467-.49346 3.46645-1.65087 4.75788-4.51477.95516-2.11815 3.48812-5.56145 5.6288-7.65178 3.52663-3.44366 3.89216-4.28404 3.89216-8.94841 0-2.83131.49671-6.57269 1.10379-8.31418.91661-2.62939.79606-3.62978-.71088-5.89922-2.28766-3.44519-2.46824-4.25574-2.77375-12.45042-.16311-4.37508-.79716-7.33911-1.81829-8.5-3.17716-3.61206-6.001-10.53179-5.44084-13.33261.44891-2.24457.14222-2.85871-1.65448-3.31292-1.21305-.30666-4.35366-1.92225-6.97914-3.59018-3.46581-2.2018-4.93835-3.856438-5.375-6.039684-.89539-4.476947-2.05681-3.634831-1.9473 1.411933.06978 3.215856-.48682 5.053651-2.04433 6.750001-1.54597 1.68379-2.00704 3.1878-1.66059 5.41687.66065 4.25055-4.14873 8.41413-9.71921 8.41413-2.62129 0-4.28742.59479-5.17328 1.8468-1.54769 2.18739-6.24704 3.81602-13.77233 4.77301-4.37663.55657-6.07509 1.34127-8.52445 3.93835-3.91854 4.15487-9.71577 5.74414-17.67026 4.84419-4.581902-.51838-6.21534-1.12295-6.556249-2.42659-.383721-1.46735-.952548-1.58319-3.67344-.74813C77.736886 130.72322 62 126.45373 62 123.63604c0-.82528-1.465336-1.68836-3.521381-2.07407-4.759598-.89291-10.191505-5.87163-11.624552-10.65471-1.26479-4.2215-3.840251-5.32267-3.876029-1.65726-.026585 2.72362-3.457966 10.51785-5.741126 13.04071-1.070409 1.18279-1.555635 3.1768-1.376565 5.65692.319836 4.42971-1.45456 11.87164-3.350539 14.05237-.933324 1.0735-1.090367 2.87531-.552316 6.33692.413501 2.66031.363528 6.91535-.111052 9.45565-.678432 3.63147-.557257 4.78976.566901 5.41887 2.010717 1.12525 4.618741 9.54813 4.928825 15.91814.197172 4.05046 1.044493 6.58128 3.447439 10.29698 1.752308 2.70961 3.45633 6.36747 3.786717 8.12858.397507 2.11889 2.8162 5.47266 7.150336 9.91467 6.16758 6.3211 6.847818 6.73414 11.661488 7.08093 2.81152.20255 6.336588.72399 7.833484 1.15876 3.578938 1.0395 23.665223.61316 25.134606-.5335zm29.525734-3.33516c4.17878-2.4938 9.11803-6.84254 9.11803-8.02793 0-2.38307-6.82057-.11286-13.75 4.57666-4.43252 2.99972-5.10006 4.10076-3 4.94815 2.40011.96847 4.03974.64688 7.63197-1.49688zm-2.29937-1.70719c-.29449-.4765.36458-1.68086 1.46461-2.67637 1.59239-1.4411 2.25001-1.55653 3.22642-.56633.97047.98418.82133 1.54264-.71476 2.67637-2.23309 1.64816-3.22072 1.78883-3.97627.56633zm23.30374-11.93461c2.81251-2.64053 5.11366-5.34053 5.11366-6 0-3.01924-6.82115-.1623-13.05146 5.46642-4.3155 3.89879-4.31636 5.33454-.00319 5.33454 2.0004 0 4.32294-1.40416 7.94099-4.80096zm-4.92902-1.11929c1.3661-2.55259 4.32772-2.80587 3.85579-.32975-.18345.9625-1.37648 1.89839-2.65119 2.07975-2.06504.29382-2.19634.10308-1.2046-1.75zM44 199.72725C44 196.86261 37.059526 185 35.383507 185c-2.088238 0-2.579659 3.72-.916332 6.93652C36.360126 195.59709 41.855068 202 43.103592 202 43.596616 202 44 200.97726 44 199.72725zm-6.523918-5.80261c-.362282-1.14145-.381892-2.35216-.043579-2.69048.969672-.96967 3.881809 2.44826 3.126804 3.66988-1.056455 1.70938-2.361404 1.29486-3.083225-.9794zm124.666778-8.78178c5.15911-5.15912 6.00022-7.14286 3.02858-7.14286-2.09213 0-9.90502 4.94314-12.70766 8.04002-1.61115 1.7803-1.6726 2.21595-.42402 3.00572 2.88022 1.82181 5.32148.87873 10.1031-3.90288zM157 184c1.06222-1.98478 3.06148-2.60518 4.32466-1.34201 1.03541 1.03541-1.368 3.34201-3.48229 3.34201-1.60286 0-1.73933-.32401-.84237-2zm-121-5.91709C36 172.99509 32.841246 164 31.054589 164c-3.008458 0-1.971833 11.38295 1.525393 16.75C34.883579 184.28524 36 183.4146 36 178.08291zM31 173.5c0-2.97227 2.530493-3.4034 3.274607-.5579.57124 2.18442.016722 3.0579-1.941274 3.0579C31.577778 176 31 174.91667 31 173.5zm141.40261 2.899c1.6199-.62162 7.59739-10.276 7.59739-12.27073 0-2.0971-3.60968-1.14583-6.15375 1.62173C171.30409 168.51548 167 175.19081 167 176.36803c0 .80147 3.34477.82064 5.40261.03097zM172 172.08179C172 170.0303 173.29673 168 174.60699 168c1.70962 0 1.81999 2.17302.19301 3.8-1.42624 1.42624-2.8 1.56449-2.8.28179zM30.369714 160.75c.331637-1.2375.609121-5.2875.616631-9 .014141-6.99045-1.204576-8.60183-3.978148-5.25988-1.389255 1.67395-1.912618 13.32998-.685178 15.25988 1.260461 1.98182 3.388528 1.45594 4.046695-1zM27 154.08333C27 151.95115 27.483212 151 28.566422 151c1.110123 0 1.474249.77861 1.25 2.67288C29.355544 157.56601 27 157.9093 27 154.08333zm153.68744 7.13101c1.89264-1.20345 3.31383-5.95737 3.29725-11.02944-.01672-5.11509-1.3418-8.30379-2.77447-6.67654C179.69628 145.22792 178 152.5503 178 157.36602c0 4.62747.44959 5.27126 2.68744 3.84832zm-1.02257-7.38788c-.67795-2.59246-.0671-3.82646 1.89415-3.82646 1.51704 0 1.85084 1.76835.83399 4.41821-.85437 2.22645-2.05953 1.96504-2.72814-.59175zM32.377533 140.23683c1.703144-3.29352 3.080197-11.60162 2.272023-13.70769-1.141205-2.97393-3.669567-.20418-5.641462 6.18008C27.903642 136.28502 27 140.06327 27 141.10534c0 2.95185 3.711964 2.35234 5.377533-.86851zM30 135.12244C30 133.0136 30.486929 132 31.5 132c1.940685 0 1.940685 3.38937 0 5-1.278865 1.06136-1.5.78457-1.5-1.87756zm151.62847 5.22171c.75733-3.01745-1.06391-14.17959-2.55723-15.67291-.64864-.64864-1.54943-.51927-2.63028.37776-1.30673 1.08449-1.50885 2.38156-.98567 6.32546.77189 5.81886 3.00687 11.62554 4.47463 11.62554.56759 0 1.33193-1.19513 1.69855-2.65585zM177.36163 134.5c-.76852-2.00272.3656-4.78662 1.63131-4.00437 1.32513.81898 1.30442 5.50437-.02432 5.50437-.56727 0-1.29041-.675-1.60699-1.5zm-71.37267-4.99429c3.88932-2.01125 6.01104-5.26853 6.01104-9.22822 0-3.72499-.38129-3.85177-5.34576-1.77749-4.12681 1.72429-11.895373 1.9765-14.69695.47714-2.737646-1.46514-6.261156.82621-5.417238 3.52286.344246 1.1.574466 3.4625.511599 5.25l-.114302 3.25h8.080985c5.213516 0 9.106346-.53024 10.970626-1.49429zM94.525896 126.75c-1.482229-2.10078-1.445482-2.36606.55408-4 2.784833-2.27562 10.728664-2.41224 11.577924-.19912.34308.89406-.3793 2.58812-1.7057 4-3.04399 3.24018-8.211028 3.33886-10.426304.19912zM85 127.00979c1.331196-.8516 1.327436-1.27188-.033418-3.73469-1.948051-3.52548-5.673227-4.33343-5.551126-1.20397.122095 3.1293-2.625248 4.60994-5.837797 3.14621-2.982083-1.35873-3.587596-5.19899-.827659-5.24914 1.569842-.02853 1.546545-.1856-.2263-1.52572-1.782306-1.34727-2.125866-1.30656-3.5.41476-.838035 1.04978-2.574741 2.44781-3.859346 3.10674-2.856605 1.46528-2.333245 2.06768 3.656362 4.20852 5.212256 1.86299 13.875142 2.3113 16.179284.83729zm-48.522225-5.58031C40.03663 117.58941 43.38507 107 41.040469 107c-2.658488 0-11.751755 14.0401-10.453629 16.14051.988856 1.6 3.497711.8713 5.890935-1.71103zm-1.701019-3.01715C34.044952 117.18035 35.691657 113 36.908759 113c1.93243 0 2.043461 1.83744.245224 4.05817-1.009413 1.24657-2.079165 1.85594-2.377227 1.35416zm86.583684 3.61633c5.94703-.97394 13.23922-5.24937 12.09928-7.09384-.31777-.51415-2.29462-.93482-4.39301-.93482s-5.627-.63922-7.84136-1.42049c-3.80543-1.34264-4.13966-1.29963-6.09779.78471-1.63163 1.73679-1.94362 2.9944-1.46878 5.9205.3316 2.0434.88153 3.71267 1.22206 3.70949.34054-.00319 3.25636-.43768 6.4796-.96555zm-4.9764-2.47025c-1.10043-2.86766.09198-5.05368 2.93498-5.38067 5.28634-.608 7.62432 3.61579 3.13393 5.66174-3.41162 1.55444-5.39989 1.46236-6.06891-.28107zm61.20541 2.06909c.82078-2.13891-4.89565-16.06279-6.74042-16.41806-2.99511-.5768-3.11659 4.32472-.24878 10.03765 3.94497 7.8587 5.77933 9.53328 6.9892 6.38041zm-6.11337-7.70286c-.36228-1.14145-.40348-2.33057-.09155-2.6425.83379-.83379 3.61547 1.73618 3.61547 3.3403 0 2.16265-2.79149 1.60988-3.52392-.6978zm-104.056112 4.16379c1.023302-1.13073 1.597207-3.071 1.404988-4.75-.30453-2.66001-.694099-2.88428-6.197624-3.56779C56.523867 109.01261 54 107.72745 54 105.37756c0-1.9404-1.088149-1.71218-4.18352.87741-2.499152 2.09079-2.602208 2.48312-1.5 5.7104C49.960127 116.77801 55.04354 120 60.992896 120c3.354703 0 5.191542-.54632 6.427072-1.91157zm-12.886262-3.05118c-2.856548-3.15645-1.281293-5.39406 3.226855-4.58365 4.418931.79436 6.771822 3.19999 5.100049 5.21436-1.634476 1.96942-6.293155 1.61655-8.326904-.63071zm32.8533 3.14558c.277772-.44945-.167279-2.7686-.989004-5.15367-.821724-2.38507-1.255021-4.95938-.962882-5.72068.564044-1.46988-.098346-1.82031-5.044565-2.66883-2.572713-.44135-3.33798-.1064-4.43342 1.94044-.728187 1.36063-2.366437 2.73552-3.640556 3.0553-4.559325 1.14432-2.091109 5.95587 4.183421 8.15517 3.649071 1.27905 10.193218 1.51484 10.887006.39227zm-9.76236-4.70104c-1.93994-1.93994-2.014517-2.69192-.424646-4.28179 3.025691-3.02569 9.309137.17225 7.139884 3.63382-1.433172 2.28698-4.755639 2.60757-6.715238.64797zm30.213704 2.59981c7.8198-3.94742 8.56358-4.96864 6.55348-8.99798-1.16275-2.33079-2.05683-3.03306-3.2481-2.5513-3.60503 1.45792-8.91217 1.50435-14.068616.12309-7.298519-1.95506-10.087863-.77328-10.043311 4.25511.037001 4.17606 1.515177 6.45118 5.562883 8.56204 4.343166 2.26495 8.808504 1.8575 15.243664-1.39096zm-12.764137-3.00739c-2.125591-2.12559-1.804924-5.57983.603797-6.50415 2.663173-1.02195 9.35048.61466 10.38123 2.54064 2.43529 4.55036-6.995463 7.95308-10.985027 3.96351zm47.299887 1.97366c2.94299-1.11892 4.9627-4.41136 4.19326-6.83564-.42371-1.33499-1.72117-1.71223-5.88896-1.71223-5.09933 0-5.39008.14238-6.31317 3.09159-1.72052 5.49695 1.72603 7.84501 8.00887 5.45628zm-5.87126-3.03892c-.86044-2.71101.13919-4.00895 3.08756-4.00895 2.89511 0 4.16374 2.38639 2.39903 4.51273-1.75508 2.11475-4.74257 1.84043-5.48659-.50378zm-3.47809-2.57405c.53639-1.4108.97525-4.1108.97525-6 0-3.35939-.0909-3.4349-4.13486-3.4349h-4.13486l2.63486 2.07258c3.47408 2.73271 3.36861 5.38085-.27441 6.88984-4.07485 1.68786-7.09073-.02578-7.09073-4.02899 0-1.8547.62493-3.23601 1.6403-3.62564 1.49066-.57202 1.47752-.74847-.14401-1.934164-1.51219-1.10574-2.22842-.988491-4.69631.768794C111.56142 104.58468 117.42275 112 127.17263 112c4.31487 0 4.98926-.2956 5.85212-2.5651zm-58.857698-3.09495 2.776489-2.66004-3.22177-3.66916C71.949797 97.992716 70.05 95.600141 69.5 94.693918c-.923602-1.521798-1.364519-1.525255-5.771307-.045245-8.790173 2.95216-11.567873 11.184417-4.465991 13.235837 6.539713 1.88904 11.900295 1.33351 14.90435-1.54456zm-12.595623-1.91138C58.209409 101.06655 60.359989 97 65.5 97c5.370811 0 7.080541 3.41946 3.5 7-2.402281 2.40228-5.288357 2.56879-7.428571.42857zm-8.638084-3.36365C55.720005 98.350632 58 95.650632 58 95.064924c0-2.851536-7.637176.447796-13.25 5.724126C41.156557 104.16706 41.221048 106 44.933345 106c2.163761 0 4.262619-1.29475 8-4.93508zm-5.381848 1.0184C46.928427 101.07518 49.579309 98 51.071429 98 51.582143 98 52 98.659167 52 99.464816c0 1.790974-3.63688 3.931744-4.448503 2.618504zm97.845293 2.52425c6.53414-2.73014 6.67486-11.54607.2477-15.518269-1.74823-1.080468-4.26187-3.117571-5.58586-4.526894-1.32399-1.409324-2.66632-2.562792-2.98294-2.563263-.31663-.000471-.62397 3.487029-.68298 7.75-.05901 4.262971-.44697 9.209189-.86214 10.991596-.65808 2.82528-.45203 3.362 1.60729 4.18661 3.2905 1.31762 4.44727 1.27283 8.25893-.31978zm-5.65788-6.569938c-2.97276-4.244215.85052-10.520769 4.69584-7.709001 2.62671 1.920693 1.80639 9.065746-1.08819 9.478267-1.30141.18547-2.72882-.51456-3.60765-1.769266zM91.028589 100.9694c3.935397-4.212861 6.568599-12.3633 5.062326-15.669209-.672774-1.476577-1.69814-2.281154-2.510072-1.969587-.754968.289708-3.192407 1.071949-5.416531 1.738313l-4.043863 1.211571 3.189776 2.144118c3.435677 2.309409 4.572915 5.806349 2.644094 8.130436-1.603738 1.932386-8.406901 1.849519-10.38289-.126471-1.828252-1.828251-2.098192-6.98498-.419939-8.022197.809711-.500429.654486-1.075079-.522964-1.936052-1.412766-1.03304-2.219767-.679081-5.163701 2.264853L69.97558 92.22442l1.949804 3.154848C74.108673 98.911905 77.734127 102.46547 80 103.29377c4.158487 1.52016 8.241018.65973 11.028589-2.32437zm22.520551.11571c6.45141-3.700463 7.85086-5.448286 7.85086-9.805262C121.4 85.88877 116.59535 82 109.93456 82 102.22802 82 98 84.803072 98 89.912309c0 .961804-1.109575 3.940425-2.465722 6.619158s-2.352165 4.983983-2.213375 5.122773c1.130737 1.13073 6.04618 2.22835 10.179097 2.27299 3.75404.04054 6.25821-.66769 10.04914-2.84212zm-10.92257-4.945256c-2.23322-2.467677-.75643-6.504223 3.11136-8.504331 4.121-2.131052 8.21292.329773 8.24676 4.959489.03538 4.841446-7.93385 7.328624-11.35812 3.544842zM169 102.58499c0-2.711425-13.08928-12.829044-14.61859-11.299734-1.6804 1.680397 1.04256 5.947127 5.87014 9.198214C165.7363 104.17711 169 104.96111 169 102.58499zm-8.99242-4.075851c-.71092-.856609-.98187-1.86818-.60212-2.247935.87118-.87118 3.77518.899489 3.67176 2.238796-.12815 1.65955-1.69604 1.66422-3.06964.009139zm-25.46561-.577045c.363-.587348.89419-3.650574 1.18042-6.807168.71472-7.882101-.77424-9.360989-8.54412-8.486333-3.12305.351562-5.85134.78727-6.06287.96824-.21153.180971.18267 1.698552.876 3.372403.74893 1.808071 1.00603 4.635361.63342 6.965529-.59173 3.7005-.47169 3.945713 2.124 4.338867 5.46504.827755 9.14597.695623 9.79315-.351538zm-7.51845-4.908571c-2.4596-2.459608-1.38235-6.363351 1.89037-6.850287 4.57921-.681325 6.72196 4.036368 3.25737 7.171776-2.32625 2.105227-2.74732 2.07893-5.14774-.321489zM67 91.891267c4.788476-2.874805 8-5.955455 8-7.673989 0-1.886867-4.100436-.904751-9.5 2.275393-6.276973 3.696905-7.860242 5.115429-7.093758 6.355625C59.500298 94.618517 63.130727 94.21422 67 91.891267zM64 90.2c0-1.246223 2.259054-3.2 3.7-3.2 1.839845 0 1.618622 2.663756-.281787 3.393011C65.251147 91.224592 64 91.153945 64 90.2zm88.81642-1.920538C152.2753 83.626986 138 74.979164 138 79.303833c0 2.387384 11.37679 11.67897 14.31642 11.692429.44903.002056.67403-1.220504.5-2.7168zm-8.83648-3.803628c-.69572-.838291-1.00973-1.779379-.6978-2.091306 1.00937-1.009376 4.71786.706466 4.71786 2.18286 0 1.888176-2.42282 1.832998-4.02006-.091554zm-52.988068-1.821893c3.225927-1.609304 3.443827-1.593251 5.577112.410867 1.640981 1.54162 2.417801 1.765591 2.978295.858693.839911-1.359009-2.302117-4.193053-3.694601-3.332451C95.383705 80.880891 95 80.353976 95 79.420128c0-1.464231-.791345-1.622076-5.75-1.146922-3.1625.303042-7.474691 1.28712-9.582648 2.186842-3.299668 1.40837-3.652722 1.852654-2.538806 3.194841 1.624739 1.957691 9.000024 1.425187 13.863326-1.000948zm-7.773733-.827003c.239855-.729816 1.687936-1.47406 3.217959-1.653876 1.96067-.230428 2.653127.064766 2.345763 1-.239855.729816-1.687936 1.47406-3.217959 1.653876-1.96067.230428-2.653127-.064766-2.345763-1zm35.340731-.358741C117.49125 80.660688 116.07875 80 115.41998 80c-.65877 0-1.13526-.777572-1.05887-1.727937.17181-2.137464-6.509-3.398466-13.61111-2.569097-5.269989.615419-5.667226 1.156981-2.771116 3.777925 1.637724 1.482119 3.187986 1.704354 8.992226 1.289063 4.96567-.355291 7.52657-.11228 8.77112.832319.96677.733766 2.43277 1.33412 3.25777 1.33412 1.13303 0 1.02511-.35919-.44113-1.468196zm-14.85002-2.092681c-1.50844-1.508438-.59003-2.494689 2.04115-2.191938 1.5125.174032 2.75.766422 2.75 1.316422 0 1.194833-3.78092 1.885744-4.79115.875516zm31.98132.411837c-.65459-.4162-.79757-.763618-.31773-.77204.47985-.008422.31225-.690313-.37244-1.515313-1.67106-2.013508-18-2.194941-18-.2 0 3.020385 2.46882 3.797152 11.18831 3.520181 4.78062-.151855 8.15646-.616627 7.50186-1.032828zm-11.99632-.426833C122.56041 78.227074 124.04981 77 126.55902 77 128.06211 77 129 77.576338 129 78.5c0 1.496746-4.01826 2.148404-5.30615.86052zm55.77143 4.699727c-1.11909-.460087-2.63669-1.561861-3.37244-2.448385C175.35709 80.725338 173.75496 80 172.53254 80c-1.22241 0-2.96661-.822165-3.87601-1.827034-1.1185-1.235927-2.60285-1.68769-4.58795-1.39634-1.71404.251568-3.88673-.236271-5.22405-1.172966C157.58528 74.721647 155.10563 74 153.3342 74c-2.00194 0-3.71529-.702575-4.5275-1.856541-.71868-1.021097-2.4317-2.199323-3.8067-2.61828-1.375-.418957-3.24816-1.417652-4.16257-2.219322-2.15025-1.885135-24.59172-1.511255-26.65886.444143-1.5644 1.479837-3.2037 1.571143-6.39873.356395-1.63689-.622343-2.92891-.470562-4.25623.5-2.49239 1.822482-4.459725 1.761396-6.633649-.205979-1.620036-1.466112-1.958079-1.466112-4.051247 0C91.582664 69.280187 89.272972 70 87.706065 70c-1.566907 0-3.523922.675-4.348922 1.5-1.686732 1.686732-7.907634 2.036338-8.858482.497834-.786491-1.27257-8.647715-.168809-9.998661 1.403869-1.386146 1.613655-30.809617 4.811278-33.80223 3.673489-1.827887-.694961-2.592084-.474069-3.524344 1.018717C26.51872 79.142259 24.861865 80 23.491526 80S21 80.509251 21 81.131669c0 1.934366-8.274122.248027-10.150073-2.068674C9.9311453 77.928348 8.2941466 77 7.2121521 77S4.6846892 76.325 4 75.5c-.6846892-.825-1.9547893-1.5-2.8224447-1.5C-.04943216 74-.13333333 73.733333.8 72.8c1.5019497-1.50195 1.6835555-25.383112.2-26.3-1.83263736-1.132632-1.03192446-2 1.8463053-2 1.5654679 0 3.6095396.633428 4.5423816 1.407618 1.2846732 1.066184 1.9768703 1.126825 2.8536951.25 1.903958-1.903958 6.498202-1.366073 8.120997.950791.967527 1.381338 1.935399 1.824145 2.806704 1.284083.731454-.453379 4.929917-.943514 9.329917-1.089189 11.864237-.392801 14.061967-.694878 15.849657-2.17853.975604-.809678 2.629811-1.095758 4.141772-.71628 1.591978.399561 3.449864.020854 5.05395-1.030183 2.131624-1.396694 2.969009-1.463373 5.245585-.417692 3.799133 1.745024 12.181154 1.874084 15.488044.238473 2.042618-1.010293 3.537194-1.110212 5.640271-.377075 1.917756.668533 3.195652.663053 3.875325-.01662 1.531262-1.531262 15.721606-1.769028 18.532866-.310527 1.64018.850936 2.94549.93188 4.15073.257393.96697-.541146 3.61746-.68269 5.88997-.314543s4.80683.625425 5.63183.571728c.825-.053696 2.93733-.080038 4.69407-.058536 1.75674.021502 3.4708-.408657 3.80902-.955909.94647-1.531427 7.09982-1.178389 8.48166.486621 1.08623 1.308831 1.47633 1.308831 3.34495 0 2.62703-1.840045 5.08292-1.894296 6.53524-.144365 1.43035 1.723468 12.23842 4.102426 22.4206 4.93498 1.53204.125269 3.2008.899 3.70835 1.719403.73495 1.187957 1.17561 1.238854 2.16447.25 1.82023-1.820228 6.62837-1.513579 8.38207.534583 1.15188 1.345306 2.78708 1.723026 6.74021 1.556945 13.628-.572548 19.95052-1.280128 21.27727-2.381232.82261-.682704 2.70293-.94977 4.35735-.618885 1.97122.394244 3.32343.084266 4.19064-.960652.90299-1.088036 2.18128-1.350722 4.33722-.891294 1.68128.35828 4.9427.744922 7.2476.859205 2.30489.114283 4.49944.516518 4.87678.893856.37734.377337 1.96663.023865 3.53176-.785494 1.56512-.809359 4.77057-1.448834 7.12321-1.421055 2.35264.027779 7.76503-.152306 12.02753-.40019 4.32878-.251738 7.75-.048258 7.75.460937 0 .501399-1.29211.911635-2.87135.911635h-2.87134l-.71778 11.074591c-.6527 10.070625-.55105 11.200928 1.12135 12.468197 1.01152.766483 2.62662 1.407917 3.58912 1.425409C267.23235 72.004223 267.69647 74 265.72251 74c-.70263 0-2.27763-.700517-3.5-1.556704-2.01155-1.408939-2.43347-1.408939-4.44502 0C256.55512 73.299483 254.27297 74 252.70607 74c-1.56691 0-3.52393.675-4.34893 1.5-1.89222 1.892225-6.77072 1.943565-8.62353.090751-.91439-.914393-1.90514-1.095345-2.82143-.515313-.7767.491665-2.50175.900827-3.83344.909249-1.33169.008422-3.13169.617253-4 1.352958-1.90952 1.617908-18.90435 3.610277-28.57874 3.350395-5.41774-.145536-7.33906.186508-8.5 1.468976-1.74696 1.929829-9.5779 3.118853-12.53472 1.903231zm5.71265-10.564763c-.27823-12.264874-1.12483-20.4117-2.36972-22.803887-.67125-1.28988-1.85391-1.719975-4.12465-1.5-2.88698.279672-3.15384.587881-2.86449 3.308403.17549 1.65.4591 8.4.63024 15 .17115 6.6.36507 12.525.43093 13.166667.13373 1.302765 4.82584 3.300721 7.0721 3.011378 1.17778-.151711 1.40947-2.076677 1.22559-10.182561zm-4.94752 2.243506C178.89364 74.076434 179.8956 68 181.50651 68c1.71824 0 2.39845 2.046337 1.77109 5.328158-.61961 3.241309-1.69522 4.092291-3.04719 2.410832zM191.40338 80.75c.94894-1.473 1.6922-6.615563 2.15231-14.89159.66997-12.050932.61009-12.671017-1.28151-13.271389-1.09138-.346389-3.03086-.242658-4.30996.230513-2.13277.788963-2.31015 1.392002-2.13874 7.271389.62827 21.550261 1.9208 26.337896 5.5779 20.661077zm-3.87469-17.70358c-1.10918-1.794684.50733-5.186132 2.30675-4.839595 2.23078.429609 2.23738 5.15547.0078 5.584848-.91122.175485-1.95277-.159879-2.31455-.745253zM20.114802 70.050284c-.573735-21.061261-2.713872-26.475958-9.111279-23.05217-1.6074159.860263-1.7171361 1.447238-.794431 4.25.58881 1.788537 1.120141 8.63814 1.180736 15.221338C11.497596 78.177778 11.55454 78.466959 14 79.724845c1.375.707267 3.37738 1.171013 4.449733 1.030547 1.813262-.237516 1.929807-.986815 1.665069-10.705108zm-5.604289 2.966726c-.971159-1.571367.609817-8.143518 1.858941-7.727659 1.452892.483697 1.973039 3.209911 1.20005 6.289744-.628736 2.505084-2.000831 3.150054-3.058991 1.437915zM203.65171 76.25c-.33549-2.0625-1.15818-8.1375-1.8282-13.5-1.19717-9.581464-1.26416-9.75-3.87538-9.75h-2.65716l-.55059 12.749036c-.30282 7.01197-.34173 13.08697-.08647 13.5.25527.41303 2.52145.750964 5.03595.750964h4.57182l-.60997-3.75zm-7.29094-2.752236C195.46526 71.164102 196.86851 67 198.55044 67c1.95856 0 2.82936 2.35061 2.03835 5.502236-.6895 2.747217-3.31831 3.366194-4.22802.995528zm14.05744 5.895247C211.69756 78.902079 212 77.074744 212 69.835831c0-4.922605-.50342-10.94946-1.11871-13.393011-1.08322-4.30182-1.2419-4.44282-5-4.44282-4.55316 0-4.46685-.462611-2.43194 13.036163 2.10861 13.987707 3.02281 15.87109 6.96886 14.356848zm-4.35444-10.773851C204.60257 65.888885 205.46531 62 207.5322 62c2.01076 0 3.36675 3.077753 2.75831 6.260643-.64465 3.372275-2.52831 3.532049-4.22674.358517zM26.651396 75.987771C27.293039 74.619497 27.971465 68.1 28.15901 61.5l.34099-12h-8l.287601 11c.394525 15.089568.994976 18.68852 3.051911 18.292391.904894-.174267 2.170241-1.436346 2.811884-2.80462zM22 57c0-2.68338.326646-3.092711 2.25-2.819551 1.64812.23407 2.25.988307 2.25 2.819551s-.60188 2.585481-2.25 2.819551C22.326646 60.092711 22 59.68338 22 57zm153.34976 15.487146c1.62486-11.331796-3.93558-30.220772-6.74277-22.905359-.33385.869984-.60699 6.844856-.60699 13.277494 0 9.08799.35568 12.203505 1.59522 13.9732 2.73708 3.907738 4.79383 2.354664 5.75454-4.345335zm-3.71028-.180999C170.3516 71.018263 171.00325 67 172.5 67c.92366 0 1.5.937887 1.5 2.440983 0 2.509206-1.22707 3.99861-2.36052 2.865164zm47.11977 5.863806c.96664-.613658 1.02473-2.036049.25-6.121177C218.45416 69.121811 218 62.993765 218 58.430898c0-7.563902-.18636-8.355272-2.11151-8.966289-3.05044-.968174-5.22754 1.502894-4.06351 4.612201.49894 1.332755 1.22558 5.016766 1.61474 8.186693.38916 3.169926 1.07344 5.537381 1.52062 5.26101 1.34884-.833628 3.21552 2.207874 2.86642 4.670445-.23497 1.657538-.9588 2.282738-2.57676 2.225641-2.17575-.076781-3.1544 2.341666-1.58333 3.912734.90098.900981 3.54986.816 5.09258-.16338zM228.80014 66.5c.36206-13.269439-.2436-17.13178-2.91023-18.558919-1.55516-.832297-2.58761-.713947-4.45697.5109-2.11605 1.386488-2.42892 2.340066-2.40206 7.321072.03515 6.521161 1.62456 19.860426 2.54361 21.347467.33726.545709 2.03348.854336 3.76936.685839L228.5 77.5l.30014-11zM222 56c0-2.45853.3827-3.072948 1.75-2.809629 2.37316.457029 2.37316 5.162229 0 5.619258C222.3827 59.072948 222 58.45853 222 56zM37.779528 76.157421c1.033742-.655985.985393-2.718022-.251701-10.734687C34.819883 47.874598 35.16753 49 32.454687 49c-2.260891 0-2.45516.37501-2.460681 4.75-.003296 2.6125-.294231 8.45261-.646522 12.978022-.624226 8.018596-.579531 8.252421 1.755994 9.186614 3.01597 1.206366 5.041497 1.280028 6.67605.242785zM31.6875 71.354167c-.997336-.997337-.814619-5.604709.291649-7.354167.830307-1.313053 1.164726-1.283853 2.683256.234283 1.357767 1.357416 1.528605 2.31753.786164 4.418286-.978825 2.769613-2.558421 3.904246-3.761069 2.701598zM9.598614 73.463113c1.053054-4.195701-.0927686-20.73172-1.6596172-23.950884-.7998231-1.643274-2.2382978-3.13877-3.1966103-3.323324C3.1572529 45.883636 3 47.039171 3 58.992417c0 7.226486.4658327 14.009482 1.0351838 15.073324 1.5105379 2.822466 4.7930255 2.466909 5.5634302-.602628zm-4.113092-5.508729c-.8352444-2.631622.9746619-4.8942 2.6082582-3.260604 1.327581 1.327581.8498667 4.492783-.7589213 5.028401-.6408276.213352-1.4730292-.582157-1.8493369-1.767797zM46.772065 66.5c.160181-5.298823-.266787-10.850589-1.038239-13.5-1.22002-4.189934-1.566058-4.521385-5.022065-4.810365C37.340825 47.907768 37 48.107725 37 50.367275c0 3.684261 1.96981 17.564583 3.114135 21.94384.876617 3.354758 1.318576 3.773861 3.690866 3.5 2.680652-.309459 2.696447-.359026 2.967064-9.311115zm-5.529889-1.483823c-2.47058-3.956027-1.172167-7.694015 2.220361-6.392179 1.186378.455255 1.558871 1.615875 1.340243 4.175945-.353121 4.13494-1.799949 5.035492-3.560604 2.216234zM165.41821 75.393011C166.74711 74.883065 167 72.730361 167 61.928195c0-11.688701-.17588-12.951954-1.93426-13.893011-2.28951-1.225308-5.74772-1.358776-6.43402-.248318-.26747.432776-.80506 6.236424-1.19465 12.896995l-.70835 12.110129 2.88564 1.562967c3.3179 1.797097 3.661 1.858344 5.80385 1.036054zM161 66.5c0-4.142729 2.60715-4.91343 3.57509-1.056835C165.288 68.283618 164.48416 70 162.44098 70 161.46081 70 161 68.880735 161 66.5zm86.06574 8.464816C248.82517 74.023199 249 72.75951 249 60.983868c0-12.869921-.01421-12.949332-2.42627-13.554719-2.86607-.719339-8.19447 1.654136-7.79546 3.4724.15304.697425.55874 6.292387.90154 12.433249.70709 12.666426 1.91005 14.560623 7.38593 11.630018zm-3.3565-11.66203c-1.16701-1.976304-1.7377-7.167161-.84841-7.716777 1.62427-1.003849 4.26854 2.491437 3.94346 5.212592-.30168 2.525317-2.1835 4.047885-3.09505 2.504185zM54.247511 74.25c.201049-.4125.096438-2.325-.232471-4.25-.555211-3.249481-.655628-3.332408-1.402931-1.158579-.570377 1.65917-1.359593 2.19637-2.708513 1.84362C48.421598 70.29749 48 70.720191 48 72.59362 48 74.589978 48.501113 75 50.940983 75c1.617541 0 3.105478-.3375 3.306528-.75zm182.903169-.88636c1.58891-1.437946 1.73242-2.741413 1.18354-10.75C237.51631 50.679536 236.86128 49 233.02475 49c-2.9507 0-3.0232.116281-2.96136 4.75.0529 3.964718.21744 4.365751.99524 2.425759 1.25216-3.123165 4.44137-2.521469 4.44137.837936 0 1.93525-.49868 2.468707-2.25 2.406904-2.02573-.071487-2.25.389502-2.25 4.625 0 2.587421-.28125 6.110651-.625 7.829401-.58079 2.903966-.42722 3.125 2.17126 3.125 1.53794 0 3.60993-.736362 4.60442-1.63636zM63.5 60.40149C63.5 46.389263 62.78293 44 58.577555 44 57.3799 44 55.86 44.54 55.2 45.2c-1.524936 1.524936-1.573641 13.990568-.087996 22.521775l1.112005 6.385601 3.637995-.303688L63.5 73.5V60.40149zm-6.263369-5.564859c-2.728875-2.728875-.581161-7.197381 2.307174-4.800276 1.781733 1.478707 1.809457 2.098271.192826 4.309146-1.003411 1.372246-1.517826 1.473304-2.5.49113zM156.2635 60.25c.30497-7.0125.42619-12.881744.26939-13.042764-.15679-.16102-1.91584-.557399-3.90899-.880842L149 45.738315l-.01365 9.380843c-.00751 5.159463-.27412 10.351738-.59246 11.538388C147.71371 69.192992 150.99141 73 153.85451 73c1.68006 0 1.90668-1.199405 2.40899-12.75zm-4.57989 5.047089C150.73167 63.756822 152.2397 59 153.67994 59c1.02423 0 1.35526.926701 1.13342 3.172988-.30035 3.041234-2.08189 4.819566-3.12975 3.124101zm105.34884 5.670463c1.84036-1.840365 2.00575-3.092596 1.75-13.25L258.5 46.5l-2.65331-.307092C251.2634 45.662441 250 48.874149 250 61.05584c0 5.835954.3 10.910827.66667 11.277493 1.29736 1.297364 4.35965.640349 6.36578-1.365781zM251 69.547053c0-2.788346 2.23083-6.395706 3.62446-5.860921 1.69423.65014 1.80434 4.485064.17554 6.113868-1.6505 1.650498-3.8 1.507417-3.8-.252947zm-168.003394.459288c.633719-1.184114.952551-6.76744.785184-13.75L83.5 44.5l-3.228448-.311751c-6.344605-.612659-6.763776.269465-6.404893 13.478771.176819 6.508139.784256 12.39548 1.34986 13.08298 1.644235 1.998593 6.56416 1.528322 7.780087-.743659zm-5.389617-11.588128C76.460368 55.430167 76.949089 52 78.521439 52c1.86599 0 3.962733 4.295886 3.141405 6.43623-.77748 2.026083-3.275719 2.014985-4.055855-.018017zm-5.598792 11.07191c1.801955-2.171222.862782-22.325525-1.098196-23.566907-1.711349-1.083356-4.057153-1.151824-5.410001-.157903-.602601.442723-.877283 5.60283-.691201 12.984687l.3088 12.25h2.818756c1.550315 0 3.382644-.679445 4.071842-1.509877zM67.050103 55.56037C65.309612 53.463207 66.166649 50.5 68.513695 50.5c2.421476 0 3.21747 3.648297 1.167241 5.349837-1.100146.913039-1.686373.848538-2.630833-.289467zm24.498845 12.027497c1.672125-1.222688 1.980128-2.95321 2.295861-12.899372.350401-11.038216.280469-11.513958-1.78904-12.170795-1.32591-.420827-3.095766-.066288-4.604732.922425-2.347048 1.537845-2.447576 2.039876-2.369463 11.832928.078581 9.851693.135068 10.104405 1.539466 6.887256 1.205796-2.762198 1.710444-3.130091 2.918426-2.127555 2.970472 2.465273.459906 7.948455-3.026731 6.610506C85.585607 66.287488 85 66.631297 85 67.531385c0 1.888007 3.997043 1.92248 6.548948.056482zm13.239432-8.811695C105.45477 54.167188 106 49.197889 106 47.733285c0-3.228611-2.80836-4.97732-7.296206-4.543197L95.5 43.5l-.282294 11.201142-.282294 11.201142 2.77517 1.454059c4.462418 2.338098 5.719518.814158 7.077798-8.580171zm-6.366935 1.879712C97.461735 58.15492 98.398967 54.5 100 54.5c1.04065 0 1.5 1.046296 1.5 3.416667 0 3.545714-2.064257 5.382435-3.078555 2.739217zM147.35202 63.75c1.17313-9.766845.77435-18.480772-.92345-20.178571-1.9158-1.915802-2.53452-1.945657-4.87375-.23517-1.57944 1.154913-1.80079 2.6579-1.63102 11.074869.2259 11.199736.41825 11.960975 3.38454 13.394408 3.32662 1.607564 3.3685 1.565557 4.04368-4.055536zm-5.65078-3.382097c-1.43642-1.436421-.63133-4.255316 1.39942-4.899852 2.83016-.898257 4.71686 1.011406 3.26968 3.309473-1.18743 1.885602-3.56428 2.695199-4.6691 1.590379zM113.84236 66.25c1.82634-3.50168 5.28555-20.522086 4.35918-21.448464-.50739-.507383-3.1228-.782794-5.81203-.612025L107.5 44.5l-.29682 5.646692c-.25863 4.920025-.06565 5.627815 1.49951 5.5 2.40853-.196684 3.06977 4.119655.76652 5.003496-.95639.367001-2.04902.044331-2.55482-.754471-.60491-.955326-.8886-.228157-.89908 2.304593-.01026 2.480886.5614 4.03621 1.73469 4.719591 2.65228 1.544811 5.07627 1.278275 6.09236-.669901zM53 56.535184c0-8.615252-.189992-9.566497-2.116665-10.597621-1.66237-.889673-2.431424-.818046-3.583199.333729-1.184138 1.184139-1.259027 2.213876-.388912 5.347621.592692 2.134598 1.080132 5.976458 1.083199 8.537467.004986 4.162833.217565 4.600945 2.005577 4.133369 1.118188-.292413 2-.030682 2 .59362C52 65.497516 52.225 66 52.5 66s.5-4.259167.5-9.464816zm74.03014 7.793732c.43338-.455904.2525-5.103916-.40196-10.328916-1.14304-9.125677-1.29226-9.512004-3.787-9.804645-2.45901-.288449-2.63488-.002055-3.30821 5.387064-.39112 3.13044-1.33072 7.750444-2.088 10.266676-1.07391 3.568339-1.10931 4.757373-.16091 5.403975 1.41956.967829 8.59428.2875 9.74608-.924154zM120.63837 59.5c-.74995-1.954356.25055-4.5 1.76862-4.5C124.16684 55 126 57.142848 126 59.2c0 2.250462-4.5162 2.503158-5.36163.3zm18.00085-4.75c-.50959-7.897122-1.04707-10.536936-2.34145-11.5-2.19482-1.633025-5.45185-1.589034-7.76848.104926-1.7391 1.271658-1.77476 1.932316-.58035 10.75.69994 5.167291 1.47433 9.732574 1.72086 10.145074.24653.4125 2.51432.75 5.03954.75h4.5913l-.66142-10.25zm-7.27759-6.25c-.89308-2.327332.36561-4.5 2.60699-4.5 2.28511 0 2.77913 2.852247.83138 4.8-1.6104 1.610399-2.74321 1.51156-3.43837-.3zm132.03105 16.080922c-.88025-2.293892.46873-6.793785 1.8942-6.318628 1.60075.533583 1.56958 6.952218-.03635 7.487531-.68721.22907-1.52325-.296936-1.85785-1.168903zM25.832841 30.35323C23.980243 28.289926 21 17.791167 21 13.328162 21 8.2195312 23.444638 6 29.071389 6c4.253989 0 5.488365.4869376 8.693296 3.4293356L41.5 12.858671l-.264972 7.799923c-.317388 9.342841-1.202475 10.508306-8.43585 11.108153-4.264211.353622-5.628149.076869-6.966337-1.413517zm11.602059-.328479c2.163369-.822512 2.546933-1.566429 2.449099-4.75-.065453-2.129862-.326835-2.903229-.59983-1.774751-.892398 3.688898-4.533728 6.690371-7.575096 6.243993-1.538421-.225792-3.028875-.03556-3.312118.422738-.712357 1.152617 5.906374 1.048641 9.037945-.14198zm-1.540667-2.918984c2.934217-2.934217 3.730891-9.72793 1.454219-12.401005-1.645817-1.932379-1.65396-2.019533-.074286-.795028 1.84976 1.433865 3.369258.940365 2.321999-.754136-.332259-.537606-1.38982-.856819-2.350136-.709362-.960316.147456-2.819215-.567624-4.130888-1.589067-3.286307-2.5591574-5.944403-2.3260039-7.29578.639946-.906382 1.98929-.760467 3.743235.717502 8.624635 2.689188 8.881784 5.420813 10.920574 9.35737 6.984017zm-10.653977-6.860348c-1.749239-5.17978-1.832327-6.310318-.667392-9.080882 1.485501-3.532965 4.517036-4.1907241 8.016769-1.7394157 1.197389.8386837 2.579044 1.0886647 3.357606.6074867C37.954159 8.7922631 33.959578 7 29.188186 7c-6.774785 0-8.099234 3.61782-5.422778 14.812682.987501 4.13044 1.848629 5.973281 2.491029 5.330881.6424-.6424.291115-3.02703-1.016181-6.898144zM145 27.28629c-4.0637-1.451578-10-9.13883-10-12.949564 0-.969427 2.51595-4.141774 5.59099-7.0496602 7.02586-6.64393048 10.78788-7.10820052 15.93014-1.9659349 8.09902 8.0990171 4.24653 18.6465521-8.02113 21.9606681-1.1.297165-2.675.299187-3.5.004491zm7.27823-2.758077C156.09725 22.932525 159 20.468157 159 18.821583c0-.569559-.675-.776539-1.5-.459957-1.20531.462521-1.5-.370086-1.5-4.238023 0-9.3631488-6.25654-10.5644956-13.33339-2.560205-4.35289 4.923344-4.30142 7.039683.2364 9.720236 3.58616 2.118397 6.31953 2.169766 10.14665.190686C154.67235 20.635196 156 20.366174 156 20.876495 156 21.960898 150.59383 24 147.71881 24c-2.84343 0-8.50278-3.743975-9.25849-6.125011-.35361-1.114141-.8878-1.780842-1.18708-1.481558-.74267.742663 2.49554 5.715274 5.10178 7.834333 2.62039 2.130566 5.32663 2.212669 9.90321.300449zm6.24623-14.103324c-.93013-2.4355314-2.65378-5.102485-3.83031-5.9265638C152.27443 2.8034881 148 2.4852915 148 4c0 .55 1.125 1 2.5 1 3.22544 0 6.5 3.2958239 6.5 6.542206 0 2.646489 2.23133 5.992791 2.85781 4.285836.1968-.536204-.40321-2.967622-1.33335-5.403153zM146 5.2652959c0-1.0405886-.7679-.8546907-2.98203.7219063-4.25355 3.0288002-6.33142 6.1876198-4.75256 7.2249578C139.6548 14.125012 146 7.6056676 146 5.2652959z"/>
  </defs>
  <path fill="#fc9898" fill-rule="evenodd" stroke="#fff" stroke-width="3.82571411" d="M369.3273757 32.89916565a32.6310871 30.94327225 0 1 1-65.2621742 0 32.6310871 30.94327225 0 1 1 65.2621742 0z"/>
  <path fill="#fcc" fill-rule="evenodd" d="M342.98782 11.041122c-10.41609 5.723056-21.88351 14.539315-25.72712 24.674688 2.75148 14.893143 19.2507 21.76052 31.67086 14.082092 13.69043-5.573392 11.52458-20.94459 3.92617-31.379953-2.937-3.585382-5.31871-7.868481-9.86991-7.376827z"/>
  <path fill="#fc9898" fill-rule="evenodd" stroke="#fff" stroke-width="3.82571411" d="M108.5586957 41.78901565a32.6310871 30.94327225 0 1 1-65.2621742 0 32.6310871 30.94327225 0 1 1 65.2621742 0z"/>
  <path fill="#fcc" fill-rule="evenodd" d="M69.305025 19.37876c-15.097589 2.477657-9.49944 18.382166-5.975981 28.810987C64.579105 58.46786 67.098619 69.292931 79.4996 65.47806c14.332398-2.736403 14.979798-21.899051 9.406483-32.56283-6.480712-7.325411-9.69142-13.302817-19.601058-13.53647z"/>
  <path fill="#eadb88" d="M5.9717826 124.99082 4.5809395 0H605.44303v122.20914c53.69313 6.83829-678.487672-1.72049-599.4712474 2.78168zM94.248217 64.44061c1.436405-3.152566-.173107-15.214528 1.418181-20.792831 1.905827-6.680925-.310418-16.804265-5.84227-21.459011-3.84978-3.239376-8.175501-8.135983-11.687404-8.135983-8.585388 0-30.214904-.618808-24.633044 17.986946 4.184896 13.949322 7.652805 38.132817 14.8111 38.132817 5.755493 0 23.904625-1.279179 25.933437-5.731938zM362.208 44.289104c4.15518-8.336982 5.0609-9.972097.5685-21.450212-7.07698-18.0817217-24.00867-23.33504044-38.18323-9.493954-4.69368 4.583253-14.89911 17.663225-14.89911 20.314524 0 4.861953 13.37969 22.966238 19.60636 25.255746 4.863 1.788091 27.91587-5.769464 32.90748-14.626104z"/>
  <path fill="#d8a3d8" fill-rule="evenodd" d="M413.03213 317.8718c-2.25042 110.69815-216.34636 200.84997-262.17391 173.84493-74.38135-43.83109-79.889896-99.1535-79.889896-178.34577S170.29285 174.40754 256.62796 174.40754c86.3351 0 156.40417 64.27199 156.40417 143.46426z"/>
  <g transform="translate(4.5809395) scale(2.25042)">
    <path fill="#a56ab9" d="M65.5 222.47604c-9.437912-3.03883-15.035964-5.60623-17.884011-8.20205-4.682474-4.26778-5.549797-5.56463-5.584186-8.34968-.01793-1.4521-1.163878-3.63323-2.626965-5-4.691155-4.38232-7.695012-10.56401-6.9815-14.36736.350916-1.87054.209284-3.66597-.314739-3.98983-1.513995-.9357-5.359655-13.4705-4.677843-15.24727.339605-.885-.118459-2.42227-1.017921-3.41617-2.215545-2.44815-3.111792-13.74156-1.348202-16.98839.721554-1.32841 1.192368-3.88182 1.046252-5.67425-.260461-3.19513 2.351782-12.88696 3.940366-14.61937.442975-.48308.275381-1.72704-.372431-2.76435-.969171-1.55189-.690613-2.81359 1.572318-7.12167 4.559342-8.6799 15.306278-20.209987 21.314462-22.867693C55.00452 92.789107 57 91.524379 57 91.057451c0-1.365023 9.580495-7.124377 14.231283-8.555193C73.579077 81.779958 77.525 80.256347 80 79.116455c2.475-1.139892 6.343363-2.082414 8.596362-2.094493 2.252999-.012079 5.564882-.754556 7.35974-1.649949 2.625963-1.310003 4.755698-1.482724 10.903638-.88428 4.20214.409039 8.31526.685686 9.14026.614771 6.12362-.526371 18.27133-.139805 19.27367.613329.67448.506789 2.56478 1.006363 4.20066 1.110165 4.51312.286373 13.46882 6.639728 14.14829 10.037096.40464 2.023231 1.47525 3.132123 3.85467 3.992533C161.35331 92.257214 170 99.591756 170 101.478c0 .71941.67431 1.56678 1.49847 1.88304 1.75396.67306 5.8967 9.60142 6.87522 14.81736.37354 1.99115 1.36818 5.00143 2.2103 6.6895 1.6153 3.23794 3.22793 12.95963 4.08596 24.6321.37645 5.12116.10617 7.80522-1.007 10-.83686 1.65-2.3822 5.025-3.43409 7.5-2.44907 5.76241-6.87343 11-9.29207 11-1.06901 0-2.53472 1.25559-3.38489 2.89963-1.79977 3.48037-9.14702 9.96065-12.1469 10.71357-1.18175.2966-2.73149 1.62833-3.44385 2.95939C149.95777 198.31594 142.06538 204 138.87107 204c-1.77515 0-3.19177.73071-3.86867 1.99551C133.34677 209.08909 123.901 215 120.61302 215c-1.60252 0-5.43353 1.2375-8.51335 2.75-3.72249 1.82812-7.19201 2.75-10.34967 2.75-2.6125 0-4.75.26627-4.75.59171 0 2.70297-24.113375 3.76268-31.5 1.38433zm23.452352-6.90643c3.543092.45563 5.762574.04551 10.047648-1.85663 3.025-1.3428 8.13078-2.76534 11.34618-3.16119 4.29173-.52837 7.42889-1.74269 11.79863-4.56699 3.27385-2.11599 7.21244-4.12399 8.75244-4.46223 1.53999-.33824 4.33061-2.19888 6.20137-4.13475 1.87076-1.93586 4.97638-4.49423 6.90138-5.68526 1.925-1.19103 5.81495-4.44082 8.64434-7.22176 2.82938-2.78093 6.93292-5.92623 9.11896-6.98953 2.69826-1.31246 4.71221-3.32366 6.27149-6.26292 1.26327-2.3813 3.68474-5.50429 5.38104-6.93999 1.69629-1.4357 2.95646-3.03354 2.80038-3.55075-.15609-.51721.20361-4.50023.79934-8.85117.90625-6.61885.83762-8.35792-.4202-10.64862-2.00806-3.65699-3.36668-11.14143-2.58454-14.23782.4398-1.74111-.03727-3.41067-1.5716-5.5C168.82386 116.57691 167 112.3018 167 108.75055c0-2.86975-.46489-3.51731-3.25-4.52697-5.09987-1.84882-10.75-6.997731-10.75-9.796384C153 93.092238 152.65061 92 152.22357 92c-11.90596 47.11699-75.549189-4.5854-108.846418 18.75-.835212 3.47504-4.144859 10.22037-6.114945 12.46275-.827623.94202-1.234657 2.41666-.904521 3.27698.763253 1.98901-1.73001 14.04904-3.29408 15.93363-.770063.92787-.981377 3.4479-.607894 7.24946.314868 3.20495.208743 7.40218-.235835 9.32718-.645206 2.79371-.449389 3.8027.970361 5 2.043176 1.72305 5.090995 12.75589 4.659694 16.86768-.184618 1.76004.843382 4.56889 2.818608 7.70141 1.710068 2.712 3.72172 6.73091 4.470338 8.93091.821819 2.41512 3.81548 6.47637 7.555566 10.25 5.088832 5.13447 6.784436 6.25344 9.5 6.26929 1.818056.01061 5.555556.60453 8.305556 1.31983 3.33406.86722 6.483471 1.02485 9.452352.47311 2.448794-.45509 6.498794-.56426 9-.24262zM99.5 83c.339919-.55.403281-1 .140804-1-.262476 0-1.194137-.275103-2.070357-.611341-1.166041-.447452-1.427366-.179371-.974799 1C97.295832 84.213309 98.582722 84.484188 99.5 83zm18.5-1.5c-.68469-.825-1.75229-1.485688-2.37244-1.468197-.62016.017492-.25405.692492.81357 1.5C118.9348 83.417918 119.58079 83.404738 118 81.5z"/>
    <path fill="#d8c017" d="M179.46528 84.087766c-1.11909-.475223-2.63669-1.58938-3.37244-2.475904C175.35709 80.725338 173.74031 80 172.5 80s-2.81531-.675-3.5-1.5c-.6946-.836938-2.87444-1.5-4.93132-1.5-2.02753 0-4.55993-.660688-5.62755-1.468197-1.06762-.807508-3.39982-1.482508-5.18266-1.5-2.13451-.020942-3.66807-.714822-4.49054-2.031803-.68696-1.1-1.98009-2-2.87362-2-.89353 0-2.79343-.919409-4.22201-2.043131-2.34387-1.843689-3.77079-2.014517-14.61766-1.75-8.46239.206368-12.16404.663116-12.50606 1.543131-.56211 1.446326-5.37536 1.645354-7.48644.309566-.93706-.592923-2.14653-.41344-3.47251.515313-2.64147 1.850158-4.51644 1.801333-6.699669-.174463-1.620036-1.466112-1.958079-1.466112-4.051247 0C91.582664 69.280187 89.272972 70 87.706065 70c-1.566907 0-3.523922.675-4.348922 1.5-1.632467 1.632467-7.895397 2.056137-8.798317.595182-.753432-1.219078-8.80329-.162664-10.058826 1.320058-1.413445 1.669205-30.620786 4.869535-33.712692 3.693994-1.931585-.734387-2.665131-.534518-3.613882.984675C26.51872 79.142259 25.113423 80 24.050543 80c-1.06288 0-2.210624.45-2.550543 1-1.248277 2.019755-7.500545 1.090364-10.090909-1.5-1.375-1.375-3.3474027-2.5-4.383117-2.5-1.0357143 0-2.5581169-.675-3.3831169-1.5-.825-.825-1.9821428-1.5-2.5714285-1.5C.35778045 74 0 69.057254 0 59.198188V44.396376l3.4317349-.097276c2.1383042-.060612 3.6403236.446298 3.9851634 1.344936.4219482 1.09958 1.0164834 1.194393 2.5025237.399088 2.660375-1.42379 6.612376-1.312199 7.886211.222678 1.737861 2.093994 25.946128 1.015034 28.711051-1.279648.860799-.714401 2.7153-.989757 4.398578-.653102 1.920806.384162 3.321581.086496 4.119963-.875496 1.455098-1.753286 3.362967-1.850001 6.229648-.3158 2.668991 1.4284 11.798263 1.430006 14.465501.002544 1.099241-.588297 3.972097-1.074108 6.384123-1.079581C84.526524 42.059246 90.55 42.028873 95.5 41.997223c4.95-.03165 11.925.136635 15.5.373965 3.575.23733 7.175.467186 8 .51079.825.043605 3.075-.141496 5-.411335 1.925-.269839 5.42097-.759196 7.76881-1.087459 2.77686-.388246 4.80131-.154917 5.79239.667605 1.154.957741 1.80436.983654 2.68118.106829 1.55849-1.55849 4.74616-1.462344 6.67888.201448C148.94734 44.103227 156.74219 46 161.8838 46c2.19899 0 4.23898.389651 4.53332.865891.29433.476239 1.61814.658863 2.9418.40583 1.32365-.253033 2.70397.021024 3.06737.609015.40168.649937 2.36106.83602 4.99768.474631 3.43631-.470999 4.72519-.206203 6.20649 1.275094 2.0384 2.038403 4.85836 2.168507 18.86954.870582 4.4-.407594 8.56362-1.193098 9.25248-1.745565.68887-.552467 2.56212-.742559 4.16278-.422426 1.97122.394244 3.32343.084266 4.19064-.960652.90886-1.095108 2.16726-1.348669 4.33722-.873925 1.68128.367832 4.94146.62894 7.24482.580239 2.30337-.048701 4.46641.362016 4.80676.912703.39233.634809 1.68591.449428 3.53452-.506528 1.60365-.829278 4.84061-1.492998 7.19325-1.474934 2.35264.018064 7.76503-.19358 12.02753-.47032l7.75-.503163v14.481764c0 15.449812-.24121 16.102394-4.77749 12.92506-2.01155-1.408939-2.43347-1.408939-4.44502 0-1.22237.856187-3.35987 1.571016-4.75 1.588507-1.39012.017492-3.401.692492-4.46862 1.5-2.46151 1.861792-6.99216 1.892054-8.82526.058948-.91439-.914393-1.90514-1.095345-2.82143-.515313-.7767.491665-2.48757.900827-3.80194.909249-1.31436.008422-2.88936.615816-3.5 1.349765-1.32042 1.587081-18.89803 3.606917-29.11024 3.345048-5.48008-.140525-7.3257.188369-8.5 1.514722-1.74387 1.969673-9.57103 3.152074-12.53472 1.893544z"/>
    <path fill="#5cb341" d="M64 221.88087c-3.025-1.12584-6.995347-2.48983-8.822993-3.03108C50.513889 217.46881 42 209.0622 42 205.83883c0-1.39087-.894859-3.33869-1.988575-4.32849-1.093716-.9898-3.397746-3.99564-5.120068-6.67965-2.378634-3.70678-2.990647-5.58424-2.545645-7.80925.400812-2.00406-.223762-4.69767-1.977481-8.52829-1.409831-3.07948-2.657404-7.26272-2.772384-9.2961-.11498-2.03338-.845724-4.82205-1.623875-6.19705-1.506098-2.66129-1.75381-14.92594-.347423-17.20152.431587-.69833.666183-2.64535.521324-4.32673-.144859-1.68137.80351-5.99629 2.107486-9.58871 1.599268-4.40593 2.068534-7.01096 1.441899-8.00438-1.266611-2.008 4.239292-12.80436 8.251759-16.18062C39.626157 106.28513 41 104.70738 41 104.19192c0-1.57732 8.914567-9.258277 12.468767-10.743316 1.841395-.769385 3.501721-1.786115 3.689613-2.259401.685939-1.727835 10.921884-8.04662 14.086779-8.695955 1.790162-.367285 5.147311-1.558965 7.46033-2.648178 2.313019-1.089213 6.813019-2.24261 10-2.563103 3.186981-.320494 6.102281-1.056001 6.478445-1.634461.409078-.629076 4.226878-.977016 9.499996-.865793 21.21417.447458 30.08512.941712 33.9509 1.891609 6.40414 1.573624 13.71695 6.47065 14.76838 9.889654.6553 2.130913 2.27456 3.620723 5.89968 5.428048 2.74807 1.370063 6.16662 4.020815 7.5968 5.89056 1.43017 1.869746 3.36914 4.217616 4.30882 5.217486 2.44286 2.59933 5.39433 8.68386 6.74578 13.90655.63964 2.47191 1.77494 5.84438 2.52288 7.49438 1.83514 4.04844 3.77615 17.28651 3.90743 26.64951.08387 5.98144-.27347 8.07021-1.63867 9.57874-.96026 1.06108-1.74593 2.74068-1.74593 3.73246C181 168.414 173.81463 178 170.85137 178c-.99001 0-2.45871 1.27378-3.26379 2.83063-1.78523 3.45225-12.0921 11.59362-13.54253 10.69721-.57478-.35523-1.04505-.00959-1.04505.76809 0 .77767-2.44806 3.72923-5.44014 6.55901C143.545 202.65203 141.34819 204 139.17487 204c-1.98602 0-3.44527.76374-4.48178 2.34565-2.44678 3.73426-11.1727 8.85967-14.49088 8.51161-1.58133-.16587-3.96123.40432-5.28868 1.26708-3.71128 2.41212-12.79325 5.14038-15.101888 4.53665-1.1364-.29717-3.117824.14875-4.403163.99093-3.097016 2.02925-13.903739 3.01187-15.801589 1.43679-.974635-.80887-1.634836-.85251-2.076879-.13727-1.03172 1.66936-7.554994 1.1532-13.530011-1.07057zm13 .30769c0-.44629-.890517-1.76729-1.978927-2.93557-3.158656-3.39042-18.174906-4.68601-16.115406-1.39043C60.718843 220.76398 77 224.65649 77 222.18856zm-10.991641-2.14817c-1.205325-.7734-1.248029-1.20072-.222476-2.22627 1.329503-1.32951 4.200708-.27229 4.541338 1.67218.238772 1.36303-2.508774 1.71552-4.318862.55409zm25.589194 1.83073c8.109322-2.04195 3.90561-4.59788-7.847553-4.77144-7.355854-.10863-8.844685 1.31974-4.527494 4.34362 2.633623 1.84466 6.251548 1.96973 12.375047.42782zm-8.032792-1.76634c-.304301-.49236.155946-1.16736 1.02277-1.5C87.261943 217.57852 89 217.93114 89 219.5c0 1.63658-4.48886 2.13606-5.435239.60478zM111 216.69331c2.475-1.20632 4.5-2.64331 4.5-3.19331 0-1.73156-6.37371-1.70105-11.79182.05644-6.480186 2.10201-7.398538 2.9068-5.679929 4.9776 1.666286 2.00775 6.476229 1.32521 12.971749-1.84073zm-8-.58632c0-.99719 2.41332-2.10699 4.58179-2.10699.78001 0 1.41821.675 1.41821 1.5 0 1-1 1.5-3 1.5-1.65 0-3-.40186-3-.89301zm-46-.08525C57 213.73333 46.678801 203 44.478261 203c-1.925422 0-1.922845 3.92026.004387 6.67176C45.98959 211.82322 54.658781 218 56.171445 218 56.62715 218 57 217.10978 57 216.02174zm-9.045837-5.10739c-.613912-1.1471-.833161-2.36869-.48722-2.71463.937545-.93754 3.985173 1.27135 4.356381 3.15746.469394 2.385-2.54009 2.04056-3.869161-.44283zm48.402073 4.26165C98.506948 213.49766 107.35172 211 111.1444 211c2.7103 0 5.51871-1.11854 9.87049-3.93123 3.3453-2.16217 7.52298-4.23996 9.28374-4.61731 1.87695-.40224 5.54946-2.91292 8.87713-6.06877 3.12167-2.96048 6.05618-5.38269 6.52113-5.38269.46494 0 3.80583-2.87442 7.42419-6.38759 3.8812-3.76837 7.8177-6.65969 9.60008-7.05117 2.2467-.49346 3.46645-1.65087 4.75788-4.51477.95516-2.11815 3.48812-5.56145 5.6288-7.65178 3.52663-3.44366 3.89216-4.28404 3.89216-8.94841 0-2.83131.49671-6.57269 1.10379-8.31418.91661-2.62939.79606-3.62978-.71088-5.89922-2.28766-3.44519-2.46824-4.25574-2.77375-12.45042-.16311-4.37508-.79716-7.33911-1.81829-8.5-3.17716-3.61206-6.001-10.53179-5.44084-13.33261.44891-2.24457.14222-2.85871-1.65448-3.31292-1.21305-.30666-4.35366-1.92225-6.97914-3.59018-3.46581-2.2018-4.93835-3.856438-5.375-6.039684-.89539-4.476947-2.05681-3.634831-1.9473 1.411933.06978 3.215856-.48682 5.053651-2.04433 6.750001-1.54597 1.68379-2.00704 3.1878-1.66059 5.41687.66065 4.25055-4.14873 8.41413-9.71921 8.41413-2.62129 0-4.28742.59479-5.17328 1.8468-1.54769 2.18739-6.24704 3.81602-13.77233 4.77301-4.37663.55657-6.07509 1.34127-8.52445 3.93835-3.91854 4.15487-9.71577 5.74414-17.67026 4.84419-4.581902-.51838-6.21534-1.12295-6.556249-2.42659-.383721-1.46735-.952548-1.58319-3.67344-.74813C77.736886 130.72322 62 126.45373 62 123.63604c0-.82528-1.465336-1.68836-3.521381-2.07407-4.759598-.89291-10.191505-5.87163-11.624552-10.65471-1.26479-4.2215-3.840251-5.32267-3.876029-1.65726-.026585 2.72362-3.457966 10.51785-5.741126 13.04071-1.070409 1.18279-1.555635 3.1768-1.376565 5.65692.319836 4.42971-1.45456 11.87164-3.350539 14.05237-.933324 1.0735-1.090367 2.87531-.552316 6.33692.413501 2.66031.363528 6.91535-.111052 9.45565-.678432 3.63147-.557257 4.78976.566901 5.41887 2.010717 1.12525 4.618741 9.54813 4.928825 15.91814.197172 4.05046 1.044493 6.58128 3.447439 10.29698 1.752308 2.70961 3.45633 6.36747 3.786717 8.12858.397507 2.11889 2.8162 5.47266 7.150336 9.91467 6.16758 6.3211 6.847818 6.73414 11.661488 7.08093 2.81152.20255 6.336588.72399 7.833484 1.15876 3.578938 1.0395 23.665223.61316 25.134606-.5335zm29.525734-3.33516c4.17878-2.4938 9.11803-6.84254 9.11803-8.02793 0-2.38307-6.82057-.11286-13.75 4.57666-4.43252 2.99972-5.10006 4.10076-3 4.94815 2.40011.96847 4.03974.64688 7.63197-1.49688zm-2.29937-1.70719c-.29449-.4765.36458-1.68086 1.46461-2.67637 1.59239-1.4411 2.25001-1.55653 3.22642-.56633.97047.98418.82133 1.54264-.71476 2.67637-2.23309 1.64816-3.22072 1.78883-3.97627.56633zm23.30374-11.93461c2.81251-2.64053 5.11366-5.34053 5.11366-6 0-3.01924-6.82115-.1623-13.05146 5.46642-4.3155 3.89879-4.31636 5.33454-.00319 5.33454 2.0004 0 4.32294-1.40416 7.94099-4.80096zm-4.92902-1.11929c1.3661-2.55259 4.32772-2.80587 3.85579-.32975-.18345.9625-1.37648 1.89839-2.65119 2.07975-2.06504.29382-2.19634.10308-1.2046-1.75zM44 199.72725C44 196.86261 37.059526 185 35.383507 185c-2.088238 0-2.579659 3.72-.916332 6.93652C36.360126 195.59709 41.855068 202 43.103592 202 43.596616 202 44 200.97726 44 199.72725zm-6.523918-5.80261c-.362282-1.14145-.381892-2.35216-.043579-2.69048.969672-.96967 3.881809 2.44826 3.126804 3.66988-1.056455 1.70938-2.361404 1.29486-3.083225-.9794zm124.666778-8.78178c5.15911-5.15912 6.00022-7.14286 3.02858-7.14286-2.09213 0-9.90502 4.94314-12.70766 8.04002-1.61115 1.7803-1.6726 2.21595-.42402 3.00572 2.88022 1.82181 5.32148.87873 10.1031-3.90288zM157 184c1.06222-1.98478 3.06148-2.60518 4.32466-1.34201 1.03541 1.03541-1.368 3.34201-3.48229 3.34201-1.60286 0-1.73933-.32401-.84237-2zm-121-5.91709C36 172.99509 32.841246 164 31.054589 164c-3.008458 0-1.971833 11.38295 1.525393 16.75C34.883579 184.28524 36 183.4146 36 178.08291zM31 173.5c0-2.97227 2.530493-3.4034 3.274607-.5579.57124 2.18442.016722 3.0579-1.941274 3.0579C31.577778 176 31 174.91667 31 173.5zm141.40261 2.899c1.6199-.62162 7.59739-10.276 7.59739-12.27073 0-2.0971-3.60968-1.14583-6.15375 1.62173C171.30409 168.51548 167 175.19081 167 176.36803c0 .80147 3.34477.82064 5.40261.03097zM172 172.08179C172 170.0303 173.29673 168 174.60699 168c1.70962 0 1.81999 2.17302.19301 3.8-1.42624 1.42624-2.8 1.56449-2.8.28179zM30.369714 160.75c.331637-1.2375.609121-5.2875.616631-9 .014141-6.99045-1.204576-8.60183-3.978148-5.25988-1.389255 1.67395-1.912618 13.32998-.685178 15.25988 1.260461 1.98182 3.388528 1.45594 4.046695-1zM27 154.08333C27 151.95115 27.483212 151 28.566422 151c1.110123 0 1.474249.77861 1.25 2.67288C29.355544 157.56601 27 157.9093 27 154.08333zm153.68744 7.13101c1.89264-1.20345 3.31383-5.95737 3.29725-11.02944-.01672-5.11509-1.3418-8.30379-2.77447-6.67654C179.69628 145.22792 178 152.5503 178 157.36602c0 4.62747.44959 5.27126 2.68744 3.84832zm-1.02257-7.38788c-.67795-2.59246-.0671-3.82646 1.89415-3.82646 1.51704 0 1.85084 1.76835.83399 4.41821-.85437 2.22645-2.05953 1.96504-2.72814-.59175zM32.377533 140.23683c1.703144-3.29352 3.080197-11.60162 2.272023-13.70769-1.141205-2.97393-3.669567-.20418-5.641462 6.18008C27.903642 136.28502 27 140.06327 27 141.10534c0 2.95185 3.711964 2.35234 5.377533-.86851zM30 135.12244C30 133.0136 30.486929 132 31.5 132c1.940685 0 1.940685 3.38937 0 5-1.278865 1.06136-1.5.78457-1.5-1.87756zm151.62847 5.22171c.75733-3.01745-1.06391-14.17959-2.55723-15.67291-.64864-.64864-1.54943-.51927-2.63028.37776-1.30673 1.08449-1.50885 2.38156-.98567 6.32546.77189 5.81886 3.00687 11.62554 4.47463 11.62554.56759 0 1.33193-1.19513 1.69855-2.65585zM177.36163 134.5c-.76852-2.00272.3656-4.78662 1.63131-4.00437 1.32513.81898 1.30442 5.50437-.02432 5.50437-.56727 0-1.29041-.675-1.60699-1.5zM36.477775 121.42948C40.03663 117.58941 43.38507 107 41.040469 107c-2.658488 0-11.751755 14.0401-10.453629 16.14051.988856 1.6 3.497711.8713 5.890935-1.71103zm-1.701019-3.01715C34.044952 117.18035 35.691657 113 36.908759 113c1.93243 0 2.043461 1.83744.245224 4.05817-1.009413 1.24657-2.079165 1.85594-2.377227 1.35416zm142.812694 3.21517c.82078-2.13891-4.89565-16.06279-6.74042-16.41806-2.99511-.5768-3.11659 4.32472-.24878 10.03765 3.94497 7.8587 5.77933 9.53328 6.9892 6.38041zm-6.11337-7.70286c-.36228-1.14145-.40348-2.33057-.09155-2.6425.83379-.83379 3.61547 1.73618 3.61547 3.3403 0 2.16265-2.79149 1.60988-3.52392-.6978zM52.933345 101.06492C55.720005 98.350632 58 95.650632 58 95.064924c0-2.851536-7.637176.447796-13.25 5.724126C41.156557 104.16706 41.221048 106 44.933345 106c2.163761 0 4.262619-1.29475 8-4.93508zm-5.381848 1.0184C46.928427 101.07518 49.579309 98 51.071429 98 51.582143 98 52 98.659167 52 99.464816c0 1.790974-3.63688 3.931744-4.448503 2.618504zM169 102.58499c0-2.711425-13.08928-12.829044-14.61859-11.299734-1.6804 1.680397 1.04256 5.947127 5.87014 9.198214C165.7363 104.17711 169 104.96111 169 102.58499zm-8.99242-4.075851c-.71092-.856609-.98187-1.86818-.60212-2.247935.87118-.87118 3.77518.899489 3.67176 2.238796-.12815 1.65955-1.69604 1.66422-3.06964.009139zM67 91.891267c4.788476-2.874805 8-5.955455 8-7.673989 0-1.886867-4.100436-.904751-9.5 2.275393-6.276973 3.696905-7.860242 5.115429-7.093758 6.355625C59.500298 94.618517 63.130727 94.21422 67 91.891267zM64 90.2c0-1.246223 2.259054-3.2 3.7-3.2 1.839845 0 1.618622 2.663756-.281787 3.393011C65.251147 91.224592 64 91.153945 64 90.2zm88.81642-1.920538C152.2753 83.626986 138 74.979164 138 79.303833c0 2.387384 11.37679 11.67897 14.31642 11.692429.44903.002056.67403-1.220504.5-2.7168zm-8.83648-3.803628c-.69572-.838291-1.00973-1.779379-.6978-2.091306 1.00937-1.009376 4.71786.706466 4.71786 2.18286 0 1.888176-2.42282 1.832998-4.02006-.091554zm-52.988068-1.821893c3.225927-1.609304 3.443827-1.593251 5.577112.410867 1.640981 1.54162 2.417801 1.765591 2.978295.858693.839911-1.359009-2.302117-4.193053-3.694601-3.332451C95.383705 80.880891 95 80.353976 95 79.420128c0-1.464231-.791345-1.622076-5.75-1.146922-3.1625.303042-7.474691 1.28712-9.582648 2.186842-3.299668 1.40837-3.652722 1.852654-2.538806 3.194841 1.624739 1.957691 9.000024 1.425187 13.863326-1.000948zm-7.773733-.827003c.239855-.729816 1.687936-1.47406 3.217959-1.653876 1.96067-.230428 2.653127.064766 2.345763 1-.239855.729816-1.687936 1.47406-3.217959 1.653876-1.96067.230428-2.653127-.064766-2.345763-1zm35.340731-.358741C117.49125 80.660688 116.07875 80 115.41998 80c-.65877 0-1.13526-.777572-1.05887-1.727937.17181-2.137464-6.509-3.398466-13.61111-2.569097-5.269989.615419-5.667226 1.156981-2.771116 3.777925 1.637724 1.482119 3.187986 1.704354 8.992226 1.289063 4.96567-.355291 7.52657-.11228 8.77112.832319.96677.733766 2.43277 1.33412 3.25777 1.33412 1.13303 0 1.02511-.35919-.44113-1.468196zm-14.85002-2.092681c-1.50844-1.508438-.59003-2.494689 2.04115-2.191938 1.5125.174032 2.75.766422 2.75 1.316422 0 1.194833-3.78092 1.885744-4.79115.875516zm31.98132.411837c-.65459-.4162-.79757-.763618-.31773-.77204.47985-.008422.31225-.690313-.37244-1.515313-1.67106-2.013508-18-2.194941-18-.2 0 3.020385 2.46882 3.797152 11.18831 3.520181 4.78062-.151855 8.15646-.616627 7.50186-1.032828zm-11.99632-.426833C122.56041 78.227074 124.04981 77 126.55902 77 128.06211 77 129 77.576338 129 78.5c0 1.496746-4.01826 2.148404-5.30615.86052z"/>
    <path fill="#19170f" d="M71.761659 223.29274c1.243913-.23919 3.043913-.23011 4 .02018.956088.25029-.061659.446-2.261659.4349-2.2-.0111-2.982253-.21589-1.738341-.45508zm-5.490826-.89691c.332292-.33229 1.194792-.36781 1.916667-.07894.797733.31922.560776.55618-.604167.60416-1.054166.04342-1.644791-.19292-1.3125-.52522zm10.341903-1.86869c-1.260472-1.36007-3.376485-2.90654-4.702252-3.43661-1.325766-.53007-1.735484-.98539-.910484-1.01183.825-.02644 2.159908.36929 2.966462.87941.9152.57883 1.915123.55513 2.659988-.06305.65644-.5448 4.271532-.8322 8.033538-.63866l6.840012.35188-7.25.19586c-7.633181.20621-8.645502.99637-5.595012 4.36712.910243 1.00581 1.338756 1.82874.952251 1.82874-.386505 0-1.734032-1.11279-2.994503-2.47286zm13.658097 1.86869c.332292-.33229 1.194792-.36781 1.916667-.07894.797733.31922.560776.55618-.604167.60416-1.054166.04342-1.644791-.19292-1.3125-.52522zM62 221c-.825-.53316-1.05-.96937-.5-.96937s1.675.43621 2.5.96937 1.05.96937.5.96937-1.675-.43621-2.5-.96937zm32.75.33772c1.525132-.61541 1.670779-3.33772.178571-3.33772-.589285 0-.398175-.67325.42469-1.49612 1.722406-1.7224 6.693219-3.79073 7.403429-3.08053.26362.26362-.68033.77037-2.09767 1.1261-3.569527.89589-5.42608 3.21897-3.242254 4.05698 1.49492.57366 1.482614.75103-.137376 1.98003-.978664.74246-2.22939 1.32872-2.77939 1.30279-.55-.02593-.4375-.27412.25-.55153zM83.544496 220.072c-.697109-1.12795 3.032851-2.45125 4.446555-1.57753C88.545973 218.83743 89 219.54148 89 220.05902c0 1.21796-4.703868 1.22915-5.455504.01298zm16.726334.32383c.3323-.33229 1.1948-.36781 1.91667-.07894.79773.31922.56078.55618-.60417.60416-1.05416.04342-1.644788-.19292-1.3125-.52522zm-41.743838-1.35216c-.325073-.52598-1.139131-.82473-1.809017-.66389-.669886.16084-.880475.10368-.467975-.12701.4125-.23069.75-1.27215.75-2.31436C57 213.7498 46.651574 203 44.544683 203c-.776511 0-1.599304 1.2375-1.828429 2.75-.38774 2.55956-.426966 2.52493-.566422-.5-.082408-1.7875-.56919-3.25-1.081738-3.25-.512548 0-1.928376-1.4625-3.146285-3.25l-2.214379-3.25 3.089914 3.25c3.629877 3.81794 5.158557 4.10536 5.318657 1 .079713-1.54613.253636-1.73074.555966-.59013.241981.91292 3.584452 4.90575 7.427713 8.87295 3.843262 3.9672 6.75891 7.44192 6.479218 7.72161-.279692.2797-.05853 1.34937.49147 2.37705 1.012415 1.89172.54596 2.67478-.543376.91219zm6.743418-.29367c.473188-1.35327 3.642533-1.14916 5.17959.33357.582643.56206-.319638.91643-2.333333.91643-2.193108 0-3.138203-.41506-2.846257-1.25zm43.03688-.72188c8.92465-3.48708 9.97738-5.73839 2.94271-6.29308l-4.75-.37454 4.70559-.18025c3.68702-.14123 5.92226-1.03252 10.32628-4.11755 3.09137-2.16551 7.04885-4.24408 8.7944-4.61905 1.77327-.38092 5.48698-2.85732 8.41604-5.61204 2.88327-2.71166 6.59523-5.40192 8.24881-5.97836 1.65358-.57644 2.78154-1.41208 2.50657-1.85698-.76283-1.23429 9.17641-9.74897 12.98957-11.12782 2.35326-.85095 3.87218-2.33913 5.04736-4.94522.92459-2.05037 3.43254-5.43821 5.57322-7.52854 3.39664-3.31672 3.89216-4.38032 3.89216-8.35424 0-2.50451.45428-6.12568 1.00952-8.04705 1.04703-3.62322-.26059-8.9934-2.18986-8.9934-.51573 0-.61987-.51425-.23143-1.14277.45145-.73046 1.20586-.18926 2.09096 1.5 1.45241 2.77203 2.77567 3.33384 3.83089 1.62646.34546-.55897 1.04702-.75742 1.55902-.44098 1.52839.94459 1.05556 2.2453-.762 2.09618-2.15939-.17716-4.1249 5.9147-4.23025 13.11111-.07974 5.44758 1.03153 6.58012 3.92492 4 1.19253-1.06341 1.20411-.98877.07756.5-.72832.9625-2.30993 1.75-3.51468 1.75-2.42244 0-6.24252 3.63473-9.45895 9-2.71095 4.52208-2.65441 4.97283.6443 5.13618 2.35784.11676 2.42915.19798.5.56955-1.2375.23836-2.25 1.0118-2.25 1.71876 0 1.57787-10.37417 11.52975-12.19014 11.69393-.72042.06513-1.64736.06513-2.05986 0-.4125-.06513-.75.35086-.75.92442C153 193.32834 144.05535 203 142.86648 203c-.47292 0 1.38866-2.16727 4.13684-4.81616 2.74817-2.64889 4.99668-5.34889 4.99668-6 0-3.05865-7.48873.11-13.20858 5.58885-4.07003 3.89853-4.0659 5.15684.0176 5.36349l2.69098.13618-2.49903.46601c-1.37446.2563-4.34703 2.16943-6.60571 4.25141-2.25868 2.08198-5.18412 4.29899-6.50097 4.9267-2.39071 1.13958-2.39059 1.13863.08207-.63759 4.59356-3.29977 9.02364-7.47931 9.02364-8.51332 0-1.98392-7.31029.15729-12.65689 3.70723C119.4044 209.424 117 211.45297 117 211.98162c0 .52866 1.4625 1.42025 3.25 1.98131 2.76402.86757 2.84223.968.52299.67166-1.60671-.20531-5.05385.82522-8.39092 2.50848-3.11515 1.57131-6.388 2.83588-7.27299 2.81016-.88499-.02573.5542-.89203 3.19821-1.92511zm53.73555-32.66496c7.79685-7.29304 5.64622-10.24194-3.19738-4.38419-8.13962 5.39146-9.84701 9.02103-4.2436 9.02103 1.57526 0 4.29711-1.69611 7.44098-4.63684zM157.23207 184c1.26103-2.01922 2.88338-2.55121 4.09259-1.34201 1.02915 1.02915-1.36231 3.34201-3.45558 3.34201-1.6357 0-1.72025-.26545-.63701-2zM46.878609 212.92304 42.5 208.84608l4.75 3.78872c2.6125 2.0838 4.75 3.91843 4.75 4.07696 0 .77098-1.091701-.03664-5.121391-3.78872zM103 216.11663c0-.48585 1.0125-1.15471 2.25-1.48634 3.30903-.88679 3.75-.78452 3.75.86971 0 1-1 1.5-3 1.5-1.65 0-3-.39752-3-.88337zm-36.729167-.7208c.332292-.33229 1.194792-.36781 1.916667-.07894.797733.31922.560776.55618-.604167.60416-1.054166.04342-1.644791-.19292-1.3125-.52522zm-17.708596-3.97645c-.869341-.86934-1.324174-1.99556-1.01074-2.5027C48.36312 207.60344 52 209.74421 52 211.53518c0 1.91213-1.458984 1.86298-3.437763-.1158zM124 208.5c.68469-.825 2.14489-1.5 3.24489-1.5 1.66439 0 1.7911.2517.75511 1.5-.68469.825-2.14489 1.5-3.24489 1.5-1.66439 0-1.7911-.2517-.75511-1.5zm17.95732-11.42025c1.3661-2.55259 4.32772-2.80587 3.85579-.32975-.18345.9625-1.37648 1.89839-2.65119 2.07975-2.06504.29382-2.19634.10308-1.2046-1.75zm-100.191756-3.93678c-.95394-2.00363-2.855803-4.99297-4.226363-6.64297-2.094266-2.52126-2.652833-2.76063-3.500251-1.5-.843508 1.25482-1.016026 1.17309-1.055441-.5-.025913-1.1-.707804-2.87351-1.515312-3.94113-.807509-1.06762-1.466515-2.41762-1.464459-3 .002056-.58238.920432.44472 2.040836 2.28245 1.288977 2.11422 2.568568 3.13737 3.484266 2.78599.795942-.30544 1.354525-.23403 1.241294.15868-.113231.3927 1.513428 3.27523 3.614797 6.40561 2.10137 3.13037 3.661911 6.11971 3.467871 6.64297-.194041.52325-1.133298-.68797-2.087238-2.6916zm-4.289482.78167c-.362282-1.14145-.355814-2.37824.014373-2.74843.873331-.87333 3.610623 2.85122 2.918495 3.97111-.916508 1.48294-2.250667.92675-2.932868-1.22268zM34 193c-.588702-1.1-.845368-2-.570368-2s.981666.9 1.570368 2 .845368 2 .570368 2-.981666-.9-1.570368-2zm-1.921053-4.41667c-.043421-1.05416.192928-1.64479.52522-1.3125.332291.3323.367818 1.19479.078947 1.91667-.319226.79773-.556183.56078-.604167-.60417zm4.08109-12.25154c-.08802-1.74252-.419014-3.99252-.735542-5-.542988-1.72829-.511248-1.73169.561751-.06024.625491.97436.956485 3.22436.735542 5L36.320074 179.5l-.160037-3.16821zm139.917533-4.14967c1.77176-2.85016 3.40791-5.18212 3.63589-5.18212.71838 0-4.08125 8.06035-5.50151 9.23906-.74567.61886.09385-1.20677 1.86562-4.05694zm-147.506141 1.24645c-.367821-1.46551-.475908-2.85742-.240193-3.09314.235714-.23571.729515.77049 1.097335 2.236.367821 1.46551.475908 2.85742.240193 3.09314-.235714.23571-.729515-.77049-1.097335-2.236zm3.095238 1.90476C31.3 174.96667 31 173.80417 31 172.75c0-2.59345 2.415181-1.66977 2.819551 1.07833.309368 2.10247-.788169 2.86972-2.152884 1.505zM172 172.08179C172 170.0303 173.29673 168 174.60699 168c1.70962 0 1.81999 2.17302.19301 3.8-1.42624 1.42624-2.8 1.56449-2.8.28179zm-138.816121-5.57756c-1.379439-3.02754-3.177696-3.24388-3.903195-.46956-.496836 1.8999-.623101 1.85921-1.906381-.61431-1.592668-3.06987-1.810039-4.61733-.339987-2.42036.884764 1.32227 1.151062 1.30844 2.247444-.11668.948107-1.23239 1.505697-1.33627 2.345726-.43701 1.605884 1.7191 3.60295 5.65659 3.115975 6.14356-.230219.23022-.932031-.70832-1.559582-2.08564zM31.157895 157c0-1.375.226973-1.9375.504386-1.25.277412.6875.277412 1.8125 0 2.5-.277413.6875-.504386.125-.504386-1.25zm-3.771947-1.43662c-.735723-1.91726.182-4.56338 1.582667-4.56338 1.328748 0 1.349451 4.68539.024322 5.50437-.553884.34231-1.277029-.08113-1.606989-.94099zM180 152.5c0-1.55556.56667-2.5 1.5-2.5 1.61396 0 1.85324.91589.89301 3.41821C181.45881 155.8527 180 155.29295 180 152.5zm4.28601-3c.00751-2.75.20172-3.75631.43157-2.23625.22986 1.52006.22371 3.77006-.01365 5s-.42542-.01375-.41792-2.76375zM31 148.66667c0-4.5227-.90272-5.09723-3.81153-2.42582-2.225305 2.0437-2.360454 2.0674-1.417103.24851.57354-1.10586.921555-3.13086.773365-4.5-.14819-1.36915-.071576-1.67512.170253-.67994.630098 2.59299 4.448383 1.75904 5.995241-1.30942.81628-1.61923 1.265484-1.9266 1.275032-.87244.008108.89515-.60403 2.14109-1.360308 2.76874-.950163.78857-1.218974 2.52589-.869947 5.62245.277806 2.46469.221578 4.48125-.124951 4.48125C31.283524 152 31 150.5 31 148.66667zm-3.921053-13.08334c-.043421-1.05416.192928-1.64479.52522-1.3125.332291.3323.367818 1.19479.078947 1.91667-.319226.79773-.556183.56078-.604167-.60417zm3.086906-.64362c.183781-1.25568.934513-2.48092 1.668294-2.72276.906507-.29877 1.227041.29208 1 1.84334-.183781 1.25568-.934513 2.48092-1.668294 2.72276-.906507.29877-1.227041-.29208-1-1.84334zm3.913094.64362c-.043421-1.05416.192928-1.64479.52522-1.3125.332291.3323.367818 1.19479.078947 1.91667-.319226.79773-.556183.56078-.604167-.60417zM175.15789 135c0-1.375.22698-1.9375.50439-1.25.27741.6875.27741 1.8125 0 2.5s-.50439.125-.50439-1.25zm2.31819-1.07536c-.74935-2.36099-.11357-3.43666 1.45739-2.46576 1.31159.81061 1.4216 4.54112.13392 4.54112-.51294 0-1.22903-.93391-1.59131-2.07536zM35 129c0-4.28457-.920531-4.93661-3.428571-2.42857-.864286.86428-1.564538 1.20178-1.556116.75.027774-1.48989 1.445446-2.84489 4.280411-4.09118C38.578786 121.34736 44.533033 107 41.031385 107c-.532739 0-.675154-.76475-.31648-1.69944.4079-1.06297.801873-1.25023 1.051949-.5.219897.65969 1.713805 1.19944 3.319797 1.19944 2.130798 0 4.27044-1.30167 7.916666-4.81616 6.943136-6.692295 6.32871-9.344159-1.302977-5.623647L48.5 97.120385l2.5-2.037957c1.375-1.120876 3.110236-2.047962 3.85608-2.060192.745844-.01223 2.161258-1.034736 3.145365-2.272236.984107-1.2375 3.298871-3.057105 5.14392-4.043567 3.225933-1.724756 3.260804-1.724756.908919 0-5.323037 3.903652-6.345848 5.01279-5.654376 6.131615 1.846451 2.987621 10.031426-.282327 15.499889-6.192302 2.153735-2.327623 2.224097-2.660973.68623-3.251108-.942462-.361656-2.831044-.1484-4.19685.473902C66.906328 85.455433 65.999959 85.214978 69 83.5c1.375-.786021 3.202977-1.445075 4.062171-1.464565C73.921364 82.015946 76.487127 81.1 78.763864 80c2.276738-1.1 4.723761-1.974857 5.43783-1.944127.714068.03073-.705947.868489-3.15559 1.861687-5.42097 2.197912-6.001285 3.444151-2.314823 4.971133 2.314362.95864 3.836661.808184 8.678843-.857771 9.383476-3.228389 11.009968-5.887295 3.780859-6.180754-3.30958-.134349-3.380982-.189661-.690983-.53527 1.65-.21199 4.011822-.895244 5.248493-1.518341 1.236672-.623097 2.549172-.832226 2.916667-.46473.367495.367495-.081827.668173-.998493.668173-2.1772 0-2.114972 1.284314.162074 3.345012 1.280321 1.158675 3.604459 1.644361 7.749999 1.619553 6.73208-.040288 11.40096-1.908804 9.23893-3.697477-.72472-.599565-2.66767-1.266265-4.31767-1.481557-1.65-.215292.375-.386847 4.5-.381233 4.125.005614 6.375.180048 5 .387631-3.8969.588312-4.36615 1.774895-1.57132 3.973311C119.84291 80.87767 121 82.139018 121 82.568234c0 .429217-1.01946-.177335-2.26546-1.347892-1.40395-1.318942-2.75762-1.824114-3.55967-1.32842-.96148.594229-.64519 1.225118 1.23028 2.453972C117.79362 83.255652 119.28562 84 119.72071 84c.43508 0 1.39893 1.373259 2.14188 3.051687 1.29468 2.924893 1.20696 5.524466-.30742 9.110848-.42777 1.013057-.18502 1.835964.6214 2.106477.72789.244167.52341.322382-.45439.173809-.9778-.148572-4.06052 1.266014-6.85049 3.143519-2.78997 1.87752-5.7908 3.41366-6.66852 3.41366-.87772 0 .73194-1.15999 3.57702-2.57775C117.83597 99.404522 122 94.882285 122 91.323275c0-1.536273-1.32994-3.853215-3.4-5.923275-3.1067-3.106696-3.91459-3.4-9.36514-3.4-6.73649 0-11.227592 2.525235-11.244629 6.32258-.005373 1.197581-1.144721 4.615572-2.531884 7.595536-1.387164 2.979963-2.170268 5.757234-1.740231 6.171714.430036.41448 2.356884 1.23731 4.281884 1.8285l3.5 1.07489-3.5-.60247c-1.925-.33137-4.4-.80894-5.5-1.06128-1.166581-.26761-2.937597.4178-4.25 1.64482-1.2375 1.15699-2.25 1.69534-2.25 1.19633 0-.499-1.9125-1.16747-4.25-1.48547-3.839669-.52236-4.474232-.2937-6.572478 2.36833-1.277363 1.62059-2.964863 2.94652-3.75 2.94652-2.159177 0-1.709898 3.71762.746087 6.17361 1.740794 1.74079 1.820807 2.03822.401828 1.49371-1.160904-.44548-2.79873.18423-4.750334 1.82639C66.186898 120.87217 64.393576 122 63.839941 122c-2.458328 0 .224777 2.65336 4.242656 4.19562 2.429572.93259 3.864009 1.72009 3.187639 1.75-.67637.02991-3.03887-.66948-5.25-1.5542C61.968396 124.7702 60.237792 121 63.545455 121c2.955386 0 6.201772-4.36218 5.71494-7.67918-.426014-2.90261-.733379-3.08983-5.95798-3.62906C57.781905 109.122 54 106.93397 54 104.30983c0-1.65446-2.318333-.58707-5.75 2.64739-1.2375 1.16638-2.25 1.65316-2.25 1.08174C46 107.46753 45.325 107 44.5 107c-.882382 0-1.509043.92643-1.521962 2.25-.026534 2.71844-3.456415 10.51613-5.731282 13.02983-1.120169 1.23777-1.556118 3.23306-1.369486 6.26798.150583 2.44871.014799 4.45219-.301741 4.45219C35.258988 133 35 131.2 35 129zm39.768522-22.65679 1.935336-2.65679-4.025963-5.383414c-2.90499-3.88448-4.464769-5.193626-5.601929-4.701782-.866781.374899-2.811432.893767-4.321445 1.153041-3.625397.622491-8.771641 6.464265-8.06731 9.157625.990155 3.78636 3.505134 4.7884 12.479382 4.97211 5.047747.10333 5.877951-.17415 7.601929-2.54079zm-13.38448-2.7848c-1.303102-3.39583.047248-5.052178 4.374585-5.365908C69.634681 97.91149 70 98.088061 70 100.2425c0 1.29663-.54 2.8975-1.2 3.5575-1.669426 1.66943-6.746097 1.50405-7.415958-.24159zm28.50045-1.19006C92.613448 100.45692 96.982907 91.602453 96.974918 88c-.011192-5.047212-1.17724-5.558171-7.982216-3.49779l-6.164201 1.86637 3.514312 1.80295c4.312492 2.212441 5.498214 5.241664 3.092332 7.900134-4.823319 5.329706-13.859852-.722148-9.961713-6.67146 1.408962-2.150348 1.372582-2.412247-.472227-3.399559-1.681308-.899809-2.554922-.513595-5.5 2.431483C71.575542 90.357791 70 92.182981 70 92.488107c0 1.608281 5.694908 8.819093 7.921066 10.029553 3.500327 1.90326 9.133338 1.83296 11.963426-.14931zm9.985248-18.711396c.86345-1.04039.5755-1.588691-1.277786-2.433103-2.955674-1.346695-3.850764-.611134-2.292552 1.88396 1.401603 2.244324 2.077221 2.348238 3.570338.549143zM86.320129 130.11617c-.343891-1.31504-1.145929-1.74901-2.65638-1.43732-1.941217.40057-1.906635.29307.336251-1.04525 2.370961-1.41474 2.516039-1.36939 2.810746.8785.23966 1.82803 1.04031 2.46147 3.5 2.76904l3.189254.39879-3.34362.16003c-2.514841.12037-3.465727-.3069-3.836251-1.72379zm17.179871.68012c5.46519-1.90519 8.5-5.64813 8.5-10.48338 0-2.3721-.24293-4.31291-.53984-4.31291s-2.30398.9-4.46016 2c-2.32056 1.18386-5.67088 1.94909-8.210162 1.87524L94.5 119.75049l5.021087-.73814c5.642333-.82946 12.064403-3.7883 14.808613-6.82275 1.44508-1.59792 1.60274-2.44732.75-4.04067-.59383-1.1096-1.04417-2.60953-1.00075-3.33319.04342-.72366.49687-.18037 1.00768 1.2073.5108 1.38768 2.16278 3.33691 3.67105 4.33164 1.50828.99472 1.93025 1.55154.93772 1.23738-1.02159-.32335-2.98472.3013-4.5244 1.43964-2.31186 1.70922-2.6637 2.59908-2.34578 5.93275.31968 3.35213.75908 3.98106 3.0244 4.32891l2.65038.40698-2.72695.14983c-1.66704.09159-3.34168 1.08804-4.30856 2.56368-1.61294 2.46166-7.17943 5.64979-9.61562 5.5072-.74188-.04342.00113-.54956 1.65113-1.12476zM174.19495 129.5c-.02038-1.65.18706-2.44606.46099-1.76903.27392.67703.29059 2.02703.03705 3-.25354.97297-.47766.41903-.49804-1.23097zm6.4286-.71492c-.82898-4.39307-2.10233-5.45081-4.35931-3.62117-.90649.73485-1.35064.839-.98702.23145.36363-.60755-.41362-2.11433-1.72722-3.34839-3.26478-3.0671-6.85668-11.68892-6.10965-14.66531.38511-1.53443.1636-2.38166-.6227-2.38166-1.96958 0-11.69607-6.24078-12.33941-7.917299-.39084-1.018513.18711-.821232 1.71624.585831C161.83075 102.85488 169 105.63111 169 102.62736c0-1.31029-6.4756-7.693137-10.56565-10.41432-1.06389-.707828-.00471-.277831 2.35374.95555 2.35845 1.23338 5.45314 3.769967 6.87709 5.63686 2.39303 3.13743 2.49592 3.67639 1.35927 7.12047-1.08413 3.28495-.96983 4.33029.96538 8.8288 2.17701 5.06059 4.95169 8.4766 6.63501 8.16858 2.34873-.42978 3.31372.3605 4.37804 3.58542.63689 1.92979.96981 4.06729.73983 4.75-.22998.6827-.73361-.43043-1.11916-2.47364zm-107.352717-.38925c.332292-.33229 1.194792-.36781 1.916667-.07894.797733.31922.560776.55618-.604167.60416-1.054166.04342-1.644791-.19292-1.3125-.52522zm22.392857-.875C94.748661 126.6058 94 125.20315 94 124.40382c0-3.25945 11.1682-4.57306 11.77071-1.38448.79568 4.21082-6.94855 7.65996-10.10702 4.50149zm-23.44756-3.36609c-2.074437-1.31627-.277868-4.15314 2.640859-4.17005 2.032408-.01178 2.30095-.23161 1.162388-.95155-.964325-.60977.511136-.73067 4.231291-.34672 7.060751.72874 9.575923-.66821 7.230955-4.01612-.814893-1.16342-1.464009-2.80268-1.442481-3.64281.021528-.84012.660916-.09802 1.420863 1.64911s2.654833 3.86661 4.210858 4.70996c1.556025.84335 2.379137 1.54449 1.829137 1.55809-.55.0136-1.635481-.37755-2.412179-.86921-.906139-.57361-1.885176-.42094-2.732143.42602-.72598.72598-1.890499 1.51197-2.587821 1.74663-.998231.33593-.971724.78538.124644 2.11345.765875.92774 1.120223 1.95907.78744 2.29185-.332783.33279-1.14414-.57809-1.803015-2.02416C84.013839 120.73496 82.924002 120 80.978157 120c-2.341642 0-2.637258.33247-2.222908 2.5.420327 2.1988.13254 2.49816-2.388672 2.48469-1.576617-.00842-3.444318-.3819-4.150447-.82995zm-43.206361-.93798c-.015842-2.08096 4.678664-10.72156 6.662223-12.26234 1.738642-1.35054 1.745796-1.32286.146322.56607-.924927 1.09231-2.833031 4.45955-4.240231 7.48276-1.4072 3.02321-2.562941 4.91929-2.568314 4.21351zm91.721201-.8727c.67703-.27392 2.02703-.29059 3-.03705.97297.25354.41903.47766-1.23097.49804-1.65.02038-2.44606-.18706-1.76903-.46099zm8.76055-2.5586c4.95493-2.90426 5.59223-5.22701 1.8123-6.60524-1.63537-.59628-2.09524-1.05523-1.10351-1.10127.93517-.04342 2.19416-.86645 2.79775-1.82895.99301-1.58348 1.04918-1.55969.59032.25-.70006 2.76097 1.43594 5.24379 4.959 5.76419 2.85271.42139 2.83637.44122-.48293.58598-1.88955.08241-4.36455.99811-5.5 2.03489-1.13545 1.03679-3.18945 2.18992-4.56445 2.56252-1.66203.45037-1.16208-.10675 1.49152-1.66212zm-12.93575-.69522c-.82782-1.33944.36766-3.84688 2.16245-4.53561.85998-.33 2.6553.11531 3.98961.98959 1.95121 1.27848 2.19324 1.87006 1.23665 3.02268-1.31626 1.586-6.50482 1.9535-7.38871.52334zm-66.966876-3.16697c-1.423892-1.69219-2.57521-3.60469-2.558485-4.25.016724-.6453.528181-.27327 1.136569.82673.608388 1.1 2.023146 3.0125 3.143905 4.25 1.12076 1.2375 1.774306 2.25 1.452325 2.25-.321982 0-1.750423-1.38453-3.174314-3.07673zm127.490056 1.66006c-.04342-1.05416.19292-1.64479.52522-1.3125.33229.3323.36781 1.1948.07894 1.91667-.31922.79773-.55618.56078-.60416-.60417zM34.710251 116c.293748-1.12329 1.364016-2 2.441564-2 1.608675 0 1.745671.32303.848185 2-1.422362 2.65771-3.984755 2.65771-3.289749 0zm20.31243-.97732c-2.884277-2.88428-1.612139-5.3019 2.354111-4.47385 4.453268.92973 6.326964 2.89827 4.664861 4.90098-1.760004 2.12068-4.646842 1.945-7.018972-.42713zm89.342459-1.09526c3.03848-2.39006 3.48318-6.33394.88486-7.84732-1.26256-.73538-1.35413-1.02775-.32874-1.04969.78169-.01673 2.35669-.81791 3.5-1.78041 2.03217-1.7108 2.04141-1.7052.4125.25-1.07755 1.29339-1.47455 2.98963-1.12366 4.80107.39732 2.05115-.07337 3.45671-1.75807 5.25-1.26536 1.34691-2.7329 2.44893-3.2612 2.44893-.5283 0 .22514-.93266 1.67431-2.07258zm27.11094-.00278c-.74935-2.36099-.11357-3.43666 1.45739-2.46576 1.31159.81061 1.4216 4.54112.13392 4.54112-.51294 0-1.22903-.93391-1.59131-2.07536zM78.75 113.9199c-1.930749-1.12456-2.350835-4.43053-.693165-5.45503.58126-.35923 2.15626-.37722 3.5-.03996 2.632968.66083 3.257429 3.36083 1.243165 5.37509-1.432902 1.4329-1.778165 1.44312-4.05.1199zm17.472506-.4766c-2.42039-1.69531-2.944599-4.87899-1.001124-6.08012 1.582782-.97821 6.477288-.59482 8.889878.69637 2.74686 1.47007 2.31591 3.66819-1.0616 5.41477-3.664644 1.89506-4.079977 1.89317-6.827154-.03102zm79.401034.01804c-.96498-2.51469-.68031-3.16355.49853-1.13634.58369 1.00375.8506 2.03566.59313 2.29313-.25747.25747-.74872-.26309-1.09166-1.15679zm-53.35271-1.06551c.3323-.33229 1.1948-.36781 1.91667-.07894.79773.31922.56078.55618-.60417.60416-1.05416.04342-1.64479-.19292-1.3125-.52522zm14.3734-.88058c-.79809-2.07977 3.00963-4.04741 4.86025-2.51153.75715.62838 1.13024 1.78461.82909 2.56939-.7218 1.88098-4.96189 1.83786-5.68934-.05786zm36.09133-4.77157L170.97112 103.5l2.01444 2.36078c1.71413 2.00885 2.63029 4.1548 1.76444 4.1329-.1375-.00348-1.044-1.46598-2.01444-3.25zM122.2 107.8c-2.9381-2.9381-.03521-7.47742 4.11557-6.43564 2.89059.72549 5.05573 4.86434 3.4071 6.51297-1.48205 1.48205-6.00984 1.4355-7.52267-.07733zm11.94065-1.3c.27666-6.1712.06553-6.49184-4.39065-6.668103l-4.25-.168103 4-.382914c2.20885-.21145 4.58136-1.143698 5.29829-2.081897 1.10485-1.445842 1.20055-1.084464.64228 2.425422-.71704 4.508035-.24355 5.128545 4.97214 6.516045 2.60983.69428 2.44283.74715-1.07985.34185-2.76619-.31825-4.35453-.05968-4.72451.76913-.30655.68671-.51702.34857-.4677-.75143zM44.5 100c1.5808-1.65 3.099182-3 3.374182-3 .275 0-.793382 1.35-2.374182 3-1.5808 1.65-3.099182 3-3.374182 3-.275 0 .793382-1.35 2.374182-3zm3.108704.57732c.581467-1.51528 3.356018-2.945932 4.157963-2.143987C52.831374 99.498041 50.934634 102 49.06277 102c-1.318627 0-1.814008-.48469-1.454066-1.42268zm93.080896-1.731152c-3.3926-1.898598-.87189-9.89757 2.68847-8.531329 2.15874.828384 2.9896 3.084112 2.23841 6.077096-.70975 2.827846-2.58769 3.763305-4.92688 2.454233zm19.31798-.337029c-.71092-.856609-.98187-1.86818-.60212-2.247935.87118-.87118 3.77518.899489 3.67176 2.238796-.12815 1.65955-1.69604 1.66422-3.06964.009139zM103.75 96.607954c-2.64397-2.007055-2.11802-5.209714 1.24931-7.607465 3.36846-2.398551 6.39736-1.996338 8.03694 1.067236 1.22964 2.297614-.09672 5.359084-2.99343 6.909357-2.51368 1.345283-4.16171 1.248612-6.29282-.369128zM136 89.7c0-5.864258-1.1381-7.655369-4.95-7.790188-2.36997-.083821-2.32943-.154137.57424-.996004 1.71833-.498199 3.68593-1.582614 4.37244-2.409812.68652-.827198 2.20561-1.45914 3.37576-1.404316 1.90173.089099 1.86573.17266-.33916.787229l-2.46672.687549 4.24184 4.601857c2.33302 2.531021 5.48594 5.117177 7.0065 5.747013 1.52056.629836 2.82619 1.962067 2.9014 2.960513.11569 1.535867-.29056 1.415126-2.63872-.784242C144.84006 88.067222 137.30056 82 136.76986 82c-.20055 0-.1784 2.925.04924 6.5s.13647 6.5-.2026 6.5c-.33908 0-.6165-2.385-.6165-5.3zm.52646-9.506872c-.30789-.307887-1.11479-.000634-1.79313.682784-.98026.987616-.8654 1.10248.5598.559795.98622-.375531 1.54122-.934692 1.23333-1.242579zM152.89165 93.5c-.2901-1.1-.20426-3.125.19076-4.5.45917-1.598268.75418-1.868787.81791-.75.05482.9625.66218 1.756891 1.34968 1.765313.89571.010972.9285.223544.11568.75-.62387.404078-1.31707 1.634687-1.54044 2.734687-.40612 2-.40612 2-.93359 0zM127.25 93.337719c-1.5184-.612686-1.66871-5.960908-.19316-6.872845C129.21097 85.133543 133 86.953206 133 89.319052c0 3.670181-2.42076 5.362046-5.75 4.018667zm-62.574657-2.99571C63.77408 89.440747 65.926417 87 67.622445 87c1.898504 0 1.73916 2.647262-.204232 3.393011-1.956608.750821-1.940753.751116-2.74287-.051002zm79.304597-5.866175c-.69572-.838291-1.00973-1.779379-.6978-2.091306 1.00937-1.009376 4.71786.706466 4.71786 2.18286 0 1.888176-2.42282 1.832998-4.02006-.091554zm6.48111-.518868c-1.51896-1.678441-1.56042-1.932328-.2323-1.422682.88914.341195 1.86228 1.26056 2.16255 2.043035.74711 1.946954.24796 1.786532-1.93025-.620353zM83.243786 81.75C83.728564 80.273644 89 79.428001 89 80.826589 89 81.896502 86.631395 83 84.334879 83c-.82585 0-1.316842-.5625-1.091093-1.25zM144.5 80c-1.65-1.092752-2.55-1.979781-2-1.971175 1.00265.015688 6.43974 3.912943 5.5 3.94235-.275.008606-1.85-.878423-3.5-1.971175zm-21.00437-1.007063c-.78225-1.265711 2.00165-2.399825 4.00437-1.631311.825.316583 1.5 1.039728 1.5 1.606989 0 1.328748-4.68539 1.349451-5.50437.024322zM103 78c0-.55 1.125-1 2.5-1s2.5.45 2.5 1-1.125 1-2.5 1-2.5-.45-2.5-1zm30.50708-1.988546c-.35034-.56686.05106-.734507.94098-.393011C136.18048 76.283234 136.49745 77 135.05902 77c-.51754 0-1.21592-.444846-1.55194-.988546zm-5.75708-.673735c.6875-.277412 1.8125-.277412 2.5 0 .6875.277413.125.504386-1.25.504386s-1.9375-.226973-1.25-.504386z"/>
    <use xlink:href="#a"/>
    <use xlink:href="#a"/>
  </g>
  <path fill="#9a0101" fill-rule="evenodd" stroke="#000" stroke-width="1.80033588" d="M344.35405 24.350501c2.0348 3.289493 3.88911 6.704921 5.3618 10.283685.49329 1.714978-.61972 3.360849-1.78197 4.51488-1.30756 1.321969-2.80693 2.487837-4.46375 3.334139-1.14279.576065-2.52025-.058797-2.87262-1.27311-.79206-1.936137-.65476-4.082583-.78391-6.130848-.09024-1.677994.00943-3.356265.07467-5.031189-.04629-2.093843-1.40156-3.834245-2.86231-5.206236-.5234-.603326-1.31429-1.176508-1.36027-2.031209.53052-1.161796 2.18311-.581621 3.18005-.478737 1.91864.375634 3.85058.959389 5.50831 2.018625z"/>
  <path fill="#9a0101" fill-rule="evenodd" stroke="#000" stroke-width="2.05250883" d="M67.291224 38.580921c1.823904-1.551242 4.345056-2.937131 6.858721-2.066847 2.590447.907471 3.951679 3.454667 5.358452 5.59722 1.171834 1.700892 2.247945 2.348137 4.414849 2.125253 1.453033.29195 2.196603-.425257 4.323567-2.191789 1.429442-.755466.98412-3.656201.028509-4.899425-1.303376-2.180592-.537731-1.238805-2.569354-2.716903-2.129631-1.421129-4.662181-1.890699-7.036577-2.700414-1.54206-.508696-2.860317-1.479473-4.285272-2.222258-2.363096-1.122331-5.511782-1.012056-7.249824 1.00953-1.140614 1.297358-1.994079 2.840468-2.65448 4.429731-.557607 1.200158-.095652 2.85567 1.300979 3.265149.484132.195411.998295.295841 1.51043.370753z"/>
  <path fill="none" stroke="#000" stroke-width="2.25041986" d="m381.71597 178.24287 51.71685 55.69504"/>
  <svg:switch fill="#000" fill-opacity="1" stroke="none" stroke-linecap="butt" stroke-linejoin="miter" stroke-opacity="1" stroke-width="1" font-family="Bitstream Vera Sans" font-size="27.00503731" font-style="normal" font-weight="400">
    <svg:text xml:space="preserve" x="433.24982" y="248.25952" fill="#000" fill-opacity="1" stroke="none" stroke-linecap="butt" stroke-linejoin="miter" stroke-opacity="1" stroke-width="1" font-family="Bitstream Vera Sans" font-size="27.00503731" font-style="normal" font-weight="400" systemLanguage="as">
      <svg:tspan x="433.24982" y="248.25952" font-size="20.25377846">
        এণ্ড&apos;মেট্ৰিয়াম
      </svg:tspan>
    </svg:text>
    <svg:text xml:space="preserve" x="433.24982" y="248.25952" fill="#000" fill-opacity="1" stroke="none" stroke-linecap="butt" stroke-linejoin="miter" stroke-opacity="1" stroke-width="1" font-family="Bitstream Vera Sans" font-size="27.00503731" font-style="normal" font-weight="400">
      <svg:tspan x="433.24982" y="248.25952" font-size="20.25377846">
        endometrium
      </svg:tspan>
    </svg:text>
  </svg:switch>
  <svg:switch fill="#000" fill-opacity="1" stroke="none" stroke-linecap="butt" stroke-linejoin="miter" stroke-opacity="1" stroke-width="1" font-family="Bitstream Vera Sans" font-size="20.25377846" font-style="normal" font-weight="400">
    <svg:text xml:space="preserve" x="432.62677" y="296.07138" fill="#000" fill-opacity="1" stroke="none" stroke-linecap="butt" stroke-linejoin="miter" stroke-opacity="1" stroke-width="1" font-family="Bitstream Vera Sans" font-size="20.25377846" font-style="normal" font-weight="400" systemLanguage="as">
      <svg:tspan x="432.62677" y="296.07138">
        আভ্যন্তৰীণ কোষ পিণ্ড
      </svg:tspan>
      <svg:tspan x="432.62677" y="321.3886">
        (এম্ব্ৰিঅ&apos;ব্লাষ্ট)
      </svg:tspan>
    </svg:text>
    <svg:text xml:space="preserve" x="432.62677" y="296.07138" fill="#000" fill-opacity="1" stroke="none" stroke-linecap="butt" stroke-linejoin="miter" stroke-opacity="1" stroke-width="1" font-family="Bitstream Vera Sans" font-size="20.25377846" font-style="normal" font-weight="400">
      <svg:tspan x="432.62677" y="296.07138">
        inner cell mass
      </svg:tspan>
      <svg:tspan x="432.62677" y="321.3886">
        (embryoblast)
      </svg:tspan>
    </svg:text>
  </svg:switch>
  <svg:switch fill="#000" fill-opacity="1" stroke="none" stroke-linecap="butt" stroke-linejoin="miter" stroke-opacity="1" stroke-width="1" font-family="Bitstream Vera Sans" font-size="20.25377846" font-style="normal" font-weight="400">
    <svg:text xml:space="preserve" x="433.82339" y="371.16351" fill="#000" fill-opacity="1" stroke="none" stroke-linecap="butt" stroke-linejoin="miter" stroke-opacity="1" stroke-width="1" font-family="Bitstream Vera Sans" font-size="20.25377846" font-style="normal" font-weight="400" systemLanguage="as">
      <svg:tspan x="433.82339" y="371.16351">
        ট্ৰ&apos;ফ&apos;ব্লাষ্ট
      </svg:tspan>
    </svg:text>
    <svg:text xml:space="preserve" x="433.82339" y="371.16351" fill="#000" fill-opacity="1" stroke="none" stroke-linecap="butt" stroke-linejoin="miter" stroke-opacity="1" stroke-width="1" font-family="Bitstream Vera Sans" font-size="20.25377846" font-style="normal" font-weight="400">
      <svg:tspan x="433.82339" y="371.16351">
        trophoblast
      </svg:tspan>
    </svg:text>
  </svg:switch>
  <svg:switch fill="#000" fill-opacity="1" stroke="none" stroke-linecap="butt" stroke-linejoin="miter" stroke-opacity="1" stroke-width="1" font-family="Bitstream Vera Sans" font-size="20.25377846" font-style="normal" font-weight="400">
    <svg:text xml:space="preserve" x="432.62677" y="421.70981" fill="#000" fill-opacity="1" stroke="none" stroke-linecap="butt" stroke-linejoin="miter" stroke-opacity="1" stroke-width="1" font-family="Bitstream Vera Sans" font-size="20.25377846" font-style="normal" font-weight="400" systemLanguage="as">
      <svg:tspan x="432.62677" y="421.70981">
        ব্লাষ্ট&apos;চিষ্ট কেভিটি
      </svg:tspan>
      <svg:tspan x="432.62677" y="447.02703">
        (ব্লাষ্ট&apos;ছিল)
      </svg:tspan>
    </svg:text>
    <svg:text xml:space="preserve" x="432.62677" y="421.70981" fill="#000" fill-opacity="1" stroke="none" stroke-linecap="butt" stroke-linejoin="miter" stroke-opacity="1" stroke-width="1" font-family="Bitstream Vera Sans" font-size="20.25377846" font-style="normal" font-weight="400">
      <svg:tspan x="432.62677" y="421.70981">
        blastocyst cavity
      </svg:tspan>
      <svg:tspan x="432.62677" y="447.02703">
        (blastocoele)
      </svg:tspan>
    </svg:text>
  </svg:switch>
  <path fill="none" stroke="#000" stroke-width="2.25041986" d="m427.8633 289.63297-128.89426-42.16911m128.09863 166.28951-134.46376-27.84753m136.05505-21.48237-18.29981-5.56952"/>
  <path fill="red" fill-rule="evenodd" d="M298.17342147 386.3036593a5.17168322 5.17168322 0 1 1-10.34335698 0 5.17168322 5.17168322 0 1 1 10.34335698 0zm88.316436-209.254252a5.17168322 5.17168322 0 1 1-10.34335698 0 5.17168322 5.17168322 0 1 1 10.34335698 0zm-82.74693 69.22099a5.17168322 5.17168322 0 1 1-10.34335698 0 5.17168322 5.17168322 0 1 1 10.34335698 0zm110.594454 112.18574a5.17168322 5.17168322 0 1 1-10.34335698 0 5.17168322 5.17168322 0 1 1 10.34335698 0z"/>
</svg>