<?xml version="1.0" standalone="yes"?>

<svg version="1.1" viewBox="0.0 0.0 731.0 708.0" fill="none" stroke="none" stroke-linecap="square" stroke-miterlimit="10" xmlns="http://www.w3.org/2000/svg" xmlns:xlink="http://www.w3.org/1999/xlink"><clipPath id="p.0"><path d="m0 0l731.0 0l0 708.0l-731.0 0l0 -708.0z" clip-rule="nonzero"></path></clipPath><g clip-path="url(#p.0)"><path fill="#000000" fill-opacity="0.0" d="m0 0l731.52234 0l0 708.8399l-731.52234 0z" fill-rule="nonzero"></path><path fill="#000000" fill-opacity="0.0" d="m0 361.4252l735.46454 -1.3858337" fill-rule="nonzero"></path><path stroke="#000000" stroke-width="2.0" stroke-linejoin="round" stroke-linecap="butt" d="m0 361.4252l735.46454 -1.3858337" fill-rule="nonzero"></path><path fill="#000000" fill-opacity="0.0" d="m-0.7007874 182.11285l734.77167 0" fill-rule="nonzero"></path><path stroke="#000000" stroke-width="2.0" stroke-linejoin="round" stroke-linecap="butt" d="m-0.7007874 182.11285l734.77167 0" fill-rule="nonzero"></path><path fill="#3c78d8" d="m281.1076 69.56955l0 0c0 -32.23255 30.945251 -58.3622 69.1181 -58.3622l0 0c38.172882 0 69.11813 26.12965 69.11813 58.3622l0 0c0 32.23256 -30.945251 58.362206 -69.11813 58.362206l0 0c-38.17285 0 -69.1181 -26.129646 -69.1181 -58.362206z" fill-rule="nonzero"></path><path stroke="#000000" stroke-width="2.0" stroke-linejoin="round" stroke-linecap="butt" d="m281.1076 69.56955l0 0c0 -32.23255 30.945251 -58.3622 69.1181 -58.3622l0 0c38.172882 0 69.11813 26.12965 69.11813 58.3622l0 0c0 32.23256 -30.945251 58.362206 -69.11813 58.362206l0 0c-38.17285 0 -69.1181 -26.129646 -69.1181 -58.362206z" fill-rule="nonzero"></path><path fill="#000000" fill-opacity="0.0" d="m4.5249343 13.792651l253.03937 0l0 51.370075l-253.03937 0z" fill-rule="nonzero"></path><path fill="#000000" d="m22.97806 44.527027l-3.296875 0l0 -12.40625q-1.8125 1.6875 -4.25 2.484375l0 -2.984377q1.28125 -0.421875 2.796875 -1.59375q1.515625 -1.1875 2.078125 -2.75l2.671875 0l0 17.250002zm5.6132812 0l0 -3.296875l3.296875 0l0 3.296875l-3.296875 0z" fill-rule="nonzero"></path><path fill="#cfe2f3" d="m339.48557 168.56168l5.3700867 0l0 -31.275589l10.740143 0l0 31.275589l5.3700867 0l-10.740173 10.740158z" fill-rule="nonzero"></path><path stroke="#000000" stroke-width="2.0" stroke-linejoin="round" stroke-linecap="butt" d="m339.48557 168.56168l5.3700867 0l0 -31.275589l10.740143 0l0 31.275589l5.3700867 0l-10.740173 10.740158z" fill-rule="nonzero"></path><path fill="#3c78d8" d="m387.55905 210.48294l0 0c0 -32.23256 24.881683 -58.362213 55.5748 -58.362213l0 0c14.739349 0 28.87503 6.1488647 39.297333 17.093903c10.422302 10.945038 16.277466 25.789688 16.277466 41.26831l0 0c0 32.232544 -24.881683 58.362213 -55.5748 58.362213l0 0c-30.693115 0 -55.5748 -26.12967 -55.5748 -58.362213z" fill-rule="nonzero"></path><path stroke="#000000" stroke-width="2.0" stroke-linejoin="round" stroke-linecap="butt" d="m387.55905 210.48294l0 0c0 -32.23256 24.881683 -58.362213 55.5748 -58.362213l0 0c14.739349 0 28.87503 6.1488647 39.297333 17.093903c10.422302 10.945038 16.277466 25.789688 16.277466 41.26831l0 0c0 32.232544 -24.881683 58.362213 -55.5748 58.362213l0 0c-30.693115 0 -55.5748 -26.12967 -55.5748 -58.362213z" fill-rule="nonzero"></path><path fill="#cfe2f3" d="m466.23682 300.4645l6.503937 -4.5433044l-11.241486 -16.044373l13.007874 -9.086609l11.241486 16.044342l6.503937 -4.5433044l-3.9029236 22.081635z" fill-rule="nonzero"></path><path stroke="#000000" stroke-width="2.0" stroke-linejoin="round" stroke-linecap="butt" d="m466.23682 300.4645l6.503937 -4.5433044l-11.241486 -16.044373l13.007874 -9.086609l11.241486 16.044342l6.503937 -4.5433044l-3.9029236 22.081635z" fill-rule="nonzero"></path><path fill="#cfe2f3" d="m201.01117 278.53915l6.503937 4.551178l11.214264 -16.030304l13.007874 9.102356l-11.214264 16.030334l6.503937 4.551178l-22.108566 3.9066772z" fill-rule="nonzero"></path><path stroke="#000000" stroke-width="2.0" stroke-linejoin="round" stroke-linecap="butt" d="m201.01117 278.53915l6.503937 4.551178l11.214264 -16.030304l13.007874 9.102356l-11.214264 16.030334l6.503937 4.551178l-22.108566 3.9066772z" fill-rule="nonzero"></path><path fill="#3c78d8" d="m45.299213 379.7907l0 0c0 -17.533936 12.12709 -31.748016 27.086613 -31.748016q13.543312 0 27.086617 0q0 15.874023 0 31.748016l0 0c0 17.533966 -12.12709 31.748047 -27.086617 31.748047l0 0c-14.959522 0 -27.086613 -14.214081 -27.086613 -31.748047z" fill-rule="nonzero"></path><path stroke="#000000" stroke-width="2.0" stroke-linejoin="round" stroke-linecap="butt" d="m45.299213 379.7907l0 0c0 -17.533936 12.12709 -31.748016 27.086613 -31.748016q13.543312 0 27.086617 0q0 15.874023 0 31.748016l0 0c0 17.533966 -12.12709 31.748047 -27.086617 31.748047l0 0c-14.959522 0 -27.086613 -14.214081 -27.086613 -31.748047z" fill-rule="nonzero"></path><path fill="#000000" fill-opacity="0.0" d="m98.06036 353.01837c1.7121658 -5.292206 3.5800552 -27.55075 10.272972 -31.753265c6.6929092 -4.202545 24.748024 9.806641 29.884514 6.5380554c5.1364746 -3.2686157 0.778656 -21.791351 0.9343872 -26.149628" fill-rule="nonzero"></path><path stroke="#000000" stroke-width="2.0" stroke-linejoin="round" stroke-linecap="butt" d="m98.06036 353.01837c1.7121658 -5.292206 3.5800552 -27.55075 10.272972 -31.753265c6.6929092 -4.202545 24.748024 9.806641 29.884514 6.5380554c5.1364746 -3.2686157 0.778656 -21.791351 0.9343872 -26.149628" fill-rule="nonzero"></path><path fill="#cfe2f3" d="m106.46457 463.2257l7.937004 0l0 -38.897614l15.874016 0l0 38.897614l7.9370117 0l-15.874016 15.874023z" fill-rule="nonzero"></path><path stroke="#000000" stroke-width="2.0" stroke-linejoin="round" stroke-linecap="butt" d="m106.46457 463.2257l7.937004 0l0 -38.897614l15.874016 0l0 38.897614l7.9370117 0l-15.874016 15.874023z" fill-rule="nonzero"></path><path fill="#cfe2f3" d="m474.42783 454.4882l7.9370117 0l0 -38.897644l15.873993 0l0 38.897644l7.9370117 0l-15.873993 15.874023z" fill-rule="nonzero"></path><path stroke="#000000" stroke-width="2.0" stroke-linejoin="round" stroke-linecap="butt" d="m474.42783 454.4882l7.9370117 0l0 -38.897644l15.873993 0l0 38.897644l7.9370117 0l-15.873993 15.874023z" fill-rule="nonzero"></path><path fill="#3c78d8" d="m93.88429 560.3324l-34.195793 4.345276l-30.536882 -48.928528c-4.216263 -6.755615 4.257799 -19.654083 18.927347 -28.80954c14.669548 -9.155457 29.979523 -11.100891 34.195786 -4.345276l30.536888 48.928497z" fill-rule="nonzero"></path><path stroke="#000000" stroke-width="2.0" stroke-linejoin="round" stroke-linecap="butt" d="m93.88429 560.3324l-34.195793 4.345276l-30.536882 -48.928528c-4.216263 -6.755615 4.257799 -19.654083 18.927347 -28.80954c14.669548 -9.155457 29.979523 -11.100891 34.195786 -4.345276l30.536888 48.928497z" fill-rule="nonzero"></path><path fill="#00ff00" d="m106.922104 579.16565l-15.211395 -15.2421875l0 0c-1.9927292 -1.9967651 -1.3884811 -5.831299 1.3496399 -8.564758c2.7381134 -2.7333984 6.5732193 -3.3305664 8.565956 -1.3338013l15.211388 15.242126l0 0c1.9927368 1.9967651 1.3884811 5.83136 -1.3496323 8.564758c-2.7381134 2.7333984 -6.573227 3.3306274 -8.565956 1.3338623z" fill-rule="nonzero"></path><path stroke="#000000" stroke-width="2.0" stroke-linejoin="round" stroke-linecap="butt" d="m106.922104 579.16565l-15.211395 -15.2421875l0 0c-1.9927292 -1.9967651 -1.3884811 -5.831299 1.3496399 -8.564758c2.7381134 -2.7333984 6.5732193 -3.3305664 8.565956 -1.3338013l15.211388 15.242126l0 0c1.9927368 1.9967651 1.3884811 5.83136 -1.3496323 8.564758c-2.7381134 2.7333984 -6.573227 3.3306274 -8.565956 1.3338623z" fill-rule="nonzero"></path><path fill="#000000" fill-opacity="0.0" d="m113.93573 577.1575c-0.3114624 4.514038 -6.8495255 23.503967 -1.8687668 27.083984c4.980751 3.5800781 29.729652 -10.273376 31.753273 -5.6036377c2.0236206 4.6696777 -22.724846 25.683716 -19.611542 33.62201c3.1132965 7.9383545 31.90944 11.673218 38.291336 14.007874" fill-rule="nonzero"></path><path stroke="#000000" stroke-width="2.0" stroke-linejoin="round" stroke-linecap="butt" d="m113.93573 577.1575c-0.3114624 4.514038 -6.8495255 23.503967 -1.8687668 27.083984c4.980751 3.5800781 29.729652 -10.273376 31.753273 -5.6036377c2.0236206 4.6696777 -22.724846 25.683716 -19.611542 33.62201c3.1132965 7.9383545 31.90944 11.673218 38.291336 14.007874" fill-rule="nonzero"></path><path fill="#000000" fill-opacity="0.0" d="m2.8917937 268.84515l42.771656 0l0 42.015747l-42.771656 0z" fill-rule="nonzero"></path><path fill="#000000" d="m12.798044 295.01703l3.1875 -0.390625q0.15625 1.21875 0.8125 1.875q0.671875 0.640625 1.625 0.640625q1.015625 0 1.703125 -0.765625q0.703125 -0.78125 0.703125 -2.09375q0 -1.25 -0.671875 -1.96875q-0.65625 -0.734375 -1.625 -0.734375q-0.625 0 -1.5 0.25l0.359375 -2.6875q1.328125 0.046875 2.03125 -0.5625q0.703125 -0.625 0.703125 -1.640625q0 -0.875 -0.515625 -1.390625q-0.515625 -0.515625 -1.359375 -0.515625q-0.84375 0 -1.453125 0.59375q-0.59375 0.578125 -0.71875 1.703125l-3.03125 -0.515625q0.3125 -1.5625 0.953125 -2.484375q0.640625 -0.9375 1.78125 -1.46875q1.140625 -0.53125 2.5625 -0.53125q2.421875 0 3.890625 1.546875q1.203125 1.265625 1.203125 2.859375q0 2.265625 -2.46875 3.609375q1.46875 0.3125 2.34375 1.421875q0.890625 1.09375 0.890625 2.65625q0 2.265625 -1.65625 3.859375q-1.640625 1.59375 -4.109375 1.59375q-2.328125 0 -3.859375 -1.34375q-1.53125 -1.34375 -1.78125 -3.515625zm14.160156 4.5625l0 -3.296875l3.296875 0l0 3.296875l-3.296875 0z" fill-rule="nonzero"></path><path fill="#000000" fill-opacity="0.0" d="m4.7343135 425.42783l65.00787 0l0 45.51181l-65.00787 0z" fill-rule="nonzero"></path><path fill="#000000" d="m21.218689 456.1622l0 -3.453125l-7.031251 0l0 -2.890625l7.453126 -10.90625l2.765625 0l0 10.890625l2.125 0l0 2.90625l-2.125 0l0 3.453125l-3.1875 0zm0 -6.359375l0 -5.859375l-3.953125 5.859375l3.953125 0zm7.5820312 6.359375l0 -3.296875l3.296875 0l0 3.296875l-3.296875 0z" fill-rule="nonzero"></path><path fill="#ff0000" d="m226.0 184.15567l12.141739 0l0 47.40158l-12.141739 0z" fill-rule="nonzero"></path><path stroke="#000000" stroke-width="2.0" stroke-linejoin="round" stroke-linecap="butt" d="m226.0 184.15567l12.141739 0l0 47.40158l-12.141739 0z" fill-rule="nonzero"></path><path fill="#ff0000" d="m268.95013 184.15567l12.157471 0l0 48.03151l-12.157471 0z" fill-rule="nonzero"></path><path stroke="#000000" stroke-width="2.0" stroke-linejoin="round" stroke-linecap="butt" d="m268.95013 184.15567l12.157471 0l0 48.03151l-12.157471 0z" fill-rule="nonzero"></path><path fill="#ff9900" d="m353.01837 54.16798l12.157471 0l0 48.031498l-12.157471 0z" fill-rule="nonzero"></path><path stroke="#000000" stroke-width="2.0" stroke-linejoin="round" stroke-linecap="butt" d="m353.01837 54.16798l12.157471 0l0 48.031498l-12.157471 0z" fill-rule="nonzero"></path><path fill="#ff9900" d="m378.2047 55.212597l12.126007 0l0 47.401577l-12.126007 0z" fill-rule="nonzero"></path><path stroke="#000000" stroke-width="2.0" stroke-linejoin="round" stroke-linecap="butt" d="m378.2047 55.212597l12.126007 0l0 47.401577l-12.126007 0z" fill-rule="nonzero"></path><path fill="#3c78d8" d="m219.45407 207.79085l0 0c0 -31.519363 24.881683 -57.07086 55.5748 -57.07086l0 0c14.739349 0 28.87503 6.012802 39.297333 16.715668c10.422272 10.702866 16.277466 25.219055 16.277466 40.355194l0 0c0 31.519363 -24.881683 57.070877 -55.5748 57.070877l0 0c-30.693115 0 -55.5748 -25.551514 -55.5748 -57.070877z" fill-rule="nonzero"></path><path stroke="#000000" stroke-width="2.0" stroke-linejoin="round" stroke-linecap="butt" d="m219.45407 207.79085l0 0c0 -31.519363 24.881683 -57.07086 55.5748 -57.07086l0 0c14.739349 0 28.87503 6.012802 39.297333 16.715668c10.422272 10.702866 16.277466 25.219055 16.277466 40.355194l0 0c0 31.519363 -24.881683 57.070877 -55.5748 57.070877l0 0c-30.693115 0 -55.5748 -25.551514 -55.5748 -57.070877z" fill-rule="nonzero"></path><path fill="#ff0000" d="m340.40945 55.11286l12.157471 0l0 45.51181l-12.157471 0z" fill-rule="nonzero"></path><path stroke="#000000" stroke-width="2.0" stroke-linejoin="round" stroke-linecap="butt" d="m340.40945 55.11286l12.157471 0l0 45.51181l-12.157471 0z" fill-rule="nonzero"></path><path fill="#ff9900" d="m340.40945 86.62467l12.157471 0l0 15.874016l-12.157471 0z" fill-rule="nonzero"></path><path stroke="#000000" stroke-width="2.0" stroke-linejoin="round" stroke-linecap="butt" d="m340.40945 86.62467l12.157471 0l0 15.874016l-12.157471 0z" fill-rule="nonzero"></path><path fill="#ff0000" d="m378.2047 86.62467l12.126007 0l0 15.874016l-12.126007 0z" fill-rule="nonzero"></path><path stroke="#000000" stroke-width="2.0" stroke-linejoin="round" stroke-linecap="butt" d="m378.2047 86.62467l12.126007 0l0 15.874016l-12.126007 0z" fill-rule="nonzero"></path><path fill="#ff0000" d="m66.30708 365.1601l12.157486 0l0 31.02362l-12.157486 0z" fill-rule="nonzero"></path><path stroke="#000000" stroke-width="2.0" stroke-linejoin="round" stroke-linecap="butt" d="m66.30708 365.1601l12.157486 0l0 31.02362l-12.157486 0z" fill-rule="nonzero"></path><path fill="#ff0000" d="m65.78074 493.25323l21.354332 38.11023l-17.732285 9.921265l-21.354328 -38.11023z" fill-rule="nonzero"></path><path stroke="#000000" stroke-width="2.0" stroke-linejoin="round" stroke-linecap="butt" d="m65.78074 493.25323l21.354332 38.11023l-17.732285 9.921265l-21.354328 -38.11023z" fill-rule="nonzero"></path><path fill="#000000" fill-opacity="0.0" d="m546.33856 18.677166l159.71655 0l0 51.370083l-159.71655 0z" fill-rule="nonzero"></path><path fill="#000000" d="m556.6823 44.56779l0 -13.59375l4.109375 0l2.46875 9.265625l2.4375 -9.265625l4.125 0l0 13.59375l-2.546875 0l0 -10.703125l-2.703125 10.703125l-2.640625 0l-2.703125 -10.703125l0 10.703125l-2.546875 0zm21.259583 -3.140625l2.609375 0.4375q-0.5 1.4375 -1.59375 2.1875q-1.078125 0.734375 -2.703125 0.734375q-2.5625 0 -3.796875 -1.671875q-0.96875 -1.34375 -0.96875 -3.40625q0 -2.4375 1.265625 -3.828125q1.28125 -1.390625 3.25 -1.390625q2.1875 0 3.453125 1.453125q1.28125 1.453125 1.234375 4.453125l-6.53125 0q0.015625 1.15625 0.625 1.8125q0.609375 0.640625 1.5 0.640625q0.609375 0 1.03125 -0.328125q0.421875 -0.34375 0.625 -1.09375zm0.15625 -2.625q-0.03125 -1.140625 -0.59375 -1.71875q-0.546875 -0.59375 -1.34375 -0.59375q-0.859375 0 -1.40625 0.625q-0.5625 0.609375 -0.546875 1.6875l3.890625 0zm4.5163574 -5.421875l0 -2.40625l2.609375 0l0 2.40625l-2.609375 0zm0 11.1875l0 -9.859375l2.609375 0l0 9.859375l-2.609375 0zm4.5895386 -5.0625q0 -1.296875 0.640625 -2.515625q0.640625 -1.21875 1.8125 -1.859375q1.171875 -0.640625 2.609375 -0.640625q2.25 0 3.671875 1.453125q1.421875 1.453125 1.421875 3.671875q0 2.234375 -1.4375 3.703125q-1.4375 1.46875 -3.625 1.46875q-1.359375 0 -2.59375 -0.609375q-1.21875 -0.609375 -1.859375 -1.796875q-0.640625 -1.1875 -0.640625 -2.875zm2.671875 0.140625q0 1.46875 0.6875 2.25q0.703125 0.765625 1.71875 0.765625q1.015625 0 1.703125 -0.765625q0.703125 -0.78125 0.703125 -2.265625q0 -1.453125 -0.703125 -2.234375q-0.6875 -0.78125 -1.703125 -0.78125q-1.015625 0 -1.71875 0.78125q-0.6875 0.78125 -0.6875 2.25zm8.411621 2.109375l2.609375 -0.390625q0.171875 0.75 0.671875 1.15625q0.515625 0.390625 1.4375 0.390625q1.0 0 1.515625 -0.375q0.34375 -0.265625 0.34375 -0.703125q0 -0.296875 -0.1875 -0.484375q-0.1875 -0.1875 -0.875 -0.34375q-3.140625 -0.703125 -4.0 -1.265625q-1.15625 -0.796875 -1.15625 -2.21875q0 -1.28125 1.0 -2.15625q1.015625 -0.875 3.140625 -0.875q2.03125 0 3.0 0.65625q0.984375 0.65625 1.359375 1.953125l-2.453125 0.453125q-0.15625 -0.578125 -0.609375 -0.875q-0.4375 -0.3125 -1.25 -0.3125q-1.03125 0 -1.46875 0.296875q-0.296875 0.203125 -0.296875 0.515625q0 0.28125 0.25 0.484375q0.359375 0.25 2.4375 0.734375q2.078125 0.46875 2.90625 1.15625q0.828125 0.6875 0.828125 1.9375q0 1.359375 -1.140625 2.328125q-1.125 0.96875 -3.34375 0.96875q-2.015625 0 -3.1875 -0.8125q-1.171875 -0.8125 -1.53125 -2.21875zm11.281921 -8.375l0 -2.40625l2.609375 0l0 2.40625l-2.609375 0zm0 11.1875l0 -9.859375l2.609375 0l0 9.859375l-2.609375 0zm4.2770996 -2.8125l2.609375 -0.390625q0.171875 0.75 0.671875 1.15625q0.515625 0.390625 1.4375 0.390625q1.0 0 1.515625 -0.375q0.34375 -0.265625 0.34375 -0.703125q0 -0.296875 -0.1875 -0.484375q-0.1875 -0.1875 -0.875 -0.34375q-3.140625 -0.703125 -4.0 -1.265625q-1.15625 -0.796875 -1.15625 -2.21875q0 -1.28125 1.0 -2.15625q1.015625 -0.875 3.140625 -0.875q2.03125 0 3.0 0.65625q0.984375 0.65625 1.359375 1.953125l-2.453125 0.453125q-0.15625 -0.578125 -0.609375 -0.875q-0.4375 -0.3125 -1.25 -0.3125q-1.03125 0 -1.46875 0.296875q-0.296875 0.203125 -0.296875 0.515625q0 0.28125 0.25 0.484375q0.359375 0.25 2.4375 0.734375q2.078125 0.46875 2.90625 1.15625q0.828125 0.6875 0.828125 1.9375q0 1.359375 -1.140625 2.328125q-1.125 0.96875 -3.34375 0.96875q-2.015625 0 -3.1875 -0.8125q-1.171875 -0.8125 -1.53125 -2.21875zm16.402771 2.8125l0 -13.59375l2.75 0l0 13.59375l-2.75 0z" fill-rule="nonzero"></path><path fill="#000000" fill-opacity="0.0" d="m590.2336 210.13124l122.236206 0l0 45.51181l-122.236206 0z" fill-rule="nonzero"></path><path fill="#000000" d="m600.57733 236.02187l0 -13.59375l4.109375 0l2.46875 9.265625l2.4375 -9.265625l4.125 0l0 13.59375l-2.546875 0l0 -10.703125l-2.703125 10.703125l-2.640625 0l-2.703125 -10.703125l0 10.703125l-2.546875 0zm21.259583 -3.140625l2.609375 0.4375q-0.5 1.4375 -1.59375 2.1875q-1.078125 0.734375 -2.703125 0.734375q-2.5625 0 -3.796875 -1.671875q-0.96875 -1.34375 -0.96875 -3.40625q0 -2.4375 1.265625 -3.828125q1.28125 -1.390625 3.25 -1.390625q2.1875 0 3.453125 1.453125q1.28125 1.453125 1.234375 4.453125l-6.53125 0q0.015625 1.15625 0.625 1.8125q0.609375 0.640625 1.5 0.640625q0.609375 0 1.03125 -0.328125q0.421875 -0.34375 0.625 -1.09375zm0.15625 -2.625q-0.03125 -1.140625 -0.59375 -1.71875q-0.546875 -0.59375 -1.34375 -0.59375q-0.859375 0 -1.40625 0.625q-0.5625 0.609375 -0.546875 1.6875l3.890625 0zm4.5162964 -5.421875l0 -2.40625l2.609375 0l0 2.40625l-2.609375 0zm0 11.1875l0 -9.859375l2.609375 0l0 9.859375l-2.609375 0zm4.5895996 -5.0625q0 -1.296875 0.640625 -2.515625q0.640625 -1.21875 1.8125 -1.859375q1.171875 -0.640625 2.609375 -0.640625q2.25 0 3.671875 1.453125q1.421875 1.453125 1.421875 3.671875q0 2.234375 -1.4375 3.703125q-1.4375 1.46875 -3.625 1.46875q-1.359375 0 -2.59375 -0.609375q-1.21875 -0.609375 -1.859375 -1.796875q-0.640625 -1.1875 -0.640625 -2.875zm2.671875 0.140625q0 1.46875 0.6875 2.25q0.703125 0.765625 1.71875 0.765625q1.015625 0 1.703125 -0.765625q0.703125 -0.78125 0.703125 -2.265625q0 -1.453125 -0.703125 -2.234375q-0.6875 -0.78125 -1.703125 -0.78125q-1.015625 0 -1.71875 0.78125q-0.6875 0.78125 -0.6875 2.25zm8.41156 2.109375l2.609375 -0.390625q0.171875 0.75 0.671875 1.15625q0.515625 0.390625 1.4375 0.390625q1.0 0 1.515625 -0.375q0.34375 -0.265625 0.34375 -0.703125q0 -0.296875 -0.1875 -0.484375q-0.1875 -0.1875 -0.875 -0.34375q-3.140625 -0.703125 -4.0 -1.265625q-1.15625 -0.796875 -1.15625 -2.21875q0 -1.28125 1.0 -2.15625q1.015625 -0.875 3.140625 -0.875q2.03125 0 3.0 0.65625q0.984375 0.65625 1.359375 1.953125l-2.453125 0.453125q-0.15625 -0.578125 -0.609375 -0.875q-0.4375 -0.3125 -1.25 -0.3125q-1.03125 0 -1.46875 0.296875q-0.296875 0.203125 -0.296875 0.515625q0 0.28125 0.25 0.484375q0.359375 0.25 2.4375 0.734375q2.078125 0.46875 2.90625 1.15625q0.828125 0.6875 0.828125 1.9375q0 1.359375 -1.140625 2.328125q-1.125 0.96875 -3.34375 0.96875q-2.015625 0 -3.1875 -0.8125q-1.171875 -0.8125 -1.53125 -2.21875zm11.281982 -8.375l0 -2.40625l2.609375 0l0 2.40625l-2.609375 0zm0 11.1875l0 -9.859375l2.609375 0l0 9.859375l-2.609375 0zm4.2770386 -2.8125l2.609375 -0.390625q0.171875 0.75 0.671875 1.15625q0.515625 0.390625 1.4375 0.390625q1.0 0 1.515625 -0.375q0.34375 -0.265625 0.34375 -0.703125q0 -0.296875 -0.1875 -0.484375q-0.1875 -0.1875 -0.875 -0.34375q-3.140625 -0.703125 -4.0 -1.265625q-1.15625 -0.796875 -1.15625 -2.21875q0 -1.28125 1.0 -2.15625q1.015625 -0.875 3.140625 -0.875q2.03125 0 3.0 0.65625q0.984375 0.65625 1.359375 1.953125l-2.453125 0.453125q-0.15625 -0.578125 -0.609375 -0.875q-0.4375 -0.3125 -1.25 -0.3125q-1.03125 0 -1.46875 0.296875q-0.296875 0.203125 -0.296875 0.515625q0 0.28125 0.25 0.484375q0.359375 0.25 2.4375 0.734375q2.078125 0.46875 2.90625 1.15625q0.828125 0.6875 0.828125 1.9375q0 1.359375 -1.140625 2.328125q-1.125 0.96875 -3.34375 0.96875q-2.015625 0 -3.1875 -0.8125q-1.171875 -0.8125 -1.53125 -2.21875zm16.402771 2.8125l0 -13.59375l2.75 0l0 13.59375l-2.75 0zm5.1833496 0l0 -13.59375l2.75 0l0 13.59375l-2.75 0z" fill-rule="nonzero"></path><path fill="#000000" fill-opacity="0.0" d="m542.6693 409.99164l167.05511 0l0 69.102356l-167.05511 0z" fill-rule="nonzero"></path><path fill="#000000" d="m553.01306 435.88226l0 -13.59375l4.109375 0l2.46875 9.265625l2.4375 -9.265625l4.125 0l0 13.59375l-2.546875 0l0 -10.703125l-2.703125 10.703125l-2.640625 0l-2.703125 -10.703125l0 10.703125l-2.546875 0zm21.259521 -3.140625l2.609375 0.4375q-0.5 1.4375 -1.59375 2.1875q-1.078125 0.734375 -2.703125 0.734375q-2.5625 0 -3.796875 -1.671875q-0.96875 -1.34375 -0.96875 -3.40625q0 -2.4375 1.265625 -3.828125q1.28125 -1.390625 3.25 -1.390625q2.1875 0 3.453125 1.453125q1.28125 1.453125 1.234375 4.453125l-6.53125 0q0.015625 1.15625 0.625 1.8125q0.609375 0.640625 1.5 0.640625q0.609375 0 1.03125 -0.328125q0.421875 -0.34375 0.625 -1.09375zm0.15625 -2.625q-0.03125 -1.140625 -0.59375 -1.71875q-0.546875 -0.59375 -1.34375 -0.59375q-0.859375 0 -1.40625 0.625q-0.5625 0.609375 -0.546875 1.6875l3.890625 0zm9.031982 -4.09375l0 2.078125l-1.78125 0l0 3.984375q0 1.203125 0.046875 1.40625q0.0625 0.1875 0.234375 0.328125q0.1875 0.125 0.453125 0.125q0.359375 0 1.046875 -0.25l0.21875 2.015625q-0.90625 0.390625 -2.0625 0.390625q-0.703125 0 -1.265625 -0.234375q-0.5625 -0.234375 -0.828125 -0.609375q-0.265625 -0.375 -0.375 -1.015625q-0.078125 -0.453125 -0.078125 -1.84375l0 -4.296875l-1.203125 0l0 -2.078125l1.203125 0l0 -1.953125l2.609375 -1.515625l0 3.46875l1.78125 0zm3.6501465 3.015625l-2.359375 -0.4375q0.390625 -1.421875 1.359375 -2.109375q0.984375 -0.6875 2.90625 -0.6875q1.734375 0 2.59375 0.421875q0.859375 0.40625 1.203125 1.046875q0.34375 0.625 0.34375 2.328125l-0.03125 3.046875q0 1.296875 0.125 1.921875q0.125 0.609375 0.46875 1.3125l-2.578125 0q-0.09375 -0.265625 -0.25 -0.765625q-0.0625 -0.234375 -0.09375 -0.3125q-0.65625 0.65625 -1.421875 0.984375q-0.765625 0.3125 -1.625 0.3125q-1.515625 0 -2.40625 -0.8125q-0.875 -0.828125 -0.875 -2.09375q0 -0.84375 0.390625 -1.484375q0.40625 -0.65625 1.125 -1.0q0.71875 -0.359375 2.078125 -0.625q1.828125 -0.328125 2.53125 -0.625l0 -0.265625q0 -0.75 -0.375 -1.0625q-0.359375 -0.328125 -1.390625 -0.328125q-0.703125 0 -1.09375 0.28125q-0.390625 0.265625 -0.625 0.953125zm3.484375 2.109375q-0.5 0.171875 -1.59375 0.40625q-1.078125 0.234375 -1.40625 0.453125q-0.515625 0.359375 -0.515625 0.921875q0 0.546875 0.40625 0.953125q0.40625 0.390625 1.046875 0.390625q0.703125 0 1.34375 -0.46875q0.46875 -0.359375 0.625 -0.859375q0.09375 -0.34375 0.09375 -1.28125l0 -0.515625zm4.7507324 -5.125l2.40625 0l0 1.359375q1.28125 -1.578125 3.0625 -1.578125q0.953125 0 1.640625 0.390625q0.703125 0.390625 1.140625 1.1875q0.65625 -0.796875 1.40625 -1.1875q0.75 -0.390625 1.609375 -0.390625q1.078125 0 1.828125 0.453125q0.75 0.4375 1.125 1.28125q0.265625 0.640625 0.265625 2.046875l0 6.296875l-2.609375 0l0 -5.625q0 -1.46875 -0.265625 -1.90625q-0.359375 -0.546875 -1.109375 -0.546875q-0.546875 0 -1.03125 0.34375q-0.484375 0.328125 -0.703125 0.96875q-0.203125 0.640625 -0.203125 2.03125l0 4.734375l-2.609375 0l0 -5.40625q0 -1.4375 -0.140625 -1.84375q-0.140625 -0.421875 -0.4375 -0.625q-0.28125 -0.203125 -0.78125 -0.203125q-0.609375 0 -1.09375 0.328125q-0.484375 0.3125 -0.6875 0.9375q-0.203125 0.609375 -0.203125 2.03125l0 4.78125l-2.609375 0l0 -9.859375zm16.182129 4.796875q0 -1.296875 0.640625 -2.515625q0.640625 -1.21875 1.8125 -1.859375q1.171875 -0.640625 2.609375 -0.640625q2.25 0 3.671875 1.453125q1.421875 1.453125 1.421875 3.671875q0 2.234375 -1.4375 3.703125q-1.4375 1.46875 -3.625 1.46875q-1.359375 0 -2.59375 -0.609375q-1.21875 -0.609375 -1.859375 -1.796875q-0.640625 -1.1875 -0.640625 -2.875zm2.671875 0.140625q0 1.46875 0.6875 2.25q0.703125 0.765625 1.71875 0.765625q1.015625 0 1.703125 -0.765625q0.703125 -0.78125 0.703125 -2.265625q0 -1.453125 -0.703125 -2.234375q-0.6875 -0.78125 -1.703125 -0.78125q-1.015625 0 -1.71875 0.78125q-0.6875 0.78125 -0.6875 2.25zm11.817871 4.921875l-2.609375 0l0 -9.859375l2.421875 0l0 1.40625q0.625 -0.984375 1.109375 -1.296875q0.5 -0.328125 1.140625 -0.328125q0.890625 0 1.71875 0.5l-0.8125 2.265625q-0.65625 -0.421875 -1.21875 -0.421875q-0.546875 0 -0.9375 0.296875q-0.375 0.296875 -0.59375 1.09375q-0.21875 0.78125 -0.21875 3.296875l0 3.046875zm4.697754 -9.859375l2.421875 0l0 1.453125q0.46875 -0.734375 1.28125 -1.203125q0.8125 -0.46875 1.796875 -0.46875q1.703125 0 2.90625 1.34375q1.203125 1.34375 1.203125 3.75q0 2.46875 -1.21875 3.84375q-1.203125 1.359375 -2.921875 1.359375q-0.8125 0 -1.484375 -0.3125q-0.65625 -0.328125 -1.390625 -1.125l0 4.96875l-2.59375 0l0 -13.609375zm2.578125 4.765625q0 1.65625 0.65625 2.453125q0.65625 0.796875 1.59375 0.796875q0.921875 0 1.515625 -0.71875q0.609375 -0.734375 0.609375 -2.40625q0 -1.546875 -0.625 -2.296875q-0.625 -0.75 -1.53125 -0.75q-0.96875 0 -1.59375 0.734375q-0.625 0.734375 -0.625 2.1875zm11.489746 -8.5l0 5.0q1.25 -1.484375 3.015625 -1.484375q0.890625 0 1.609375 0.34375q0.734375 0.328125 1.09375 0.84375q0.375 0.515625 0.5 1.15625q0.140625 0.625 0.140625 1.953125l0 5.78125l-2.609375 0l0 -5.203125q0 -1.546875 -0.15625 -1.96875q-0.140625 -0.421875 -0.515625 -0.65625q-0.375 -0.25 -0.9375 -0.25q-0.65625 0 -1.171875 0.3125q-0.5 0.3125 -0.734375 0.953125q-0.234375 0.640625 -0.234375 1.875l0 4.9375l-2.609375 0l0 -13.59375l2.609375 0zm8.192871 8.53125q0 -1.296875 0.640625 -2.515625q0.640625 -1.21875 1.8125 -1.859375q1.171875 -0.640625 2.609375 -0.640625q2.25 0 3.671875 1.453125q1.421875 1.453125 1.421875 3.671875q0 2.234375 -1.4375 3.703125q-1.4375 1.46875 -3.625 1.46875q-1.359375 0 -2.59375 -0.609375q-1.21875 -0.609375 -1.859375 -1.796875q-0.640625 -1.1875 -0.640625 -2.875zm2.671875 0.140625q0 1.46875 0.6875 2.25q0.703125 0.765625 1.71875 0.765625q1.015625 0 1.703125 -0.765625q0.703125 -0.78125 0.703125 -2.265625q0 -1.453125 -0.703125 -2.234375q-0.6875 -0.78125 -1.703125 -0.78125q-1.015625 0 -1.71875 0.78125q-0.6875 0.78125 -0.6875 2.25zm8.411621 2.109375l2.609375 -0.390625q0.171875 0.75 0.671875 1.15625q0.515625 0.390625 1.4375 0.390625q1.0 0 1.515625 -0.375q0.34375 -0.265625 0.34375 -0.703125q0 -0.296875 -0.1875 -0.484375q-0.1875 -0.1875 -0.875 -0.34375q-3.140625 -0.703125 -4.0 -1.265625q-1.15625 -0.796875 -1.15625 -2.21875q0 -1.28125 1.0 -2.15625q1.015625 -0.875 3.140625 -0.875q2.03125 0 3.0 0.65625q0.984375 0.65625 1.359375 1.953125l-2.453125 0.453125q-0.15625 -0.578125 -0.609375 -0.875q-0.4375 -0.3125 -1.25 -0.3125q-1.03125 0 -1.46875 0.296875q-0.296875 0.203125 -0.296875 0.515625q0 0.28125 0.25 0.484375q0.359375 0.25 2.4375 0.734375q2.078125 0.46875 2.90625 1.15625q0.828125 0.6875 0.828125 1.9375q0 1.359375 -1.140625 2.328125q-1.125 0.96875 -3.34375 0.96875q-2.015625 0 -3.1875 -0.8125q-1.171875 -0.8125 -1.53125 -2.21875zm11.281921 -8.375l0 -2.40625l2.609375 0l0 2.40625l-2.609375 0zm0 11.1875l0 -9.859375l2.609375 0l0 9.859375l-2.609375 0zm4.2770996 -2.8125l2.609375 -0.390625q0.171875 0.75 0.671875 1.15625q0.515625 0.390625 1.4375 0.390625q1.0 0 1.515625 -0.375q0.34375 -0.265625 0.34375 -0.703125q0 -0.296875 -0.1875 -0.484375q-0.1875 -0.1875 -0.875 -0.34375q-3.140625 -0.703125 -4.0 -1.265625q-1.15625 -0.796875 -1.15625 -2.21875q0 -1.28125 1.0 -2.15625q1.015625 -0.875 3.140625 -0.875q2.03125 0 3.0 0.65625q0.984375 0.65625 1.359375 1.953125l-2.453125 0.453125q-0.15625 -0.578125 -0.609375 -0.875q-0.4375 -0.3125 -1.25 -0.3125q-1.03125 0 -1.46875 0.296875q-0.296875 0.203125 -0.296875 0.515625q0 0.28125 0.25 0.484375q0.359375 0.25 2.4375 0.734375q2.078125 0.46875 2.90625 1.15625q0.828125 0.6875 0.828125 1.9375q0 1.359375 -1.140625 2.328125q-1.125 0.96875 -3.34375 0.96875q-2.015625 0 -3.1875 -0.8125q-1.171875 -0.8125 -1.53125 -2.21875z" fill-rule="nonzero"></path><path fill="#000000" d="m554.9818 450.49164l-2.359375 -0.4375q0.390625 -1.421875 1.359375 -2.109375q0.984375 -0.6875 2.90625 -0.6875q1.734375 0 2.59375 0.421875q0.859375 0.40625 1.203125 1.046875q0.34375 0.625 0.34375 2.328125l-0.03125 3.046875q0 1.296875 0.125 1.921875q0.125 0.609375 0.46875 1.3125l-2.578125 0q-0.09375 -0.265625 -0.25 -0.765625q-0.0625 -0.234375 -0.09375 -0.3125q-0.65625 0.65625 -1.421875 0.984375q-0.765625 0.3125 -1.625 0.3125q-1.515625 0 -2.40625 -0.8125q-0.875 -0.828125 -0.875 -2.09375q0 -0.84375 0.390625 -1.484375q0.40625 -0.65625 1.125 -1.0q0.71875 -0.359375 2.078125 -0.625q1.828125 -0.328125 2.53125 -0.625l0 -0.265625q0 -0.75 -0.375 -1.0625q-0.359375 -0.328125 -1.390625 -0.328125q-0.703125 0 -1.09375 0.28125q-0.390625 0.265625 -0.625 0.953125zm3.484375 2.109375q-0.5 0.171875 -1.59375 0.40625q-1.078125 0.234375 -1.40625 0.453125q-0.515625 0.359375 -0.515625 0.921875q0 0.546875 0.40625 0.953125q0.40625 0.390625 1.046875 0.390625q0.703125 0 1.34375 -0.46875q0.46875 -0.359375 0.625 -0.859375q0.09375 -0.34375 0.09375 -1.28125l0 -0.515625zm13.906921 4.734375l-2.609375 0l0 -5.03125q0 -1.59375 -0.171875 -2.0625q-0.15625 -0.46875 -0.53125 -0.71875q-0.375 -0.265625 -0.90625 -0.265625q-0.6875 0 -1.234375 0.375q-0.53125 0.359375 -0.734375 0.984375q-0.1875 0.609375 -0.1875 2.25l0 4.46875l-2.609375 0l0 -9.859375l2.421875 0l0 1.453125q1.296875 -1.671875 3.25 -1.671875q0.859375 0 1.578125 0.3125q0.71875 0.3125 1.078125 0.796875q0.359375 0.484375 0.5 1.09375q0.15625 0.609375 0.15625 1.75l0 6.125zm11.474121 0l-2.421875 0l0 -1.453125q-0.609375 0.84375 -1.4375 1.265625q-0.8125 0.40625 -1.640625 0.40625q-1.703125 0 -2.921875 -1.359375q-1.203125 -1.375 -1.203125 -3.828125q0 -2.5 1.171875 -3.796875q1.1875 -1.3125 2.984375 -1.3125q1.65625 0 2.859375 1.375l0 -4.890625l2.609375 0l0 13.59375zm-6.96875 -5.140625q0 1.578125 0.4375 2.28125q0.640625 1.015625 1.765625 1.015625q0.90625 0 1.53125 -0.765625q0.625 -0.765625 0.625 -2.28125q0 -1.703125 -0.609375 -2.4375q-0.609375 -0.75 -1.5625 -0.75q-0.9375 0 -1.5625 0.734375q-0.625 0.734375 -0.625 2.203125zm14.31366 -4.71875l2.40625 0l0 1.359375q1.28125 -1.578125 3.0625 -1.578125q0.953125 0 1.640625 0.390625q0.703125 0.390625 1.140625 1.1875q0.65625 -0.796875 1.40625 -1.1875q0.75 -0.390625 1.609375 -0.390625q1.078125 0 1.828125 0.453125q0.75 0.4375 1.125 1.28125q0.265625 0.640625 0.265625 2.046875l0 6.296875l-2.609375 0l0 -5.625q0 -1.46875 -0.265625 -1.90625q-0.359375 -0.546875 -1.109375 -0.546875q-0.546875 0 -1.03125 0.34375q-0.484375 0.328125 -0.703125 0.96875q-0.203125 0.640625 -0.203125 2.03125l0 4.734375l-2.609375 0l0 -5.40625q0 -1.4375 -0.140625 -1.84375q-0.140625 -0.421875 -0.4375 -0.625q-0.28125 -0.203125 -0.78125 -0.203125q-0.609375 0 -1.09375 0.328125q-0.484375 0.3125 -0.6875 0.9375q-0.203125 0.609375 -0.203125 2.03125l0 4.78125l-2.609375 0l0 -9.859375zm18.729004 3.015625l-2.359375 -0.4375q0.390625 -1.421875 1.359375 -2.109375q0.984375 -0.6875 2.90625 -0.6875q1.734375 0 2.59375 0.421875q0.859375 0.40625 1.203125 1.046875q0.34375 0.625 0.34375 2.328125l-0.03125 3.046875q0 1.296875 0.125 1.921875q0.125 0.609375 0.46875 1.3125l-2.578125 0q-0.09375 -0.265625 -0.25 -0.765625q-0.0625 -0.234375 -0.09375 -0.3125q-0.65625 0.65625 -1.421875 0.984375q-0.765625 0.3125 -1.625 0.3125q-1.515625 0 -2.40625 -0.8125q-0.875 -0.828125 -0.875 -2.09375q0 -0.84375 0.390625 -1.484375q0.40625 -0.65625 1.125 -1.0q0.71875 -0.359375 2.078125 -0.625q1.828125 -0.328125 2.53125 -0.625l0 -0.265625q0 -0.75 -0.375 -1.0625q-0.359375 -0.328125 -1.390625 -0.328125q-0.703125 0 -1.09375 0.28125q-0.390625 0.265625 -0.625 0.953125zm3.484375 2.109375q-0.5 0.171875 -1.59375 0.40625q-1.078125 0.234375 -1.40625 0.453125q-0.515625 0.359375 -0.515625 0.921875q0 0.546875 0.40625 0.953125q0.40625 0.390625 1.046875 0.390625q0.703125 0 1.34375 -0.46875q0.46875 -0.359375 0.625 -0.859375q0.09375 -0.34375 0.09375 -1.28125l0 -0.515625zm9.453857 -5.125l0 2.078125l-1.78125 0l0 3.984375q0 1.203125 0.046875 1.40625q0.0625 0.1875 0.234375 0.328125q0.1875 0.125 0.453125 0.125q0.359375 0 1.046875 -0.25l0.21875 2.015625q-0.90625 0.390625 -2.0625 0.390625q-0.703125 0 -1.265625 -0.234375q-0.5625 -0.234375 -0.828125 -0.609375q-0.265625 -0.375 -0.375 -1.015625q-0.078125 -0.453125 -0.078125 -1.84375l0 -4.296875l-1.203125 0l0 -2.078125l1.203125 0l0 -1.953125l2.609375 -1.515625l0 3.46875l1.78125 0zm8.1814575 9.859375l0 -1.46875q-0.53125 0.78125 -1.40625 1.234375q-0.875 0.453125 -1.859375 0.453125q-0.984375 0 -1.78125 -0.4375q-0.78125 -0.4375 -1.140625 -1.21875q-0.34375 -0.796875 -0.34375 -2.1875l0 -6.234375l2.609375 0l0 4.53125q0 2.078125 0.140625 2.546875q0.140625 0.46875 0.515625 0.75q0.390625 0.265625 0.96875 0.265625q0.671875 0 1.203125 -0.359375q0.53125 -0.375 0.71875 -0.90625q0.1875 -0.546875 0.1875 -2.671875l0 -4.15625l2.609375 0l0 9.859375l-2.421875 0zm7.41156 0l-2.609375 0l0 -9.859375l2.421875 0l0 1.40625q0.625 -0.984375 1.109375 -1.296875q0.5 -0.328125 1.140625 -0.328125q0.890625 0 1.71875 0.5l-0.8125 2.265625q-0.65625 -0.421875 -1.21875 -0.421875q-0.546875 0 -0.9375 0.296875q-0.375 0.296875 -0.59375 1.09375q-0.21875 0.78125 -0.21875 3.296875l0 3.046875zm6.71344 -6.84375l-2.359375 -0.4375q0.390625 -1.421875 1.359375 -2.109375q0.984375 -0.6875 2.90625 -0.6875q1.734375 0 2.59375 0.421875q0.859375 0.40625 1.203125 1.046875q0.34375 0.625 0.34375 2.328125l-0.03125 3.046875q0 1.296875 0.125 1.921875q0.125 0.609375 0.46875 1.3125l-2.578125 0q-0.09375 -0.265625 -0.25 -0.765625q-0.0625 -0.234375 -0.09375 -0.3125q-0.65625 0.65625 -1.421875 0.984375q-0.765625 0.3125 -1.625 0.3125q-1.515625 0 -2.40625 -0.8125q-0.875 -0.828125 -0.875 -2.09375q0 -0.84375 0.390625 -1.484375q0.40625 -0.65625 1.125 -1.0q0.71875 -0.359375 2.078125 -0.625q1.828125 -0.328125 2.53125 -0.625l0 -0.265625q0 -0.75 -0.375 -1.0625q-0.359375 -0.328125 -1.390625 -0.328125q-0.703125 0 -1.09375 0.28125q-0.390625 0.265625 -0.625 0.953125zm3.484375 2.109375q-0.5 0.171875 -1.59375 0.40625q-1.078125 0.234375 -1.40625 0.453125q-0.515625 0.359375 -0.515625 0.921875q0 0.546875 0.40625 0.953125q0.40625 0.390625 1.046875 0.390625q0.703125 0 1.34375 -0.46875q0.46875 -0.359375 0.625 -0.859375q0.09375 -0.34375 0.09375 -1.28125l0 -0.515625zm9.453796 -5.125l0 2.078125l-1.78125 0l0 3.984375q0 1.203125 0.046875 1.40625q0.0625 0.1875 0.234375 0.328125q0.1875 0.125 0.453125 0.125q0.359375 0 1.046875 -0.25l0.21875 2.015625q-0.90625 0.390625 -2.0625 0.390625q-0.703125 0 -1.265625 -0.234375q-0.5625 -0.234375 -0.828125 -0.609375q-0.265625 -0.375 -0.375 -1.015625q-0.078125 -0.453125 -0.078125 -1.84375l0 -4.296875l-1.203125 0l0 -2.078125l1.203125 0l0 -1.953125l2.609375 -1.515625l0 3.46875l1.78125 0zm1.6970825 -1.328125l0 -2.40625l2.609375 0l0 2.40625l-2.609375 0zm0 11.1875l0 -9.859375l2.609375 0l0 9.859375l-2.609375 0zm4.5895386 -5.0625q0 -1.296875 0.640625 -2.515625q0.640625 -1.21875 1.8125 -1.859375q1.171875 -0.640625 2.609375 -0.640625q2.25 0 3.671875 1.453125q1.421875 1.453125 1.421875 3.671875q0 2.234375 -1.4375 3.703125q-1.4375 1.46875 -3.625 1.46875q-1.359375 0 -2.59375 -0.609375q-1.21875 -0.609375 -1.859375 -1.796875q-0.640625 -1.1875 -0.640625 -2.875zm2.671875 0.140625q0 1.46875 0.6875 2.25q0.703125 0.765625 1.71875 0.765625q1.015625 0 1.703125 -0.765625q0.703125 -0.78125 0.703125 -2.265625q0 -1.453125 -0.703125 -2.234375q-0.6875 -0.78125 -1.703125 -0.78125q-1.015625 0 -1.71875 0.78125q-0.6875 0.78125 -0.6875 2.25zm18.286621 4.921875l-2.609375 0l0 -5.03125q0 -1.59375 -0.171875 -2.0625q-0.15625 -0.46875 -0.53125 -0.71875q-0.375 -0.265625 -0.90625 -0.265625q-0.6875 0 -1.234375 0.375q-0.53125 0.359375 -0.734375 0.984375q-0.1875 0.609375 -0.1875 2.25l0 4.46875l-2.609375 0l0 -9.859375l2.421875 0l0 1.453125q1.296875 -1.671875 3.25 -1.671875q0.859375 0 1.578125 0.3125q0.71875 0.3125 1.078125 0.796875q0.359375 0.484375 0.5 1.09375q0.15625 0.609375 0.15625 1.75l0 6.125z" fill-rule="nonzero"></path><path fill="#3c78d8" d="m208.66899 377.88205l0 0c0 -17.533936 12.12709 -31.748016 27.086609 -31.748016q13.543304 0 27.086624 0q0 15.873993 0 31.748016l0 0c0 17.533966 -12.127106 31.748047 -27.086624 31.748047l0 0c-14.959518 0 -27.086609 -14.214081 -27.086609 -31.748047z" fill-rule="nonzero"></path><path stroke="#000000" stroke-width="2.0" stroke-linejoin="round" stroke-linecap="butt" d="m208.66899 377.88205l0 0c0 -17.533936 12.12709 -31.748016 27.086609 -31.748016q13.543304 0 27.086624 0q0 15.873993 0 31.748016l0 0c0 17.533966 -12.127106 31.748047 -27.086624 31.748047l0 0c-14.959518 0 -27.086609 -14.214081 -27.086609 -31.748047z" fill-rule="nonzero"></path><path fill="#000000" fill-opacity="0.0" d="m259.6617 349.45972c1.7121582 -5.292206 3.5800781 -27.55072 10.27298 -31.753265c6.6929016 -4.202545 24.748016 9.806641 29.884521 6.5380554c5.1364746 -3.2685852 0.778656 -21.791351 0.9343872 -26.149597" fill-rule="nonzero"></path><path stroke="#000000" stroke-width="2.0" stroke-linejoin="round" stroke-linecap="butt" d="m259.6617 349.45972c1.7121582 -5.292206 3.5800781 -27.55072 10.27298 -31.753265c6.6929016 -4.202545 24.748016 9.806641 29.884521 6.5380554c5.1364746 -3.2685852 0.778656 -21.791351 0.9343872 -26.149597" fill-rule="nonzero"></path><path fill="#ff0000" d="m227.90845 361.60147l12.157471 0l0 31.02362l-12.157471 0z" fill-rule="nonzero"></path><path stroke="#000000" stroke-width="2.0" stroke-linejoin="round" stroke-linecap="butt" d="m227.90845 361.60147l12.157471 0l0 31.02362l-12.157471 0z" fill-rule="nonzero"></path><path fill="#3c78d8" d="m357.44882 383.7247l0 0c0 -17.533966 12.127075 -31.748047 27.086609 -31.748047q13.543304 0 27.086609 0q0 15.874023 0 31.748047l0 0c0 17.533936 -12.127075 31.748016 -27.086609 31.748016l0 0c-14.959534 0 -27.086609 -14.214081 -27.086609 -31.748016z" fill-rule="nonzero"></path><path stroke="#000000" stroke-width="2.0" stroke-linejoin="round" stroke-linecap="butt" d="m357.44882 383.7247l0 0c0 -17.533966 12.127075 -31.748047 27.086609 -31.748047q13.543304 0 27.086609 0q0 15.874023 0 31.748047l0 0c0 17.533936 -12.127075 31.748016 -27.086609 31.748016l0 0c-14.959534 0 -27.086609 -14.214081 -27.086609 -31.748016z" fill-rule="nonzero"></path><path fill="#000000" fill-opacity="0.0" d="m411.62204 356.07114c1.7121582 -5.292206 3.5800476 -27.55075 10.27298 -31.753296c6.6929016 -4.2025146 24.748016 9.806671 29.884521 6.5380554c5.1364746 -3.2685852 0.7786255 -21.79132 0.9343567 -26.149597" fill-rule="nonzero"></path><path stroke="#000000" stroke-width="2.0" stroke-linejoin="round" stroke-linecap="butt" d="m411.62204 356.07114c1.7121582 -5.292206 3.5800476 -27.55075 10.27298 -31.753296c6.6929016 -4.2025146 24.748016 9.806671 29.884521 6.5380554c5.1364746 -3.2685852 0.7786255 -21.79132 0.9343567 -26.149597" fill-rule="nonzero"></path><path fill="#ff9900" d="m380.41217 368.2129l12.157471 0l0 31.02362l-12.157471 0z" fill-rule="nonzero"></path><path stroke="#000000" stroke-width="2.0" stroke-linejoin="round" stroke-linecap="butt" d="m380.41217 368.2129l12.157471 0l0 31.02362l-12.157471 0z" fill-rule="nonzero"></path><path fill="#3c78d8" d="m547.7001 381.64215l0 0c0 -17.533966 12.127136 -31.748047 27.086609 -31.748047q13.543335 0 27.086609 0q0 15.874023 0 31.748047l0 0c0 17.533936 -12.127075 31.748016 -27.086609 31.748016l0 0c-14.959473 0 -27.086609 -14.214081 -27.086609 -31.748016z" fill-rule="nonzero"></path><path stroke="#000000" stroke-width="2.0" stroke-linejoin="round" stroke-linecap="butt" d="m547.7001 381.64215l0 0c0 -17.533966 12.127136 -31.748047 27.086609 -31.748047q13.543335 0 27.086609 0q0 15.874023 0 31.748047l0 0c0 17.533936 -12.127075 31.748016 -27.086609 31.748016l0 0c-14.959473 0 -27.086609 -14.214081 -27.086609 -31.748016z" fill-rule="nonzero"></path><path fill="#000000" fill-opacity="0.0" d="m600.46124 354.8698c1.7121582 -5.292206 3.5800781 -27.55075 10.272949 -31.753296c6.692932 -4.2025146 24.748047 9.806671 29.884521 6.538086c5.1364746 -3.2686157 0.7786865 -21.791351 0.9343872 -26.149628" fill-rule="nonzero"></path><path stroke="#000000" stroke-width="2.0" stroke-linejoin="round" stroke-linecap="butt" d="m600.46124 354.8698c1.7121582 -5.292206 3.5800781 -27.55075 10.272949 -31.753296c6.692932 -4.2025146 24.748047 9.806671 29.884521 6.538086c5.1364746 -3.2686157 0.7786865 -21.791351 0.9343872 -26.149628" fill-rule="nonzero"></path><path fill="#ff9900" d="m568.70795 367.01154l12.157471 0l0 31.02362l-12.157471 0z" fill-rule="nonzero"></path><path stroke="#000000" stroke-width="2.0" stroke-linejoin="round" stroke-linecap="butt" d="m568.70795 367.01154l12.157471 0l0 31.02362l-12.157471 0z" fill-rule="nonzero"></path><path fill="#ff0000" d="m327.83203 77.86877l0 0c0 -2.191742 2.7144775 -3.9685059 6.0629883 -3.9685059l0 0c3.3484802 0 6.0629883 1.7767639 6.0629883 3.9685059l0 0c0 2.191742 -2.714508 3.9685059 -6.0629883 3.9685059l0 0c-3.3485107 0 -6.0629883 -1.7767639 -6.0629883 -3.9685059z" fill-rule="nonzero"></path><path stroke="#000000" stroke-width="2.0" stroke-linejoin="round" stroke-linecap="butt" d="m327.83203 77.86877l0 0c0 -2.191742 2.7144775 -3.9685059 6.0629883 -3.9685059l0 0c3.3484802 0 6.0629883 1.7767639 6.0629883 3.9685059l0 0c0 2.191742 -2.714508 3.9685059 -6.0629883 3.9685059l0 0c-3.3485107 0 -6.0629883 -1.7767639 -6.0629883 -3.9685059z" fill-rule="nonzero"></path><path fill="#ff0000" d="m315.1916 56.157482l12.157501 0l0 45.511806l-12.157501 0z" fill-rule="nonzero"></path><path stroke="#000000" stroke-width="2.0" stroke-linejoin="round" stroke-linecap="butt" d="m315.1916 56.157482l12.157501 0l0 45.511806l-12.157501 0z" fill-rule="nonzero"></path><path fill="#ff9900" d="m365.6273 78.91338l0 0c0 -2.191742 2.714508 -3.9684982 6.0629883 -3.9684982l0 0c3.3485107 0 6.063019 1.7767563 6.063019 3.9684982l0 0c0 2.1917496 -2.714508 3.9685059 -6.063019 3.9685059l0 0c-3.3484802 0 -6.0629883 -1.7767563 -6.0629883 -3.9685059z" fill-rule="nonzero"></path><path stroke="#000000" stroke-width="2.0" stroke-linejoin="round" stroke-linecap="butt" d="m365.6273 78.91338l0 0c0 -2.191742 2.714508 -3.9684982 6.0629883 -3.9684982l0 0c3.3485107 0 6.063019 1.7767563 6.063019 3.9684982l0 0c0 2.1917496 -2.714508 3.9685059 -6.063019 3.9685059l0 0c-3.3484802 0 -6.0629883 -1.7767563 -6.0629883 -3.9685059z" fill-rule="nonzero"></path><path fill="#ff0000" d="m253.56955 181.40683l12.157471 0l0 45.51181l-12.157471 0z" fill-rule="nonzero"></path><path stroke="#000000" stroke-width="2.0" stroke-linejoin="round" stroke-linecap="butt" d="m253.56955 181.40683l12.157471 0l0 45.51181l-12.157471 0z" fill-rule="nonzero"></path><path fill="#ff0000" d="m265.72702 204.16273l0 0c0 -2.191742 2.714508 -3.9685059 6.063019 -3.9685059l0 0c3.3484802 0 6.0629883 1.7767639 6.0629883 3.9685059l0 0c0 2.191742 -2.714508 3.9685059 -6.0629883 3.9685059l0 0c-3.3485107 0 -6.063019 -1.7767639 -6.063019 -3.9685059z" fill-rule="nonzero"></path><path stroke="#000000" stroke-width="2.0" stroke-linejoin="round" stroke-linecap="butt" d="m265.72702 204.16273l0 0c0 -2.191742 2.714508 -3.9685059 6.063019 -3.9685059l0 0c3.3484802 0 6.0629883 1.7767639 6.0629883 3.9685059l0 0c0 2.191742 -2.714508 3.9685059 -6.0629883 3.9685059l0 0c-3.3485107 0 -6.063019 -1.7767639 -6.063019 -3.9685059z" fill-rule="nonzero"></path><path fill="#ff0000" d="m278.21158 182.11285l12.157471 0l0 45.511826l-12.157471 0z" fill-rule="nonzero"></path><path stroke="#000000" stroke-width="2.0" stroke-linejoin="round" stroke-linecap="butt" d="m278.21158 182.11285l12.157471 0l0 45.511826l-12.157471 0z" fill-rule="nonzero"></path><path fill="#ff9900" d="m278.21158 211.75935l12.157471 0l0 15.874008l-12.157471 0z" fill-rule="nonzero"></path><path stroke="#000000" stroke-width="2.0" stroke-linejoin="round" stroke-linecap="butt" d="m278.21158 211.75935l12.157471 0l0 15.874008l-12.157471 0z" fill-rule="nonzero"></path><path fill="#ff9900" d="m417.07632 184.09006l12.157471 0l0 47.40158l-12.157471 0z" fill-rule="nonzero"></path><path stroke="#000000" stroke-width="2.0" stroke-linejoin="round" stroke-linecap="butt" d="m417.07632 184.09006l12.157471 0l0 47.40158l-12.157471 0z" fill-rule="nonzero"></path><path fill="#ff9900" d="m429.6076 207.79085l0 0c0 -2.191742 2.714508 -3.9685059 6.0629883 -3.9685059l0 0c3.3485107 0 6.0629883 1.7767639 6.0629883 3.9685059l0 0c0 2.191742 -2.7144775 3.9685059 -6.0629883 3.9685059l0 0c-3.3484802 0 -6.0629883 -1.7767639 -6.0629883 -3.9685059z" fill-rule="nonzero"></path><path stroke="#000000" stroke-width="2.0" stroke-linejoin="round" stroke-linecap="butt" d="m429.6076 207.79085l0 0c0 -2.191742 2.714508 -3.9685059 6.0629883 -3.9685059l0 0c3.3485107 0 6.0629883 1.7767639 6.0629883 3.9685059l0 0c0 2.191742 -2.7144775 3.9685059 -6.0629883 3.9685059l0 0c-3.3484802 0 -6.0629883 -1.7767639 -6.0629883 -3.9685059z" fill-rule="nonzero"></path><path fill="#ff9900" d="m442.1074 184.09006l12.126007 0l0 47.40158l-12.126007 0z" fill-rule="nonzero"></path><path stroke="#000000" stroke-width="2.0" stroke-linejoin="round" stroke-linecap="butt" d="m442.1074 184.09006l12.126007 0l0 47.40158l-12.126007 0z" fill-rule="nonzero"></path><path fill="#ff0000" d="m442.1074 216.31316l12.126007 0l0 15.874023l-12.126007 0z" fill-rule="nonzero"></path><path stroke="#000000" stroke-width="2.0" stroke-linejoin="round" stroke-linecap="butt" d="m442.1074 216.31316l12.126007 0l0 15.874023l-12.126007 0z" fill-rule="nonzero"></path><path fill="#000000" fill-opacity="0.0" d="m5.6036744 121.17585l52.377953 0l0 33.102364l-52.377953 0z" fill-rule="nonzero"></path><path fill="#000000" d="m26.744299 148.84773l0 3.0625l-11.546874 0q0.1875 -1.734375 1.124999 -3.28125q0.9375 -1.5625 3.703125 -4.125q2.234375 -2.078125 2.734375 -2.8125q0.6875 -1.015625 0.6875 -2.015625q0 -1.109375 -0.59375 -1.6875q-0.59375 -0.59375 -1.640625 -0.59375q-1.03125 0 -1.640625 0.625q-0.609375 0.609375 -0.703125 2.046875l-3.281249 -0.328125q0.296875 -2.71875 1.843749 -3.890625q1.546875 -1.1875 3.859375 -1.1875q2.546875 0 4.0 1.375q1.453125 1.359375 1.453125 3.40625q0 1.15625 -0.421875 2.203125q-0.40625 1.046875 -1.3125 2.203125q-0.59375 0.765625 -2.15625 2.203125q-1.5625 1.421875 -1.984375 1.890625q-0.40625 0.46875 -0.65625 0.90625l6.53125 0zm2.9257812 3.0625l0 -3.296875l3.296877 0l0 3.296875l-3.296877 0z" fill-rule="nonzero"></path><path fill="#ff9900" d="m227.90845 376.75107l12.157471 0l0 15.874023l-12.157471 0z" fill-rule="nonzero"></path><path stroke="#000000" stroke-width="2.0" stroke-linejoin="round" stroke-linecap="butt" d="m227.90845 376.75107l12.157471 0l0 15.874023l-12.157471 0z" fill-rule="nonzero"></path><path fill="#ff0000" d="m380.41217 383.3625l12.157471 0l0 15.874023l-12.157471 0z" fill-rule="nonzero"></path><path stroke="#000000" stroke-width="2.0" stroke-linejoin="round" stroke-linecap="butt" d="m380.41217 383.3625l12.157471 0l0 15.874023l-12.157471 0z" fill-rule="nonzero"></path><path fill="#980000" d="m32.446087 522.245l0 0c-12.506859 -24.039612 -10.102592 -50.03528 5.370079 -58.06299c15.4726715 -8.02771 38.15456 4.9525146 50.66142 28.992126l0 0c-13.741516 -10.269257 -28.315884 -12.947266 -39.338585 -7.228363c-11.022701 5.718933 -17.207182 19.167267 -16.692913 36.299225z" fill-rule="nonzero"></path><path stroke="#000000" stroke-width="2.0" stroke-linejoin="round" stroke-linecap="butt" d="m32.446087 522.245l0 0c-12.506859 -24.039612 -10.102592 -50.03528 5.370079 -58.06299c15.4726715 -8.02771 38.15456 4.9525146 50.66142 28.992126l0 0c-13.741516 -10.269257 -28.315884 -12.947266 -39.338585 -7.228363c-11.022701 5.718933 -17.207182 19.167267 -16.692913 36.299225z" fill-rule="nonzero"></path><path fill="#3c78d8" d="m251.65001 570.7765l-34.195786 4.345276l-30.536896 -48.928528c-4.216263 -6.755615 4.2577972 -19.654083 18.927353 -28.80954c14.669556 -9.155426 29.979523 -11.100861 34.195786 -4.3452454l30.536896 48.928528z" fill-rule="nonzero"></path><path stroke="#000000" stroke-width="2.0" stroke-linejoin="round" stroke-linecap="butt" d="m251.65001 570.7765l-34.195786 4.345276l-30.536896 -48.928528c-4.216263 -6.755615 4.2577972 -19.654083 18.927353 -28.80954c14.669556 -9.155426 29.979523 -11.100861 34.195786 -4.3452454l30.536896 48.928528z" fill-rule="nonzero"></path><path fill="#00ff00" d="m264.68784 589.60974l-15.211395 -15.2421875l0 0c-1.9927368 -1.9967651 -1.3884888 -5.831299 1.3496246 -8.564697c2.7381287 -2.7334595 6.573227 -3.3306274 8.565964 -1.3338623l15.211395 15.242126l0 0c1.9927368 1.9967651 1.3884888 5.83136 -1.3496399 8.564758c-2.7380981 2.7334595 -6.5732117 3.3306274 -8.5659485 1.3338623z" fill-rule="nonzero"></path><path stroke="#000000" stroke-width="2.0" stroke-linejoin="round" stroke-linecap="butt" d="m264.68784 589.60974l-15.211395 -15.2421875l0 0c-1.9927368 -1.9967651 -1.3884888 -5.831299 1.3496246 -8.564697c2.7381287 -2.7334595 6.573227 -3.3306274 8.565964 -1.3338623l15.211395 15.242126l0 0c1.9927368 1.9967651 1.3884888 5.83136 -1.3496399 8.564758c-2.7380981 2.7334595 -6.5732117 3.3306274 -8.5659485 1.3338623z" fill-rule="nonzero"></path><path fill="#000000" fill-opacity="0.0" d="m271.70145 587.60156c-0.3114624 4.514038 -6.849518 23.503967 -1.8687744 27.083984c4.9807434 3.5800781 29.729675 -10.273376 31.753296 -5.6036377c2.0236206 4.669739 -22.724854 25.683716 -19.611572 33.62201c3.1133118 7.9383545 31.909454 11.673279 38.29135 14.007874" fill-rule="nonzero"></path><path stroke="#000000" stroke-width="2.0" stroke-linejoin="round" stroke-linecap="butt" d="m271.70145 587.60156c-0.3114624 4.514038 -6.849518 23.503967 -1.8687744 27.083984c4.9807434 3.5800781 29.729675 -10.273376 31.753296 -5.6036377c2.0236206 4.669739 -22.724854 25.683716 -19.611572 33.62201c3.1133118 7.9383545 31.909454 11.673279 38.29135 14.007874" fill-rule="nonzero"></path><path fill="#ff0000" d="m223.54646 503.69736l21.35434 38.1102l-17.732285 9.921265l-21.35434 -38.11023z" fill-rule="nonzero"></path><path stroke="#000000" stroke-width="2.0" stroke-linejoin="round" stroke-linecap="butt" d="m223.54646 503.69736l21.35434 38.1102l-17.732285 9.921265l-21.35434 -38.11023z" fill-rule="nonzero"></path><path fill="#980000" d="m190.21179 532.68915l0 0c-12.506851 -24.039612 -10.102585 -50.03531 5.3700867 -58.06299c15.4726715 -8.02771 38.154556 4.9525146 50.661423 28.992126l0 0c-13.741516 -10.269287 -28.315887 -12.947266 -39.338593 -7.228363c-11.022705 5.718933 -17.207184 19.167267 -16.692917 36.299225z" fill-rule="nonzero"></path><path stroke="#000000" stroke-width="2.0" stroke-linejoin="round" stroke-linecap="butt" d="m190.21179 532.68915l0 0c-12.506851 -24.039612 -10.102585 -50.03531 5.3700867 -58.06299c15.4726715 -8.02771 38.154556 4.9525146 50.661423 28.992126l0 0c-13.741516 -10.269287 -28.315887 -12.947266 -39.338593 -7.228363c-11.022705 5.718933 -17.207184 19.167267 -16.692917 36.299225z" fill-rule="nonzero"></path><path fill="#3c78d8" d="m405.03275 578.9705l-34.1958 4.345276l-30.536865 -48.928528c-4.216278 -6.755615 4.257782 -19.654114 18.927338 -28.80954c14.669556 -9.155426 29.979523 -11.100891 34.19577 -4.345276l30.536896 48.928497z" fill-rule="nonzero"></path><path stroke="#000000" stroke-width="2.0" stroke-linejoin="round" stroke-linecap="butt" d="m405.03275 578.9705l-34.1958 4.345276l-30.536865 -48.928528c-4.216278 -6.755615 4.257782 -19.654114 18.927338 -28.80954c14.669556 -9.155426 29.979523 -11.100891 34.19577 -4.345276l30.536896 48.928497z" fill-rule="nonzero"></path><path fill="#00ff00" d="m418.07053 597.8038l-15.211395 -15.2421875l0 0c-1.9927368 -1.9967651 -1.3884888 -5.831299 1.3496399 -8.564758c2.7380981 -2.7333984 6.5732117 -3.3305664 8.5659485 -1.3338013l15.211395 15.242126l0 0c1.9927368 1.9967651 1.3884888 5.83136 -1.3496399 8.564758c-2.7380981 2.7333984 -6.5732117 3.3306274 -8.5659485 1.3338623z" fill-rule="nonzero"></path><path stroke="#000000" stroke-width="2.0" stroke-linejoin="round" stroke-linecap="butt" d="m418.07053 597.8038l-15.211395 -15.2421875l0 0c-1.9927368 -1.9967651 -1.3884888 -5.831299 1.3496399 -8.564758c2.7380981 -2.7333984 6.5732117 -3.3305664 8.5659485 -1.3338013l15.211395 15.242126l0 0c1.9927368 1.9967651 1.3884888 5.83136 -1.3496399 8.564758c-2.7380981 2.7333984 -6.5732117 3.3306274 -8.5659485 1.3338623z" fill-rule="nonzero"></path><path fill="#000000" fill-opacity="0.0" d="m425.08417 595.7956c-0.3114624 4.514038 -6.849518 23.503967 -1.8687744 27.083984c4.9807434 3.5800781 29.729645 -10.273376 31.753265 -5.6036377c2.0236206 4.6696777 -22.724823 25.683716 -19.611542 33.62201c3.1133118 7.9383545 31.909454 11.673218 38.29135 14.007874" fill-rule="nonzero"></path><path stroke="#000000" stroke-width="2.0" stroke-linejoin="round" stroke-linecap="butt" d="m425.08417 595.7956c-0.3114624 4.514038 -6.849518 23.503967 -1.8687744 27.083984c4.9807434 3.5800781 29.729645 -10.273376 31.753265 -5.6036377c2.0236206 4.6696777 -22.724823 25.683716 -19.611542 33.62201c3.1133118 7.9383545 31.909454 11.673218 38.29135 14.007874" fill-rule="nonzero"></path><path fill="#ff0000" d="m376.92917 511.89136l21.35434 38.11023l-17.7323 9.921265l-21.35431 -38.11023z" fill-rule="nonzero"></path><path stroke="#000000" stroke-width="2.0" stroke-linejoin="round" stroke-linecap="butt" d="m376.92917 511.89136l21.35434 38.11023l-17.7323 9.921265l-21.35431 -38.11023z" fill-rule="nonzero"></path><path fill="#980000" d="m343.59454 540.8831l0 0c-12.506866 -24.039612 -10.1026 -50.03528 5.370056 -58.06299c15.472687 -8.02771 38.15457 4.9525146 50.661438 28.992126l0 0c-13.741516 -10.269257 -28.315887 -12.947266 -39.338593 -7.228363c-11.022705 5.718933 -17.207184 19.167267 -16.692902 36.299225z" fill-rule="nonzero"></path><path stroke="#000000" stroke-width="2.0" stroke-linejoin="round" stroke-linecap="butt" d="m343.59454 540.8831l0 0c-12.506866 -24.039612 -10.1026 -50.03528 5.370056 -58.06299c15.472687 -8.02771 38.15457 4.9525146 50.661438 28.992126l0 0c-13.741516 -10.269257 -28.315887 -12.947266 -39.338593 -7.228363c-11.022705 5.718933 -17.207184 19.167267 -16.692902 36.299225z" fill-rule="nonzero"></path><path fill="#3c78d8" d="m558.41547 580.4338l-34.1958 4.345276l-30.536896 -48.928528c-4.2162476 -6.755615 4.2578125 -19.654053 18.927338 -28.80951c14.669556 -9.155426 29.979553 -11.100891 34.1958 -4.3452454l30.536865 48.928497z" fill-rule="nonzero"></path><path stroke="#000000" stroke-width="2.0" stroke-linejoin="round" stroke-linecap="butt" d="m558.41547 580.4338l-34.1958 4.345276l-30.536896 -48.928528c-4.2162476 -6.755615 4.2578125 -19.654053 18.927338 -28.80951c14.669556 -9.155426 29.979553 -11.100891 34.1958 -4.3452454l30.536865 48.928497z" fill-rule="nonzero"></path><path fill="#00ff00" d="m571.45325 601.71155l-15.211365 -15.242126l0 0c-1.9927368 -1.9967651 -1.3884888 -5.83136 1.3496094 -8.564758c2.7381592 -2.7333984 6.573242 -3.3306274 8.565979 -1.3338623l15.211365 15.2421875l0 0c1.9927368 1.9967651 1.3884888 5.831299 -1.3496094 8.564758c-2.7380981 2.7333984 -6.573242 3.3305664 -8.565979 1.3338013z" fill-rule="nonzero"></path><path stroke="#000000" stroke-width="2.0" stroke-linejoin="round" stroke-linecap="butt" d="m571.45325 601.71155l-15.211365 -15.242126l0 0c-1.9927368 -1.9967651 -1.3884888 -5.83136 1.3496094 -8.564758c2.7381592 -2.7333984 6.573242 -3.3306274 8.565979 -1.3338623l15.211365 15.2421875l0 0c1.9927368 1.9967651 1.3884888 5.831299 -1.3496094 8.564758c-2.7380981 2.7333984 -6.573242 3.3305664 -8.565979 1.3338013z" fill-rule="nonzero"></path><path fill="#000000" fill-opacity="0.0" d="m581.92566 596.0004c-0.31140137 4.514038 -6.8494873 23.503967 -1.8687134 27.083984c4.980713 3.5800781 29.729614 -10.273376 31.753235 -5.6036377c2.0236206 4.669739 -22.724854 25.683716 -19.611511 33.62201c3.1132812 7.9383545 31.909424 11.673279 38.29132 14.007935" fill-rule="nonzero"></path><path stroke="#000000" stroke-width="2.0" stroke-linejoin="round" stroke-linecap="butt" d="m581.92566 596.0004c-0.31140137 4.514038 -6.8494873 23.503967 -1.8687134 27.083984c4.980713 3.5800781 29.729614 -10.273376 31.753235 -5.6036377c2.0236206 4.669739 -22.724854 25.683716 -19.611511 33.62201c3.1132812 7.9383545 31.909424 11.673279 38.29132 14.007935" fill-rule="nonzero"></path><path fill="#ff0000" d="m533.7707 517.94324l21.35437 38.11023l-17.7323 9.921265l-21.35431 -38.11023z" fill-rule="nonzero"></path><path stroke="#000000" stroke-width="2.0" stroke-linejoin="round" stroke-linecap="butt" d="m533.7707 517.94324l21.35437 38.11023l-17.7323 9.921265l-21.35431 -38.11023z" fill-rule="nonzero"></path><path fill="#980000" d="m496.97723 540.8831l0 0c-12.506866 -24.039612 -10.1026 -50.03528 5.3700867 -58.06299c15.472687 -8.02771 38.15457 4.9525146 50.661407 28.992126l0 0c-13.741516 -10.269257 -28.315857 -12.947266 -39.338562 -7.228363c-11.022705 5.718933 -17.207184 19.167267 -16.692932 36.299225z" fill-rule="nonzero"></path><path stroke="#000000" stroke-width="2.0" stroke-linejoin="round" stroke-linecap="butt" d="m496.97723 540.8831l0 0c-12.506866 -24.039612 -10.1026 -50.03528 5.3700867 -58.06299c15.472687 -8.02771 38.15457 4.9525146 50.661407 28.992126l0 0c-13.741516 -10.269257 -28.315857 -12.947266 -39.338562 -7.228363c-11.022705 5.718933 -17.207184 19.167267 -16.692932 36.299225z" fill-rule="nonzero"></path></g></svg>

